<?xml version="1.0" encoding="UTF-8" standalone="no"?>
<!-- Created with Inkscape (http://www.inkscape.org/) -->

<svg
   xmlns:dc="http://purl.org/dc/elements/1.1/"
   xmlns:cc="http://creativecommons.org/ns#"
   xmlns:rdf="http://www.w3.org/1999/02/22-rdf-syntax-ns#"
   xmlns:svg="http://www.w3.org/2000/svg"
   xmlns="http://www.w3.org/2000/svg"
   xmlns:xlink="http://www.w3.org/1999/xlink"
   xmlns:sodipodi="http://sodipodi.sourceforge.net/DTD/sodipodi-0.dtd"
   xmlns:inkscape="http://www.inkscape.org/namespaces/inkscape"
   width="100mm"
   height="100mm"
   viewBox="0 0 100 100"
   version="1.1"
   id="svg8"
   inkscape:version="0.92.3 (2405546, 2018-03-11)"
   sodipodi:docname="logo_color.svg"
   inkscape:export-filename="/home/joshua/Projects/EarthStrike/logo/logo_v2_sticker_1200x1200.png"
   inkscape:export-xdpi="303.83173"
   inkscape:export-ydpi="303.83173">
  <defs
     id="defs2">
    <radialGradient
       gradientTransform="matrix(1,0,0,0.863204,0,16.87579)"
       gradientUnits="userSpaceOnUse"
       xlink:href="#linearGradient15386"
       id="radialGradient1982"
       fy="123.36477"
       fx="373.08163"
       r="184.27052"
       cy="123.36477"
       cx="373.08163" />
    <radialGradient
       gradientTransform="matrix(1,0,0,0.863204,0,16.87579)"
       gradientUnits="userSpaceOnUse"
       xlink:href="#linearGradient15386"
       id="radialGradient15392"
       fy="123.36477"
       fx="373.08163"
       r="184.27052"
       cy="123.36477"
       cx="373.08163" />
    <linearGradient
       id="linearGradient15386">
      <stop
         id="stop15388"
         offset="0"
         style="stop-color:#35a5ec;stop-opacity:1" />
      <stop
         id="stop15390"
         offset="1"
         style="stop-color:#2681da;stop-opacity:1" />
    </linearGradient>
    <radialGradient
       gradientTransform="matrix(1,0,0,1.014494,-13.81818,-5.80099)"
       gradientUnits="userSpaceOnUse"
       xlink:href="#linearGradient18934"
       id="radialGradient18940"
       fy="175.1584"
       fx="318.60364"
       r="164.73401"
       cy="175.1584"
       cx="318.60364" />
    <linearGradient
       id="linearGradient18934">
      <stop
         id="stop18936"
         offset="0"
         style="stop-color:#eeeeee;stop-opacity:1" />
      <stop
         id="stop18938"
         offset="1"
         style="stop-color:#d5e1fd;stop-opacity:1" />
    </linearGradient>
    <linearGradient
       gradientTransform="matrix(0,-1,1,0,129.5808,486.4738)"
       gradientUnits="userSpaceOnUse"
       xlink:href="#linearGradient5571"
       id="linearGradient5577"
       y2="173.16895"
       x2="410.07242"
       y1="173.16895"
       x1="223.06319" />
    <linearGradient
       id="linearGradient5571">
      <stop
         id="stop5573"
         offset="0"
         style="stop-color:#4b9fdb;stop-opacity:1" />
      <stop
         id="stop5579"
         offset="0.5"
         style="stop-color:#7ec9fd;stop-opacity:1" />
      <stop
         id="stop5575"
         offset="1"
         style="stop-color:#4b9fdb;stop-opacity:1" />
    </linearGradient>
    <linearGradient
       gradientTransform="matrix(0,-1,1,0,127.3584,487.9698)"
       gradientUnits="userSpaceOnUse"
       xlink:href="#linearGradient8262"
       id="linearGradient7375"
       y2="175.02803"
       x2="393.35095"
       y1="175.02803"
       x1="239.05807" />
    <linearGradient
       id="linearGradient8262">
      <stop
         id="stop8264"
         offset="0"
         style="stop-color:#7dc1f3;stop-opacity:1" />
      <stop
         id="stop8268"
         offset="0.5"
         style="stop-color:#aaddff;stop-opacity:1" />
      <stop
         id="stop8266"
         offset="1"
         style="stop-color:#7dc1f3;stop-opacity:1" />
    </linearGradient>
    <linearGradient
       gradientTransform="matrix(0,-1,1,0,128.1595,487.3718)"
       gradientUnits="userSpaceOnUse"
       xlink:href="#linearGradient9171"
       id="linearGradient9177"
       y2="174.32866"
       x2="374.4324"
       y1="174.32866"
       x1="258.18005" />
    <linearGradient
       id="linearGradient9171">
      <stop
         id="stop9173"
         offset="0"
         style="stop-color:#b0ddff;stop-opacity:1" />
      <stop
         id="stop9179"
         offset="0.5"
         style="stop-color:#cae8ff;stop-opacity:1" />
      <stop
         id="stop9175"
         offset="1"
         style="stop-color:#b0ddff;stop-opacity:1" />
    </linearGradient>
    <radialGradient
       gradientTransform="matrix(1,0,0,1.014494,-13.81818,-5.80099)"
       gradientUnits="userSpaceOnUse"
       xlink:href="#linearGradient18934"
       id="radialGradient7473"
       fy="175.1584"
       fx="318.60364"
       r="164.73401"
       cy="175.1584"
       cx="318.60364" />
    <radialGradient
       gradientTransform="matrix(1,0,0,0.863204,0,16.87579)"
       gradientUnits="userSpaceOnUse"
       xlink:href="#linearGradient15386"
       id="radialGradient7475"
       fy="123.36477"
       fx="373.08163"
       r="184.27052"
       cy="123.36477"
       cx="373.08163" />
    <radialGradient
       gradientTransform="matrix(1,0,0,0.863204,0,16.87579)"
       gradientUnits="userSpaceOnUse"
       xlink:href="#linearGradient15386"
       id="radialGradient7477"
       fy="123.36477"
       fx="373.08163"
       r="184.27052"
       cy="123.36477"
       cx="373.08163" />
    <radialGradient
       gradientTransform="matrix(1,0,0,0.863204,0,16.87579)"
       gradientUnits="userSpaceOnUse"
       xlink:href="#linearGradient15386"
       id="radialGradient2351"
       fy="123.36477"
       fx="373.08163"
       r="184.27052"
       cy="123.36477"
       cx="373.08163" />
    <radialGradient
       gradientTransform="matrix(1,0,0,0.863204,0,16.87579)"
       gradientUnits="userSpaceOnUse"
       xlink:href="#linearGradient15386"
       id="radialGradient2444"
       fy="123.36477"
       fx="373.08163"
       r="184.27052"
       cy="123.36477"
       cx="373.08163" />
    <linearGradient
       gradientTransform="matrix(0,-1,1,0,129.5808,486.47405)"
       gradientUnits="userSpaceOnUse"
       xlink:href="#linearGradient5571"
       id="linearGradient2460"
       y2="173.16895"
       x2="410.07242"
       y1="173.16895"
       x1="223.06319" />
    <linearGradient
       gradientTransform="matrix(0,-1,1,0,127.3584,487.97005)"
       gradientUnits="userSpaceOnUse"
       xlink:href="#linearGradient8262"
       id="linearGradient2463"
       y2="175.02803"
       x2="393.35095"
       y1="175.02803"
       x1="239.05807" />
    <linearGradient
       gradientTransform="matrix(0,-1,1,0,128.1595,487.37205)"
       gradientUnits="userSpaceOnUse"
       xlink:href="#linearGradient9171"
       id="linearGradient2466"
       y2="174.32866"
       x2="374.4324"
       y1="174.32866"
       x1="258.18005" />
  </defs>
  <sodipodi:namedview
     id="base"
     pagecolor="#ffffff"
     bordercolor="#666666"
     borderopacity="1.0"
     inkscape:pageopacity="0.0"
     inkscape:pageshadow="2"
     inkscape:zoom="0.49497475"
     inkscape:cx="-268.91888"
     inkscape:cy="-66.217057"
     inkscape:document-units="mm"
     inkscape:current-layer="layer1"
     showgrid="false"
     inkscape:window-width="1920"
     inkscape:window-height="1001"
     inkscape:window-x="-9"
     inkscape:window-y="-9"
     inkscape:window-maximized="1" />
  <metadata
     id="metadata5">
    <rdf:RDF>
      <cc:Work
         rdf:about="">
        <dc:format>image/svg+xml</dc:format>
        <dc:type
           rdf:resource="http://purl.org/dc/dcmitype/StillImage" />
        <dc:title />
      </cc:Work>
    </rdf:RDF>
  </metadata>
  <g
     inkscape:groupmode="layer"
     id="layer4"
     inkscape:label="Background">
    <circle
       style="opacity:1;fill:#d5d5d5;fill-opacity:1;stroke:#000000;stroke-width:1.19099998;stroke-miterlimit:4;stroke-dasharray:none;stroke-dashoffset:0;stroke-opacity:0.0044053"
       id="path4746"
       cx="50"
       cy="50"
       r="49.563843" />
  </g>
  <g
     inkscape:label="Earth"
     inkscape:groupmode="layer"
     id="layer1"
     transform="translate(0,-197)">
    <circle
       style="opacity:1;fill:#387740;fill-opacity:1;stroke:none;stroke-width:0.26458332;stroke-miterlimit:4;stroke-dasharray:none;stroke-dashoffset:0;stroke-opacity:1"
       id="path4630"
       cx="50"
       cy="247"
       r="30.088081" />
    <circle
       style="opacity:1;fill:#239fdd;fill-opacity:1;stroke:none;stroke-width:0.26458332;stroke-miterlimit:4;stroke-dasharray:none;stroke-dashoffset:0;stroke-opacity:1"
       id="path4628"
       r="26.475851"
       cy="247"
       cx="50" />
    <g
       id="g4612"
       transform="matrix(0.0041976,0,0,-0.0041976,23.219265,273.87168)"
       style="fill:#387740;fill-opacity:1;stroke:none;stroke-width:8.40427971">
      <path
         id="path4606"
         d="M 6085,12793 C 5305,12748 4664,12608 4000,12340 2828,11866 1827,11058 1108,10005 563,9207 202,8277 65,7316 17,6978 6,6797 6,6395 6,5999 17,5828 66,5490 328,3644 1384,2003 2958,997 3836,436 4801,112 5880,18 c 218,-19 821,-16 1045,5 438,42 832,116 1215,227 1708,494 3133,1684 3930,3280 224,450 349,786 495,1340 145,548 189,888 189,1460 1,415 -22,698 -90,1105 -226,1363 -858,2582 -1836,3540 -774,760 -1678,1286 -2723,1585 -548,157 -744,190 -1390,230 -137,9 -508,11 -630,3 z m 522,-43 h 63 l -51,-96 c -51,-95 -52,-96 -62,-225 -6,-76 -6,-134 -1,-139 10,-10 176,-61 181,-56 2,2 11,42 20,89 16,81 20,90 64,133 l 47,46 319,-142 c 175,-79 365,-166 423,-195 l 105,-52 263,21 262,22 73,72 c 40,40 75,72 79,72 3,0 174,-81 380,-180 l 373,-180 h 168 169 l 96,-57 c 296,-173 640,-420 922,-662 113,-97 322,-293 317,-297 -2,-2 -79,25 -173,60 -408,152 -682,286 -817,398 l -48,40 -371,29 -372,30 -83,-83 c -46,-45 -83,-89 -83,-98 1,-8 18,-55 39,-105 l 38,-90 71,-3 c 40,-2 72,-6 73,-10 0,-4 6,-63 13,-132 7,-69 12,-126 12,-127 -1,-1 -55,30 -120,69 -93,55 -120,68 -127,57 -5,-8 -41,-72 -81,-142 -63,-112 -75,-127 -93,-122 -11,4 -47,9 -80,12 -33,2 -69,8 -80,13 -11,5 -31,10 -45,12 -18,2 -30,14 -43,41 -20,41 -27,42 -108,27 -36,-7 -63,-20 -84,-40 l -30,-29 -45,34 c -43,33 -49,35 -128,35 -89,0 -84,3 -106,-67 -6,-19 -2,-22 44,-28 l 50,-7 -45,-56 c -41,-53 -43,-58 -30,-79 21,-31 20,-33 -23,-33 -49,0 -171,31 -256,65 -74,30 -154,34 -206,12 -42,-17 -103,-76 -234,-225 l -99,-114 79,-79 79,-79 h 57 c 32,0 92,-10 133,-22 64,-19 76,-26 84,-50 11,-32 24,-33 204,-21 l 98,6 117,93 c 123,99 123,99 283,126 65,11 66,11 173,-32 98,-39 112,-42 164,-36 154,18 175,19 168,8 -10,-16 21,-82 80,-172 27,-41 72,-130 100,-196 29,-67 75,-155 102,-197 45,-66 52,-83 59,-148 8,-71 9,-74 33,-72 14,2 80,-2 148,-8 68,-6 125,-9 128,-6 3,2 -12,31 -32,63 -27,44 -55,71 -110,108 -61,42 -75,57 -90,95 -9,25 -48,126 -86,224 -39,98 -68,180 -66,181 1,2 23,11 48,20 52,20 51,21 100,-74 16,-30 51,-89 79,-129 49,-74 52,-76 168,-135 l 118,-61 5,-86 c 8,-130 24,-150 170,-204 l 115,-42 85,45 c 121,64 122,65 149,115 l 25,45 -42,56 -43,56 h 109 110 l 85,-93 c 83,-90 88,-94 231,-165 118,-58 146,-76 142,-90 -2,-9 -7,-44 -11,-76 l -7,-59 88,-88 88,-89 -34,-35 c -19,-19 -37,-35 -42,-35 -23,0 -402,177 -515,241 l -132,74 -223,-12 c -123,-7 -242,-15 -264,-18 l -41,-6 4,-92 c 2,-51 6,-102 8,-113 3,-15 56,-55 168,-128 132,-86 197,-120 340,-180 154,-64 447,-221 463,-247 3,-5 0,-55 -6,-111 -11,-94 -17,-112 -64,-200 -28,-54 -54,-98 -59,-98 -4,0 -43,24 -87,53 -55,37 -134,110 -262,243 l -183,189 -51,1 c -49,0 -55,3 -207,123 l -157,122 -72,-3 -72,-3 -21,-85 -21,-85 -35,3 c -64,6 -69,10 -70,55 0,23 -3,50 -7,59 -4,9 -135,112 -292,228 -157,116 -284,214 -283,216 0,3 30,38 66,78 63,70 68,74 146,96 45,12 81,26 81,30 0,3 -21,38 -48,76 l -47,69 -54,3 c -49,3 -65,11 -172,85 l -119,81 -115,-28 -115,-28 -72,58 c -39,33 -106,88 -147,122 l -76,64 -97,-6 c -147,-8 -290,14 -423,64 l -110,42 -135,-12 -135,-12 -145,-102 -145,-102 -135,-23 c -123,-20 -141,-26 -205,-66 -38,-24 -104,-53 -145,-65 -70,-20 -77,-25 -115,-76 l -40,-55 -126,6 -125,6 -135,-121 c -86,-78 -136,-131 -141,-148 -4,-15 -23,-99 -44,-188 l -37,-160 -132,-140 c -128,-135 -132,-141 -148,-206 -10,-39 -17,-107 -17,-162 0,-91 2,-101 50,-221 64,-161 146,-325 328,-658 l 147,-267 57,-35 c 54,-32 67,-35 166,-41 l 107,-7 138,-109 c 97,-75 147,-108 165,-108 15,0 117,-7 227,-15 110,-8 205,-15 210,-15 6,0 26,-25 45,-56 l 34,-56 52,7 52,6 92,-107 93,-106 41,5 c 23,3 59,9 82,12 l 40,7 26,-179 25,-178 -63,-89 c -35,-49 -97,-118 -137,-153 l -74,-64 29,-167 c 15,-93 39,-302 52,-470 25,-302 25,-302 5,-372 -38,-137 -38,-137 -169,-224 l -119,-79 -143,-426 -142,-426 44,-217 44,-217 -28,-187 -28,-188 -88,-115 -88,-116 -7,-114 c -5,-77 -15,-137 -30,-182 l -23,-67 88,-26 88,-26 100,45 99,45 h 124 124 l 208,-67 209,-67 131,66 c 73,37 230,125 349,196 l 217,129 107,11 c 59,7 111,17 115,23 3,6 12,84 20,172 l 13,161 57,66 58,67 98,12 c 157,20 163,22 262,105 l 92,76 h 78 78 l 279,250 c 314,282 288,245 319,450 9,58 26,153 39,212 23,106 24,108 131,266 l 107,159 67,7 c 36,3 83,6 105,6 24,0 81,19 155,51 98,44 150,77 341,217 l 226,165 74,126 c 133,227 180,309 180,318 0,5 -34,21 -75,36 l -75,26 -38,-40 -37,-40 -93,75 c -117,95 -111,91 -120,65 -6,-14 -12,21 -20,111 -8,88 -9,138 -2,150 23,44 12,74 -53,142 -73,75 -113,151 -182,338 -43,116 -47,137 -61,291 -12,138 -12,177 -1,230 8,43 11,99 6,169 -6,109 -2,444 7,516 l 5,41 75,-17 c 41,-10 78,-21 81,-24 4,-4 -4,-109 -18,-234 l -25,-227 48,-104 48,-103 v -177 c 0,-268 18,-395 80,-579 l 52,-152 121,-153 c 66,-83 121,-154 123,-155 1,-2 27,15 57,37 53,41 54,41 143,41 l 89,1 285,315 285,315 17,82 c 9,45 17,89 18,98 0,18 -61,105 -203,289 -104,134 -110,137 -193,77 -30,-21 -58,-36 -62,-33 -3,4 -11,47 -18,97 -10,75 -20,103 -56,167 -36,63 -48,76 -65,74 -15,-2 -28,6 -39,23 -14,21 -15,40 -10,113 4,48 13,114 19,146 12,59 12,60 75,94 35,19 64,33 66,31 10,-14 110,-299 128,-368 l 23,-84 135,-116 c 74,-64 207,-185 295,-270 l 159,-154 44,-141 c 25,-77 59,-211 76,-296 l 32,-155 69,-27 70,-26 -3,-199 c -2,-109 -15,-373 -28,-587 -14,-214 -24,-390 -22,-391 2,-1 22,-12 46,-24 23,-12 42,-26 42,-31 0,-31 -108,-393 -166,-556 C 12101,3597 11756,2978 11303,2412 10364,1240 9034,438 7565,156 7166,80 6815,48 6375,48 5915,48 5558,82 5144,165 l -162,32 -95,99 c -52,55 -105,112 -118,127 -25,29 -40,34 -1434,469 l -260,81 -170,112 C 2178,1563 1567,2175 1087,2906 l -106,161 -52,368 c -51,367 -52,368 -89,434 -21,36 -50,109 -66,160 l -28,94 17,136 c 12,99 21,139 33,146 8,6 43,28 77,50 l 61,40 -2,55 c -1,30 -5,105 -8,165 l -5,110 105,77 106,78 v 107 108 l 241,315 c 132,173 244,319 249,324 6,6 46,-2 102,-19 l 93,-27 39,44 c 25,27 141,231 301,528 l 261,484 144,29 144,29 41,46 c 80,91 77,84 65,157 -9,53 -28,100 -98,230 l -87,162 -120,75 -120,75 -3,185 -2,184 -178,95 -177,94 2,244 3,244 40,74 41,74 -40,66 c -38,63 -46,70 -148,127 l -108,61 -24,105 -24,105 17,182 c 10,100 14,188 9,196 -12,20 -224,297 -227,297 -2,0 -72,-27 -155,-60 -148,-58 -155,-60 -247,-60 -52,0 -94,2 -94,5 0,11 141,215 242,350 332,445 743,865 1177,1203 185,144 174,139 301,141 85,2 151,-5 290,-30 l 181,-32 37,36 c 22,21 47,62 60,97 18,46 43,81 101,142 l 77,81 83,5 c 72,4 91,9 139,38 66,40 192,90 259,103 27,6 181,20 343,32 l 295,21 31,30 c 17,16 53,56 80,89 48,58 50,59 99,59 69,-1 194,-18 227,-31 15,-6 29,-22 33,-37 3,-14 16,-39 27,-55 16,-22 19,-39 16,-77 -5,-44 -3,-48 12,-40 10,5 62,56 115,112 87,93 105,119 184,268 l 88,165 69,7 c 38,4 103,10 145,13 l 76,6 46,82 47,82 -43,6 -42,6 50,3 c 208,12 399,17 505,14 69,-2 153,-4 187,-4 z M 223,7247 c 37,-149 87,-376 111,-503 l 44,-231 -8,-219 -8,-219 94,-171 c 52,-93 94,-175 94,-182 0,-6 -21,-85 -46,-174 l -46,-163 -11,-300 -10,-301 61,-174 c 64,-181 87,-284 156,-696 l 32,-192 60,-98 c 45,-74 74,-140 120,-276 34,-99 58,-176 53,-171 -14,15 -137,240 -207,380 -346,692 -555,1420 -637,2218 -43,416 -37,982 15,1400 23,178 51,345 59,345 3,0 37,-123 74,-273 z"
         inkscape:connector-curvature="0"
         style="fill:#387740;fill-opacity:1;stroke-width:8.40427971" />
      <path
         id="path4608"
         d="m 8225,11360 10,-130 -85,-97 c -59,-67 -95,-118 -113,-162 -15,-35 -26,-65 -24,-67 4,-5 461,17 466,22 7,6 -39,152 -79,254 -21,52 -43,131 -50,175 -7,44 -16,86 -20,94 -7,13 -78,40 -105,41 -7,0 -7,-42 0,-130 z"
         inkscape:connector-curvature="0"
         style="fill:#387740;fill-opacity:1;stroke-width:8.40427971" />
      <path
         id="path4610"
         d="m 9968,3259 -137,-110 -163,-11 -163,-11 -87,-66 c -85,-64 -88,-68 -118,-146 -30,-77 -36,-84 -136,-173 -106,-95 -138,-112 -206,-112 -42,0 -45,-5 -22,-38 15,-21 13,-25 -45,-90 l -61,-67 v -82 c 0,-83 0,-83 26,-83 33,0 335,30 350,35 6,2 139,146 295,320 156,175 302,338 324,362 37,41 46,45 110,55 69,11 71,11 153,92 45,44 82,85 82,91 0,17 -51,145 -58,145 -4,-1 -69,-50 -144,-111 z"
         inkscape:connector-curvature="0"
         style="fill:#387740;fill-opacity:1;stroke-width:8.40427971" />
    </g>
  </g>
  <g
     inkscape:groupmode="layer"
     id="layer2"
     inkscape:label="Hands"
     style="display:inline">
    <g
       label="Layer 1"
       id="imagebot_2"
       transform="matrix(0.09480228,0,0,0.09480228,28.400798,39.075958)"
       style="stroke:#000000;stroke-opacity:0.99559476">
      <g
         id="imagebot_3"
         transform="matrix(0.961323,0,0,0.961323,-165.236,-724.382)"
         label="Layer 1"
         style="stroke:#000000;stroke-opacity:0.99559476">
        <path
           id="imagebot_5"
           d="m 458.75076,1012.1367 c 5.43876,-2.5808 13.3921,-15.4573 13.3921,-21.6818 0,-4.4072 -3.99627,-8.9704 -11.14644,-12.7277 -9.30153,-4.8878 -11.46906,-7.3301 -7.5964,-8.5592 2.39972,-0.7617 9.37466,2.4195 22.31349,10.177 19.23583,11.5327 21.32447,12.0476 27.22908,6.7132 4.26636,-3.8544 9.59129,-14.1349 10.22264,-19.7362 0.4358,-3.8665 0.33056,-4.0438 -4.58504,-7.7219 -2.76709,-2.0705 -11.96697,-7.7443 -20.44417,-12.6084 -8.47719,-4.8642 -15.83555,-9.5137 -16.35189,-10.3322 -1.38447,-2.1949 0.92163,-4.458 4.54263,-4.458 2.97132,0 4.24035,0.6862 26.59902,14.3831 11.88798,7.2825 21.1836,11.8669 24.0621,11.8669 5.75458,0 16.40498,-15.7118 16.40498,-24.2012 0,-6.9623 -4.99951,-10.7999 -34.17902,-26.23526 -7.71252,-4.07977 -14.43806,-8.07615 -14.94563,-8.88082 -1.43494,-2.27486 0.984,-4.43272 4.96902,-4.43272 4.36383,0 14.4086,4.79417 25.1069,11.98304 17.74861,11.9264 22.53712,13.50729 28.93555,9.55284 5.60525,-3.46423 12.32749,-16.43403 11.19356,-21.59672 -0.61789,-2.81325 -5.20648,-7.46312 -9.36163,-9.48666 -1.54688,-0.75333 -15.04688,-8.56862 -30,-17.36732 -37.16083,-21.86614 -68.42018,-39.65394 -79.87018,-45.44928 l -9.55768,-4.83755 -3.85914,2.67438 c -5.9827,4.14601 -8.09019,7.20362 -8.82366,12.80163 -1.16375,8.88186 -5.2501,28.7579 -7.63822,37.15237 -2.64769,9.30689 -5.24062,12.33295 -12.24904,14.29519 -10.72349,3.00239 -37.03373,-3.6643 -45.48952,-11.52648 -7.21589,-6.70933 -7.7089,-15.30064 -2.24563,-39.13294 5.2147,-22.74798 10.45987,-41.2431 12.47565,-43.99067 0.97472,-1.32857 7.09457,-6.01158 13.59967,-10.40669 6.50511,-4.39511 12.10619,-8.26984 12.44685,-8.6105 1.48651,-1.48651 -11.92852,-6.88335 -16.08488,-6.47091 -0.57519,0.0571 -9.6455,5.72267 -20.15625,12.59021 -24.38676,15.93388 -40.10772,25.54796 -47.28228,28.91525 l -5.67181,2.662 -13.07819,-3.22466 c -10.88254,-2.68328 -56.52363,-15.55585 -72.87045,-20.55231 l -4.47977,-1.36925 -2.20155,4.36939 c -8.78404,17.43357 -17.90771,51.75911 -20.22411,76.08814 -1.36403,14.32632 -1.72038,55.84586 -0.48981,57.06984 0.75855,0.75446 31.66763,9.71716 74.72807,21.66886 l 6.29057,1.746 3.29762,-4.59 c 1.81368,-2.5245 4.98735,-5.7083 7.05258,-7.075 3.24869,-2.1499 4.48401,-2.4289 9.16183,-2.0698 6.28816,0.4827 13.27193,3.5747 21.31175,9.4355 l 5.59242,4.0767 5.43681,-5.8119 c 7.614,-8.1394 10.47657,-9.347 18.87093,-7.9607 7.02174,1.1596 13.91808,3.7959 16.83855,6.4369 0.97605,0.8827 2.62535,3.2923 3.66512,5.3548 1.03976,2.0625 2.02214,3.8984 2.18307,4.0797 0.16092,0.1814 3.32981,-1.1897 7.04196,-3.0468 5.5445,-2.7738 7.7729,-3.3765 12.48281,-3.3759 10.43325,0 22.44987,7.5637 27.11287,17.0628 1.34126,2.7322 2.63204,5.6432 2.86842,6.4687 0.30103,1.0512 1.98556,1.6614 5.62297,2.0368 10.20899,1.0537 21.97463,9.4796 26.47832,18.9622 3.36935,7.0944 2.70829,13.6359 -2.09293,20.7109 -2.82397,4.1613 -2.37108,5.6125 2.53272,8.1158 4.01824,2.0512 6.71274,2.0703 10.91269,0.077 z"
           inkscape:connector-curvature="0"
           style="fill:#5e5e5e;fill-opacity:1;stroke:#000000;stroke-width:13.06843662;stroke-miterlimit:4;stroke-dasharray:none;stroke-opacity:0.99559476" />
        <path
           id="imagebot_4"
           d="m 414.42296,1041.2875 c 6.82418,-6.8242 24.9074,-43.23995 24.9074,-50.15821 0,-3.93574 -2.10814,-7.61628 -6.53081,-11.40192 -5.54162,-4.74342 -14.33309,-6.84419 -18.7499,-4.48039 -0.94597,0.50627 -8.09011,11.83254 -15.87587,25.16952 -12.22717,20.945 -14.15592,24.792 -14.15592,28.2346 0,5.3846 3.35206,8.4126 12.83645,11.5953 8.42985,2.8289 15.36956,3.2402 17.56865,1.0411 z m -38.37385,-25.0053 c 9.13778,-12.1073 30.92168,-47.8979 30.82616,-50.64685 -0.11389,-3.27711 -5.3014,-10.96221 -9.20522,-13.63715 -5.29227,-3.62632 -18.64352,-4.95695 -22.61334,-2.25372 -0.54581,0.37167 -7.19034,12.22957 -14.76563,26.35088 -16.029,29.88014 -16.2382,30.65374 -9.78885,36.19724 4.11502,3.5371 18.2639,10.9821 19.92188,10.4828 0.51562,-0.1553 3.04687,-3.0772 5.625,-6.4932 z m -38.123,-17.66741 c 3.75813,-1.31009 9.08724,-9.23761 18.45359,-27.45137 4.41608,-8.58746 7.01316,-14.74673 7.01316,-16.63249 0,-6.20944 -12.94592,-14.89193 -22.20444,-14.89193 h -4.9613 l -13.24049,19.82787 c -12.62947,18.91284 -13.2172,20.00152 -12.73579,23.59071 0.27759,2.06956 1.30682,4.85405 2.2872,6.18775 2.26474,3.08097 10.5603,7.61557 16.63607,9.09377 6.05996,1.47435 5.37538,1.45279 8.752,0.27569 z m -34.38315,-23.58517 c 4.36412,-4.46079 10.89032,-14.07292 11.67349,-17.19331 0.66079,-2.63281 -2.34586,-8.45143 -6.35081,-12.29042 -4.19911,-4.02509 -9.04608,-5.90689 -15.21449,-5.90689 -6.25755,0 -8.92451,1.96783 -15.65417,11.55052 -5.20509,7.41178 -5.82943,11.08931 -2.73321,16.09911 3.42382,5.53985 14.04864,11.62853 20.39576,11.68801 3.47499,0.0325 4.48464,-0.47293 7.88343,-3.94702 z m 268.082,-38.09701 c 28.32323,-7.38375 51.62058,-13.95824 52.46031,-14.80423 2.80629,-2.82726 4.20855,-57.25479 1.88812,-73.28608 -2.12415,-14.67524 -8.50961,-33.49663 -18.4408,-54.35497 -4.90255,-10.29674 -6.24383,-12.40273 -7.62268,-11.96866 -0.92032,0.28971 -19.06249,4.95229 -40.31594,10.36127 l -38.64264,9.8345 -26.98236,-16.28057 c -14.8403,-8.95431 -32.22606,-19.27909 -38.63504,-22.94397 l -11.65267,-6.6634 h -9.45109 -9.45108 l -6.08374,4.104 c -3.34605,2.2572 -14.50473,10.48009 -24.79706,18.27309 -21.47516,16.26028 -19.07758,12.59934 -24.33262,37.15416 -4.21828,19.71043 -5.57074,30.43284 -5.06175,40.1302 0.5104,9.72444 1.70881,11.7869 8.89055,15.30059 4.70077,2.29988 6.4588,2.63252 13.86281,2.62306 5.77037,-0.007 9.58192,-0.49801 11.93056,-1.53572 3.15725,-1.395 3.64707,-2.15012 5.75053,-8.86526 1.26462,-4.0372 4.09267,-15.62809 6.28455,-25.75753 l 3.98524,-18.41715 10.15869,-7.12972 c 5.58728,-3.92134 10.42061,-7.12972 10.74073,-7.12972 1.63908,0 126.07298,72.14843 129.02738,74.81179 8.28807,7.4716 9.54975,17.9392 3.57988,29.70079 -4.04744,7.9741 -10.75301,15.2455 -14.80683,16.05627 l -3.01515,0.60302 v 7.95187 c 0,6.33146 0.26062,7.85185 1.27898,7.46108 0.70343,-0.26994 9.45734,-2.62286 19.45312,-5.22871 z"
           inkscape:connector-curvature="0"
           style="fill:#8e8e8e;fill-opacity:1;stroke:#000000;stroke-width:13.06843662;stroke-miterlimit:4;stroke-dasharray:none;stroke-opacity:0.99559476" />
      </g>
      <title
         id="title4879">Layer 1</title>
    </g>
  </g>
  <g
     inkscape:groupmode="layer"
     id="layer3"
     inkscape:label="Text"
     style="display:inline">
    <g
       id="g4724"
       style="fill:none;stroke:#000000;stroke-opacity:0.0044053">
      <path
         inkscape:connector-curvature="0"
         id="path4953"
         d="m 15.892885,51.368773 c 0,-18.953878 15.365153,-34.319031 34.319031,-34.319031 18.953878,0 34.319031,15.365153 34.319031,34.319031"
         style="opacity:1;fill:none;fill-opacity:0.09251105;stroke:#000000;stroke-width:1.20403206;stroke-miterlimit:4;stroke-dasharray:none;stroke-dashoffset:0;stroke-opacity:0.0044053" />
      <path
         sodipodi:nodetypes="csc"
         inkscape:connector-curvature="0"
         id="path4926"
         d="m 15.892885,51.368773 c 0,18.953878 15.365153,34.319031 34.319031,34.319031 18.953878,0 34.319031,-15.365153 34.319031,-34.319031"
         style="opacity:1;fill:none;fill-opacity:0.09251105;stroke:#000000;stroke-width:1.20403206;stroke-miterlimit:4;stroke-dasharray:none;stroke-dashoffset:0;stroke-opacity:0.0044053" />
    </g>
    <text
       xml:space="preserve"
       style="font-style:normal;font-variant:normal;font-weight:bold;font-stretch:normal;font-size:16.93333244px;line-height:45.75870514px;font-family:'Passion One';-inkscape-font-specification:'Passion One Bold';letter-spacing:0px;word-spacing:0px;fill:#387740;fill-opacity:1;stroke:none;stroke-width:1.83034825px;stroke-linecap:butt;stroke-linejoin:miter;stroke-opacity:1"
       id="text4895"><textPath
         xlink:href="#path4953"
         id="textPath4647"
         style="font-size:19.75555611px;fill:#387740;fill-opacity:1"><tspan
   dx="0 0"
   style="font-style:normal;font-variant:normal;font-weight:bold;font-stretch:normal;font-size:19.75555611px;font-family:'Passion One';-inkscape-font-specification:'Passion One Bold';fill:#387740;fill-opacity:1;stroke-width:1.83034825px"
   id="tspan4893"> E A R T H</tspan></textPath></text>
    <text
       xml:space="preserve"
       style="font-style:normal;font-variant:normal;font-weight:bold;font-stretch:normal;font-size:16.93333244px;line-height:6.61458302px;font-family:'Passion One';-inkscape-font-specification:'Passion One Bold';letter-spacing:0px;word-spacing:0px;fill:#387740;fill-opacity:1;stroke:none;stroke-width:0.26458332px;stroke-linecap:butt;stroke-linejoin:miter;stroke-opacity:1"
       id="text4652"
       x="-9.0714283"
       y="10.772322"><textPath
         xlink:href="#path4926"
         id="textPath4657"
         style="font-size:19.75555611px;fill:#387740;fill-opacity:1"><tspan
   style="font-style:normal;font-variant:normal;font-weight:bold;font-stretch:normal;font-size:19.75555611px;font-family:'Passion One';-inkscape-font-specification:'Passion One Bold';fill:#387740;fill-opacity:1;stroke-width:0.26458332px"
   id="tspan4650"
   dy="0 0 0 0 0 0 0 0 0 10 0 0 0 0">         S T R I K E</tspan></textPath></text>
  </g>
  <g
     inkscape:groupmode="layer"
     id="layer5"
     inkscape:label="Dates"
     style="display:inline" />
</svg>
