<?xml version="1.0" encoding="UTF-8" standalone="no"?>
<!-- Created with Inkscape (http://www.inkscape.org/) -->

<svg
   xmlns:dc="http://purl.org/dc/elements/1.1/"
   xmlns:cc="http://creativecommons.org/ns#"
   xmlns:rdf="http://www.w3.org/1999/02/22-rdf-syntax-ns#"
   xmlns:svg="http://www.w3.org/2000/svg"
   xmlns="http://www.w3.org/2000/svg"
   xmlns:sodipodi="http://sodipodi.sourceforge.net/DTD/sodipodi-0.dtd"
   xmlns:inkscape="http://www.inkscape.org/namespaces/inkscape"
   width="36in"
   height="24in"
   viewBox="0 0 914.4 609.6"
   version="1.1"
   id="svg4740"
   inkscape:version="0.92.3 (2405546, 2018-03-11)"
   sodipodi:docname="sign-bake-sale.svg"
   inkscape:export-filename="C:\Users\Owen\Google Drive\Earth Strike\sign-bake-sale.png"
   inkscape:export-xdpi="96"
   inkscape:export-ydpi="96">
  <defs
     id="defs4734" />
  <sodipodi:namedview
     id="base"
     pagecolor="#ffffff"
     bordercolor="#666666"
     borderopacity="1.0"
     inkscape:pageopacity="0.0"
     inkscape:pageshadow="2"
     inkscape:zoom="0.175"
     inkscape:cx="1326.8947"
     inkscape:cy="790.90316"
     inkscape:document-units="in"
     inkscape:current-layer="layer1"
     showgrid="true"
     units="in"
     inkscape:pagecheckerboard="true"
     inkscape:window-width="1366"
     inkscape:window-height="705"
     inkscape:window-x="-8"
     inkscape:window-y="-8"
     inkscape:window-maximized="1"
     inkscape:snap-text-baseline="true"
     inkscape:snap-bbox="true"
     inkscape:bbox-paths="false"
     inkscape:bbox-nodes="true"
     inkscape:snap-bbox-edge-midpoints="true"
     inkscape:snap-bbox-midpoints="true"
     showguides="false">
    <inkscape:grid
       type="xygrid"
       id="grid5285"
       spacingx="3.175"
       spacingy="3.175"
       empspacing="8"
       dotted="false" />
    <inkscape:grid
       type="xygrid"
       id="grid5287"
       spacingx="3.175"
       spacingy="1.0583333"
       empspacing="24" />
  </sodipodi:namedview>
  <metadata
     id="metadata4737">
    <rdf:RDF>
      <cc:Work
         rdf:about="">
        <dc:format>image/svg+xml</dc:format>
        <dc:type
           rdf:resource="http://purl.org/dc/dcmitype/StillImage" />
        <dc:title></dc:title>
      </cc:Work>
    </rdf:RDF>
  </metadata>
  <g
     inkscape:label="Layer 1"
     inkscape:groupmode="layer"
     id="layer1"
     transform="translate(0,312.6)">
    <rect
       style="opacity:1;fill:#ffffff;fill-opacity:1;stroke:none;stroke-width:2.53999996;stroke-linecap:butt;stroke-linejoin:miter;stroke-miterlimit:4;stroke-dasharray:none;stroke-opacity:1;paint-order:normal"
       id="rect7049"
       width="914.39996"
       height="609.59998"
       x="0"
       y="-312.59998" />
    <flowRoot
       xml:space="preserve"
       id="flowRoot6348"
       style="font-style:normal;font-variant:normal;font-weight:normal;font-stretch:normal;font-size:32px;line-height:0%;font-family:'Passion One';-inkscape-font-specification:'Passion One, Normal';font-variant-ligatures:normal;font-variant-caps:normal;font-variant-numeric:normal;font-feature-settings:normal;text-align:center;letter-spacing:0px;word-spacing:0px;writing-mode:lr-tb;text-anchor:middle;fill:#d30731;fill-opacity:1;stroke:none"
       transform="matrix(2.1166666,0,0,2.1166666,-12.69998,-457.10238)"><flowRegion
         id="flowRegion6350"
         style="font-style:normal;font-variant:normal;font-weight:normal;font-stretch:normal;font-size:32px;font-family:'Passion One';-inkscape-font-specification:'Passion One, Normal';font-variant-ligatures:normal;font-variant-caps:normal;font-variant-numeric:normal;font-feature-settings:normal;text-align:center;writing-mode:lr-tb;text-anchor:middle;fill:#d30731;fill-opacity:1"><rect
           id="rect6352"
           width="216"
           height="152.26884"
           x="192"
           y="120"
           style="font-style:normal;font-variant:normal;font-weight:normal;font-stretch:normal;font-size:32px;font-family:'Passion One';-inkscape-font-specification:'Passion One, Normal';font-variant-ligatures:normal;font-variant-caps:normal;font-variant-numeric:normal;font-feature-settings:normal;text-align:center;writing-mode:lr-tb;text-anchor:middle;fill:#d30731;fill-opacity:1" /></flowRegion><flowPara
         id="flowPara6360"
         style="font-style:normal;font-variant:normal;font-weight:normal;font-stretch:normal;font-size:40px;line-height:100%;font-family:'Passion One';-inkscape-font-specification:'Passion One, Normal';font-variant-ligatures:normal;font-variant-caps:normal;font-variant-numeric:normal;font-feature-settings:normal;text-align:center;writing-mode:lr-tb;text-anchor:middle;fill:#d30731;fill-opacity:1" /><flowPara
         style="font-style:normal;font-variant:normal;font-weight:normal;font-stretch:normal;font-size:40px;line-height:75%;font-family:'Passion One';-inkscape-font-specification:'Passion One, Normal';font-variant-ligatures:normal;font-variant-caps:normal;font-variant-numeric:normal;font-feature-settings:normal;text-align:start;writing-mode:lr-tb;text-anchor:start;fill:#d30731;fill-opacity:1"
         id="flowPara958">HAVE A SNACK</flowPara><flowPara
         style="font-style:normal;font-variant:normal;font-weight:normal;font-stretch:normal;font-size:35.33333588px;line-height:75%;font-family:'Passion One';-inkscape-font-specification:'Passion One, Normal';font-variant-ligatures:normal;font-variant-caps:normal;font-variant-numeric:normal;font-feature-settings:normal;text-align:start;writing-mode:lr-tb;text-anchor:start;fill:#d30731;fill-opacity:1"
         id="flowPara960">&amp; CHAT WITH US</flowPara><flowPara
         style="font-style:normal;font-variant:normal;font-weight:normal;font-stretch:normal;font-size:36px;line-height:25%;font-family:'Passion One';-inkscape-font-specification:'Passion One, Normal';font-variant-ligatures:normal;font-variant-caps:normal;font-variant-numeric:normal;font-feature-settings:normal;text-align:start;writing-mode:lr-tb;text-anchor:start;fill:#d30731;fill-opacity:1"
         id="flowPara962" /><flowPara
         style="font-style:normal;font-variant:normal;font-weight:normal;font-stretch:normal;font-size:35.33333588px;line-height:12.5%;font-family:'Passion One';-inkscape-font-specification:'Passion One, Normal';font-variant-ligatures:normal;font-variant-caps:normal;font-variant-numeric:normal;font-feature-settings:normal;text-align:start;writing-mode:lr-tb;text-anchor:start;fill:#d30731;fill-opacity:1"
         id="flowPara1154"> </flowPara><flowPara
         style="font-style:normal;font-variant:normal;font-weight:normal;font-stretch:normal;font-size:16px;line-height:120.00000477%;font-family:'fira sans';-inkscape-font-specification:'fira sans';font-variant-ligatures:normal;font-variant-caps:normal;font-variant-numeric:normal;font-feature-settings:normal;text-align:start;writing-mode:lr-tb;text-anchor:start;fill:#0045d8;fill-opacity:1"
         id="flowPara950">about our movement,</flowPara><flowPara
         style="font-style:normal;font-variant:normal;font-weight:normal;font-stretch:normal;font-size:16px;line-height:120.00000477%;font-family:'fira sans';-inkscape-font-specification:'fira sans';font-variant-ligatures:normal;font-variant-caps:normal;font-variant-numeric:normal;font-feature-settings:normal;text-align:start;writing-mode:lr-tb;text-anchor:start;fill:#0045d8;fill-opacity:1"
         id="flowPara952">our plans for the year,</flowPara><flowPara
         style="font-style:normal;font-variant:normal;font-weight:normal;font-stretch:normal;font-size:16px;line-height:120.00000477%;font-family:'fira sans';-inkscape-font-specification:'fira sans';font-variant-ligatures:normal;font-variant-caps:normal;font-variant-numeric:normal;font-feature-settings:normal;text-align:start;writing-mode:lr-tb;text-anchor:start;fill:#0045d8;fill-opacity:1"
         id="flowPara954">and how you can help!</flowPara></flowRoot>    <g
       id="g1073"
       transform="matrix(4.5134939,0,0,4.5134939,76.198764,-211.00294)"
       inkscape:export-filename="C:\Users\Owen\g1073.png"
       inkscape:export-xdpi="300"
       inkscape:export-ydpi="300">
      <g
         id="g1015">
	<path
   id="path1009"
   d="m 9.51,3.342 c 0.536,0.418 0.934,0.9 1.243,1.381 C 9.698,5.117 8.741,5.716 7.947,6.51 L 7.033,7.424 c -3.415,3.415 -3.004,9.381 0.914,13.299 1.776,1.776 4.138,2.755 6.649,2.755 2.512,0 4.874,-0.979 6.649,-2.755 C 23.022,18.947 24,16.586 24,14.073 24,11.561 23.022,9.2 21.246,7.424 19.188,5.365 16.46,4.186 13.762,4.186 13.435,4.186 13.114,4.208 12.797,4.243 12.36,3.415 11.719,2.535 10.77,1.788 8.762,0.205 5.999,-0.331 2.559,0.198 2.011,0.281 1.636,0.791 1.72,1.337 1.803,1.884 2.32,2.259 2.86,2.174 5.718,1.738 7.956,2.129 9.51,3.342 Z m 1.906,5.189 c 0.87,0.869 2.287,0.869 3.157,0 0.391,-0.391 1.024,-0.391 1.415,0 0.39,0.391 0.39,1.024 0,1.414 -0.825,0.825 -1.909,1.237 -2.993,1.237 -1.084,0 -2.167,-0.412 -2.993,-1.237 -0.391,-0.391 -0.391,-1.023 0,-1.414 0.389,-0.39 1.023,-0.39 1.414,0 z"
   inkscape:connector-curvature="0"
   style="fill:#d30731;fill-opacity:1" />

	<path
   id="path1011"
   d="m 50.943,24.861 c 0.069,-0.376 0.104,-0.753 0.104,-1.127 0,-2.943 -2.044,-5.686 -5.772,-7.766 C 45.189,13.997 44.609,7.793 40.769,3.93 38.365,1.512 35.142,0.472 31.229,0.86 30.886,0.894 30.584,1.102 30.431,1.412 30.278,1.722 30.295,2.087 30.476,2.381 31.11,3.407 32.221,5.887 31.607,6.999 31.344,7.477 30.678,7.724 29.628,7.734 27.822,7.753 26.05,7.925 24.367,8.21 25.424,9.964 26,11.972 26,14.073 c 0,3.047 -1.187,5.911 -3.34,8.064 -2.153,2.153 -5.017,3.34 -8.063,3.34 -2.297,0 -4.49,-0.677 -6.354,-1.933 -0.002,0.063 -0.013,0.126 -0.013,0.189 0,0.375 0.035,0.752 0.103,1.127 -2.374,1.92 -3.625,4.143 -3.625,6.46 0,0.179 0.012,0.357 0.027,0.534 l 0.01,-0.01 c 1.226,-1.209 2.792,-1.85 4.525,-1.85 2.663,0 5.233,1.518 7.173,3.079 2.683,-1.039 6.069,-0.353 9.052,1.729 2.719,-1.451 6.187,-1.452 8.906,-0.005 2.951,-2.073 6.303,-2.76 8.967,-1.729 1.931,-1.56 4.488,-3.073 7.14,-3.073 1.519,0 2.907,0.494 4.053,1.435 10e-4,-0.036 0.007,-0.073 0.007,-0.109 0,-2.318 -1.25,-4.54 -3.625,-6.46 z m -34.951,3.586 c -0.148,0.405 -0.531,0.657 -0.939,0.657 -0.114,0 -0.229,-0.02 -0.342,-0.061 -1.111,-0.404 -2.181,-0.875 -3.181,-1.398 -0.489,-0.256 -0.679,-0.859 -0.423,-1.35 0.256,-0.488 0.86,-0.68 1.35,-0.422 0.922,0.481 1.911,0.916 2.939,1.291 0.518,0.19 0.785,0.763 0.596,1.283 z M 29.886,18.146 c 4.132,0 8.052,-0.523 11.335,-1.515 0.527,-0.158 1.087,0.14 1.247,0.668 0.159,0.529 -0.14,1.087 -0.668,1.246 -3.468,1.047 -7.588,1.601 -11.913,1.601 -0.552,0 -1,-0.447 -1,-1 0,-0.553 0.447,-1 0.999,-1 z m 6.393,12.873 c -2.216,0.288 -4.436,0.433 -6.644,0.433 -2.042,0 -4.073,-0.123 -6.08,-0.37 -0.548,-0.067 -0.938,-0.565 -0.871,-1.114 0.068,-0.548 0.575,-0.938 1.115,-0.87 4.012,0.492 8.124,0.472 12.222,-0.061 0.55,-0.07 1.049,0.314 1.121,0.862 0.072,0.548 -0.315,1.049 -0.863,1.12 z m 11.582,-3.381 c -1.695,0.895 -3.676,1.654 -5.887,2.258 -0.088,0.024 -0.177,0.035 -0.264,0.035 -0.44,0 -0.843,-0.292 -0.964,-0.737 -0.145,-0.532 0.169,-1.082 0.702,-1.228 2.07,-0.564 3.914,-1.271 5.48,-2.098 0.488,-0.256 1.094,-0.07 1.351,0.418 0.257,0.489 0.07,1.093 -0.418,1.352 z"
   inkscape:connector-curvature="0"
   style="fill:#fdd54e;fill-opacity:1" />

	<path
   id="path1013"
   d="m 50.508,31.995 c -2.567,0 -5.201,1.954 -6.854,3.466 -0.855,-0.58 -1.861,-0.883 -2.956,-0.883 -1.983,0 -4.242,0.984 -6.181,2.666 -1.303,-1.003 -2.892,-1.546 -4.563,-1.546 -1.673,0 -3.263,0.544 -4.566,1.548 -1.959,-1.683 -4.24,-2.668 -6.241,-2.668 -1.106,0 -2.122,0.304 -2.985,0.887 -1.661,-1.512 -4.309,-3.47 -6.89,-3.47 -1.214,0 -2.265,0.429 -3.123,1.275 l -0.477,0.469 4.751,11.704 0.048,0.102 c 3.184,5.854 5.869,7.345 11.684,9.574 1.918,0.735 4.739,1.157 7.74,1.157 3.002,0 5.816,-0.422 7.72,-1.158 5.825,-2.251 8.508,-3.738 11.63,-9.479 l 4.851,-11.898 -0.474,-0.47 c -0.857,-0.846 -1.904,-1.276 -3.114,-1.276 z m -30.336,17 c -0.137,0.064 -0.281,0.095 -0.423,0.095 -0.376,0 -0.736,-0.213 -0.906,-0.576 L 16.079,42.61 c -0.234,-0.5 -0.019,-1.096 0.482,-1.329 0.501,-0.233 1.096,-0.019 1.33,0.481 l 2.764,5.904 c 0.233,0.5 0.017,1.096 -0.483,1.329 z m 6.18,2.179 c -0.052,0.008 -0.104,0.012 -0.156,0.012 -0.484,0 -0.91,-0.353 -0.987,-0.846 l -0.921,-5.904 c -0.085,-0.546 0.289,-1.058 0.834,-1.143 0.546,-0.081 1.057,0.288 1.143,0.834 l 0.921,5.904 c 0.085,0.546 -0.288,1.058 -0.834,1.143 z m 8.205,-0.834 c -0.077,0.493 -0.503,0.846 -0.987,0.846 -0.051,0 -0.104,-0.004 -0.156,-0.012 -0.545,-0.085 -0.919,-0.597 -0.834,-1.143 l 0.921,-5.904 c 0.085,-0.546 0.596,-0.915 1.143,-0.834 0.545,0.085 0.919,0.597 0.834,1.143 z m 9.131,-7.73 -2.764,5.904 c -0.17,0.363 -0.53,0.576 -0.906,0.576 -0.142,0 -0.287,-0.03 -0.423,-0.095 -0.5,-0.233 -0.716,-0.829 -0.482,-1.329 l 2.764,-5.904 c 0.233,-0.501 0.831,-0.717 1.33,-0.481 0.5,0.233 0.715,0.829 0.481,1.329 z"
   inkscape:connector-curvature="0"
   style="fill:#0045d8;fill-opacity:1" />

</g>
      <g
         id="g1017">
</g>
      <g
         id="g1019">
</g>
      <g
         id="g1021">
</g>
      <g
         id="g1023">
</g>
      <g
         id="g1025">
</g>
      <g
         id="g1027">
</g>
      <g
         id="g1029">
</g>
      <g
         id="g1031">
</g>
      <g
         id="g1033">
</g>
      <g
         id="g1035">
</g>
      <g
         id="g1037">
</g>
      <g
         id="g1039">
</g>
      <g
         id="g1041">
</g>
      <g
         id="g1043">
</g>
      <g
         id="g1045">
</g>
    </g>
    <flowRoot
       xml:space="preserve"
       id="flowRoot6348-3"
       style="font-style:normal;font-variant:normal;font-weight:normal;font-stretch:normal;font-size:32px;line-height:0%;font-family:'Passion One';-inkscape-font-specification:'Passion One, Normal';font-variant-ligatures:normal;font-variant-caps:normal;font-variant-numeric:normal;font-feature-settings:normal;text-align:center;letter-spacing:0px;word-spacing:0px;writing-mode:lr-tb;text-anchor:middle;fill:#d30731;fill-opacity:1;stroke:none"
       transform="matrix(2.1166666,0,0,2.1166666,-241.29998,-148.87523)"><flowRegion
         id="flowRegion6350-2"
         style="font-style:normal;font-variant:normal;font-weight:normal;font-stretch:normal;font-size:32px;font-family:'Passion One';-inkscape-font-specification:'Passion One, Normal';font-variant-ligatures:normal;font-variant-caps:normal;font-variant-numeric:normal;font-feature-settings:normal;text-align:center;writing-mode:lr-tb;text-anchor:middle;fill:#d30731;fill-opacity:1"><rect
           id="rect6352-0"
           width="288.00003"
           height="62.067345"
           x="185.99998"
           y="122.26885"
           style="font-style:normal;font-variant:normal;font-weight:normal;font-stretch:normal;font-size:32px;font-family:'Passion One';-inkscape-font-specification:'Passion One, Normal';font-variant-ligatures:normal;font-variant-caps:normal;font-variant-numeric:normal;font-feature-settings:normal;text-align:center;writing-mode:lr-tb;text-anchor:middle;fill:#d30731;fill-opacity:1" /></flowRegion><flowPara
         style="font-style:normal;font-variant:normal;font-weight:normal;font-stretch:normal;font-size:35.33333588px;line-height:75%;font-family:'passion one';-inkscape-font-specification:'passion one';font-variant-ligatures:normal;font-variant-caps:normal;font-variant-numeric:normal;font-feature-settings:normal;text-align:center;writing-mode:lr-tb;text-anchor:middle;fill:#d30731;fill-opacity:1"
         id="flowPara954-2">PAY BY DONATION!</flowPara><flowPara
         style="font-style:normal;font-variant:normal;font-weight:normal;font-stretch:normal;font-size:35.33333588px;line-height:12.5%;font-family:'passion one';-inkscape-font-specification:'passion one';font-variant-ligatures:normal;font-variant-caps:normal;font-variant-numeric:normal;font-feature-settings:normal;text-align:center;writing-mode:lr-tb;text-anchor:middle;fill:#d30731;fill-opacity:1"
         id="flowPara1156"> </flowPara><flowPara
         style="font-style:normal;font-variant:normal;font-weight:normal;font-stretch:normal;font-size:16px;line-height:120.00000477%;font-family:'fira sans';-inkscape-font-specification:'fira sans';font-variant-ligatures:normal;font-variant-caps:normal;font-variant-numeric:normal;font-feature-settings:normal;text-align:center;writing-mode:lr-tb;text-anchor:middle;fill:#0045d8;fill-opacity:1"
         id="flowPara1152">All proceeds go to Earth Strike NS.</flowPara></flowRoot>    <flowRoot
       xml:space="preserve"
       id="flowRoot1117"
       style="fill:black;fill-opacity:1;stroke:none;font-family:'Passion One';font-style:normal;font-weight:normal;font-size:24px;line-height:100%;letter-spacing:0px;word-spacing:0px;-inkscape-font-specification:'Passion One, Normal';font-stretch:normal;font-variant:normal;text-anchor:middle;text-align:center;writing-mode:lr;font-variant-ligatures:normal;font-variant-caps:normal;font-variant-numeric:normal"><flowRegion
         id="flowRegion1119"><rect
           id="rect1121"
           width="480"
           height="480"
           x="768"
           y="1440" /></flowRegion><flowPara
         id="flowPara1123"></flowPara></flowRoot>  </g>
</svg>
