<svg id="logo" xmlns="http://www.w3.org/2000/svg" xmlns:xlink="http://www.w3.org/1999/xlink" width="384" height="384" viewBox="0 0 384 384">

					<circle id="background-circle" r="132" cy="192" cx="192" style="fill: rgb(255, 196, 0);"></circle>

					<svg id="icon-inset" xmlns="http://www.w3.org/2000/svg" width="264" height="264" x="60" y="60" viewBox="60 60 264 264">
						<svg id="icon" xmlns="http://www.w3.org/2000/svg" width="192" height="192" x="96" y="96" viewBox="96 96 192 192">
							<path id="leaf" d="m 192,96 c -32.83137,47.720341 -39.47137,129 21.46291,149.303211 3.43651,-1.2947 7.20459,-1.8595 11.1875,-1.68164 2.42349,0.10832 4.92565,0.5 7.47656,1.14453 1.51819,-7.26457 0.54734,-13.96874 -1.12695,-22.81641 -9,0 -19.10597,0.25247 -27,-6 12,0 16.214,-0.62555 23.64258,-4.33984 -2.96936,-13.57633 -20.16796,-32.4787 -23.64258,-52.66016 7.29315,14.55583 13.26269,19.2627 18,24 6,-3 12,-9 15,-15 0,9 -2.49414,17.62109 -8.49414,23.62109 11.88278,14.44798 16.78174,37.17951 12.67857,56 2.38758,1.09644 5.85019,2.29389 7.88086,3.60351 C 270,246 282,228 282,198 c 0,-48 -72,-66 -90,-102 z" style="fill: rgb(56, 119, 64);"></path>
							<path id="match-top" d="m 102,229.44972 9,-6 123,39 -9,6 c -123,-39 0,0 -123,-39 z" style="fill: rgb(136, 119, 102);"></path>
							<path id="match-front" d="m 102,229.44972 c 123,39 0,0 123,39 v 12 l -123,-39 z" style="fill: rgb(102, 85, 68);"></path>
							<path id="match-head" d="m 234.58841,254.77293 c 15.29837,4.78749 20.30522,12.7011 17.94194,22.85095 -2.36327,10.14981 -11.87568,12.77873 -27.51439,8.02511 -15.6387,-4.75363 -20.39722,-13.84834 -17.39722,-22.84834 3,-9 11.67131,-12.81521 26.96967,-8.02772 z" style="fill: rgb(34, 34, 34);"></path>
						</svg>
					</svg>

					<path id="outline-circle" d="M 192,0 A 192,192 0 0 0 0,192 192,192 0 0 0 192,384 192,192 0 0 0 384,192 192,192 0 0 0 192,0 Z m 0,60 A 132,132 0 0 1 324,192 132,132 0 0 1 192,324 132,132 0 0 1 60,192 132,132 0 0 1 192,60 Z" style="fill: rgb(198, 11, 30);"></path>

					<path id="bottom-text-circle" d="M 192,18 C 96,18 18,96 18,192 18,288 96,366 192,366 288,366 366,288 366,192 366,96 288,18 192,18 Z" style="fill:none;"></path>
					<path id="top-text-circle" d="M 342,192 A 150,150 0 0 1 192,342 150,150 0 0 1 42,192 150,150 0 0 1 192,42 150,150 0 0 1 342,192 Z" style="fill:none;"></path>
					<text id="bottom-text" style="font-size: 40px; font-family: &quot;Passion One&quot;; text-anchor: middle; letter-spacing: 3px; fill: rgb(255, 255, 255);">
						<textPath id="bottom-text-path" startOffset="50%" xlink:href="#bottom-text-circle">ESPAÑA</textPath>
					</text>
					<text id="top-text" style="font-size: 40px; font-family: &quot;Passion One&quot;; text-anchor: middle; fill: rgb(255, 255, 255); letter-spacing: 0px;">
						<textPath id="top-text-path" startOffset="75%" xlink:href="#top-text-circle">EARTH STRIKE</textPath>
					</text>
				</svg>