<?xml version="1.0" encoding="UTF-8" standalone="no"?>
<svg
   xmlns:dc="http://purl.org/dc/elements/1.1/"
   xmlns:cc="http://creativecommons.org/ns#"
   xmlns:rdf="http://www.w3.org/1999/02/22-rdf-syntax-ns#"
   xmlns:svg="http://www.w3.org/2000/svg"
   xmlns="http://www.w3.org/2000/svg"
   xmlns:xlink="http://www.w3.org/1999/xlink"
   xmlns:sodipodi="http://sodipodi.sourceforge.net/DTD/sodipodi-0.dtd"
   xmlns:inkscape="http://www.inkscape.org/namespaces/inkscape"
   id="logo"
   width="384"
   height="384"
   viewBox="0 0 384 384"
   version="1.1"
   sodipodi:docname="logo.svg"
   inkscape:version="0.92.3 (2405546, 2018-03-11)"
   inkscape:export-filename="C:\Users\Owen\Google Drive\Earth Strike\materials-kit\toolkit\logo\countries\canada\logo.png"
   inkscape:export-xdpi="96"
   inkscape:export-ydpi="96">
  <metadata
     id="metadata6589">
    <rdf:RDF>
      <cc:Work
         rdf:about="">
        <dc:format>image/svg+xml</dc:format>
        <dc:type
           rdf:resource="http://purl.org/dc/dcmitype/StillImage" />
      </cc:Work>
    </rdf:RDF>
  </metadata>
  <defs
     id="defs6587" />
  <sodipodi:namedview
     pagecolor="#ffffff"
     bordercolor="#666666"
     borderopacity="1"
     objecttolerance="10"
     gridtolerance="10"
     guidetolerance="10"
     inkscape:pageopacity="0"
     inkscape:pageshadow="2"
     inkscape:window-width="1366"
     inkscape:window-height="705"
     id="namedview6585"
     showgrid="false"
     inkscape:zoom="0.86915208"
     inkscape:cx="217.54266"
     inkscape:cy="256.15703"
     inkscape:window-x="-8"
     inkscape:window-y="-8"
     inkscape:window-maximized="1"
     inkscape:current-layer="icon" />
  <circle
     id="background-circle"
     r="132"
     cy="192"
     cx="192"
     style="fill: rgb(255, 255, 255);" />
  <svg
     id="icon-inset"
     width="264"
     height="264"
     x="60"
     y="60"
     viewBox="60 60 264 264"
     version="1.1">
    <svg
       id="icon"
       width="192"
       height="192"
       x="96"
       y="96"
       viewBox="96 96 192 192"
       version="1.1">
      <path
         id="match-top"
         d="m 102,229.44972 9,-6 123,39 -9,6 c -123,-39 0,0 -123,-39 z"
         style="fill:#ff0000"
         inkscape:connector-curvature="0" />
      <path
         id="match-front"
         d="m 102,229.44972 c 123,39 0,0 123,39 v 12 l -123,-39 z"
         style="fill:#cc0000"
         inkscape:connector-curvature="0" />
      <path
         style="fill:#ff0000;fill-opacity:1;stroke:none;stroke-width:18.04800034;stroke-linecap:butt;stroke-linejoin:miter;stroke-miterlimit:4;stroke-dasharray:none;stroke-opacity:1;paint-order:markers stroke fill"
         d="m 198,95.9497 c -5.87805,7.35987 -13.31068,25.92896 -13.31068,37.92896 -2.87571,1.66745 -6.50559,2.16967 -11.56281,0.74264 2.23121,12.87416 -1.38898,30.10133 10.05883,44.52347 l -2.08549,1.60188 c -7.7744,0.2778 -17.53257,-2.40514 -24.59986,-5.74666 -0.16608,4.62365 1.13947,9.81581 2.22869,12.30917 -5.58594,4.39835 -16.17,8.8806 -26.95879,10.63019 7.77775,7.49336 24.77697,15.94903 33.10639,15.85481 -1.40067,3.45079 -3.4633,7.2251 -6.11875,9.77662 28.53458,3.27995 42.08887,9.13704 54.70536,21.73243 3.43651,-1.29467 7.20459,-1.85949 11.1875,-1.68162 2.42349,0.10847 4.92565,0.49599 7.47656,1.14451 1.51819,-7.26455 0.54734,-13.96871 -1.12695,-22.8164 -9,0 -19.10597,0.25247 -27,-6 12,0 16.214,-0.62555 23.64258,-4.33984 C 224.67322,198.03353 207.47462,179.13117 204,158.9497 c 7.29315,14.55583 13.26269,19.2627 18,24 6,-3 12,-9 15,-15 0,9 -2.49414,17.6211 -8.49414,23.6211 11.88278,14.44797 16.78174,37.17952 12.67857,56.06279 2.38758,1.09645 5.85019,2.29388 7.88086,3.60352 6.08618,-38.40839 33.30187,-55.56707 41.41639,-73.32129 -2.52421,0.31181 -8.33809,-3.07241 -9.79749,-5.46349 2.83649,-3.98041 6.60873,-15.73418 8.17976,-26.92415 -7.92938,2.21182 -19.4528,3.35021 -25.37175,2.4785 -1.28968,-3.11346 -3.7385,-7.58714 -7.35353,-10.42129 -3.03234,6.42626 -9.78427,17.68373 -14.13868,21.96272 l -2.98774,-0.11754 c -7.51286,-8.30737 -11.39462,-22.10015 -14.97673,-42.93048 -5.59099,4.33058 -6.14322,6.68885 -10.37837,9.47754 C 207.02645,115.39499 200.79947,104.37166 198,95.94977 Z"
         id="path823"
         inkscape:connector-curvature="0"
         sodipodi:nodetypes="ccccccccccccccccccccccccccccccccc"
         inkscape:label="leaf" />
      <path
         id="match-head"
         d="m 234.58841,254.77293 c 15.29837,4.78749 20.30522,12.7011 17.94194,22.85095 -2.36327,10.14981 -11.87568,12.77873 -27.51439,8.02511 -15.6387,-4.75363 -20.39722,-13.84834 -17.39722,-22.84834 3,-9 11.67131,-12.81521 26.96967,-8.02772 z"
         style="fill:#000000"
         inkscape:connector-curvature="0" />
    </svg>
  </svg>
  <path
     id="outline-circle"
     d="M 192,0 A 192,192 0 0 0 0,192 192,192 0 0 0 192,384 192,192 0 0 0 384,192 192,192 0 0 0 192,0 Z m 0,60 A 132,132 0 0 1 324,192 132,132 0 0 1 192,324 132,132 0 0 1 60,192 132,132 0 0 1 192,60 Z"
     style="fill: rgb(255, 0, 0);" />
  <path
     id="bottom-text-circle"
     d="M 192,18 C 96,18 18,96 18,192 18,288 96,366 192,366 288,366 366,288 366,192 366,96 288,18 192,18 Z"
     style="fill:none;" />
  <path
     id="top-text-circle"
     d="M 342,192 A 150,150 0 0 1 192,342 150,150 0 0 1 42,192 150,150 0 0 1 192,42 150,150 0 0 1 342,192 Z"
     style="fill:none;" />
  <text
     id="bottom-text"
     style="font-size: 40px; font-family: &quot;Passion One&quot;; text-anchor: middle; letter-spacing: 3px; fill: rgb(255, 255, 255);">
    <textPath
       id="bottom-text-path"
       startOffset="50%"
       xlink:href="#bottom-text-circle">CANADA</textPath>
  </text>
  <text
     id="top-text"
     style="font-size: 40px; font-family: &quot;Passion One&quot;; text-anchor: middle; fill: rgb(255, 255, 255); letter-spacing: 0px;">
    <textPath
       id="top-text-path"
       startOffset="75%"
       xlink:href="#top-text-circle">EARTH STRIKE</textPath>
  </text>
</svg>
