<?xml version="1.0" encoding="UTF-8" standalone="no"?>
<!-- Created with Inkscape (http://www.inkscape.org/) -->

<svg
   xmlns:dc="http://purl.org/dc/elements/1.1/"
   xmlns:cc="http://creativecommons.org/ns#"
   xmlns:rdf="http://www.w3.org/1999/02/22-rdf-syntax-ns#"
   xmlns:svg="http://www.w3.org/2000/svg"
   xmlns="http://www.w3.org/2000/svg"
   xmlns:sodipodi="http://sodipodi.sourceforge.net/DTD/sodipodi-0.dtd"
   xmlns:inkscape="http://www.inkscape.org/namespaces/inkscape"
   width="7.5in"
   height="7.5in"
   viewBox="0 0 190.5 190.50001"
   version="1.1"
   id="svg15629"
   inkscape:version="0.92.3 (2405546, 2018-03-11)"
   sodipodi:docname="earth.svg">
  <defs
     id="defs15623" />
  <sodipodi:namedview
     id="base"
     pagecolor="#ffffff"
     bordercolor="#666666"
     borderopacity="1.0"
     inkscape:pageopacity="0.0"
     inkscape:pageshadow="2"
     inkscape:zoom="0.35"
     inkscape:cx="705.84642"
     inkscape:cy="179.89899"
     inkscape:document-units="in"
     inkscape:current-layer="layer1"
     showgrid="false"
     inkscape:snap-page="true"
     inkscape:snap-bbox="true"
     inkscape:bbox-nodes="true"
     units="in"
     inkscape:window-width="1366"
     inkscape:window-height="705"
     inkscape:window-x="-8"
     inkscape:window-y="-8"
     inkscape:window-maximized="1" />
  <metadata
     id="metadata15626">
    <rdf:RDF>
      <cc:Work
         rdf:about="">
        <dc:format>image/svg+xml</dc:format>
        <dc:type
           rdf:resource="http://purl.org/dc/dcmitype/StillImage" />
        <dc:title></dc:title>
      </cc:Work>
    </rdf:RDF>
  </metadata>
  <g
     inkscape:label="Layer 1"
     inkscape:groupmode="layer"
     id="layer1"
     transform="translate(0,-106.49998)">
    <path
       id="path2332"
       style="display:inline;fill:#000000;stroke-width:0.1966932"
       d="m 77.830532,295.25158 c -3.671168,-0.79194 -9.13683,-2.26709 -12.164327,-3.28309 C 35.015824,281.68256 11.695451,257.16654 3.1967051,226.29609 1.804551,221.2393 0.731116,215.13547 0.210864,209.31783 c -0.281152,-3.14394 -0.281152,-12.07876 0,-15.22272 1.067275,-11.93467 4.076814,-22.95703 9.0588235,-33.17775 2.2728725,-4.66284 3.4272445,-6.62481 3.9779535,-6.76089 0.650388,-0.1607 1.159301,0.34803 1.563756,1.56323 0.183359,0.55091 0.665148,1.66033 1.07064,2.46537 1.195195,2.37289 1.466613,3.38714 1.462347,5.46458 -0.0031,1.53228 -0.09325,2.07633 -0.519138,3.13478 -0.718237,1.78501 -1.141444,3.97455 -1.141444,5.90544 0,1.93264 0.192582,3.05363 0.978307,5.69459 0.319349,1.0734 0.636589,2.44772 0.704977,3.05405 0.141772,1.25695 0.401546,1.56632 1.952714,2.32549 1.347013,0.65926 1.822404,1.38422 1.994943,3.04222 0.153476,1.47477 0.690073,2.84291 1.404426,3.58079 0.620675,0.64112 0.89404,1.39094 0.89404,2.45223 0,0.89391 0.172586,1.15048 1.285424,1.91099 0.639678,0.43713 1.289877,1.43949 1.290893,1.99005 0.0013,0.6281 0.906985,2.25854 1.701912,3.06334 1.266233,1.28201 1.734214,0.8029 0.669013,-0.68492 -0.375913,-0.52503 -0.710819,-1.34839 -0.888445,-2.18419 -0.388054,-1.82597 -1.27534,-3.6147 -2.358597,-4.75484 -1.033926,-1.08823 -1.494855,-2.18956 -1.529142,-3.6537 -0.0272,-1.16216 0.096,-1.45674 0.60931,-1.45674 0.485774,0 0.722206,0.32212 1.002727,1.36615 0.350942,1.30612 1.474393,3.30123 2.591041,4.60142 0.544721,0.63425 1.084127,1.50141 1.201991,1.93233 0.158234,0.57854 0.611621,1.16264 1.74417,2.24703 1.775336,1.69986 2.801321,3.51679 3.281868,5.81195 0.592066,2.82778 1.345541,3.63442 4.68076,5.01105 2.814725,1.1618 4.172482,1.83297 5.769181,2.85187 1.029714,0.65709 1.371328,0.77972 1.943174,0.69759 2.586617,-0.37152 2.838135,-0.37459 3.464772,-0.0423 0.344792,0.18281 0.789603,0.61246 0.988475,0.95483 0.869519,1.49679 1.753804,2.05224 4.070866,2.55702 3.821875,0.83261 5.176097,1.65236 5.831465,3.52998 0.899738,2.57774 0.794826,2.48205 4.835183,4.40995 2.011354,0.95976 3.920058,1.96292 4.241562,2.22926 0.321513,0.26634 0.708377,0.48424 0.859727,0.48424 0.369197,0 0.685583,-0.62137 0.685583,-1.34643 0,-0.69221 0.44089,-0.99552 1.447006,-0.99552 1.631648,0 2.346508,1.69456 0.995283,2.35933 -0.346692,0.17057 -0.837321,0.44333 -1.09029,0.60615 -0.25296,0.16282 -0.682953,0.363 -0.955526,0.44483 -0.741911,0.22275 -1.169088,0.67043 -1.384557,1.45097 -0.106405,0.38548 -0.596712,1.18333 -1.089565,1.77301 -1.285028,1.5375 -1.575644,2.54618 -1.417595,4.92044 0.17169,2.57929 -0.04529,3.34266 -1.382347,4.86266 -0.588201,0.66869 -1.069459,1.28822 -1.069459,1.37672 0,0.0885 -0.116764,0.1609 -0.259464,0.1609 -0.607531,0 -0.990838,0.54582 -1.139209,1.62219 -0.08322,0.60379 -0.337804,1.35563 -0.565734,1.67077 -0.585372,0.80934 -0.529791,1.34468 0.180795,1.74158 0.970566,0.54211 0.955185,0.95019 -0.07077,1.87752 -0.705678,0.63785 -0.879089,0.91222 -0.789562,1.24928 0.06312,0.23756 0.193173,0.47966 0.289036,0.53799 0.09587,0.0584 0.176078,0.43022 0.17824,0.8264 0.0036,0.65785 0.09151,0.77115 1.012917,1.30582 1.505535,0.87366 2.761396,2.33288 3.443611,4.00126 1.751647,4.28374 5.432065,7.98722 10.251866,10.31609 2.680327,1.29511 3.12884,2.16793 3.12884,6.08887 0,2.88567 -0.214151,4.19451 -1.004101,6.13676 -0.546312,1.34318 -0.5777,1.5697 -0.531625,3.83596 0.04738,2.32892 0.02987,2.44395 -0.528637,3.48189 -0.763551,1.41896 -0.930963,3.5464 -0.401225,5.09895 0.441338,1.29347 0.477575,2.81363 0.08524,3.5714 -0.318611,0.61521 -0.475499,0.69652 -1.088686,0.56425 z M 66.134663,118.37178 c 0.06736,-0.10734 0.161848,-0.19516 0.209928,-0.19516 0.04812,0 0.08746,0.0878 0.08746,0.19516 0,0.10734 -0.09448,0.19517 -0.20994,0.19517 -0.115461,0 -0.154802,-0.0878 -0.08746,-0.19517 z M 94.5814,130.48183 c 0,-0.5084 -1.091009,-1.30058 -2.389758,-1.73519 -2.180421,-0.72966 -1.068092,-1.12272 1.229028,-0.4343 2.019888,0.60534 2.635408,0.6726 2.932268,0.32042 0.14265,-0.16921 0.38226,-0.30766 0.53244,-0.30766 0.99541,0 -0.85709,-1.93138 -2.15941,-2.25135 -0.968288,-0.2379 -2.919857,-1.60253 -2.919857,-2.0417 0,-0.32324 0.0899,-0.37609 0.476899,-0.28046 0.368799,0.0911 0.506621,0.0256 0.60807,-0.28903 0.0721,-0.22377 0.206409,-0.40686 0.298401,-0.40686 0.41931,0 2.513108,0.87932 2.779567,1.16733 0.40557,0.43835 1.89787,1.0539 2.16337,0.89235 0.1185,-0.0721 0.21546,-0.25764 0.21546,-0.41232 0,-0.18628 0.2175,-0.28269 0.64426,-0.28556 0.690701,-0.005 1.361862,-0.4315 1.697532,-1.07957 0.27003,-0.5214 0.0779,-0.78963 -0.6568,-0.91655 -2.056382,-0.35528 -2.993892,-0.61194 -3.451312,-0.94488 -0.28557,-0.20787 -1.04658,-0.46245 -1.69111,-0.56572 -0.644537,-0.10327 -1.263197,-0.27768 -1.374809,-0.38757 -0.11158,-0.10989 -0.43566,-0.1998 -0.720108,-0.1998 -0.28444,0 -0.6838,-0.11996 -0.88746,-0.26657 -0.333711,-0.24022 -0.34412,-0.33187 -0.105352,-0.92703 0.145723,-0.36324 0.451421,-0.81349 0.679341,-1.00055 0.61911,-0.50809 0.0891,-0.77676 -1.2354,-0.62634 -0.93744,0.10647 -1.06643,0.0771 -1.156909,-0.26354 -0.0812,-0.30566 -0.317241,-0.40095 -1.16473,-0.47014 -0.72816,-0.0594 -1.306582,-0.253 -1.836489,-0.61454 -0.655431,-0.44718 -0.85575,-0.49701 -1.311733,-0.32632 -0.699651,0.26188 -2.632615,0.26031 -2.797453,-0.002 -0.07037,-0.11204 -0.02013,-0.33161 0.11175,-0.48791 0.281225,-0.33361 2.64e-4,-0.77907 -0.611738,-0.97034 -0.493826,-0.15431 -2.980351,0.58693 -3.613378,1.07715 -0.576138,0.44617 -0.979611,0.48814 -1.51689,0.15781 -0.294841,-0.18128 -0.556914,-0.17339 -1.201873,0.0362 -0.701622,0.22797 -0.850209,0.22755 -0.994812,-0.003 -0.09349,-0.14894 -0.122888,-0.34585 -0.06528,-0.43758 0.182013,-0.28994 -0.114035,-1.0723 -0.454435,-1.2009 -0.179842,-0.0679 -0.546774,0.0183 -0.815406,0.19153 -0.333925,0.21541 -0.699545,0.27606 -1.155954,0.19176 -0.674507,-0.12457 -1.868003,0.29905 -1.868003,0.66305 0,0.0963 -0.23509,0.45024 -0.522423,0.78642 -0.453651,0.53078 -0.492458,0.67597 -0.29483,1.103 0.237043,0.51219 0.152453,0.85283 -0.21177,0.85283 -0.116975,0 -0.515517,-0.31612 -0.885645,-0.70248 -0.573103,-0.59825 -0.654825,-0.79765 -0.550754,-1.3438 0.07396,-0.38825 0.0347,-0.69456 -0.09959,-0.77626 -0.405728,-0.24687 -2.967837,0.89707 -3.602114,1.60828 -0.693743,0.77789 -0.706057,1.47452 -0.02774,1.56937 0.466664,0.0652 0.58606,0.31731 0.2478,0.52312 -0.10904,0.0663 -0.198241,0.25011 -0.198241,0.40837 0,0.2457 0.427334,0.27113 2.923974,0.17398 1.608185,-0.0626 3.707844,-0.14269 4.665919,-0.17803 1.311579,-0.0484 1.836311,-0.14832 2.123879,-0.40454 0.210069,-0.18716 0.806773,-0.41843 1.326012,-0.51393 0.519245,-0.0955 1.068319,-0.29595 1.220161,-0.44544 0.23595,-0.23229 0.452747,-0.19408 1.491443,0.26286 0.668451,0.29405 1.482987,0.58702 1.810075,0.65103 0.327089,0.064 1.240864,0.46673 2.030614,0.89493 0.789752,0.42821 1.735603,0.87592 2.10189,0.99493 0.827449,0.26885 1.576088,1.02841 1.482952,1.50456 -0.03862,0.19718 -0.559591,0.64617 -1.15779,0.99777 -1.248175,0.73359 -1.355601,0.9037 -0.890363,1.40982 0.378127,0.41135 0.251876,0.78166 -0.266475,0.78166 -0.188725,0 -0.850826,0.13019 -1.471337,0.28931 -0.815015,0.20899 -1.273278,0.23502 -1.650728,0.0937 -0.418925,-0.15681 -0.734076,-0.10022 -1.5896,0.28538 -1.12209,0.50575 -1.392238,1.01496 -0.621075,1.17067 1.697101,0.34265 1.930188,0.32295 3.3289,-0.28145 l 1.401916,-0.60576 1.029361,0.33329 c 1.092227,0.35365 2.714366,1.3407 2.714366,1.65165 0,0.51185 0.822984,0.96644 1.749576,0.96644 0.771728,0 1.04938,0.0972 1.436589,0.50299 0.36625,0.38382 0.621009,0.48219 1.075291,0.41522 0.584419,-0.0862 2.39563,0.35637 2.765999,0.67583 0.35628,0.30731 0.901959,0.17545 0.901959,-0.21796 z m 68.43963,14.88516 c 0.41218,-0.23574 0.51102,-0.80203 0.23228,-1.33094 -0.16051,-0.30463 -0.38777,-0.92889 -0.505,-1.38725 -0.2383,-0.93174 -0.57459,-1.29159 -1.48858,-1.59282 -0.66071,-0.21778 -1.06248,-0.0297 -1.06248,0.49718 0,0.1976 -0.15819,0.235 -0.5947,0.14063 -0.72296,-0.15634 -0.76302,0.0804 -0.19825,1.17097 0.21807,0.42108 0.39649,1.0602 0.39649,1.42024 0,0.36005 0.0958,0.83082 0.2128,1.04613 0.19284,0.35472 0.33712,0.37876 1.53633,0.2559 0.72793,-0.0747 1.38993,-0.1736 1.47111,-0.22004 z m 7.53118,2.94769 c -0.0406,-0.73471 -0.18071,-1.08164 -0.62216,-1.54023 -0.31338,-0.32555 -0.82505,-1.11316 -1.13702,-1.75025 -0.312,-0.63709 -1.19837,-1.83533 -1.96974,-2.66275 -0.77136,-0.82744 -1.48568,-1.79002 -1.58737,-2.1391 -0.10168,-0.34907 -0.34032,-0.7097 -0.53032,-0.80138 -0.18997,-0.0918 -0.50152,-0.24169 -0.69232,-0.33331 -0.1908,-0.0916 -0.39152,-0.46388 -0.44603,-0.82723 -0.0648,-0.43205 -0.22245,-0.68387 -0.45555,-0.72776 -0.61783,-0.11637 -0.9321,0.33861 -0.9321,1.3493 0,0.82383 0.0764,1.00173 0.59171,1.37676 0.32543,0.23687 0.73896,0.81036 0.91898,1.27441 0.18,0.46405 0.40411,0.84372 0.49803,0.84372 0.094,0 0.5278,0.3176 0.96425,0.70578 0.83825,0.74558 1.0171,1.40569 0.49615,1.83134 -0.20812,0.17004 -0.29736,0.62101 -0.29736,1.50263 0,1.13207 0.0587,1.31747 0.57945,1.83016 0.45991,0.45278 0.75642,0.57125 1.43721,0.57423 0.47176,0.002 1.30378,0.12554 1.84893,0.27435 0.54514,0.14882 1.08038,0.24742 1.18941,0.21913 0.10903,-0.0283 0.17466,-0.47821 0.14585,-0.9998 z m -94.430601,57.1125 c 0.190572,-0.10039 1.232877,-0.21019 2.316234,-0.24395 1.820413,-0.0568 1.974215,-0.0921 2.028677,-0.4674 0.05025,-0.34605 -0.101616,-0.44136 -1.028626,-0.64561 -0.598162,-0.13179 -1.293725,-0.39871 -1.545701,-0.59318 -0.251976,-0.19446 -0.735513,-0.41318 -1.074536,-0.48605 -0.339024,-0.073 -0.868646,-0.3917 -1.176936,-0.70851 -0.308295,-0.3168 -0.720825,-0.576 -0.916734,-0.576 -0.1959,0 -1.18278,-0.3511 -2.193054,-0.7802 -1.010274,-0.4291 -2.104483,-0.78915 -2.431571,-0.8001 -0.327086,-0.0116 -0.816734,-0.0809 -1.088102,-0.15513 -1.36815,-0.37492 -4.398457,0.53158 -4.678248,1.39948 -0.251707,0.78074 0.246874,0.78577 1.675008,0.0168 1.385424,-0.74592 1.400953,-0.74914 1.981501,-0.41152 0.321824,0.18715 0.819651,0.34029 1.106282,0.34029 0.286632,0 0.964766,0.22131 1.50696,0.4918 0.5422,0.2705 1.393153,0.54678 1.891025,0.61397 0.639345,0.0862 0.993087,0.25419 1.20442,0.57172 0.164569,0.24726 0.596996,0.54633 0.960946,0.66459 0.908164,0.29508 1.177711,0.64466 0.896265,1.16241 -0.121636,0.22377 -0.167171,0.49284 -0.101174,0.59796 0.148747,0.23695 0.231902,0.23802 0.667367,0.01 z m 18.160783,2.68788 c 0.29704,-0.2714 -0.27618,-0.54724 -1.14441,-0.55071 -0.800912,-0.002 -1.231191,0.47372 -0.716492,0.79415 0.311852,0.19412 1.560841,0.0306 1.860902,-0.24344 z m -8.482742,0.56763 c 0.150823,-0.33277 0.484301,-0.46615 1.647782,-0.65918 0.93421,-0.15495 1.583359,-0.17628 1.805358,-0.0591 1.141312,0.60135 0.964142,-0.45032 -0.221969,-1.31751 -1.53561,-1.12268 -2.054469,-1.271 -4.553935,-1.30166 -1.742278,-0.0213 -2.285177,0.0315 -2.285177,0.22236 0,0.13774 0.223012,0.35989 0.495589,0.49367 0.328213,0.1611 0.495585,0.4061 0.495585,0.72539 0,0.45992 -0.06225,0.48482 -1.350825,0.54015 -1.147749,0.0493 -1.341112,0.108 -1.286264,0.39032 0.05426,0.27942 0.356201,0.34127 1.895965,0.38846 1.007277,0.031 1.831427,0.14064 1.831427,0.24394 0,0.33631 0.7766,0.96241 1.060662,0.85511 0.152188,-0.0574 0.361802,-0.2923 0.465802,-0.52174 z m 6.60718,88.23671 c -3.652618,-0.12696 -3.87849,-0.15716 -4.2125,-0.56326 -0.194088,-0.23599 -0.35292,-0.6034 -0.35292,-0.81647 0,-1.1074 1.673532,-2.56305 3.326371,-2.89329 0.978831,-0.19557 1.269488,-0.36711 2.125099,-1.25423 1.38539,-1.43643 1.651569,-1.54222 3.484919,-1.38477 1.84027,0.15806 2.38748,-0.0524 3.382191,-1.30104 0.89508,-1.12355 1.29905,-1.43653 2.35083,-1.82135 2.3239,-0.85024 4.76481,-2.62166 6.66055,-4.83371 0.62737,-0.73203 1.4654,-1.49405 1.86229,-1.6934 1.01521,-0.50988 1.19363,-0.78726 1.3911,-2.16258 0.20509,-1.42857 0.95105,-2.34688 2.26447,-2.78762 2.41273,-0.80968 4.49154,-1.35895 5.71584,-1.51031 1.95738,-0.24196 2.57024,-0.67855 3.41615,-2.4335 0.38381,-0.79625 1.05364,-1.90935 1.48854,-2.47361 1.64028,-2.1281 2.7806,-4.86179 3.1776,-7.61755 0.10575,-0.73447 0.31714,-1.57295 0.46966,-1.86326 0.28689,-0.5462 1.8642,-2.05381 3.17772,-3.03731 0.89225,-0.66804 1.38602,-1.68258 1.70803,-3.50946 0.40457,-2.29529 -0.272,-3.4407 -2.03287,-3.44152 -0.65913,-2.6e-4 -1.05228,-0.17392 -2.93696,-1.29693 -0.70332,-0.4191 -1.6063,-0.72229 -2.84302,-0.95466 -2.26342,-0.42526 -3.35684,-0.81964 -6.14376,-2.21595 -2.40355,-1.20423 -4.23295,-1.71764 -6.89393,-1.93472 l -1.65996,-0.13543 0.0619,-0.95022 c 0.0485,-0.74688 -0.0256,-1.04206 -0.34745,-1.37929 -0.22519,-0.23598 -0.62933,-0.98151 -0.89813,-1.65674 -0.69842,-1.75459 -1.6434,-2.79855 -3.22839,-3.56659 -1.27188,-0.61632 -1.42786,-0.64399 -3.62777,-0.64399 -2.21055,0 -2.33582,-0.0226 -3.2656,-0.58826 -0.531791,-0.32355 -1.330261,-1.05649 -1.774411,-1.62876 -0.90394,-1.16474 -1.50711,-1.56742 -2.38254,-1.59056 -0.97013,-0.0256 -1.674368,-0.43757 -2.139558,-1.25149 -0.280641,-0.49101 -0.65074,-0.83104 -1.03223,-0.94831 -0.32707,-0.10061 -1.080691,-0.40363 -1.674691,-0.67348 -1.034158,-0.46978 -1.13657,-0.48011 -2.411658,-0.24326 -1.30828,0.24304 -1.348087,0.23789 -2.268625,-0.29321 -0.831665,-0.47985 -1.077828,-0.52948 -2.190091,-0.44158 -1.153864,0.0912 -1.315839,0.0537 -2.045113,-0.47438 -0.435576,-0.31538 -1.094065,-0.62166 -1.463289,-0.68065 -1.361876,-0.21757 -2.712802,1.03661 -2.714302,2.51992 -5.29e-4,0.59866 -0.07213,0.73187 -0.392636,0.73187 -0.653339,0 -0.988775,-0.79712 -1.182127,-2.80917 -0.21713,-2.25941 -0.627808,-3.16355 -1.714381,-3.77438 -0.978913,-0.55031 -2.222566,-0.56823 -3.602394,-0.052 -1.233226,0.46146 -1.857891,0.48905 -2.584779,0.11411 -0.695576,-0.35876 -1.683067,-1.39878 -2.146834,-2.26103 -0.374213,-0.69577 -0.375819,-0.73616 -0.213601,-5.36699 0.03348,-0.95519 -0.04425,-1.28868 -0.421706,-1.80967 -0.770967,-1.06418 -1.719014,-1.41053 -3.860969,-1.41053 -2.027531,0 -3.01126,-0.23412 -3.312544,-0.78834 -0.27859,-0.5125 -0.234834,-2.84927 0.07482,-3.99316 0.323173,-1.19396 0.794528,-2.11245 1.57471,-3.06845 0.837832,-1.02664 0.546915,-1.32271 -1.299652,-1.32271 -2.62351,0 -3.57202,0.56728 -3.913632,2.3407 -0.396772,2.05974 -1.129887,2.61645 -3.445513,2.61643 -2.413568,-1e-5 -3.383068,-0.33624 -4.6927,-1.62754 -2.815383,-2.77597 -3.759986,-6.72669 -2.199304,-9.19839 0.335116,-0.53075 0.709904,-1.33754 0.832858,-1.79289 0.585341,-2.16778 2.302706,-4.09389 4.31033,-4.83428 0.803794,-0.29641 1.867649,-0.46098 3.683153,-0.56975 2.476524,-0.14835 2.600516,-0.1773 4.145143,-0.96782 2.205,-1.12849 2.89048,-1.19065 4.666827,-0.42309 1.292502,0.55851 1.497319,0.59494 2.238925,0.39833 1.589061,-0.42125 2.481884,0.43883 2.929358,2.82196 0.27268,1.45215 0.967028,2.94985 1.801283,3.88529 0.867889,0.97315 1.280285,1.17735 1.811962,0.89722 0.397177,-0.20928 0.416132,-0.33297 0.322599,-2.10487 -0.07651,-1.44941 -0.264822,-2.38074 -0.818454,-4.04789 -0.776608,-2.33861 -0.914977,-3.82867 -0.438632,-4.72383 0.357108,-0.67109 1.378527,-1.60515 2.395736,-2.19084 2.080284,-1.1978 3.935947,-3.26799 4.947187,-5.51913 0.267438,-0.59535 0.627388,-1.81353 0.799889,-2.70706 0.418837,-2.1694 0.74214,-2.74987 1.867436,-3.35285 0.737015,-0.39491 1.035052,-0.7142 1.417042,-1.51803 0.36336,-0.7646 0.832223,-1.2887 1.884087,-2.10602 1.595864,-1.24001 2.30704,-2.00089 3.297071,-3.52765 0.382857,-0.59036 0.86523,-1.22014 1.07197,-1.39951 0.764011,-0.66285 2.443501,-1.33223 3.827322,-1.52545 0.89793,-0.12538 1.869998,-0.42742 2.6317,-0.81766 1.186136,-0.60777 2.685456,-0.85384 2.762506,-0.45339 0.0207,0.10742 -0.53389,0.50327 -1.2323,0.87985 -1.03687,0.55906 -1.281527,0.78499 -1.333698,1.23156 -0.15177,1.2992 0.952878,1.47564 2.006248,0.32042 0.86875,-0.95271 2.05064,-1.49811 3.623882,-1.67225 1.3999,-0.15496 1.86759,-0.36155 1.86759,-0.82498 0,-0.61564 -0.43531,-0.81283 -1.79446,-0.81283 -1.521402,0 -2.396732,-0.44413 -3.062322,-1.55377 -0.21804,-0.36356 -0.68639,-0.94719 -1.04073,-1.29698 -0.80306,-0.7927 -0.80606,-0.97186 -0.019,-1.12685 0.81309,-0.16009 1.15874,-0.45624 1.15874,-0.9927 0,-1.00046 -1.24142,-1.31903 -3.498278,-0.89765 -1.86557,0.34832 -3.21178,0.9822 -4.414899,2.07881 -0.637741,0.58126 -1.25908,1.05686 -1.380799,1.05686 -0.506992,0 -0.156231,-0.6175 0.797599,-1.40411 0.56038,-0.46215 1.34093,-1.11372 1.73455,-1.44795 0.9094,-0.77219 1.528329,-1.08016 3.927129,-1.95411 2.133908,-0.77744 3.337658,-0.87708 6.89852,-0.57105 l 1.78412,0.15334 1.5769,-0.81958 c 1.18205,-0.61435 1.90731,-0.85432 2.89647,-0.95838 1.42757,-0.15017 2.16221,-0.51234 2.70992,-1.33597 0.283,-0.4256 0.34966,-0.95516 0.34966,-2.77835 0,-2.04303 -0.0461,-2.33257 -0.49559,-3.11331 -1.05853,-1.83857 -2.89327,-2.64904 -4.90592,-2.16712 -0.62715,0.15018 -1.6021,0.27811 -2.16659,0.28433 -1.4002,0.0154 -1.96701,-0.43404 -2.5515,-2.02321 -0.32314,-0.87865 -0.700462,-1.46774 -1.266112,-1.97677 -0.44316,-0.39883 -0.80576,-0.86702 -0.80576,-1.04043 0,-0.517 -0.74329,-1.09593 -1.40703,-1.09593 -0.47931,0 -0.8165,0.21161 -1.53633,0.96415 -1.042198,1.08958 -2.064368,1.46788 -3.398677,1.25782 -1.52131,-0.2395 -2.145599,-0.86398 -2.47957,-2.48033 -0.135321,-0.65497 -0.537749,-1.03218 -2.359591,-2.21179 -1.94102,-1.25677 -2.701107,-1.4898 -4.421997,-1.35566 -0.786162,0.0612 -2.155687,0.0153 -3.043388,-0.10237 -2.137688,-0.28323 -2.237089,-0.19329 -1.975903,1.78831 0.294066,2.23099 0.258389,2.63214 -0.291322,3.2753 -0.670375,0.78435 -0.660271,1.68739 0.02514,2.24595 1.670563,1.3614 1.882712,1.92119 1.223523,3.22859 -0.341873,0.6781 -0.788074,1.12322 -1.786358,1.78209 -1.791848,1.18264 -2.061818,1.73678 -1.755854,3.60403 0.27799,1.69655 0.06245,2.87717 -0.653836,3.58242 -0.718201,0.70708 -1.618282,0.66066 -2.326754,-0.12 -0.568737,-0.62667 -1.168503,-2.25026 -1.168503,-3.16321 0,-1.17189 -0.584039,-2.47773 -1.46626,-3.27833 -1.156229,-1.04926 -1.92691,-1.23214 -4.579914,-1.08675 -2.429237,0.13312 -5.004779,-0.23001 -6.688235,-0.943 -1.716961,-0.72717 -3.11159,-2.72509 -3.120046,-4.46975 -0.0057,-1.13674 0.275069,-1.92519 1.208402,-3.39568 0.408779,-0.64404 0.905275,-1.43016 1.103326,-1.74691 0.493591,-0.78944 1.291333,-1.20393 3.232663,-1.67961 2.644744,-0.64804 4.691005,-1.81603 4.456414,-2.54369 -0.134754,-0.418 1.312635,-2.37607 1.976501,-2.67387 0.337884,-0.15156 0.670791,-0.14988 1.186628,0.006 0.586597,0.17725 0.843594,0.15721 1.413134,-0.11019 0.382876,-0.17975 0.925968,-0.32681 1.206862,-0.32681 0.570257,0 2.365963,-1.06587 2.537609,-1.50624 0.152397,-0.391 -0.03754,-0.65563 -1.14105,-1.58974 -1.203458,-1.01873 -1.608855,-1.02372 -3.680947,-0.0453 -0.150387,0.071 -0.373404,0.4336 -0.495581,0.80576 -0.250912,0.76427 -1.220525,1.36087 -2.204497,1.35642 -0.988227,-0.005 -1.164014,-0.22647 -0.752618,-0.95055 0.346882,-0.61052 0.345834,-0.63442 -0.0403,-0.91859 -0.465333,-0.34243 -1.098103,-0.22948 -1.872618,0.33426 l -0.544311,0.3962 -0.751994,-0.50241 c -1.150691,-0.76878 -2.239697,-0.57905 -2.83588,0.4941 -0.186296,0.33533 -1.024359,1.30219 -1.862358,2.14856 -1.670028,1.6867 -1.843772,1.74878 -3.417427,1.22088 -1.193024,-0.4002 -2.549914,-0.26865 -4.211947,0.40834 -0.88451,0.3603 -1.820029,0.54561 -3.375774,0.66873 -1.934442,0.15309 -2.352129,0.25927 -4.128748,1.04954 -2.268488,1.00906 -6.885419,2.22204 -7.695658,2.02183 -0.28893,-0.0714 -0.525328,-0.24887 -0.525328,-0.3944 0,-0.34854 4.36153,-3.766 7.731173,-6.05775 10.869735,-7.39267 23.325038,-12.62496 35.979693,-15.11457 6.097204,-1.19953 12.974656,-1.90704 16.677905,-1.7157 2.918881,0.1508 5.949613,0.77744 7.774213,1.6074 1.15976,0.52753 1.78493,0.98628 2.8862,2.11786 1.24087,1.27503 1.54529,1.48211 2.59517,1.76533 1.71072,0.4615 2.08149,0.64089 2.08149,1.00713 0,0.28398 -0.17896,0.31047 -1.41083,0.20879 -0.77595,-0.0641 -1.67405,-0.0646 -1.99578,-0.001 -0.70158,0.13814 -1.23747,0.8572 -1.05669,1.41789 0.21532,0.66794 0.78719,0.84136 1.94534,0.58994 0.56716,-0.12312 1.43262,-0.19434 1.92325,-0.15826 l 0.89205,0.0656 -1.04632,0.46552 c -1.26884,0.56451 -1.86146,1.32933 -1.98128,2.55697 -0.13036,1.33568 0.35306,2.1985 1.75799,3.13779 1.24888,0.83496 1.79683,1.46698 2.67263,3.08269 0.70572,1.302 2.30537,2.8974 3.60142,3.59188 1.62743,0.87201 3.08094,1.13926 5.85848,1.07712 l 2.47517,-0.0554 1.19609,1.12218 c 1.00465,0.94258 1.31092,1.12219 1.91363,1.12219 0.49185,0 0.86628,-0.14641 1.19036,-0.46547 0.95713,-0.94231 1.14064,-3.30427 0.36055,-4.64046 -0.26413,-0.45242 -0.29263,-0.63135 -0.11066,-0.69457 0.13483,-0.0469 0.44189,-0.24202 0.68236,-0.43373 0.41976,-0.33463 0.4266,-0.39207 0.17159,-1.43859 -0.2384,-0.97846 -0.23058,-1.14264 0.0764,-1.60399 0.41533,-0.62404 1.42448,-1.06646 2.43589,-1.06793 0.41236,-6.1e-4 1.07291,-0.0894 1.4679,-0.19748 0.808,-0.22096 2.46529,-1.56467 2.65478,-2.15248 0.13848,-0.42953 1.05727,-0.96672 1.65347,-0.96672 0.21316,0 0.76127,-0.30739 1.21802,-0.68308 0.45674,-0.37568 0.97069,-0.68307 1.14209,-0.68307 0.45643,0 4.7271,2.25198 7.93024,4.18169 9.8846,5.95492 18.83089,13.83907 26.0611,22.96699 1.86351,2.35261 2.72947,3.66057 2.72947,4.12259 0,0.41444 -0.108,0.41629 -1.8312,0.0315 -0.66572,-0.14866 -0.9207,0.31047 -0.55057,0.99135 0.3346,0.61549 0.11737,0.88368 -0.71559,0.88368 -0.93034,0 -1.37891,0.26514 -1.62516,0.96057 -0.13294,0.37544 -0.4854,0.71939 -1.00412,0.97994 -0.88785,0.44592 -1.51576,0.50052 -2.31513,0.20131 -0.73186,-0.27394 -1.27526,-0.0696 -1.27526,0.47951 0,0.35027 0.19156,0.52028 0.87642,0.77777 1.11465,0.41909 2.34992,1.7315 3.10112,3.29476 1.08599,2.25999 0.62016,3.19669 -1.50348,3.0233 -0.79594,-0.0649 -1.22723,-0.21603 -1.60074,-0.56068 -0.34942,-0.32239 -0.77252,-0.48315 -1.33656,-0.50782 -0.45391,-0.0198 -1.14536,-0.0935 -1.53658,-0.16404 -0.81639,-0.14684 -1.48905,0.31139 -1.26189,0.8596 0.117,0.28247 0.26776,1.10927 0.61305,3.36288 0.076,0.49498 -0.0154,0.94258 -0.30672,1.50473 -0.52517,1.01353 -0.52029,1.12365 0.081,1.82714 0.37961,0.44414 0.4956,0.80146 0.4956,1.52674 0,1.10691 0.35157,1.56029 1.20994,1.56029 0.7236,0 1.77086,0.41601 2.13476,0.84801 0.36772,0.4365 1.14274,0.40703 1.75445,-0.0665 0.39623,-0.30686 0.76865,-0.38244 1.75275,-0.35575 0.83462,0.0226 1.3629,-0.0585 1.59074,-0.24464 0.48362,-0.39486 0.87423,-1.40881 0.87552,-2.27268 0.002,-1.38365 0.3538,-2.17114 1.20645,-2.70104 0.80751,-0.50186 1.17126,-1.10841 1.17126,-1.95306 0,-0.59617 0.57887,-0.64123 1.09029,-0.085 0.4523,0.49202 1.12593,0.50036 1.56801,0.0195 0.8888,-0.9669 1.82881,-0.4135 2.37648,1.39912 0.27552,0.91184 0.61691,1.41717 1.79595,2.65839 1.71123,1.80148 2.48501,2.89659 2.66759,3.77553 0.1466,0.70577 0.6621,0.86924 0.7781,0.24676 0.0401,-0.21467 0.21255,-0.54554 0.38346,-0.73523 0.28494,-0.31634 0.26947,-0.38905 -0.18682,-0.87821 -0.27363,-0.29335 -0.70732,-0.84073 -0.96379,-1.21643 -0.25647,-0.37569 -0.91755,-1.17052 -1.4691,-1.76631 -1.09721,-1.18522 -1.86191,-2.42963 -1.63209,-2.65589 0.0806,-0.0792 0.99616,0.68578 2.03488,1.69997 2.22281,2.17034 2.69988,3.03011 4.21794,7.60131 1.9886,5.98811 2.1484,6.93086 1.28794,7.59721 -0.83112,0.64364 -1.41686,0.50963 -2.94677,-0.67418 -2.85348,-2.20793 -3.04526,-2.40804 -3.7939,-3.95922 -1.00567,-2.08375 -1.82393,-3.01529 -3.27614,-3.72973 -1.04433,-0.51377 -1.43927,-0.60021 -2.74204,-0.60021 -1.3892,0 -1.66477,0.0706 -3.15858,0.80901 l -1.63658,0.80905 -1.02608,-0.41872 c -0.56438,-0.23028 -1.1308,-0.4187 -1.25875,-0.4187 -0.12794,0 -0.54037,-0.17877 -0.91656,-0.39727 -0.62818,-0.3649 -0.7099,-0.37172 -1.00252,-0.0837 -0.17521,0.1725 -0.31855,0.60951 -0.31855,0.97114 0,0.54675 -0.16243,0.79237 -0.96417,1.45792 -1.38354,1.14851 -2.01458,2.39532 -2.15325,4.2544 l -0.11239,1.50639 -1.24809,1.30909 c -0.68645,0.71999 -1.73764,2.12517 -2.336,3.12262 -0.59835,0.99743 -1.60706,2.41694 -2.24157,3.15446 -1.77422,2.06224 -2.39384,3.01407 -2.65216,4.07426 -0.37002,1.51847 -0.12761,2.94701 0.79474,4.68349 0.64273,1.21002 0.80265,1.71608 0.80177,2.53712 -0.002,1.34287 -0.29648,2.34371 -0.89857,3.04815 -0.60132,0.70356 -0.61681,1.23705 -0.0575,1.98172 0.36682,0.48846 0.39608,0.64715 0.19823,1.07467 -0.47316,1.02239 -0.29715,1.79704 0.63277,2.78476 0.4757,0.50525 1.3788,1.70908 2.00691,2.67513 0.68841,1.05881 1.69547,2.26033 2.53545,3.02503 0.76638,0.69771 2.22441,2.05046 3.24002,3.00611 1.99332,1.87563 2.14082,1.93349 3.80409,1.49256 0.44118,-0.117 2.07968,-0.2927 3.64112,-0.39056 2.32652,-0.1458 3.16628,-0.28602 4.6523,-0.77687 2.13124,-0.70396 2.59635,-0.731 3.58634,-0.20864 0.40686,0.21469 0.84572,0.39033 0.97526,0.39033 0.46239,0 1.44704,1.01261 1.63445,1.68088 0.15304,0.54567 0.0928,0.99617 -0.30539,2.28062 -0.61916,1.99771 -0.55484,2.86659 0.42022,5.67602 1.517,4.37094 1.44146,7.26385 -0.2742,10.50051 -0.55279,1.04287 -1.18672,2.36154 -1.40872,2.93037 -0.94541,2.42237 -1.77187,6.76685 -1.77914,9.35239 -0.003,1.24508 -0.0513,1.36977 -1.31087,3.41536 -5.47339,8.88942 -13.47563,17.74573 -22.21624,24.58741 -11.85618,9.28037 -26.38173,15.93771 -41.00303,18.79252 -7.80671,1.52427 -14.85878,2.04975 -23.483881,1.74993 z"
       inkscape:connector-curvature="0" />
  </g>
</svg>
