<?xml version="1.0" encoding="UTF-8" standalone="no"?>
<!-- Created with Inkscape (http://www.inkscape.org/) -->

<svg
   xmlns:dc="http://purl.org/dc/elements/1.1/"
   xmlns:cc="http://creativecommons.org/ns#"
   xmlns:rdf="http://www.w3.org/1999/02/22-rdf-syntax-ns#"
   xmlns:svg="http://www.w3.org/2000/svg"
   xmlns="http://www.w3.org/2000/svg"
   xmlns:sodipodi="http://sodipodi.sourceforge.net/DTD/sodipodi-0.dtd"
   xmlns:inkscape="http://www.inkscape.org/namespaces/inkscape"
   width="20.833in"
   height="9.6999998in"
   viewBox="0 0 529.15819 246.37999"
   version="1.1"
   id="svg5263"
   inkscape:version="0.92.3 (2405546, 2018-03-11)"
   sodipodi:docname="protest-silhouette.svg">
  <defs
     id="defs5257" />
  <sodipodi:namedview
     id="base"
     pagecolor="#ffffff"
     bordercolor="#666666"
     borderopacity="1.0"
     inkscape:pageopacity="0.0"
     inkscape:pageshadow="2"
     inkscape:zoom="0.35355339"
     inkscape:cx="848.23896"
     inkscape:cy="463.54785"
     inkscape:document-units="in"
     inkscape:current-layer="layer1"
     showgrid="false"
     inkscape:snap-page="true"
     units="in"
     inkscape:window-width="1366"
     inkscape:window-height="705"
     inkscape:window-x="-8"
     inkscape:window-y="-8"
     inkscape:window-maximized="1" />
  <metadata
     id="metadata5260">
    <rdf:RDF>
      <cc:Work
         rdf:about="">
        <dc:format>image/svg+xml</dc:format>
        <dc:type
           rdf:resource="http://purl.org/dc/dcmitype/StillImage" />
        <dc:title></dc:title>
      </cc:Work>
    </rdf:RDF>
  </metadata>
  <g
     inkscape:label="Layer 1"
     inkscape:groupmode="layer"
     id="layer1"
     transform="translate(0,-50.620011)">
    <g
       id="g5836"
       transform="matrix(0.99998632,0,0,1.0000294,165.55132,-77.968701)">
      <path
         style="fill:#000000;stroke-width:0.26458335"
         d="m -165.5524,345.98572 0.001,-28.97188 3.12357,-3.175 c 2.24089,-2.27778 3.73777,-4.10398 5.29705,-6.46242 2.39599,-3.62397 2.74638,-4.44914 2.05384,-4.83671 -0.28782,-0.16108 -0.38854,-0.43013 -0.28415,-0.75905 0.1977,-0.62289 -0.44442,-0.70048 -0.93227,-0.11265 -0.65897,0.79401 -0.86872,0.42402 -0.71248,-1.25677 0.0845,-0.90951 0.23379,-1.92154 0.33166,-2.24896 0.0979,-0.32742 0.0748,-0.5951 -0.0513,-0.59484 -0.40066,7.9e-4 -1.64382,2.21158 -1.91014,3.39689 -0.33712,1.50041 -0.49049,1.60722 -0.7671,0.53425 -0.16027,-0.62169 -0.40342,-0.91432 -0.80884,-0.97345 -0.74247,-0.1083 -0.72936,-0.25072 0.0818,-0.88877 0.3875,-0.30481 0.66146,-0.79175 0.66146,-1.1757 0,-0.82044 0.63962,-2.08773 1.62419,-3.21801 0.79102,-0.90809 0.8527,-1.12829 0.59029,-2.10746 -0.19678,-0.73431 -0.6601,-0.76045 -1.28279,-0.0724 -0.26029,0.28761 -0.58211,0.45565 -0.71516,0.37341 -0.30152,-0.18634 -0.0107,-2.31281 0.48097,-3.51665 0.46009,-1.12656 0.22283,-1.42009 -0.44517,-0.55074 -0.48637,0.63298 -1.0771,2.20015 -1.43412,3.80463 -0.13228,0.59446 -0.24117,0.69492 -0.4865,0.44883 -0.20316,-0.20378 -0.29979,-1.11551 -0.27048,-2.55182 0.0374,-1.83153 -0.0261,-2.23476 -0.35175,-2.23476 -0.62013,0 -0.18546,-1.59846 0.63698,-2.34246 0.55714,-0.504 0.63307,-0.71114 0.3984,-1.0869 -0.22813,-0.3653 -0.17949,-0.57467 0.22822,-0.98237 0.51445,-0.51446 0.50975,-0.53961 -0.66243,-3.5433 -1.00968,-2.58731 -2.64748,-7.91406 -3.18762,-10.36736 -0.16426,-0.74604 -0.79463,-0.98817 -1.03322,-0.39688 -0.0734,0.1819 -0.14153,-24.67239 -0.1514,-55.23177 l -0.0179,-55.5625 1.36305,-0.52917 c 0.74968,-0.29104 1.45204,-0.70776 1.56081,-0.92604 0.10876,-0.21828 0.32347,-2.59953 0.47714,-5.29167 0.7157,-12.5388 1.48275,-23.59009 1.65689,-23.87186 0.14299,-0.23136 1.18888,-0.13371 4.11243,0.38395 24.05269,4.25891 52.18071,9.14794 65.17172,11.32773 3.565261,0.59822 6.578452,1.18079 6.69598,1.2946 0.117528,0.1138 -0.02334,1.1466 -0.313042,2.29511 -0.998019,3.95658 -2.678771,14.70226 -2.678771,17.12637 0,0.81457 0.154456,1.29145 0.527682,1.62922 0.661967,0.59907 1.056434,1.98765 1.058341,3.72553 7.94e-4,0.74754 0.294738,2.18231 0.662935,3.23618 0.363802,1.04128 0.662546,2.22289 0.663877,2.62581 0.0013,0.40292 0.286864,1.31998 0.634518,2.03791 0.708734,1.4636 0.674183,1.71819 -0.425145,3.13271 -1.857423,2.38997 -3.112477,6.88634 -3.118732,11.17321 -0.0024,1.5796 -0.181745,3.00547 -0.532643,4.23249 -0.393512,1.37604 -0.529167,2.64359 -0.529167,4.94448 0,1.70175 0.106926,3.16017 0.237615,3.24094 0.130688,0.0808 1.112954,-0.14481 2.182812,-0.50129 5.300152,-1.76604 15.756156,-3.90953 25.966829,-5.32322 3.007633,-0.41641 3.42827,-0.4244 3.780877,-0.0718 0.4229,0.4229 2.605966,8.90705 5.027603,19.53901 0.812059,3.56526 1.939784,8.44412 2.506056,10.84192 0.583928,2.47255 0.929934,4.45927 0.799367,4.58984 -0.126619,0.12662 -1.820008,0.50617 -3.763084,0.84345 -3.378549,0.58644 -10.882882,2.19658 -13.006346,2.79065 -0.553746,0.15492 -1.073546,0.45558 -1.15511,0.66813 -0.133712,0.34845 2.489703,11.10391 3.099832,12.70868 0.138449,0.36415 0.375452,0.58562 0.526675,0.49216 0.151222,-0.0935 0.796451,-1.26148 1.433843,-2.59561 1.897325,-3.97129 4.174318,-5.84358 7.97749,-6.55961 1.992317,-0.37509 6.44449,-0.13838 8.473022,0.4505 2.029545,0.58917 5.117068,2.46528 5.78648,3.5161 0.291042,0.45687 1.152996,1.6292 1.915451,2.60518 1.930159,2.47069 2.29489,3.70795 2.080202,7.05663 -0.09437,1.472 -0.239474,3.23129 -0.322448,3.90955 -0.124984,1.02165 -0.01286,1.52091 0.653677,2.91042 0.442495,0.92247 1.144238,2.08109 1.559425,2.5747 0.649182,0.77181 0.831303,0.85659 1.300607,0.60543 0.757801,-0.40557 1.041554,-1.26709 1.671432,-5.07479 0.614508,-3.71476 1.077991,-5.60975 2.482479,-10.1498 0.927098,-2.99687 0.956585,-3.20747 0.654167,-4.67163 -0.285764,-1.38354 -0.222697,-2.1494 0.645776,-7.84187 0.882177,-5.78229 1.265656,-8.60603 2.875746,-21.17552 0.304369,-2.37613 0.506357,-5.20378 0.453599,-6.35 l -0.09511,-2.06639 h 1.02585 c 0.648436,0 1.097905,-0.14601 1.221698,-0.39687 0.107714,-0.21828 0.581528,-2.38063 1.052917,-4.80523 0.983864,-5.06051 0.9403,-5.47287 -0.78527,-7.43322 -0.5667,-0.64381 -1.238052,-1.69564 -1.49189,-2.33741 -0.253841,-0.64177 -0.982353,-2.05253 -1.618917,-3.13502 -1.685909,-2.86694 -1.706885,-3.21907 -0.242874,-4.07704 0.941668,-0.55186 1.344784,-1.02465 1.895086,-2.22267 0.384445,-0.83694 0.841436,-1.81936 1.015537,-2.18316 0.609915,-1.27448 4.018995,-2.38125 7.33474,-2.38125 2.285759,0 4.7351077,0.70607 5.750904,1.65781 1.2848432,1.20382 3.7599278,6.46531 3.7599278,7.99278 0,0.38246 -0.363093,0.99602 -0.8967418,1.51532 -0.4932098,0.47995 -1.3214482,1.59817 -1.840529,2.48493 -0.5190834,0.88677 -1.5141417,2.0774 -2.2112421,2.64584 -1.7776929,1.44959 -2.4122699,2.21465 -2.7226629,3.28249 -0.335603,1.15455 -1.108919,9.49649 -0.910159,9.81809 0.08024,0.12984 0.535747,0.23607 1.012227,0.23607 0.47648,0 0.933035,0.0667 1.014566,0.14824 0.08153,0.0815 -0.01606,0.76614 -0.216874,1.52135 -0.544057,2.04613 -1.609809,8.62288 -2.366274,14.60229 -0.854671,6.75565 -1.077699,11.72075 -0.665554,14.81666 0.653169,4.90643 0.658558,5.83018 0.04387,7.51604 -0.587026,1.60997 -2.357483,9.8279 -3.624887,16.82563 -0.609137,3.36323 -0.72353,4.75593 -0.749755,9.12813 l -0.03095,5.15937 -1.291799,5.42432 c -1.051825,4.41667 -1.256797,5.65772 -1.103389,6.68073 0.107039,0.71379 0.328615,1.25641 0.513045,1.25641 0.178549,0 0.773372,-0.53683 1.321827,-1.19296 2.377908,-2.84474 6.146279,-3.27733 8.6719889,-0.9955 1.2350989,1.11584 1.6947357,1.92135 2.1813627,3.82284 0.3463608,1.3534 0.3785129,1.38658 1.649566,1.70214 0.7129781,0.17701 1.5387374,0.3989 1.8350231,0.49309 0.4058841,0.12903 1.012071,-0.21457 2.4587069,-1.39365 2.03220646,-1.65635 2.28611122,-1.81057 4.4748611,-2.718 1.7408446,-0.72173 3.2433579,-2.3146 3.2433579,-3.4384 0,-0.50272 -0.3006461,-1.18262 -0.7949195,-1.79768 -0.796806,-0.99152 -1.850914,-3.55285 -1.850914,-4.49746 0,-0.27709 -0.3021198,-1.16372 -0.6713749,-1.97028 -0.3692578,-0.80657 -0.8466932,-2.339 -1.060966,-3.40541 -0.88159966,-4.3876 -1.21848305,-5.47643 -1.81542012,-5.86756 -0.71627208,-0.46932 -1.95456708,-2.93513 -3.07616238,-6.12554 -1.4263238,-4.05724 -1.3901474,-5.19787 0.1857375,-5.85632 l 0.9513147,-0.39748 -0.2128467,-1.7679 c -0.1170649,-0.97234 -0.2409878,-2.54179 -0.275381,-3.48768 -0.1057698,-2.90875 -0.3345286,-3.70417 -1.0653078,-3.70417 -0.3478795,0 -0.6325103,-0.0965 -0.6325103,-0.21441 0,-0.48514 1.2824408,-3.437 1.9578824,-4.50656 0.690155,-1.09286 0.760812,-1.89361 0.167087,-1.89361 -0.9721004,0 0.4021296,-1.34746 2.19068394,-2.14801 0.59672805,-0.2671 0.71310503,-0.45513 0.5886318,-0.95108 -0.13396649,-0.53376 0.004842,-0.68673 1.01667206,-1.12045 0.9212978,-0.39492 1.2097412,-0.67496 1.3492031,-1.30993 0.09756,-0.44419 0.1041612,-0.9261 0.014658,-1.0709 -0.089495,-0.14481 0.1695741,-0.337 0.5757069,-0.4271 0.4061355,-0.0901 1.1369755,-0.28524 1.624092,-0.43365 0.4871164,-0.14842 1.6182102,-0.2916 2.5135417,-0.31818 1.0252764,-0.0304 1.9293974,-0.22678 2.442411,-0.53039 0.74149,-0.43883 0.883851,-0.44636 1.5875,-0.0839 0.65078,0.33524 1.164529,0.35304 3.250065,0.11264 2.268064,-0.26145 2.625305,-0.23767 4.233334,0.28168 0.965927,0.31197 2.226969,0.70885 2.802313,0.88196 1.171123,0.35237 2.429516,1.56025 3.463338,3.32434 0.380159,0.64869 0.917832,1.26327 1.194832,1.36574 0.281382,0.10409 1.074251,1.29375 1.79668,2.69582 1.27858,2.48145 1.292341,2.53469 1.230074,4.75848 -0.03463,1.23693 -0.203533,3.61818 -0.375333,5.29167 -0.286464,2.79044 -0.274801,3.06465 0.140682,3.30729 1.598594,0.9336 1.737204,1.6734 0.78667,4.19874 -0.351367,0.9335 -0.717939,2.39473 -0.814602,3.24718 -0.257432,2.27024 -0.644864,3.30507 -1.570845,4.19575 -0.708377,0.68137 -0.950759,1.30369 -1.71192,4.39542 -0.883907,3.5903 -0.885283,3.60595 -0.43574,4.9594 0.248034,0.74676 0.630494,1.45821 0.849919,1.581 0.660551,0.36967 3.340695,-0.45566 6.70329,-2.0642 0.218281,-0.10442 0.873125,-1.13584 1.455209,-2.29204 0.582083,-1.1562 1.310155,-2.45475 1.617937,-2.88567 0.544243,-0.76199 2.7974,-6.14414 4.703816,-11.23608 0.517903,-1.38329 1.071555,-3.44911 1.230336,-4.5907 0.185415,-1.33309 0.83574,-3.50954 1.817862,-6.08388 0.841045,-2.20454 1.672239,-4.78216 1.847102,-5.72804 0.17486,-0.94589 0.562872,-2.4937 0.862245,-3.43959 0.628629,-1.98618 0.580552,-2.92908 -0.397981,-7.80521 -0.669525,-3.3363 -1.074528,-4.44828 -2.158407,-5.9261 -0.456949,-0.62304 -0.659368,-1.24231 -0.659368,-2.01726 0,-0.61503 -0.166664,-1.59061 -0.370367,-2.16796 -0.330533,-0.93686 -1.481709,-6.15867 -1.481709,-6.72118 0,-0.1223 0.488477,-0.47157 1.085501,-0.77615 0.96044,-0.48998 1.066731,-0.63539 0.922591,-1.26215 -0.0896,-0.3896 -0.286718,-2.00931 -0.438046,-3.59935 -0.618009,-6.49356 -2.268242,-12.30017 -3.907761,-13.75007 -0.34461,-0.30475 -1.424435,-0.64915 -2.752689,-0.87793 -1.202102,-0.20705 -2.683832,-0.59631 -3.292734,-0.86502 -0.948103,-0.4184 -1.149855,-0.6533 -1.404818,-1.63561 -0.163748,-0.63088 -0.523635,-1.92096 -0.799751,-2.86684 -0.318088,-1.08967 -0.447646,-2.11179 -0.353605,-2.78967 0.08163,-0.58843 0.01966,-1.53617 -0.137692,-2.10609 -0.333719,-1.20863 0.08273,-2.10409 1.170966,-2.51783 0.492168,-0.18713 0.647621,-0.44037 0.647621,-1.05503 0,-1.26306 0.669153,-2.55734 1.656919,-3.20484 0.496734,-0.32562 1.130811,-1.01587 1.409054,-1.53389 0.278247,-0.51802 0.832366,-1.09807 1.231379,-1.289 0.39901,-0.19093 0.862976,-0.60408 1.031034,-0.91809 0.407419,-0.76128 1.314926,-1.49921 1.857092,-1.51009 0.241234,-0.005 1.01514,0.2842 1.719792,0.64233 0.704654,0.35812 2.29322,0.84656 3.530147,1.08542 3.391244,0.65488 3.267581,0.38272 2.943712,6.47845 l -0.27187,5.11701 0.760556,1.73452 c 0.418303,0.95398 0.822933,2.38935 0.899178,3.18972 0.170246,1.7872 0.716616,3.38409 2.824229,8.25446 2.195693,5.07391 3.100745,6.82679 3.524827,6.82679 0.366993,0 5.313389,-3.81064 5.954369,-4.58717 0.475567,-0.57614 1.092097,-0.56309 1.092038,0.0231 -2.6e-5,0.25466 -0.166354,1.35599 -0.36962,2.44739 -0.556231,2.98662 -0.743402,9.40169 -0.405283,13.89063 0.164414,2.18281 0.388633,6.35 0.498266,9.26042 0.241069,6.3998 0.856152,9.9185 2.259713,12.9272 0.533496,1.14361 1.032037,2.46163 1.107869,2.92893 0.08589,0.52931 -0.365506,2.98745 -1.19724,6.51968 -3.064068,13.01258 -5.71808,25.97258 -6.525218,31.86377 -0.239249,1.74625 -0.608091,3.86997 -0.81965,4.71938 -0.211558,0.84941 -0.460232,2.87347 -0.552611,4.49792 -0.155228,2.72967 -0.134731,2.92612 0.270417,2.5918 0.241107,-0.19895 0.805807,-1.00394 1.254895,-1.78885 1.116592,-1.9516 2.823036,-4.06712 3.280667,-4.06712 0.443056,0 2.605019,-2.94339 3.189574,-4.34242 0.305776,-0.73183 0.342995,-1.20876 0.152265,-1.95111 -0.138843,-0.54038 -0.291087,-1.98652 -0.338323,-3.21364 l -0.08588,-2.23113 1.058334,-0.74803 c 0.699706,-0.49455 1.282853,-0.70897 1.720913,-0.63276 0.93486,0.16264 3.656494,-0.5151 4.259321,-1.06065 0.694941,-0.62891 0.859099,-0.3476 0.582401,0.99803 -0.129289,0.62874 -0.154811,1.50036 -0.05672,1.93692 0.560896,2.49627 0.207862,3.51573 -2.098987,6.06124 -1.146702,1.26534 -1.645142,2.07464 -2.000398,3.24797 -0.650682,2.14906 -0.521468,2.77162 0.636177,3.06513 0.509323,0.12914 1.034381,0.33976 1.166797,0.46806 0.142853,0.13842 -0.242523,0.96382 -0.947711,2.02981 -1.552671,2.3471 -2.753932,4.54001 -5.434918,9.92151 l -2.202381,4.4208 0.485357,3.38441 0.485357,3.3844 1.570103,0.2093 c 0.863558,0.11511 2.224948,0.24459 3.025313,0.28773 0.800364,0.0431 1.84242,0.24305 2.315678,0.44424 0.794785,0.33788 0.904994,0.32128 1.44377,-0.2175 l 0.583301,-0.5833 -0.620715,-1.26086 c -0.477147,-0.96923 -0.650891,-1.85579 -0.751182,-3.83306 -0.116519,-2.29728 -0.193936,-2.61378 -0.724344,-2.96132 -0.50968,-0.33396 -0.62094,-0.71397 -0.78473,-2.68025 -0.129305,-1.55228 -0.09714,-2.38482 0.09973,-2.58169 0.16772,-0.16772 0.291907,-1.303 0.29372,-2.68506 0.0064,-4.89564 1.503934,-7.86549 4.525179,-8.97428 2.146533,-0.78778 3.556667,-0.80575 6.716472,-0.0856 5.687206,1.29617 6.428553,1.98568 7.429241,6.90982 0.593408,2.92 0.561226,5.1374 -0.09301,6.40892 -0.138782,0.26973 -0.330407,1.18528 -0.425831,2.03456 -0.172496,1.53517 -0.596916,2.61534 -1.524469,3.87981 -0.266864,0.3638 -0.828162,1.88737 -1.247322,3.3857 -0.42272,1.51105 -1.0057,2.98389 -1.309087,3.30729 -0.500997,0.53405 -0.531704,0.78235 -0.365329,2.9541 l 0.181642,2.37105 0.926041,0.22502 c 0.509323,0.12375 1.402292,0.3264 1.984375,0.45032 0.582084,0.12391 1.308931,0.30451 1.615218,0.40131 0.43824,0.1385 0.763791,-0.0657 1.52807,-0.95862 0.950404,-1.11033 0.989443,-1.12728 1.824368,-0.79186 1.521018,0.61105 1.789271,0.63486 2.268302,0.20134 0.259424,-0.23477 0.866727,-0.50587 1.34956,-0.60244 0.596003,-0.1192 1.015201,-0.42591 1.305555,-0.95524 0.774536,-1.412 1.387314,-2.0557 2.844043,-2.98756 0.791319,-0.5062 1.504046,-1.09048 1.583818,-1.2984 0.278897,-0.72677 -0.478169,-3.47046 -1.536841,-5.56972 -1.034158,-2.05063 -1.061013,-2.17031 -0.86092,-3.83646 0.337799,-2.81276 0.28628,-3.06486 -0.886298,-4.33696 -1.159431,-1.25783 -1.291884,-1.70577 -1.455836,-4.92345 -0.106873,-2.09745 -0.476988,-3.14886 -3.306408,-9.39271 -0.725374,-1.60073 -1.573472,-3.8462 -1.884661,-4.98993 -0.31119,-1.14373 -1.247193,-3.41384 -2.080009,-5.04467 -0.832816,-1.63084 -1.692804,-3.36302 -1.911086,-3.8493 -0.271531,-0.6049 -0.675986,-0.97538 -1.280633,-1.17304 -0.69745,-0.22799 -1.032113,-0.59462 -1.5875,-1.73915 -0.582113,-1.1996 -0.965563,-1.6011 -2.21863,-2.3231 -2.314014,-1.33329 -3.670001,-4.00616 -2.255424,-4.4458 0.327421,-0.10175 1.398984,-0.54244 2.38125,-0.97929 1.478722,-0.65765 1.785937,-0.90209 1.785937,-1.42105 0,-0.34472 -0.654844,-2.87773 -1.455208,-5.6289 -1.555499,-5.34687 -1.67586,-6.27432 -1.062882,-8.19005 0.215781,-0.67438 0.453872,-1.54438 0.52909,-1.93335 0.07522,-0.38897 0.429879,-1.05556 0.788136,-1.48132 0.65672,-0.78047 1.168667,-1.12922 9.18989,-6.26028 9.254162,-5.91975 21.076939,-14.43303 23.643129,-17.0248 0.71967,-0.72684 1.80041,-1.5684 2.40165,-1.87014 1.05563,-0.52977 1.12265,-0.64211 1.95135,-3.27118 1.11218,-3.5284 1.8214,-4.73283 3.55974,-6.04528 1.68158,-1.26961 4.6923,-2.61316 5.8784,-2.62326 0.77063,-0.007 1.67254,0.54406 1.67254,1.02107 0,0.10818 0.42331,0.39854 0.94067,0.64526 0.60386,0.28796 1.07609,0.7727 1.3189,1.35383 0.20804,0.49789 0.49911,0.97995 0.64682,1.07125 0.14775,0.0913 0.27044,0.4864 0.27266,0.87799 0.006,1.02623 0.40926,1.59515 0.83161,1.1728 0.18068,-0.18069 0.60235,-0.32852 0.93705,-0.32852 0.59647,0 0.60936,0.0591 0.65021,2.97656 0.023,1.63711 0.0376,3.11657 0.0327,3.28769 -0.0135,0.4692 -2.4737,4.28458 -3.40448,5.28003 l -0.81658,0.87331 -3.85344,-0.0388 c -3.22636,-0.0325 -3.96521,0.0345 -4.5402,0.41121 -0.37772,0.24749 -2.43298,2.79903 -4.56724,5.67008 -2.13426,2.87105 -4.53707,6.09731 -5.33956,7.16945 -0.80248,1.07214 -3.46204,4.04792 -5.91013,6.61284 -2.44808,2.56493 -4.45105,4.80048 -4.45105,4.9679 0,0.16741 0.56554,0.58491 1.25677,0.92778 1.35334,0.67129 1.71545,1.50353 1.13003,2.59735 -0.24347,0.45496 -0.18066,0.64778 0.38058,1.1679 0.87418,0.81016 0.84809,1.42617 -0.1142,2.69797 -0.43251,0.57163 -0.7897,1.2651 -0.79375,1.54105 -0.004,0.27595 0.51912,1.06456 1.16256,1.75247 1.17432,1.25543 2.33685,3.2956 3.35179,5.88221 2.15143,5.48288 8.20836,15.75502 10.17387,17.25419 1.44396,1.10137 3.52194,1.94907 5.59919,2.28417 1.05875,0.17079 2.06208,0.47569 2.22959,0.67756 0.24953,0.30064 0.60478,0.0788 1.96411,-1.22651 0.9127,-0.87644 1.90037,-1.59352 2.1948,-1.59352 0.29442,0 1.52511,0.23729 2.73489,0.52731 2.42729,0.58191 3.5419,0.66311 3.78145,0.27551 0.18968,-0.30691 -0.6577,-2.02114 -1.87105,-3.78504 -0.93118,-1.35368 -1.04728,-1.79603 -1.28778,-4.90575 -0.19662,-2.54222 -0.65495,-3.56926 -1.96075,-4.39359 -1.09056,-0.68843 -1.6169,-1.78473 -1.62021,-3.37474 0,-0.39507 -0.39835,-1.22727 -0.90048,-1.88508 -1.21743,-1.59491 -1.48225,-2.13553 -1.48225,-3.02581 0,-0.99555 0.43567,-1.39323 1.5263,-1.39323 h 0.89131 l -0.17373,-2.05052 c -0.11216,-1.32389 -0.028,-3.14737 0.23739,-5.14577 0.29908,-2.25175 0.33655,-3.30916 0.13747,-3.88023 -0.34843,-0.99951 0.29419,-3.03971 1.23087,-3.90781 0.35658,-0.33046 0.64831,-0.89996 0.64831,-1.2656 0,-0.394 0.21556,-0.78014 0.52917,-0.94799 0.34131,-0.18266 0.52916,-0.55399 0.52916,-1.046 0,-1.12574 0.25514,-1.59983 0.86096,-1.59983 0.29686,0 1.0483,-0.41672 1.66986,-0.92604 0.62156,-0.50932 1.38192,-0.92604 1.68968,-0.92604 0.30779,0 1.147,-0.29766 1.86492,-0.66146 0.71792,-0.3638 1.57718,-0.66568 1.90945,-0.67084 0.33223,-0.005 0.90175,-0.17953 1.26555,-0.3875 0.80399,-0.45959 1.77133,-0.50679 1.90923,-0.0932 0.0755,0.22638 0.45294,0.21934 1.48257,-0.0277 1.72492,-0.4138 5.96045,-0.14152 6.42046,0.41274 0.1687,0.20325 0.46797,0.36955 0.66508,0.36955 0.19712,0 0.54541,0.28545 0.77399,0.63432 0.2286,0.34887 1.02685,0.89725 1.77387,1.21862 2.05031,0.88201 3.37897,1.84558 3.37897,2.45047 0,0.29091 0.26789,0.9597 0.59531,1.4862 0.63667,1.02377 0.62722,0.76211 0.38783,10.74685 -0.0553,2.3048 -0.0375,2.38403 0.55316,2.46776 0.94261,0.13362 1.23349,1.08274 0.92461,3.01694 -0.14573,0.91248 -0.20963,2.45909 -0.142,3.43692 0.11232,1.62386 0.063,1.84909 -0.5688,2.59999 -0.67543,0.80268 -0.69178,0.9116 -0.69178,4.60678 0,3.98083 -0.29004,5.28371 -1.8623,8.36559 -0.50739,0.99456 -0.51064,1.09489 -0.0902,2.76862 0.47887,1.90641 0.83688,2.2876 3.54002,3.76939 1.29051,0.70742 2.82461,1.23591 5.07283,1.74754 1.30482,0.29694 2.25949,1.38344 2.87978,3.27741 0.32036,0.97816 0.75261,1.9741 0.96054,2.2132 0.20794,0.2391 1.17097,0.63389 2.14006,0.87732 3.0762,0.77272 4.17245,1.39321 6.08573,3.44453 0.98417,1.05518 2.31064,2.87768 2.9694,4.07978 0.93159,1.69997 1.42086,2.29991 2.24895,2.75755 0.73171,0.40437 1.0812,0.7878 1.13242,1.24237 0.17222,1.52882 0.36245,1.85759 1.37321,2.37324 0.85694,0.43717 1.07207,0.7079 1.21143,1.52457 0.30564,1.79079 0.66487,2.97738 0.9014,2.97738 0.12785,0 0.7968,-0.2419 1.48654,-0.53757 1.62462,-0.69639 3.99468,-0.94235 5.21131,-0.54082 1.87659,0.61933 4.21254,3.98949 4.95922,7.15481 0.18762,0.79542 0.41238,2.99808 0.49948,4.8948 0.14909,3.24767 0.18915,3.44492 0.68749,3.38583 1.02429,-0.12145 1.70993,0.19591 1.87905,0.86976 0.0921,0.36666 0.5094,0.84355 0.9275,1.05975 0.41806,0.2162 1.00184,0.86689 1.29727,1.44598 0.29544,0.57908 0.69671,1.05288 0.8917,1.05288 0.19503,0 0.71721,-0.86312 1.16044,-1.91804 0.78081,-1.85839 0.84066,-1.92491 1.92418,-2.13919 0.83299,-0.16473 1.41147,-0.10918 2.26751,0.21773 0.63206,0.24139 1.26034,0.3702 1.39618,0.28625 0.13583,-0.084 0.39425,-0.97678 0.57425,-1.98406 l 0.32732,-1.83142 -2.39274,-2.87062 c -6.51486,-7.81602 -12.35429,-19.07894 -14.8981,-28.73501 -0.58309,-2.21336 -0.72245,-2.30065 -3.6734,-2.30065 -1.43994,0 -2.80641,0.0723 -3.0366,0.1606 -0.59428,0.22805 -0.54118,1.68041 0.35679,9.76128 0.8639,7.77409 0.86154,7.79227 -0.94914,7.36476 l -1.01679,-0.24006 -0.18037,-1.84256 c -0.0992,-1.01341 -0.37147,-3.86662 -0.60505,-6.34047 -0.99192,-10.50585 -1.2175,-12.13396 -1.79392,-12.94651 -0.30266,-0.42662 -0.60635,-1.35924 -0.6749,-2.07249 -0.0998,-1.03902 -0.24823,-1.35316 -0.74658,-1.58021 -0.92858,-0.42309 -1.40755,-1.33923 -1.38139,-2.64223 0.013,-0.64028 -0.16989,-1.53783 -0.40608,-1.99457 -0.53554,-1.03566 -0.54626,-1.75327 -0.0325,-2.17962 0.47535,-0.3945 0.49829,-0.87263 0.0953,-1.98698 -0.20397,-0.56402 -0.21945,-1.08026 -0.0479,-1.59503 0.20524,-0.6157 0.11258,-1.09184 -0.48503,-2.49216 -0.92406,-2.1653 -0.98923,-3.78457 -0.17526,-4.3547 0.31962,-0.22386 0.83875,-0.33922 1.16176,-0.25815 0.32118,0.0806 0.65953,0.0243 0.75186,-0.12509 0.0923,-0.14941 -0.0675,-2.51054 -0.35509,-5.24696 -0.6249,-5.94503 -1.75096,-18.3849 -2.1149,-23.36385 -0.14359,-1.96453 -0.33758,-4.62177 -0.43108,-5.90497 -0.10906,-1.49651 -0.28948,-2.37895 -0.50321,-2.46096 -0.18328,-0.0703 -4.36886,0.11451 -9.30133,0.41074 -10.10192,0.60671 -21.16055,1.10488 -25.90143,1.16683 l -3.175,0.0415 -0.16468,-5.29167 c -0.17574,-5.64699 -0.40212,-8.44741 -1.44362,-17.85937 -0.70641,-6.38377 -0.94821,-8.30441 -3.14778,-25.00313 -2.58667,-19.63753 -2.58363,-19.60096 -1.66007,-19.94871 2.80871,-1.05759 19.90953,-4.8748 33.37237,-7.44931 14.4807,-2.76916 24.85419,-4.60023 44.87815,-7.9216 6.18464,-1.02585 13.66793,-2.29115 16.62954,-2.81178 2.96162,-0.52064 5.48315,-0.84562 5.60345,-0.72219 0.46438,0.47653 2.24349,21.61551 4.09393,48.64317 0.24662,3.60237 1.15578,20.40709 1.34874,24.93041 0.15174,3.55659 0.11975,4.31481 -0.18637,4.42061 -0.46488,0.16068 -11.23506,1.81681 -16.50908,2.5386 -10.67559,1.46106 -21.04805,2.64615 -31.08854,3.552 -9.8788,0.89126 -9.86002,0.88904 -10.04626,1.19037 -0.19791,0.32021 0.16875,5.04018 1.70347,21.92977 l 1.1621,12.78883 1.40544,2.16012 c 0.77298,1.18807 2.2551,3.06016 3.29364,4.16019 1.26521,1.34014 1.95271,2.30044 2.08368,2.91042 0.31755,1.47934 2.22234,6.35028 3.09782,7.92181 1.51479,2.71916 8.61451,12.86731 11.65135,16.65413 3.13431,3.90835 8.68685,9.83937 9.13032,9.75265 0.30536,-0.0597 0.83889,-1.80254 2.04973,-6.69532 0.90029,-3.63802 1.91349,-7.54155 2.25152,-8.67451 0.40841,-1.36872 0.52615,-2.14841 0.35092,-2.32363 -0.14502,-0.14504 -3.91374,-0.78779 -8.37488,-1.42835 -4.46117,-0.64054 -8.24307,-1.24612 -8.4042,-1.34572 -0.36344,-0.22461 -0.2966,-0.59322 1.02904,-5.67467 1.28069,-4.90913 3.00371,-12.68715 4.68889,-21.16666 0.67964,-3.41974 1.3194,-6.30718 1.42172,-6.41652 0.10234,-0.10935 1.7636,0.45354 3.69173,1.25087 7.9163,3.27358 21.35222,6.83882 27.95251,7.41723 2.83353,0.24831 3.04271,0.31954 3.04271,1.03609 0,1.26801 -2.90322,15.17433 -4.53353,21.71545 -1.19658,4.80092 -1.84036,6.77265 -2.26443,6.93539 -0.21117,0.081 -1.23855,0.005 -2.28309,-0.16881 -5.87381,-0.97774 -11.95094,-1.87179 -12.72313,-1.87179 -0.8182,0 -0.90858,0.0856 -1.18726,1.12448 -0.78981,2.94442 -4.52523,17.8929 -4.52523,18.10923 0,0.13512 0.23683,0.49987 0.52626,0.81055 0.47554,0.51042 0.59367,0.5299 1.22563,0.20204 0.43048,-0.22334 0.9148,-0.28334 1.25968,-0.15607 0.30816,0.11372 1.45328,0.10957 2.54468,-0.009 1.69908,-0.18494 2.06629,-0.31814 2.55408,-0.92646 0.31335,-0.39076 1.22457,-1.08015 2.02496,-1.53198 0.80039,-0.45184 2.34942,-1.5032 3.44231,-2.33636 2.80453,-2.13805 9.7958,-9.11579 12.19973,-12.17611 2.45504,-3.12539 3.05871,-3.49337 5.3314,-3.24998 1.8722,0.20049 2.51408,-0.0233 3.55169,-1.23825 0.56843,-0.66559 0.93636,-0.80882 2.61623,-1.01844 3.8726,-0.48324 6.69774,-2.43323 7.55623,-5.21553 0.15899,-0.51524 0.0415,-0.66071 -0.82637,-1.02295 -0.55644,-0.23226 -1.47738,-0.79082 -2.0465,-1.24125 -3.01199,-2.3838 -7.42736,-10.42783 -7.9561,-14.49457 -0.0872,-0.6709 -0.45143,-1.61677 -0.80936,-2.10192 -0.49231,-0.66726 -0.65079,-1.21294 -0.65079,-2.24054 0,-1.0753 -0.17029,-1.61554 -0.81704,-2.59195 -1.00975,-1.52446 -1.47484,-3.22885 -1.83197,-6.71387 -0.31364,-3.06051 -0.1256,-4.252 1.07759,-6.82772 1.88608,-4.03757 7.4539,-7.5938 12.81621,-8.18586 2.05118,-0.22647 5.18318,0.23154 6.87139,1.00485 1.98352,0.90859 4.96268,3.18475 5.92836,4.52944 1.32458,1.84445 2.69377,5.07706 3.19629,7.54636 0.3909,1.92085 0.55621,2.29741 1.13311,2.581 1.22878,0.60406 2.93777,0.68161 4.59264,0.20839 1.33728,-0.38239 1.80128,-0.70024 3.2309,-2.21327 0.91813,-0.9717 1.92233,-2.21322 2.23153,-2.75893 1.22036,-2.15383 1.25018,-0.41144 0.0438,2.55759 -0.81521,2.00623 -0.80177,2.15958 0.1311,1.49532 0.92652,-0.65974 1.08363,-0.67673 1.08363,-0.11723 0,0.33738 0.17229,0.39549 0.8002,0.26991 0.72546,-0.14509 0.77489,-0.11273 0.52917,0.3464 -0.38177,0.71336 -0.34668,0.80582 0.30583,0.80582 0.31726,0 1.32104,-0.48485 2.23062,-1.07746 1.431,-0.93234 1.73131,-1.03594 2.22965,-0.76923 0.73615,0.39397 0.53612,0.55659 -1.78451,1.45099 -1.04873,0.40419 -2.29889,1.08221 -2.77813,1.50672 l -0.87137,0.77183 1.19062,-0.14559 c 0.65484,-0.0801 1.57501,-0.21919 2.04481,-0.30915 l 0.85418,-0.16357 -0.42492,0.85179 c -0.23374,0.46848 -0.82646,1.08869 -1.31721,1.37824 -1.12651,0.66465 -1.12545,0.93563 0.004,1.1476 2.57046,0.48222 2.3853,0.63144 3.95441,-3.18696 1.64246,-3.99685 3.42117,-7.59323 5.04984,-10.21036 l 1.1517,-1.85067 -0.48765,-1.90698 c -0.6917,-2.70499 -1.23793,-7.21339 -1.56133,-12.8872 -0.72051,-12.64016 -0.7425,-12.77118 -3.17648,-18.9177 -0.69149,-1.74625 -1.51951,-3.97329 -1.84005,-4.94898 -0.41944,-1.27682 -0.84558,-2.00474 -1.52061,-2.59741 -1.03262,-0.90666 -1.09837,-0.9371 -5.18192,-2.39922 -3.41397,-1.22238 -3.89485,-1.45701 -4.48866,-2.19005 -0.53821,-0.66445 -0.58142,-1.63554 -0.16502,-3.70893 0.23162,-1.15335 0.22749,-2.14308 -0.0175,-4.1633 -0.35708,-2.94638 -0.22286,-3.40337 1.00264,-3.41347 0.52231,-0.004 0.79393,-0.21816 1.09209,-0.85989 0.3084,-0.66376 0.58584,-0.87245 1.24455,-0.93617 0.46622,-0.0451 1.08268,0.0438 1.36988,0.19749 0.41743,0.22339 0.6721,0.15596 1.269,-0.336 1.01922,-0.84 1.55882,-1.00037 2.35169,-0.69891 0.53322,0.20273 0.88932,0.13261 1.70209,-0.33517 l 1.0278,-0.59153 0.74303,0.55077 c 1.19351,0.8847 2.32844,2.54711 3.25999,4.77509 1.23065,2.94332 1.52551,4.25603 1.84279,8.20402 0.35904,4.46808 0.8748,6.42619 3.05718,11.60715 5.28355,12.54305 6.9939,18.16986 8.92464,29.36117 0.46561,2.69897 0.33882,4.56723 -0.52073,7.67292 -0.5181,1.87194 -0.96086,4.42093 -1.24087,7.14375 -0.63865,6.2101 -0.89818,7.96332 -1.63012,11.01201 -0.80515,3.35364 -3.2535,10.83157 -4.66566,14.25027 -0.80936,1.9594 -1.09429,3.07734 -1.28265,5.03251 -0.35798,3.71569 -0.49469,4.37632 -1.50574,7.27604 -0.80407,2.30616 -0.94959,3.12139 -1.13351,6.35 -0.26043,4.5722 -2.59913,17.4156 -3.61341,19.84375 -2.42745,5.81116 -2.9432,10.05869 -1.9041,15.68136 0.31168,1.68653 0.50956,1.90352 1.7413,1.90939 0.56661,0.003 1.15687,0.27288 1.76755,0.80906 0.84519,0.74207 1.08283,0.80855 3.03951,0.85027 1.16744,0.0249 2.19726,-0.0294 2.28848,-0.12062 0.0912,-0.0912 -0.61523,-2.19762 -1.5699,-4.68087 -1.98808,-5.17147 -2.8044,-8.04539 -2.8044,-9.87346 0,-1.24213 0.23818,-1.76641 1.74506,-3.84121 0.34838,-0.47969 0.37346,-0.7448 0.1351,-1.42854 -0.41217,-1.18238 -0.36351,-3.25383 0.10265,-4.36952 0.21741,-0.52036 0.79955,-1.4988 1.29363,-2.17431 2.53942,-3.47193 2.93132,-4.76488 5.18406,-17.10321 l 1.11107,-6.08541 1.05346,-0.94911 1.05344,-0.94911 1.01645,-5.71247 c 0.55904,-3.14186 1.38184,-6.82241 1.82846,-8.17902 1.51505,-4.60207 1.69815,-5.92132 1.55294,-11.18853 -0.11517,-4.17749 -0.0694,-4.96947 0.36777,-6.35926 0.27461,-0.87313 0.67152,-2.70052 0.88197,-4.06088 0.52715,-3.4073 0.85777,-3.8779 3.81457,-5.42945 2.93077,-1.53791 5.04487,-1.87012 6.64062,-1.04353 1.22045,0.63219 2.53566,2.64325 2.91097,4.45107 0.30988,1.49271 0.70401,1.80078 1.33348,1.04232 0.18947,-0.22829 0.64389,-0.37498 1.02457,-0.33072 0.64521,0.075 0.68331,0.16226 0.66995,1.53473 -0.0222,2.30113 -1.16697,9.27465 -1.73471,10.56876 -0.74975,1.70896 -1.6133,2.73513 -3.7084,4.40677 -1.02328,0.81646 -2.06984,1.82867 -2.32566,2.24936 -0.58796,0.9668 -1.05098,5.82522 -1.14472,12.01157 l -0.0682,4.49791 2.11667,0.13229 2.11667,0.1323 -0.0727,0.79375 c -0.04,0.43656 -0.37428,2.56289 -0.7429,4.72517 -0.36859,2.16228 -0.60611,3.99549 -0.52782,4.07379 0.12208,0.12209 1.96342,0.82874 3.36209,1.29028 0.24934,0.0823 0.9747,-0.25288 1.71979,-0.79465 2.82176,-2.05171 2.98016,-2.239 3.57603,-4.22778 0.31173,-1.0405 0.87548,-2.48713 1.25275,-3.21473 1.09715,-2.11592 1.09424,-2.07628 0.24312,-3.32764 -0.76554,-1.12553 -0.79009,-1.25121 -0.64195,-3.28694 0.0847,-1.16417 0.22942,-2.54825 0.32152,-3.07573 0.14782,-0.84644 0.0538,-1.08488 -0.80053,-2.03054 -1.13424,-1.25546 -1.46589,-2.24028 -1.48748,-4.41699 -0.009,-0.87408 -0.13084,-2.18456 -0.27149,-2.91216 -0.60558,-3.13285 -0.60259,-3.75081 0.023,-4.76313 0.55075,-0.89115 0.57099,-1.06913 0.28024,-2.46432 -0.47889,-2.29807 -0.18359,-6.34347 0.66985,-9.17672 0.39452,-1.30969 0.77242,-2.77356 0.83979,-3.25306 0.0855,-0.60874 0.42836,-1.11761 1.13614,-1.68642 0.71218,-0.57231 1.03762,-1.05746 1.09416,-1.63107 0.10822,-1.09796 1.50958,-2.03256 4.57838,-3.05337 2.80926,-0.93447 4.86243,-1.31459 8.46667,-1.5675 l 2.64583,-0.18566 0.0787,-0.93434 c 0.071,-0.84341 -0.56227,-1.84764 -6.50708,-10.31875 -3.62218,-5.16143 -7.40805,-10.56268 -8.41304,-12.00278 -1.81803,-2.60509 -1.83605,-2.62118 -3.55563,-3.175 -2.69005,-0.86636 -4.12268,-2.05334 -5.81229,-4.81563 -0.80036,-1.30849 -1.93146,-3.01242 -2.51354,-3.78651 -1.28053,-1.70294 -2.49891,-3.73966 -2.50735,-4.19147 -0.003,-0.1819 0.24418,-0.5811 0.55017,-0.88711 0.30602,-0.306 0.69297,-1.10967 0.8599,-1.78593 0.26281,-1.06459 0.44847,-1.297 1.38372,-1.73216 0.90583,-0.42147 1.1295,-0.68703 1.38578,-1.64515 0.31951,-1.19468 1.26447,-1.9533 2.43308,-1.9533 0.77735,0 1.58324,-0.473 1.58324,-0.92925 0,-0.20981 0.29184,-0.57268 0.6485,-0.80638 1.11921,-0.73334 2.53285,0.0475 4.00023,2.2095 1.10075,1.62181 1.76041,2.20969 3.68565,3.2846 1.45499,0.81236 1.62822,1.00718 2.07536,2.33425 0.53973,1.60189 0.72872,6.16798 0.36111,8.72519 l -0.20937,1.45644 2.02832,2.38002 c 1.11559,1.309 4.24591,4.92399 6.95624,8.0333 2.71037,3.10931 5.553,6.378 6.31698,7.26375 l 1.38907,1.61047 v 27.87022 27.87023 l -0.56415,1.10582 c -0.31027,0.6082 -0.79835,1.42261 -1.08463,1.8098 -0.42696,0.57749 -0.46556,0.80657 -0.21495,1.27489 0.16804,0.31399 0.24003,0.77729 0.15997,1.02956 -0.18894,0.59525 0.7733,3.95881 1.29852,4.53919 0.3606,0.39845 0.40524,5.4158 0.40524,45.53841 l 5e-5,45.09062 H 99.029755 -165.55359 Z m 388.38748,-18.48227 c 0.6337,-1.24217 3.45246,-3.74273 4.21899,-3.74273 0.30559,0 1.06873,0.13723 1.69587,0.30497 1.87114,0.50046 2.44674,0.0379 3.50708,-2.81852 0.96581,-2.60168 2.1358,-3.96617 4.22378,-4.92588 1.64447,-0.75586 2.4279,-0.64598 3.57526,0.5014 1.26093,1.26092 1.8487,3.1511 1.8487,5.94511 0,2.15024 0.28035,3.10958 0.90877,3.10958 0.19854,0 0.98152,0.4176 1.73998,0.928 0.80991,0.54503 1.66708,0.91198 2.07711,0.88919 0.38396,-0.0213 1.00012,0.0438 1.36927,0.14486 0.55353,0.15147 0.84026,0.007 1.63605,-0.82305 0.53067,-0.55369 1.25854,-1.28918 1.6175,-1.63442 0.46268,-0.44503 0.7039,-1.0383 0.82889,-2.03851 0.14571,-1.16636 0.33525,-1.55041 1.09397,-2.21656 0.50475,-0.44317 1.06238,-0.80896 1.23923,-0.81288 0.17685,-0.004 0.72766,-0.34392 1.22404,-0.75557 l 0.90252,-0.74847 -0.3072,-3.03023 c -0.16897,-1.66664 -0.30883,-4.69014 -0.31084,-6.7189 -0.004,-3.69822 -0.13443,-4.87929 -0.54043,-4.87929 -0.11978,0 -1.32628,0.68929 -2.68113,1.53176 -8.75366,5.44322 -19.12311,10.49161 -28.58548,13.91691 -5.09511,1.84439 -5.50646,1.92918 -6.83268,1.40822 -1.34636,-0.52886 -1.57332,-0.42389 -1.57332,0.72763 0,0.72375 0.13227,0.93315 0.7276,1.15191 1.25183,0.46001 2.35173,1.43303 4.01821,3.55471 0.88579,1.12779 1.66624,2.05053 1.73429,2.05053 0.068,0 0.35785,-0.4589 0.64397,-1.01977 z m -304.334142,-19.6329 c 1.226912,-2.32692 2.728809,-6.02202 2.728809,-6.71365 0,-1.01619 0.631148,-2.09474 2.267207,-3.87437 0.790326,-0.85968 1.43696,-1.80362 1.43696,-2.09764 0,-0.46918 -0.121407,-0.51545 -0.992188,-0.37813 -0.987829,0.15578 -2.447395,-0.21012 -2.447395,-0.61353 0,-0.11651 0.506015,-0.44688 1.124479,-0.73415 1.027787,-0.47741 1.146217,-0.63608 1.377267,-1.84524 0.162621,-0.85104 0.469342,-1.49493 0.859896,-1.80514 0.808516,-0.64221 0.769485,-1.02382 -0.08284,-0.8099 -0.640635,0.16079 -0.668126,0.13239 -0.38464,-0.39731 0.37979,-0.70964 0.165772,-1.08869 -0.614702,-1.08869 -0.716936,0 -1.489834,0.79056 -2.245825,2.29715 -1.161021,2.31376 -1.486115,1.46826 -0.425461,-1.10653 0.359675,-0.87312 0.654505,-1.66097 0.65518,-1.75077 7.94e-4,-0.0898 -0.44526,-0.45958 -0.990963,-0.82173 -1.260996,-0.83683 -2.711979,-2.31853 -2.711979,-2.76939 0,-0.47867 0.03906,-0.46475 1.622449,0.57803 2.058699,1.35581 3.03992,1.6292 3.700793,1.03112 0.338733,-0.30655 0.477073,-0.67861 0.386501,-1.03948 -0.120401,-0.47972 0.03964,-0.61706 1.092605,-0.93762 1.646999,-0.5014 1.713825,-0.92206 0.179879,-1.13231 -2.951914,-0.4046 -4.440068,-1.22764 -2.219727,-1.22764 0.725945,0 1.058334,-0.11524 1.058334,-0.36692 0,-0.24519 0.592484,-0.47239 1.785937,-0.68485 2.482887,-0.44202 2.662537,-0.50478 3.250097,-1.13546 0.818129,-0.87815 0.680217,-1.34835 -0.33968,-1.15809 -0.849797,0.15853 -0.853273,0.15503 -0.295952,-0.29766 0.310165,-0.25193 0.786415,-0.60173 1.058333,-0.77734 0.401817,-0.25949 0.335621,-0.26782 -0.353528,-0.0444 -0.466355,0.15116 -1.061667,0.22706 -1.322917,0.16867 -0.343281,-0.0767 -0.185219,-0.23186 0.569992,-0.55943 0.574746,-0.2493 1.684478,-0.94663 2.466073,-1.54963 1.068168,-0.82408 1.387671,-1.22412 1.286544,-1.61082 -0.074,-0.28296 0.109778,-1.1252 0.408385,-1.87165 1.6238,-4.0591 2.308606,-7.57297 2.872951,-14.74164 l 0.283004,-3.59489 -1.4469,-5.00407 c -3.819989,-13.21133 -3.415203,-12.01553 -4.067345,-12.01553 -1.128451,0 -8.832914,2.66903 -13.90155,4.81587 -1.546821,0.65516 -2.678277,0.99775 -2.813722,0.85195 -0.124601,-0.13412 -0.723554,-2.08933 -1.331008,-4.3449 -1.651024,-6.13052 -2.130285,-7.67292 -2.384163,-7.67292 -0.369557,0 -0.633407,2.02819 -0.671193,5.15937 -0.03373,2.79502 -0.750292,7.54207 -1.597549,10.58334 -0.2027,0.7276 -0.554265,2.68432 -0.781256,4.34827 -0.226991,1.66394 -0.588812,3.78469 -0.804048,4.71277 -0.257206,1.10905 -0.394216,3.15545 -0.399729,5.97048 -0.01246,6.36555 -0.846569,11.30101 -2.997986,17.73946 -1.186509,3.5508 -2.810747,7.57015 -4.131497,10.22381 -0.70764,1.42179 -0.72799,1.59495 -0.88623,7.54063 -0.14826,5.57046 -0.12667,6.04064 0.25515,5.55625 0.22941,-0.29105 0.59123,-0.93201 0.80404,-1.42436 0.21281,-0.49236 1.40137,-3.11173 2.641226,-5.82084 l 2.254301,-4.92564 -0.161362,-2.66678 c -0.147579,-2.43903 -0.107045,-2.78927 0.474623,-4.10104 0.870524,-1.96321 1.408856,-2.38174 3.257931,-2.53293 1.514925,-0.12387 1.567022,-0.1049 3.090297,1.12533 l 1.549397,1.25133 -0.104897,1.64735 c -0.09101,1.42929 -0.234399,1.80539 -1.083259,2.84131 -0.538099,0.65668 -1.095881,1.50306 -1.239512,1.88084 -0.143635,0.37779 -0.368716,0.68688 -0.500185,0.68688 -0.131469,0 -0.394491,0.38696 -0.584496,0.8599 -0.190005,0.47294 -0.621168,1.27449 -0.958141,1.78121 -0.516824,0.77718 -0.612677,1.26356 -0.612677,3.10885 0,1.20315 0.0444,2.18754 0.09866,2.18754 0.05426,0 0.669896,-0.25268 1.368073,-0.56152 2.498045,-1.105 5.895819,-0.11691 7.189616,2.09079 0.631261,1.07717 0.731559,1.58826 0.890661,4.53865 0.214657,3.98056 0.879314,6.55213 1.628902,6.30227 0.16069,-0.0536 0.571066,-0.62635 0.911948,-1.27285 z m 7.865377,-16.88126 c 0.07739,-0.12523 0.07278,-0.29562 -0.01024,-0.37865 -0.206489,-0.20648 -0.892995,0.078 -0.892995,0.37005 0,0.30231 0.717484,0.30914 0.903234,0.009 z M 282.37342,273.36397 c 0.69662,-0.353 1.56877,-1.00096 1.93812,-1.43991 0.78613,-0.93426 2.16665,-3.32252 2.43687,-4.21567 0.17587,-0.5814 0.13488,-0.61041 -0.62632,-0.44323 l -0.81452,0.1789 0.67453,-1.47332 c 0.37097,-0.81032 0.63635,-1.72543 0.58973,-2.03357 -0.0693,-0.45818 -0.2776,-0.28171 -1.14311,0.9686 -1.10791,1.60049 -1.82086,2.22123 -2.16077,1.88133 -0.11097,-0.11097 -0.059,-0.40441 0.11541,-0.6521 1.80721,-2.56599 2.25946,-4.19144 1.80269,-6.47906 -0.32264,-1.61568 -1.3779,-2.82819 -1.95723,-2.24885 -0.21865,0.21865 -0.32785,0.19803 -0.41672,-0.0787 -0.0662,-0.20623 -0.3148,-0.99088 -0.55235,-1.74367 -0.50699,-1.60663 -0.87833,-1.97711 -2.03589,-2.03107 -0.85034,-0.0396 -0.85785,-0.0287 -1.84589,2.69304 -0.54565,1.50307 -1.37366,3.40807 -1.84004,4.23333 -0.96229,1.70276 -1.36991,4.36742 -1.01322,6.62371 0.25582,1.61829 1.46388,4.41775 2.60506,6.03677 0.82317,1.16785 0.88291,1.20017 1.91338,1.03539 0.58502,-0.0935 1.63365,-0.45891 2.33027,-0.81192 z m -428.69092,-3.99701 c 0.26145,-0.37583 0.80279,-1.07616 1.20297,-1.55628 0.92646,-1.11153 0.91499,-1.30359 -0.0661,-1.10736 -0.661,0.1322 -0.79375,0.074 -0.79375,-0.34819 0,-0.27881 0.13027,-0.58745 0.2895,-0.68586 0.15922,-0.0984 0.22906,-0.49238 0.1552,-0.87551 -0.10565,-0.548 0.0583,-0.87351 0.76883,-1.52602 0.49673,-0.45619 0.90313,-1.08718 0.90313,-1.4022 0,-0.31502 0.18846,-0.93721 0.41881,-1.38264 0.23034,-0.44543 0.93959,-2.67194 1.57611,-4.9478 2.46814,-8.82476 3.62032,-10.78557 7.08743,-12.06159 0.70242,-0.25852 1.81292,-0.99076 2.46778,-1.62721 2.43773,-2.3692 7.06801,-3.75833 10.19489,-3.05856 2.4559,0.5496 4.62447,1.75376 6.39213,3.54939 2.11599,2.14949 3.21384,4.06205 3.90849,6.80901 0.60886,2.40773 0.59671,5.22292 -0.0417,9.65937 -0.47501,3.30105 0.0616,8.67779 0.78991,7.91443 0.12674,-0.13283 1.00718,-3.21808 1.95654,-6.8561 1.95222,-7.48106 2.84293,-10.16833 4.69904,-14.17692 0.84686,-1.82895 1.29784,-3.15931 1.30054,-3.83646 0.002,-0.57014 0.17357,-1.751 0.38066,-2.62412 0.28755,-1.21236 0.34044,-2.71291 0.22384,-6.35 -0.11738,-3.66108 -0.0482,-5.58857 0.29914,-8.33438 0.64845,-5.12631 1.54383,-9.48023 2.653826,-12.90464 2.022184,-6.2386 2.80094,-11.24109 1.796216,-11.53836 -1.150861,-0.3405 -9.561842,-2.05524 -13.030732,-2.65655 -13.84745,-2.40039 -25.20456,-3.4195 -38.19741,-3.42758 -7.78784,-0.005 -8.18545,0.0189 -8.56016,0.51051 -0.53052,0.69607 -0.28602,6.71567 0.45081,11.09891 0.88457,5.26217 0.58629,11.3993 -0.89712,18.4579 l -0.376,1.78914 1.32438,4.16398 c 0.72841,2.29019 1.36937,4.31281 1.42435,4.49471 0.22445,0.74261 0.86235,0.21934 2.23811,-1.83594 0.79768,-1.19166 2.14419,-3.10981 2.99225,-4.26254 1.01725,-1.38273 1.7534,-2.73864 2.16346,-3.9849 1.31324,-3.99121 1.72281,-4.57993 5.20942,-7.48801 1.60819,-1.34135 2.97151,-2.90557 5.7073,-6.54833 4.16662,-5.54794 6.16583,-8.08956 6.73288,-8.55958 0.57178,-0.47394 1.09715,0.22436 1.05297,1.39958 -0.0559,1.48604 -2.00947,6.26474 -3.46136,8.46683 -1.56805,2.37826 -1.69313,2.91188 -0.62419,2.66295 0.40018,-0.0932 1.4531,-0.24094 2.33981,-0.32832 1.56849,-0.15458 1.62767,-0.13716 2.18281,0.64246 0.68629,0.9638 0.73299,2.28748 0.13357,3.78559 -0.40633,1.01552 -0.40633,1.14426 0,1.83212 0.24037,0.40691 0.43704,1.23231 0.43704,1.83421 0,0.71076 0.20293,1.36886 0.57892,1.87741 l 0.57893,0.78304 -0.57893,0.78303 c -0.31841,0.43067 -0.57892,1.01426 -0.57892,1.29686 0,0.2826 -0.43146,0.85297 -0.9588,1.26748 -0.52734,0.41452 -2.13233,1.91133 -3.56665,3.32625 -3.13402,3.09164 -4.61615,3.93351 -7.24851,4.11726 -1.16324,0.0812 -1.93047,0.26291 -2.06283,0.48854 -0.11591,0.19758 -0.9054,0.83097 -1.75442,1.40753 -1.85155,1.25737 -3.21148,3.21085 -5.71425,8.20828 l -1.73216,3.45872 0.38816,1.91209 c 0.47715,2.35048 1.15015,7.86244 1.46843,12.02677 0.18119,2.37058 0.38753,3.43046 0.86388,4.4374 1.28346,2.71304 1.69087,3.00992 2.51157,1.8302 z"
         id="path5838"
         inkscape:connector-curvature="0" />
    </g>
  </g>
</svg>
