<?xml version="1.0" encoding="UTF-8" standalone="no"?>
<!-- Created with Inkscape (http://www.inkscape.org/) -->

<svg
   xmlns:dc="http://purl.org/dc/elements/1.1/"
   xmlns:cc="http://creativecommons.org/ns#"
   xmlns:rdf="http://www.w3.org/1999/02/22-rdf-syntax-ns#"
   xmlns:svg="http://www.w3.org/2000/svg"
   xmlns="http://www.w3.org/2000/svg"
   xmlns:xlink="http://www.w3.org/1999/xlink"
   xmlns:sodipodi="http://sodipodi.sourceforge.net/DTD/sodipodi-0.dtd"
   xmlns:inkscape="http://www.inkscape.org/namespaces/inkscape"
   width="4in"
   height="4in"
   viewBox="0 0 101.6 101.6"
   version="1.1"
   id="svg8"
   inkscape:version="0.92.3 (2405546, 2018-03-11)"
   sodipodi:docname="logo-toronto.svg"
   inkscape:export-filename="C:\Users\Owen\Google Drive\Earth Strike\Git\materials-kit\toolkit\logo\canada\cities\logo-toronto.png"
   inkscape:export-xdpi="300"
   inkscape:export-ydpi="300">
  <defs
     id="defs2">
    <circle
       style="opacity:1;fill:none;fill-opacity:1;stroke:none;stroke-width:19.84375;stroke-linecap:round;stroke-linejoin:miter;stroke-miterlimit:4;stroke-dasharray:none;stroke-opacity:1;paint-order:normal"
       id="path1431-3"
       cx="50.799999"
       cy="246.2"
       r="39.6875" />
    <path
       style="opacity:1;fill:#ffffff;fill-opacity:0;stroke:none;stroke-width:18.41500092;stroke-linecap:round;stroke-linejoin:miter;stroke-miterlimit:4;stroke-dasharray:none;stroke-opacity:1;paint-order:normal"
       d="m 50.8,200.1625 c -25.425809,0 -46.0375,20.6117 -46.0375,46.0375 0,25.4258 20.611691,46.0375 46.0375,46.0375 25.425809,0 46.0375,-20.6117 46.0375,-46.0375 0,-25.4258 -20.611691,-46.0375 -46.0375,-46.0375 z"
       id="path1451-7"
       inkscape:connector-curvature="0" />
    <circle
       style="opacity:1;fill:none;fill-opacity:1;stroke:none;stroke-width:19.84375;stroke-linecap:round;stroke-linejoin:miter;stroke-miterlimit:4;stroke-dasharray:none;stroke-opacity:1;paint-order:normal"
       id="path1431-6"
       cx="50.799999"
       cy="246.2"
       r="39.6875" />
  </defs>
  <sodipodi:namedview
     id="base"
     pagecolor="#ffffff"
     bordercolor="#666666"
     borderopacity="1.0"
     inkscape:pageopacity="0.0"
     inkscape:pageshadow="2"
     inkscape:zoom="1"
     inkscape:cx="210.2744"
     inkscape:cy="117.80139"
     inkscape:document-units="in"
     inkscape:current-layer="g2067"
     showgrid="true"
     units="in"
     inkscape:window-width="1366"
     inkscape:window-height="705"
     inkscape:window-x="-8"
     inkscape:window-y="-8"
     inkscape:window-maximized="1"
     inkscape:object-paths="false"
     inkscape:snap-nodes="true"
     inkscape:snap-smooth-nodes="true"
     inkscape:snap-bbox="true"
     inkscape:bbox-nodes="true"
     inkscape:snap-bbox-midpoints="false"
     inkscape:pagecheckerboard="true">
    <inkscape:grid
       type="xygrid"
       id="grid815"
       spacingx="1.5875"
       spacingy="1.5875"
       empspacing="2" />
  </sodipodi:namedview>
  <metadata
     id="metadata5">
    <rdf:RDF>
      <cc:Work
         rdf:about="">
        <dc:format>image/svg+xml</dc:format>
        <dc:type
           rdf:resource="http://purl.org/dc/dcmitype/StillImage" />
        <dc:title></dc:title>
      </cc:Work>
    </rdf:RDF>
  </metadata>
  <g
     inkscape:label="Layer 1"
     inkscape:groupmode="layer"
     id="layer1"
     transform="translate(0,-195.4)">
    <circle
       style="opacity:1;fill:#ffffff;fill-opacity:1;stroke:none;stroke-width:18.98240471;stroke-linecap:round;stroke-linejoin:miter;stroke-miterlimit:4;stroke-dasharray:none;stroke-opacity:1;paint-order:normal"
       id="path2353"
       cx="50.799999"
       cy="246.2"
       r="50.799999" />
    <path
       style="fill:#ff0000;fill-opacity:1;stroke:none;stroke-width:4.77519989;stroke-linecap:butt;stroke-linejoin:miter;stroke-miterlimit:4;stroke-dasharray:none;stroke-opacity:1;paint-order:markers stroke fill"
       d="m 52.387499,220.79998 c -1.555235,1.9473 -3.521784,6.86037 -3.521784,10.03537 -0.760866,0.44118 -1.721271,0.57406 -3.059328,0.19649 0.590341,3.40629 -0.367499,7.96431 2.6614,11.78017 l -0.551785,0.42383 c -2.056978,0.0735 -4.638826,-0.63636 -6.508715,-1.52047 -0.04394,1.22334 0.301486,2.5971 0.589674,3.2568 -1.477946,1.16373 -4.27831,2.34966 -7.132844,2.81257 2.057863,1.98262 6.555572,4.21985 8.759397,4.19492 -0.370593,0.91302 -0.916332,1.91164 -1.618918,2.58673 7.549773,0.86782 11.136012,2.41751 14.474125,5.75004 0.909243,-0.34255 1.906214,-0.49199 2.960026,-0.44493 0.641215,0.0287 1.303245,0.13123 1.978173,0.30282 0.401688,-1.92208 0.144817,-3.69589 -0.298172,-6.03684 -2.38125,0 -5.055121,0.0668 -7.14375,-1.5875 3.175,0 4.289954,-0.16551 6.255432,-1.14825 -0.785643,-3.59207 -5.336106,-8.59332 -6.255432,-13.933 1.929646,3.85123 3.509086,5.09659 4.7625,6.35 1.5875,-0.79375 3.175,-2.38125 3.96875,-3.96875 0,2.38125 -0.659908,4.66225 -2.247408,6.24975 3.143986,3.82269 4.440169,9.83708 3.354538,14.83328 0.631714,0.2901 1.547863,0.60692 2.085145,0.95343 1.610302,-10.16222 8.81112,-14.70212 10.958085,-19.39959 -0.667863,0.0825 -2.20612,-0.81291 -2.592251,-1.44555 0.750486,-1.05315 1.748558,-4.163 2.164227,-7.12368 -2.097982,0.58521 -5.146887,0.88641 -6.712942,0.65577 -0.341227,-0.82377 -0.989144,-2.00743 -1.945622,-2.7573 -0.802305,1.70028 -2.588753,4.67882 -3.740858,5.81097 l -0.790507,-0.0311 c -1.987778,-2.19799 -3.014827,-5.84733 -3.962592,-11.35869 -1.479283,1.1458 -1.625395,1.76976 -2.745945,2.5076 C 54.775745,225.94488 53.128193,223.02829 52.3875,220.8 Z"
       id="path823"
       inkscape:connector-curvature="0"
       sodipodi:nodetypes="ccccccccccccccccccccccccccccccccc" />
    <path
       style="fill:#ff0000;fill-opacity:1;stroke:none;stroke-width:0.26458335px;stroke-linecap:butt;stroke-linejoin:miter;stroke-opacity:1"
       d="m 26.987498,256.12186 2.38125,-1.5875 32.543751,10.31875 -2.38125,1.5875 c -32.543751,-10.31875 0,0 -32.543751,-10.31875 z"
       id="path1650"
       inkscape:connector-curvature="0"
       sodipodi:nodetypes="ccccc" />
    <path
       style="fill:#cc0000;fill-opacity:1;stroke:none;stroke-width:0.26458335px;stroke-linecap:butt;stroke-linejoin:miter;stroke-opacity:1"
       d="m 26.987498,256.12186 c 32.543751,10.31875 0,0 32.543751,10.31875 v 3.175 L 26.987498,259.29686 Z"
       id="path1650-5"
       inkscape:connector-curvature="0"
       sodipodi:nodetypes="ccccc" />
    <path
       style="opacity:1;fill:#000000;fill-opacity:1;stroke:none;stroke-width:4.74349499;stroke-linecap:round;stroke-linejoin:round;stroke-miterlimit:4;stroke-dasharray:none;stroke-opacity:1;paint-order:markers stroke fill"
       d="m 62.068177,262.82196 c 4.047693,1.26669 5.372422,3.3605 4.747139,6.04598 -0.625284,2.68547 -3.142109,3.38104 -7.279849,2.12331 -4.13774,-1.25773 -5.396765,-3.66404 -4.603015,-6.04529 0.79375,-2.38125 3.088033,-3.39069 7.135725,-2.124 z"
       id="rect1515"
       inkscape:connector-curvature="0"
       sodipodi:nodetypes="zzzzz" />
    <circle
       style="opacity:1;fill:none;fill-opacity:1;stroke:none;stroke-width:19.84375;stroke-linecap:round;stroke-linejoin:miter;stroke-miterlimit:4;stroke-dasharray:none;stroke-opacity:1;paint-order:normal"
       id="path1431"
       cx="50.799999"
       cy="246.2"
       r="39.6875" />
    <path
       style="opacity:1;fill:#ffffff;fill-opacity:0;stroke:none;stroke-width:18.41500092;stroke-linecap:round;stroke-linejoin:miter;stroke-miterlimit:4;stroke-dasharray:none;stroke-opacity:1;paint-order:normal"
       d="m 50.8,200.1625 c -25.425809,0 -46.0375,20.6117 -46.0375,46.0375 0,25.4258 20.611691,46.0375 46.0375,46.0375 25.425809,0 46.0375,-20.6117 46.0375,-46.0375 0,-25.4258 -20.611691,-46.0375 -46.0375,-46.0375 z"
       id="path1451"
       inkscape:connector-curvature="0"
       sodipodi:nodetypes="sssss" />
    <g
       transform="translate(0,3.0517578e-6)"
       style="display:inline"
       id="g2067">
      <path
         style="opacity:1;fill:#ffffff;fill-opacity:0;stroke:none;stroke-width:18.41500092;stroke-linecap:round;stroke-linejoin:miter;stroke-miterlimit:4;stroke-dasharray:none;stroke-opacity:1;paint-order:normal"
         d="m 50.8,200.1625 c -25.425809,0 -46.0375,20.6117 -46.0375,46.0375 0,25.4258 20.611691,46.0375 46.0375,46.0375 25.425809,0 46.0375,-20.6117 46.0375,-46.0375 0,-25.4258 -20.611691,-46.0375 -46.0375,-46.0375 z"
         id="path7068"
         inkscape:connector-curvature="0" />
      <circle
         style="opacity:1;fill:none;fill-opacity:1;stroke:none;stroke-width:19.84375;stroke-linecap:round;stroke-linejoin:miter;stroke-miterlimit:4;stroke-dasharray:none;stroke-opacity:1;paint-order:normal"
         id="circle7070"
         cx="50.799999"
         cy="246.2"
         r="39.6875" />
      <path
         style="opacity:1;fill:#32418e;fill-opacity:1;stroke:none;stroke-width:72;stroke-linecap:round;stroke-linejoin:miter;stroke-miterlimit:4;stroke-dasharray:none;stroke-opacity:1;paint-order:normal"
         d="M 192,0 A 192,192 0 0 0 0,192 192,192 0 0 0 192,384 192,192 0 0 0 384,192 192,192 0 0 0 192,0 Z m 0,60 A 132,132 0 0 1 324,192 132,132 0 0 1 192,324 132,132 0 0 1 60,192 132,132 0 0 1 192,60 Z"
         transform="matrix(0.26458333,0,0,0.26458333,0,195.4)"
         id="path2028"
         inkscape:connector-curvature="0" />
      <text
         xml:space="preserve"
         style="font-style:normal;font-variant:normal;font-weight:normal;font-stretch:normal;font-size:10.58333302px;line-height:1.25;font-family:'Passion One';-inkscape-font-specification:'Passion One, Normal';font-variant-ligatures:normal;font-variant-caps:normal;font-variant-numeric:normal;font-feature-settings:normal;text-align:center;letter-spacing:0px;word-spacing:0px;writing-mode:lr-tb;text-anchor:middle;fill:#ffffff;fill-opacity:1;stroke:none;stroke-width:0.26458332"
         id="text2022"><textPath
           xlink:href="#path1431-6"
           startOffset="75%"
           id="textPath2024"><tspan
   style="fill:#ffffff;fill-opacity:1;stroke-width:0.26458332"
   id="tspan2020"><tspan
     style="fill:#ffffff;fill-opacity:1;stroke-width:0.26458332"
     id="tspan2018"
     y="223.79933"
     x="-66.455894">EARTH STRIKE</tspan></tspan></textPath></text>
      <text
         xml:space="preserve"
         style="font-style:normal;font-variant:normal;font-weight:normal;font-stretch:normal;font-size:10.58333302px;line-height:1.25;font-family:'Passion One';-inkscape-font-specification:'Passion One, Normal';font-variant-ligatures:normal;font-variant-caps:normal;font-variant-numeric:normal;font-feature-settings:normal;text-align:center;letter-spacing:0px;word-spacing:0px;writing-mode:lr-tb;text-anchor:middle;display:inline;fill:#ffffff;fill-opacity:1;stroke:none;stroke-width:0.26458332"
         id="text1514"><textPath
           xlink:href="#path1451-7"
           startOffset="50%"
           id="textPath1516"
           style="letter-spacing:0.79375px;fill:#ffffff;fill-opacity:1">TORONTO</textPath></text>
    </g>
  </g>
</svg>
