<?xml version="1.0" encoding="UTF-8" standalone="no"?>
<svg
   xmlns:dc="http://purl.org/dc/elements/1.1/"
   xmlns:cc="http://creativecommons.org/ns#"
   xmlns:rdf="http://www.w3.org/1999/02/22-rdf-syntax-ns#"
   xmlns:svg="http://www.w3.org/2000/svg"
   xmlns="http://www.w3.org/2000/svg"
   xmlns:xlink="http://www.w3.org/1999/xlink"
   xmlns:sodipodi="http://sodipodi.sourceforge.net/DTD/sodipodi-0.dtd"
   xmlns:inkscape="http://www.inkscape.org/namespaces/inkscape"
   id="svg8"
   version="1.1"
   viewBox="0 0 50.8 50.8"
   height="2in"
   width="2in"
   sodipodi:docname="logo-content.svg"
   inkscape:version="0.92.3 (2405546, 2018-03-11)">
  <sodipodi:namedview
     pagecolor="#ffffff"
     bordercolor="#666666"
     borderopacity="1"
     objecttolerance="10"
     gridtolerance="10"
     guidetolerance="10"
     inkscape:pageopacity="0"
     inkscape:pageshadow="2"
     inkscape:window-width="1366"
     inkscape:window-height="705"
     id="namedview865"
     showgrid="false"
     inkscape:snap-bbox="true"
     inkscape:snap-bbox-midpoints="true"
     inkscape:snap-smooth-nodes="true"
     inkscape:snap-intersection-paths="true"
     inkscape:object-paths="true"
     inkscape:zoom="2.0697605"
     inkscape:cx="80.532417"
     inkscape:cy="78.978037"
     inkscape:window-x="-8"
     inkscape:window-y="-8"
     inkscape:window-maximized="1"
     inkscape:current-layer="svg8">
    <inkscape:grid
       type="xygrid"
       id="grid867"
       spacingx="1.5875"
       spacingy="1.5875"
       empspacing="8" />
  </sodipodi:namedview>
  <defs
     id="defs2">
    <circle
       r="39.6875"
       cy="246.2"
       cx="50.799999"
       id="path1431-3"
       style="opacity:1;fill:none;fill-opacity:1;stroke:none;stroke-width:19.84375;stroke-linecap:round;stroke-linejoin:miter;stroke-miterlimit:4;stroke-dasharray:none;stroke-opacity:1;paint-order:normal" />
    <path
       id="path1451-8"
       d="m 50.8,200.1625 c -25.425809,0 -46.0375,20.6117 -46.0375,46.0375 0,25.4258 20.611691,46.0375 46.0375,46.0375 25.425809,0 46.0375,-20.6117 46.0375,-46.0375 0,-25.4258 -20.611691,-46.0375 -46.0375,-46.0375 z"
       style="opacity:1;fill:#ffffff;fill-opacity:0;stroke:none;stroke-width:18.41500092;stroke-linecap:round;stroke-linejoin:miter;stroke-miterlimit:4;stroke-dasharray:none;stroke-opacity:1;paint-order:normal"
       inkscape:connector-curvature="0" />
  </defs>
  <metadata
     id="metadata5">
    <rdf:RDF>
      <cc:Work
         rdf:about="">
        <dc:format>image/svg+xml</dc:format>
        <dc:type
           rdf:resource="http://purl.org/dc/dcmitype/StillImage" />
        <dc:title></dc:title>
      </cc:Work>
    </rdf:RDF>
  </metadata>
  <g
     transform="translate(-25.400002,-220.79207)"
     id="layer1">
    <g
       transform="translate(26.987504,-25.413312)"
       id="g5453">
      <path
         style="fill:#665544;fill-opacity:1;stroke:none;stroke-width:18.04799843;stroke-linecap:butt;stroke-linejoin:miter;stroke-miterlimit:4;stroke-dasharray:none;stroke-opacity:1;paint-order:markers stroke fill"
         d="M 89.999983,0.05031307 C 57.168607,47.770648 50.528613,129.10693 111.46289,149.35352 c 3.43651,-1.2947 7.20459,-1.8595 11.1875,-1.68164 2.42349,0.10832 4.92565,0.49599 7.47656,1.14453 C 131.64514,141.55184 130.67429,134.84767 129,126 c -9,0 -19.10597,0.25247 -27,-6 12,0 16.214,-0.62555 23.64258,-4.33984 C 122.67322,102.08383 105.47462,83.181467 102,63 c 7.29315,14.55583 13.26269,19.262702 18,24 6,-3 12,-9 15,-15 0,9 -2.49414,17.621094 -8.49414,23.621094 11.88278,14.447976 16.78174,37.179506 12.67857,56.062786 2.38758,1.09644 5.85019,2.29389 7.88086,3.60351 20.93469,-5.23708 32.93469,-23.23708 32.93469,-53.23708 0,-47.999998 -72.00002,-65.949684 -89.999997,-101.99999693 z"
         id="path823"
         inkscape:connector-curvature="0"
         transform="matrix(0.26458334,0,0,0.26458334,0,246.2)" />
    </g>
    <g
       style="display:none"
       id="g2067">
      <path
         style="opacity:1;fill:#ffffff;fill-opacity:0;stroke:none;stroke-width:18.41500092;stroke-linecap:round;stroke-linejoin:miter;stroke-miterlimit:4;stroke-dasharray:none;stroke-opacity:1;paint-order:normal"
         d="m 50.8,200.1625 c -25.425809,0 -46.0375,20.6117 -46.0375,46.0375 0,25.4258 20.611691,46.0375 46.0375,46.0375 25.425809,0 46.0375,-20.6117 46.0375,-46.0375 0,-25.4258 -20.611691,-46.0375 -46.0375,-46.0375 z"
         id="path1451"
         inkscape:connector-curvature="0" />
      <circle
         style="opacity:1;fill:none;fill-opacity:1;stroke:none;stroke-width:19.84375;stroke-linecap:round;stroke-linejoin:miter;stroke-miterlimit:4;stroke-dasharray:none;stroke-opacity:1;paint-order:normal"
         id="path1431"
         cx="50.799999"
         cy="246.2"
         r="39.6875" />
      <text
         xml:space="preserve"
         style="font-style:normal;font-variant:normal;font-weight:normal;font-stretch:normal;font-size:10.58333302px;line-height:1.25;font-family:'Passion One';-inkscape-font-specification:'Passion One, Normal';font-variant-ligatures:normal;font-variant-caps:normal;font-variant-numeric:normal;font-feature-settings:normal;text-align:center;letter-spacing:0px;word-spacing:0px;writing-mode:lr-tb;text-anchor:middle;display:inline;fill:#000000;fill-opacity:1;stroke:none;stroke-width:0.26458332"
         id="text1514"><textPath
           xlink:href="#path1451"
           startOffset="50%"
           id="textPath1516"
           style="letter-spacing:0.5291667px;fill:#000000;fill-opacity:1"><tspan
   style="letter-spacing:0.5291667px;fill:#000000;fill-opacity:1;stroke-width:0.26458332"
   id="tspan1510"
   y="188.87433"
   x="-0.48162434">INTERNATIONAL</tspan></textPath></text>
      <text
         xml:space="preserve"
         style="font-style:normal;font-variant:normal;font-weight:normal;font-stretch:normal;font-size:10.58333302px;line-height:1.25;font-family:'Passion One';-inkscape-font-specification:'Passion One, Normal';font-variant-ligatures:normal;font-variant-caps:normal;font-variant-numeric:normal;font-feature-settings:normal;text-align:center;letter-spacing:0px;word-spacing:0px;writing-mode:lr-tb;text-anchor:middle;fill:#000000;fill-opacity:1;stroke:none;stroke-width:0.26458332"
         id="text2022"><textPath
           xlink:href="#path1431"
           startOffset="75%"
           id="textPath2024"><tspan
   style="fill:#000000;fill-opacity:1;stroke-width:0.26458332"
   id="tspan2020"><tspan
     style="fill:#000000;fill-opacity:1;stroke-width:0.26458332"
     id="tspan2018"
     y="223.79933"
     x="-66.455894">EARTH STRIKE</tspan></tspan></textPath></text>
      <circle
         style="opacity:1;fill:#000000;fill-opacity:1;stroke:none;stroke-width:19.04999924;stroke-linecap:round;stroke-linejoin:miter;stroke-miterlimit:4;stroke-dasharray:none;stroke-opacity:1;paint-order:normal"
         id="path2028"
         cx="50.799999"
         cy="246.2"
         r="34.924999" />
      <circle
         style="opacity:1;fill:#000000;fill-opacity:1;stroke:none;stroke-width:19.04999924;stroke-linecap:round;stroke-linejoin:miter;stroke-miterlimit:4;stroke-dasharray:none;stroke-opacity:1;paint-order:normal"
         id="path2030"
         cx="50.799999"
         cy="246.2"
         r="50.799999" />
    </g>
  </g>
  <path
     style="fill:#6666cc;fill-opacity:1;stroke:none;stroke-width:18.04799843;stroke-linecap:butt;stroke-linejoin:miter;stroke-miterlimit:4;stroke-dasharray:none;stroke-opacity:1;paint-order:markers stroke fill"
     d="M 96 0.029296875 C 73.4293 32.835761 63.23685 81.531355 78.869141 115.3418 C 83.241324 115.63234 87.32206 115.71658 91.138672 115.62305 C 94.955283 115.52951 98.507842 115.25726 101.82617 114.83398 C 105.1445 114.4107 108.22813 113.83737 111.10547 113.13867 C 113.98281 112.43998 116.6548 111.61705 119.14844 110.69727 C 121.64207 109.77748 123.95778 108.76037 126.125 107.67383 C 126.8409 107.31491 127.45033 106.91028 128.13477 106.53711 C 122.06154 94.155424 110.75727 78.995364 108 62.980469 C 115.29315 77.536299 121.26269 82.243171 126 86.980469 C 132 83.980469 138 77.980469 141 71.980469 C 141 80.980469 138.50586 89.601563 132.50586 95.601562 C 133.92297 97.324592 135.22637 99.179111 136.44141 101.11719 C 138.44781 99.655941 140.5938 98.216744 142.38281 96.744141 C 145.44626 94.222507 148.25787 91.747805 151.04688 89.537109 C 152.44138 88.431761 153.83036 87.39143 155.24219 86.445312 C 156.65402 85.499195 158.08973 84.646618 159.57617 83.914062 C 161.06262 83.181507 162.6004 82.570131 164.21875 82.105469 C 165.8371 81.640806 167.53621 81.32408 169.34375 81.181641 C 171.15129 81.039202 173.06706 81.070572 175.12109 81.304688 C 177.11615 81.532081 179.2543 81.968406 181.53516 82.601562 C 165.73085 48.383131 111.33649 30.7452 96 0.029296875 z "
     id="path823-9"
     transform="scale(0.26458333)" />
  <path
     style="fill:#665544;fill-opacity:1;stroke:none;stroke-width:0.26458332px;stroke-linecap:butt;stroke-linejoin:miter;stroke-opacity:1"
     d="m 1.587502,35.63608 c 0,-0.319582 0,-0.319582 0.3149528,-0.529551 0,0 6.5907213,-0.818767 15.2845542,1.937819 l 13.650907,5.204141 c -1.872539,1.412841 -1.79889,4.165373 -0.929023,5.222962 L 13.883122,43.450186 C 5.3139798,40.733141 1.587502,35.63608 1.587502,35.63608 Z"
     id="path915"
     inkscape:connector-curvature="0"
     sodipodi:nodetypes="ccccccc" />
  <path
     style="fill:#6666cc;stroke:none;stroke-width:0.26458332px;stroke-linecap:butt;stroke-linejoin:miter;stroke-opacity:1;fill-opacity:1"
     d="m 32.071705,41.651989 c -3.036361,2.562569 -2.13504,4.864161 -1.347524,6.077968 3.517517,1.212935 6.768491,1.438874 10.228392,1.499496 0.444054,-0.727808 0.607976,-1.610082 0.605193,-2.584278 -0.37629,-3.64518 -6.237265,-5.767515 -9.486061,-4.993186 z"
     id="path919"
     inkscape:connector-curvature="0"
     sodipodi:nodetypes="ccccc" />
</svg>
