<?xml version="1.0" encoding="UTF-8" standalone="no"?>
<svg
   xmlns:dc="http://purl.org/dc/elements/1.1/"
   xmlns:cc="http://creativecommons.org/ns#"
   xmlns:rdf="http://www.w3.org/1999/02/22-rdf-syntax-ns#"
   xmlns:svg="http://www.w3.org/2000/svg"
   xmlns="http://www.w3.org/2000/svg"
   xmlns:sodipodi="http://sodipodi.sourceforge.net/DTD/sodipodi-0.dtd"
   xmlns:inkscape="http://www.inkscape.org/namespaces/inkscape"
   id="icon-inset"
   width="264"
   height="264"
   x="60"
   y="60"
   viewBox="60 60 264 264"
   version="1.1"
   sodipodi:docname="icon-inset.svg"
   inkscape:version="0.92.3 (2405546, 2018-03-11)"
   inkscape:export-filename="C:\Users\Owen\Google Drive\Earth Strike\materials-kit\toolkit\logo\countries\japan\icon-inset.png"
   inkscape:export-xdpi="96"
   inkscape:export-ydpi="96">
  <metadata
     id="metadata12">
    <rdf:RDF>
      <cc:Work
         rdf:about="">
        <dc:format>image/svg+xml</dc:format>
        <dc:type
           rdf:resource="http://purl.org/dc/dcmitype/StillImage" />
      </cc:Work>
    </rdf:RDF>
  </metadata>
  <defs
     id="defs10" />
  <sodipodi:namedview
     pagecolor="#ffffff"
     bordercolor="#666666"
     borderopacity="1"
     objecttolerance="10"
     gridtolerance="10"
     guidetolerance="10"
     inkscape:pageopacity="0"
     inkscape:pageshadow="2"
     inkscape:window-width="1366"
     inkscape:window-height="705"
     id="namedview8"
     showgrid="false"
     inkscape:zoom="0.89393939"
     inkscape:cx="132"
     inkscape:cy="132"
     inkscape:window-x="-8"
     inkscape:window-y="-8"
     inkscape:window-maximized="1"
     inkscape:current-layer="icon-inset" />
  <svg
     id="icon"
     width="192"
     height="192"
     x="96"
     y="96"
     viewBox="96 96 192 192"
     version="1.1"
     style="fill:#bc002d;fill-opacity:1">
    <path
       id="leaf"
       d="m 192,96 c -32.83137,47.720341 -39.47137,129 21.46291,149.303211 3.43651,-1.2947 7.20459,-1.8595 11.1875,-1.68164 2.42349,0.10832 4.92565,0.5 7.47656,1.14453 1.51819,-7.26457 0.54734,-13.96874 -1.12695,-22.81641 -9,0 -19.10597,0.25247 -27,-6 12,0 16.214,-0.62555 23.64258,-4.33984 -2.96936,-13.57633 -20.16796,-32.4787 -23.64258,-52.66016 7.29315,14.55583 13.26269,19.2627 18,24 6,-3 12,-9 15,-15 0,9 -2.49414,17.62109 -8.49414,23.62109 11.88278,14.44798 16.78174,37.17951 12.67857,56 2.38758,1.09644 5.85019,2.29389 7.88086,3.60351 C 270,246 282,228 282,198 c 0,-48 -72,-66 -90,-102 z"
       style="fill:#bc002d;fill-opacity:1" />
    <path
       id="match-top"
       d="m 102,229.44972 9,-6 123,39 -9,6 c -123,-39 0,0 -123,-39 z"
       style="fill:#bc002d;fill-opacity:1" />
    <path
       id="match-front"
       d="m 102,229.44972 c 123,39 0,0 123,39 v 12 l -123,-39 z"
       style="fill:#bc002d;fill-opacity:1" />
    <path
       id="match-head"
       d="m 234.58841,254.77293 c 15.29837,4.78749 20.30522,12.7011 17.94194,22.85095 -2.36327,10.14981 -11.87568,12.77873 -27.51439,8.02511 -15.6387,-4.75363 -20.39722,-13.84834 -17.39722,-22.84834 3,-9 11.67131,-12.81521 26.96967,-8.02772 z"
       style="fill:#bc002d;fill-opacity:1" />
  </svg>
</svg>
