<?xml version="1.0" encoding="UTF-8" standalone="no"?>
<svg
   xmlns:dc="http://purl.org/dc/elements/1.1/"
   xmlns:cc="http://creativecommons.org/ns#"
   xmlns:rdf="http://www.w3.org/1999/02/22-rdf-syntax-ns#"
   xmlns:svg="http://www.w3.org/2000/svg"
   xmlns="http://www.w3.org/2000/svg"
   xmlns:xlink="http://www.w3.org/1999/xlink"
   id="svg8"
   version="1.1"
   viewBox="0 0 101.6 101.6"
   height="4in"
   width="4in">
  <defs
     id="defs2">
    <circle
       r="39.6875"
       cy="246.2"
       cx="50.799999"
       id="path1431-3"
       style="opacity:1;fill:none;fill-opacity:1;stroke:none;stroke-width:19.84375;stroke-linecap:round;stroke-linejoin:miter;stroke-miterlimit:4;stroke-dasharray:none;stroke-opacity:1;paint-order:normal" />
    <path
       id="path1451-8"
       d="m 50.8,200.1625 c -25.425809,0 -46.0375,20.6117 -46.0375,46.0375 0,25.4258 20.611691,46.0375 46.0375,46.0375 25.425809,0 46.0375,-20.6117 46.0375,-46.0375 0,-25.4258 -20.611691,-46.0375 -46.0375,-46.0375 z"
       style="opacity:1;fill:#ffffff;fill-opacity:0;stroke:none;stroke-width:18.41500092;stroke-linecap:round;stroke-linejoin:miter;stroke-miterlimit:4;stroke-dasharray:none;stroke-opacity:1;paint-order:normal" />
  </defs>
  <metadata
     id="metadata5">
    <rdf:RDF>
      <cc:Work
         rdf:about="">
        <dc:format>image/svg+xml</dc:format>
        <dc:type
           rdf:resource="http://purl.org/dc/dcmitype/StillImage" />
        <dc:title></dc:title>
      </cc:Work>
    </rdf:RDF>
  </metadata>
  <g
     transform="translate(0,-195.4)"
     id="layer1">
    <path
       id="path1429"
       transform="matrix(0.26458333,0,0,0.26458333,0,195.4)"
       d="M 192,-0.05078125 A 192,192 0 0 0 0,191.94922 a 192,192 0 0 0 192,192 192,192 0 0 0 192,-192 A 192,192 0 0 0 192,-0.05078125 Z M 202.39453,17.09375 c 0.28503,-0.0041 0.57562,0.0041 0.875,0.02344 2.42163,0.156219 4.88177,0.554897 7.37891,1.197265 l -1.21094,6.335938 c -2.59499,-0.782186 -4.38452,-1.20596 -5.36914,-1.269532 -1.25073,-0.08063 -1.90932,0.385386 -1.97461,1.396485 -0.0258,0.399168 0.24329,0.804488 0.80469,1.214844 0.588,0.412093 1.29313,0.857134 2.11718,1.33789 0.82579,0.454148 1.64523,1.00215 2.45899,1.642578 0.81548,0.613821 1.48133,1.471958 1.99805,2.574219 0.54333,1.103975 0.77099,2.348636 0.68164,3.732422 -0.16323,2.528075 -0.96753,4.440177 -2.41407,5.736328 -1.44652,1.296151 -3.42041,1.862684 -5.92187,1.701172 -2.47485,-0.159748 -4.87284,-0.702229 -7.19141,-1.626953 l 0.82422,-5.917969 c 2.79414,1.008781 4.74952,1.548905 5.86719,1.621094 1.11767,0.07206 1.70791,-0.384624 1.77148,-1.369141 0.0327,-0.505625 -0.24355,-0.991746 -0.82812,-1.457031 -0.55796,-0.463597 -1.2482,-0.93526 -2.07227,-1.416016 -0.82406,-0.480756 -1.65791,-1.028972 -2.5,-1.644531 -0.81547,-0.61382 -1.49378,-1.472222 -2.03711,-2.576172 -0.51671,-1.102261 -0.72927,-2.386 -0.63476,-3.849609 0.15292,-2.368403 0.96873,-4.22654 2.44531,-5.574219 1.292,-1.179197 2.93646,-1.783511 4.93164,-1.8125 z m -22.1582,0.210938 2.95312,24.664062 -6.75195,0.808594 -1.11719,-9.333985 L 170.67383,34 l 1.11719,9.333984 -6.83008,0.816407 -2.95313,-24.66211 6.83008,-0.818359 1.16016,9.689453 4.64648,-0.554687 -1.16015,-9.691407 z m 34.6582,1.158203 16.14844,2.871093 -1.45117,5.876954 -4.56836,-0.8125 -3.29102,18.509765 -6.73437,-1.197265 3.29101,-18.509766 -4.8457,-0.861328 z m -57.55469,1.929687 1.08789,5.955078 -4.5,1.132813 4.58985,18.230469 -6.63281,1.671874 -4.58985,-18.232421 -4.77148,1.201171 -1.08594,-5.955078 z m 78.16797,2.033203 8.87305,2.71875 c 2.5497,0.781128 4.22747,1.950143 5.0332,3.507813 0.83123,1.56548 0.84558,3.66287 0.041,6.289062 -0.43743,1.42783 -1.01777,2.546814 -1.74024,3.357422 -0.72246,0.810608 -1.66027,1.457702 -2.8125,1.941406 l 0.082,11.06836 -7.07618,-2.167969 0.25391,-9.292969 -0.88086,-0.269531 -2.62305,8.568359 -6.42578,-1.96875 z m -101.18945,5.171875 c 0.72383,0.03569 1.3841,0.189867 1.98242,0.462891 1.62039,0.718337 2.92565,2.359229 3.91406,4.921875 0.53739,1.39331 0.77103,2.631152 0.70313,3.714844 -0.0679,1.083691 -0.40588,2.171791 -1.01367,3.263672 l 6.89843,8.658203 -6.90429,2.662109 -5.53906,-7.466797 -0.85743,0.330078 3.22461,8.361328 -6.26953,2.417969 -8.93945,-23.175781 8.6582,-3.339844 c 1.55501,-0.599764 2.9362,-0.870035 4.14258,-0.810547 z m 122.74805,2.042969 6.25976,2.652344 -9.69336,22.871093 -6.25976,-2.654296 z m -16.91407,0.568359 -1.64062,5.353516 0.99414,0.304688 c 0.66292,0.203085 1.19416,0.155941 1.5918,-0.140626 0.39763,-0.29654 0.74809,-0.941153 1.05273,-1.935546 0.31245,-1.019868 0.38792,-1.764038 0.22461,-2.232422 -0.15549,-0.493859 -0.55203,-0.837903 -1.18945,-1.033203 z m -108.30859,4.244141 c -0.26231,-0.01317 -0.55033,0.04022 -0.86133,0.160156 l -1.00781,0.388672 2.01562,5.224609 0.97071,-0.373046 c 0.64688,-0.249449 1.03432,-0.614935 1.16406,-1.09375 0.12974,-0.478766 0.009,-1.203499 -0.36523,-2.173828 -0.38385,-0.9952 -0.7855,-1.626891 -1.20313,-1.894532 -0.21361,-0.146267 -0.45058,-0.225116 -0.71289,-0.238281 z m 137.37109,0.443359 5.81836,3.199219 -5.01172,9.113281 0.34961,0.19336 8.16797,-7.378906 6.44727,3.548828 -10.42774,8.917968 -1.89257,12.652344 -6.625,-3.642578 1.88281,-9.646484 -0.35156,-0.19336 -4.50977,8.201172 -5.81836,-3.199219 z m -156.64257,1.226563 15.93164,19.597656 -5.85938,3.208985 -2.54883,-3.074219 -4.14062,2.267578 1.2168,3.802734 -5.57813,3.054688 -7.93164,-23.976563 z M 111.6875,45 l -0.24609,0.134766 3.03906,8.460937 2.70117,-1.478515 z m -15.255859,0.378906 3.236328,5.208985 -5.367188,3.841797 2.166016,3.023437 4.650393,-3.328125 3.07422,4.292969 -4.650394,3.330078 2.398434,3.349609 5.69141,-4.074218 2.93359,4.785156 -10.927731,7.824218 -14.458985,-20.199218 z m 192.103519,0.691406 11.2539,8.054688 -3.88867,4.744141 -5.36523,-3.841797 -2.16602,3.02539 4.65039,3.330078 -3.07226,4.292969 -4.65235,-3.330078 -2.39844,3.349609 5.69336,4.074219 -3.58593,4.322266 -10.92774,-7.824219 z M 192.05078,59.949219 A 132.00001,132 0 0 1 324,192 132.00001,132 0 0 1 191.94922,323.94922 132.00001,132 0 0 1 60,191.89844 132.00001,132 0 0 1 192.05078,59.949219 Z m -99.658202,243.132811 5.16211,4.42578 -16.167969,18.85742 -5.16211,-4.42773 z m 195.287112,3.36133 12.23828,14.89648 4.79101,-3.93554 3.22071,4.55078 -9.76758,8.02344 -15.76758,-19.19336 z m -187.697268,3.30859 5.564458,3.83789 -2.7168,12.60547 0.26367,0.18164 6.76758,-9.8125 5.03711,3.47461 -14.09961,20.44922 -5.400392,-3.72461 2.314453,-12.44531 -0.263672,-0.18164 -6.5625,9.51562 -5.00586,-3.45117 z m 177.626958,4.51758 17.38671,18.31641 -5.59375,3.64844 -2.77929,-2.86719 -3.95313,2.57812 1.50391,3.69922 -5.32617,3.47266 -9.75,-23.29688 z m -161.83985,6.2207 14.52539,7.61524 -3.1582,5.16406 -4.10938,-2.1543 -8.72851,16.65039 -6.0586,-3.17578 8.72852,-16.65039 -4.35742,-2.28515 z m 148.75195,2.20508 10.73047,22.40235 -5.91601,2.83398 -9.64844,-8.19531 -0.28906,0.13867 4.99414,10.42578 -5.48242,2.625 -10.73047,-22.40234 6.0957,-2.91992 9.58594,8.625 0.28906,-0.13868 -5.14844,-10.75 z m 12.88672,0.49219 -0.23632,0.1543 3.67968,8.20312 2.57813,-1.68359 z m -146.19922,5.2168 12.86719,5.09765 -2.62695,5.54297 -6.13477,-2.42969 -1.37109,3.45704 5.31836,2.10742 -1.94531,4.9082 -5.31641,-2.10547 -1.51758,3.83008 6.50781,2.57812 -2.43554,5.0586 L 122.06055,351.5 Z m 109.8086,4.58398 c 1.77391,-0.0834 3.29313,0.31971 4.55859,1.20899 2.05014,1.4147 3.75489,4.24194 5.11524,8.48242 1.3522,4.21508 1.61795,7.57624 0.79687,10.08008 -0.82107,2.50381 -2.88067,4.2848 -6.18164,5.34375 -3.30097,1.05897 -5.99703,0.81706 -8.08789,-0.72461 -2.09087,-1.54167 -3.81381,-4.41969 -5.16602,-8.63477 -1.36034,-4.24048 -1.62156,-7.54536 -0.78515,-9.91406 0.8618,-2.37687 2.95489,-4.09893 6.28125,-5.16602 1.24738,-0.40016 2.4044,-0.62576 3.46875,-0.67578 z M 145.4668,334 l 8.96484,2.40039 c 2.57596,0.68959 4.29346,1.79826 5.1543,3.32617 0.88659,1.53482 0.97394,3.62802 0.26367,6.28125 -0.38617,1.44255 -0.92413,2.58209 -1.61719,3.41797 -0.69306,0.83588 -1.60796,1.51649 -2.74219,2.04102 l 0.47657,11.05859 -7.14844,-1.91406 -0.0781,-9.29688 -0.88867,-0.23633 -2.3164,8.6543 -6.49219,-1.73828 z m 80.35547,3.35547 5.04687,24.32226 -6.6582,1.38086 -5.04688,-24.32226 z m -62.42969,1.34961 6.70312,0.8789 3.32618,12.45899 0.3164,0.041 1.55274,-11.81836 6.0664,0.79688 -3.23242,24.62891 -6.50391,-0.85352 -3.61132,-12.13281 -0.31836,-0.043 -1.50391,11.46289 -6.0293,-0.79297 z m 54.10742,0.52734 0.28906,6.04688 -4.60937,0.52539 2.13672,18.67969 -6.79688,0.77734 -2.13672,-18.67969 -4.88672,0.56055 -0.28906,-6.04688 z m 23.08008,0.29102 c -0.3556,-0.0159 -0.74729,0.0461 -1.17578,0.18359 -1.11725,0.35843 -1.70629,1.0093 -1.76758,1.95313 -0.0694,0.91845 0.26656,2.53307 1.00781,4.84375 l 0.29297,0.91406 c 0.79014,2.46302 1.48965,4.02999 2.09766,4.70312 0.62525,0.63958 1.49603,0.7803 2.61328,0.42188 1.14264,-0.36657 1.7616,-0.97025 1.85547,-1.8125 0.0939,-0.84228 -0.2314,-2.41979 -0.97266,-4.73047 l -0.39063,-1.21875 c -0.74941,-2.33605 -1.44439,-3.84869 -2.08593,-4.53906 -0.39019,-0.45244 -0.88195,-0.69228 -1.47461,-0.71875 z m -53.78125,1.63476 10.16015,0.008 4.53907,24.84179 -6.67969,-0.004 -0.75781,-3.91993 -4.71875,-0.004 -0.76368,3.91797 -6.35937,-0.004 z m -36.41406,0.45313 -1.44727,5.4082 1.00391,0.26953 c 0.66975,0.1794 1.19914,0.11341 1.58593,-0.19726 0.3868,-0.31053 0.71349,-0.96804 0.98243,-1.97266 0.27583,-1.0304 0.32444,-1.77604 0.14453,-2.23828 -0.17303,-0.48801 -0.58063,-0.81784 -1.22461,-0.99024 z m 41.24804,6.9082 -1.4082,8.87891 3.08008,0.002 -1.39258,-8.88086 z"
       style="display:inline;opacity:1;fill:#387740;fill-opacity:1;stroke:none;stroke-width:72;stroke-linecap:round;stroke-linejoin:miter;stroke-miterlimit:4;stroke-dasharray:none;stroke-opacity:1;paint-order:normal" />
    <g
       transform="translate(26.987504,-25.413312)"
       id="g5453">
      <path
         style="fill:#387740;fill-opacity:1;stroke:none;stroke-width:18.04799843;stroke-linecap:butt;stroke-linejoin:miter;stroke-miterlimit:4;stroke-dasharray:none;stroke-opacity:1;paint-order:markers stroke fill"
         d="M 89.999983,0.05031307 C 57.168607,47.770648 50.528613,129.10693 111.46289,149.35352 c 3.43651,-1.2947 7.20459,-1.8595 11.1875,-1.68164 2.42349,0.10832 4.92565,0.49599 7.47656,1.14453 C 131.64514,141.55184 130.67429,134.84767 129,126 c -9,0 -19.10597,0.25247 -27,-6 12,0 16.214,-0.62555 23.64258,-4.33984 C 122.67322,102.08383 105.47462,83.181467 102,63 c 7.29315,14.55583 13.26269,19.262702 18,24 6,-3 12,-9 15,-15 0,9 -2.49414,17.621094 -8.49414,23.621094 11.88278,14.447976 16.78174,37.179506 12.67857,56.062786 2.38758,1.09644 5.85019,2.29389 7.88086,3.60351 20.93469,-5.23708 32.93469,-23.23708 32.93469,-53.23708 0,-47.999998 -72.00002,-65.949684 -89.999997,-101.99999693 z"
         transform="matrix(0.26458334,0,0,0.26458334,0,246.2)"
         id="path823" />
      <path
         style="fill:#887766;fill-opacity:1;stroke:none;stroke-width:0.26458335px;stroke-linecap:butt;stroke-linejoin:miter;stroke-opacity:1"
         d="m 0,281.52188 2.3812501,-1.5875 32.5437509,10.31875 -2.38125,1.5875 C 0,281.52188 32.543751,291.84063 0,281.52188 Z"
         id="path1650" />
      <path
         style="fill:#665544;fill-opacity:1;stroke:none;stroke-width:0.26458335px;stroke-linecap:butt;stroke-linejoin:miter;stroke-opacity:1"
         d="m 0,281.52188 c 32.543751,10.31875 0,0 32.543751,10.31875 v 3.175 L 0,284.69688 Z"
         id="path1650-5" />
      <path
         style="opacity:1;fill:#222222;fill-opacity:1;stroke:none;stroke-width:4.74349499;stroke-linecap:round;stroke-linejoin:round;stroke-miterlimit:4;stroke-dasharray:none;stroke-opacity:1;paint-order:markers stroke fill"
         d="m 35.080679,288.22198 c 4.047693,1.26669 5.372422,3.3605 4.747139,6.04598 -0.625284,2.68547 -3.142109,3.38104 -7.279849,2.12331 -4.13774,-1.25773 -5.396765,-3.66404 -4.603015,-6.04529 0.79375,-2.38125 3.088033,-3.39069 7.135725,-2.124 z"
         id="rect1515" />
    </g>
    <g
       style="display:none"
       id="g2067">
      <path
         style="opacity:1;fill:#ffffff;fill-opacity:0;stroke:none;stroke-width:18.41500092;stroke-linecap:round;stroke-linejoin:miter;stroke-miterlimit:4;stroke-dasharray:none;stroke-opacity:1;paint-order:normal"
         d="m 50.8,200.1625 c -25.425809,0 -46.0375,20.6117 -46.0375,46.0375 0,25.4258 20.611691,46.0375 46.0375,46.0375 25.425809,0 46.0375,-20.6117 46.0375,-46.0375 0,-25.4258 -20.611691,-46.0375 -46.0375,-46.0375 z"
         id="path1451" />
      <circle
         style="opacity:1;fill:none;fill-opacity:1;stroke:none;stroke-width:19.84375;stroke-linecap:round;stroke-linejoin:miter;stroke-miterlimit:4;stroke-dasharray:none;stroke-opacity:1;paint-order:normal"
         id="path1431"
         cx="50.799999"
         cy="246.2"
         r="39.6875" />
      <text
         xml:space="preserve"
         style="font-style:normal;font-variant:normal;font-weight:normal;font-stretch:normal;font-size:10.58333302px;line-height:1.25;font-family:'Passion One';-inkscape-font-specification:'Passion One, Normal';font-variant-ligatures:normal;font-variant-caps:normal;font-variant-numeric:normal;font-feature-settings:normal;text-align:center;letter-spacing:0px;word-spacing:0px;writing-mode:lr-tb;text-anchor:middle;display:inline;fill:#000000;fill-opacity:1;stroke:none;stroke-width:0.26458332"
         id="text1514"><textPath
           xlink:href="#path1451"
           startOffset="50%"
           id="textPath1516"
           style="letter-spacing:0.5291667px;fill:#000000;fill-opacity:1"><tspan
   style="letter-spacing:0.5291667px;fill:#000000;fill-opacity:1;stroke-width:0.26458332"
   id="tspan1510"
   y="188.87433"
   x="-0.48162434">INTERNATIONAL</tspan></textPath></text>
      <text
         xml:space="preserve"
         style="font-style:normal;font-variant:normal;font-weight:normal;font-stretch:normal;font-size:10.58333302px;line-height:1.25;font-family:'Passion One';-inkscape-font-specification:'Passion One, Normal';font-variant-ligatures:normal;font-variant-caps:normal;font-variant-numeric:normal;font-feature-settings:normal;text-align:center;letter-spacing:0px;word-spacing:0px;writing-mode:lr-tb;text-anchor:middle;fill:#000000;fill-opacity:1;stroke:none;stroke-width:0.26458332"
         id="text2022"><textPath
           xlink:href="#path1431"
           startOffset="75%"
           id="textPath2024"><tspan
   style="fill:#000000;fill-opacity:1;stroke-width:0.26458332"
   id="tspan2020"><tspan
     style="fill:#000000;fill-opacity:1;stroke-width:0.26458332"
     id="tspan2018"
     y="223.79933"
     x="-66.455894">EARTH STRIKE</tspan></tspan></textPath></text>
      <circle
         style="opacity:1;fill:#000000;fill-opacity:1;stroke:none;stroke-width:19.04999924;stroke-linecap:round;stroke-linejoin:miter;stroke-miterlimit:4;stroke-dasharray:none;stroke-opacity:1;paint-order:normal"
         id="path2028"
         cx="50.799999"
         cy="246.2"
         r="34.924999" />
      <circle
         style="opacity:1;fill:#000000;fill-opacity:1;stroke:none;stroke-width:19.04999924;stroke-linecap:round;stroke-linejoin:miter;stroke-miterlimit:4;stroke-dasharray:none;stroke-opacity:1;paint-order:normal"
         id="path2030"
         cx="50.799999"
         cy="246.2"
         r="50.799999" />
    </g>
  </g>
</svg>
