<?xml version="1.0" encoding="UTF-8" standalone="no"?>
<!-- Created with Inkscape (http://www.inkscape.org/) -->

<svg
   xmlns:dc="http://purl.org/dc/elements/1.1/"
   xmlns:cc="http://creativecommons.org/ns#"
   xmlns:rdf="http://www.w3.org/1999/02/22-rdf-syntax-ns#"
   xmlns:svg="http://www.w3.org/2000/svg"
   xmlns="http://www.w3.org/2000/svg"
   xmlns:xlink="http://www.w3.org/1999/xlink"
   xmlns:sodipodi="http://sodipodi.sourceforge.net/DTD/sodipodi-0.dtd"
   xmlns:inkscape="http://www.inkscape.org/namespaces/inkscape"
   width="851"
   height="315"
   viewBox="0 0 225.16042 83.34375"
   version="1.1"
   id="svg4740"
   inkscape:version="0.92.3 (2405546, 2018-03-11)"
   sodipodi:docname="banner-facebook.svg"
   inkscape:export-filename="C:\Users\Owen\Google Drive\Earth Strike\Graphics\materials-hperks\general-advertising\banners\banner-facebook.png"
   inkscape:export-xdpi="96"
   inkscape:export-ydpi="96">
  <defs
     id="defs4734">
    <circle
       r="39.6875"
       cy="246.2"
       cx="50.799999"
       id="path1431-3"
       style="opacity:1;fill:none;fill-opacity:1;stroke:none;stroke-width:19.84375;stroke-linecap:round;stroke-linejoin:miter;stroke-miterlimit:4;stroke-dasharray:none;stroke-opacity:1;paint-order:normal" />
    <path
       sodipodi:nodetypes="sssss"
       inkscape:connector-curvature="0"
       id="path1451-8"
       d="m 50.8,200.1625 c -25.425809,0 -46.0375,20.6117 -46.0375,46.0375 0,25.4258 20.611691,46.0375 46.0375,46.0375 25.425809,0 46.0375,-20.6117 46.0375,-46.0375 0,-25.4258 -20.611691,-46.0375 -46.0375,-46.0375 z"
       style="opacity:1;fill:#ffffff;fill-opacity:0;stroke:none;stroke-width:18.41500092;stroke-linecap:round;stroke-linejoin:miter;stroke-miterlimit:4;stroke-dasharray:none;stroke-opacity:1;paint-order:normal" />
  </defs>
  <sodipodi:namedview
     id="base"
     pagecolor="#ffffff"
     bordercolor="#666666"
     borderopacity="1.0"
     inkscape:pageopacity="0.0"
     inkscape:pageshadow="2"
     inkscape:zoom="0.98994949"
     inkscape:cx="254.83066"
     inkscape:cy="136.31732"
     inkscape:document-units="in"
     inkscape:current-layer="layer1"
     showgrid="true"
     units="px"
     inkscape:pagecheckerboard="true"
     inkscape:window-width="1366"
     inkscape:window-height="705"
     inkscape:window-x="-8"
     inkscape:window-y="-8"
     inkscape:window-maximized="1"
     inkscape:snap-bbox="true"
     inkscape:snap-bbox-midpoints="true"
     inkscape:snap-text-baseline="true"
     inkscape:snap-bbox-edge-midpoints="true"
     inkscape:bbox-nodes="true"
     inkscape:object-nodes="false">
    <inkscape:grid
       type="xygrid"
       id="grid5285"
       spacingx="1.5875"
       spacingy="1.5875"
       empspacing="8"
       dotted="false"
       originy="83.343751" />
    <inkscape:grid
       type="xygrid"
       id="grid5287"
       spacingx="1.5875"
       spacingy="0.52916667"
       empspacing="24"
       originy="83.343751" />
  </sodipodi:namedview>
  <metadata
     id="metadata4737">
    <rdf:RDF>
      <cc:Work
         rdf:about="">
        <dc:format>image/svg+xml</dc:format>
        <dc:type
           rdf:resource="http://purl.org/dc/dcmitype/StillImage" />
        <dc:title></dc:title>
      </cc:Work>
    </rdf:RDF>
  </metadata>
  <g
     inkscape:label="Layer 1"
     inkscape:groupmode="layer"
     id="layer1"
     transform="translate(0,-213.65625)">
    <rect
       style="opacity:1;fill:#387740;fill-opacity:1;stroke:none;stroke-width:4.56286192;stroke-linecap:butt;stroke-linejoin:bevel;stroke-miterlimit:4;stroke-dasharray:none;stroke-opacity:1;paint-order:normal"
       id="rect3235"
       width="133.35001"
       height="19.050005"
       x="69.849998"
       y="270.80624" />
    <g
       transform="matrix(0.50015624,0,0,0.50015624,3.167062,115.92175)"
       id="layer1-1"
       inkscape:label="Layer 1">
      <g
         inkscape:label="icon"
         inkscape:export-ydpi="300"
         inkscape:export-xdpi="300"
         transform="translate(26.987504,-25.413312)"
         id="g5453">
        <path
           inkscape:label="leaf"
           style="fill:#387740;fill-opacity:1;stroke:none;stroke-width:18.04799843;stroke-linecap:butt;stroke-linejoin:miter;stroke-miterlimit:4;stroke-dasharray:none;stroke-opacity:1;paint-order:markers stroke fill"
           d="M 89.999983,0.05031307 C 57.168607,47.770648 50.528613,129.10693 111.46289,149.35352 c 3.43651,-1.2947 7.20459,-1.8595 11.1875,-1.68164 2.42349,0.10832 4.92565,0.49599 7.47656,1.14453 C 131.64514,141.55184 130.67429,134.84767 129,126 c -9,0 -19.10597,0.25247 -27,-6 12,0 16.214,-0.62555 23.64258,-4.33984 C 122.67322,102.08383 105.47462,83.181467 102,63 c 7.29315,14.55583 13.26269,19.262702 18,24 6,-3 12,-9 15,-15 0,9 -2.49414,17.621094 -8.49414,23.621094 11.88278,14.447976 16.78174,37.179506 12.67857,56.062786 2.38758,1.09644 5.85019,2.29389 7.88086,3.60351 20.93469,-5.23708 32.93469,-23.23708 32.93469,-53.23708 0,-47.999998 -72.00002,-65.949684 -89.999997,-101.99999693 z"
           transform="matrix(0.26458334,0,0,0.26458334,0,246.2)"
           id="path823"
           inkscape:connector-curvature="0"
           sodipodi:nodetypes="cccccccccccccsc" />
        <path
           inkscape:label="matchstick top"
           style="fill:#887766;fill-opacity:1;stroke:none;stroke-width:0.26458335px;stroke-linecap:butt;stroke-linejoin:miter;stroke-opacity:1"
           d="m 0,281.52188 2.3812501,-1.5875 32.5437509,10.31875 -2.38125,1.5875 C 0,281.52188 32.543751,291.84063 0,281.52188 Z"
           id="path1650"
           inkscape:connector-curvature="0"
           sodipodi:nodetypes="ccccc" />
        <path
           inkscape:label="matchstick front"
           style="fill:#665544;fill-opacity:1;stroke:none;stroke-width:0.26458335px;stroke-linecap:butt;stroke-linejoin:miter;stroke-opacity:1"
           d="m 0,281.52188 c 32.543751,10.31875 0,0 32.543751,10.31875 v 3.175 L 0,284.69688 Z"
           id="path1650-5"
           inkscape:connector-curvature="0"
           sodipodi:nodetypes="ccccc" />
        <path
           inkscape:label="match head"
           style="opacity:1;fill:#222222;fill-opacity:1;stroke:none;stroke-width:4.74349499;stroke-linecap:round;stroke-linejoin:round;stroke-miterlimit:4;stroke-dasharray:none;stroke-opacity:1;paint-order:markers stroke fill"
           d="m 35.080679,288.22198 c 4.047693,1.26669 5.372422,3.3605 4.747139,6.04598 -0.625284,2.68547 -3.142109,3.38104 -7.279849,2.12331 -4.13774,-1.25773 -5.396765,-3.66404 -4.603015,-6.04529 0.79375,-2.38125 3.088033,-3.39069 7.135725,-2.124 z"
           id="rect1515"
           inkscape:connector-curvature="0"
           sodipodi:nodetypes="zzzzz" />
      </g>
      <g
         inkscape:label="useful parts"
         style="display:none"
         id="g2067">
        <path
           inkscape:label="bottom text baseline"
           style="opacity:1;fill:#ffffff;fill-opacity:0;stroke:none;stroke-width:18.41500092;stroke-linecap:round;stroke-linejoin:miter;stroke-miterlimit:4;stroke-dasharray:none;stroke-opacity:1;paint-order:normal"
           d="m 50.8,200.1625 c -25.425809,0 -46.0375,20.6117 -46.0375,46.0375 0,25.4258 20.611691,46.0375 46.0375,46.0375 25.425809,0 46.0375,-20.6117 46.0375,-46.0375 0,-25.4258 -20.611691,-46.0375 -46.0375,-46.0375 z"
           id="path1451"
           inkscape:connector-curvature="0"
           sodipodi:nodetypes="sssss" />
        <circle
           inkscape:label="top text baseline"
           style="opacity:1;fill:none;fill-opacity:1;stroke:none;stroke-width:19.84375;stroke-linecap:round;stroke-linejoin:miter;stroke-miterlimit:4;stroke-dasharray:none;stroke-opacity:1;paint-order:normal"
           id="path1431"
           cx="50.799999"
           cy="246.2"
           r="39.6875" />
        <text
           inkscape:label="bottom text"
           xml:space="preserve"
           style="font-style:normal;font-variant:normal;font-weight:normal;font-stretch:normal;font-size:10.58333302px;line-height:1.25;font-family:'Passion One';-inkscape-font-specification:'Passion One, Normal';font-variant-ligatures:normal;font-variant-caps:normal;font-variant-numeric:normal;font-feature-settings:normal;text-align:center;letter-spacing:0px;word-spacing:0px;writing-mode:lr-tb;text-anchor:middle;display:inline;fill:#000000;fill-opacity:1;stroke:none;stroke-width:0.26458332"
           id="text1514"><textPath
             xlink:href="#path1451"
             startOffset="50%"
             id="textPath1516"
             style="letter-spacing:0.5291667px;fill:#000000;fill-opacity:1"><tspan
   style="letter-spacing:0.5291667px;fill:#000000;fill-opacity:1;stroke-width:0.26458332"
   id="tspan1510"
   y="188.87433"
   x="-0.48162434">INTERNATIONAL</tspan></textPath></text>
        <text
           inkscape:label="top text"
           xml:space="preserve"
           style="font-style:normal;font-variant:normal;font-weight:normal;font-stretch:normal;font-size:10.58333302px;line-height:1.25;font-family:'Passion One';-inkscape-font-specification:'Passion One, Normal';font-variant-ligatures:normal;font-variant-caps:normal;font-variant-numeric:normal;font-feature-settings:normal;text-align:center;letter-spacing:0px;word-spacing:0px;writing-mode:lr-tb;text-anchor:middle;fill:#000000;fill-opacity:1;stroke:none;stroke-width:0.26458332"
           id="text2022"><textPath
             xlink:href="#path1431"
             startOffset="75%"
             id="textPath2024"><tspan
   style="fill:#000000;fill-opacity:1;stroke-width:0.26458332"
   id="tspan2020"><tspan
     style="fill:#000000;fill-opacity:1;stroke-width:0.26458332"
     id="tspan2018"
     y="223.79933"
     x="-66.455894">EARTH STRIKE</tspan></tspan></textPath></text>
        <circle
           inkscape:label="inner circle"
           style="opacity:1;fill:#000000;fill-opacity:1;stroke:none;stroke-width:19.04999924;stroke-linecap:round;stroke-linejoin:miter;stroke-miterlimit:4;stroke-dasharray:none;stroke-opacity:1;paint-order:normal"
           id="path2028"
           cx="50.799999"
           cy="246.2"
           r="34.924999" />
        <circle
           inkscape:label="outer circle"
           style="opacity:1;fill:#000000;fill-opacity:1;stroke:none;stroke-width:19.04999924;stroke-linecap:round;stroke-linejoin:miter;stroke-miterlimit:4;stroke-dasharray:none;stroke-opacity:1;paint-order:normal"
           id="path2030"
           cx="50.799999"
           cy="246.2"
           r="50.799999" />
      </g>
    </g>
    <flowRoot
       xml:space="preserve"
       id="flowRoot3103"
       style="font-style:normal;font-variant:normal;font-weight:normal;font-stretch:normal;font-size:112px;line-height:0%;font-family:'Passion One';-inkscape-font-specification:'Passion One, Normal';font-variant-ligatures:normal;font-variant-caps:normal;font-variant-numeric:normal;font-feature-settings:normal;text-align:center;letter-spacing:0px;word-spacing:0px;writing-mode:lr-tb;text-anchor:middle;fill:#387740;fill-opacity:1;stroke:none"
       transform="matrix(0.26458334,0,0,0.26458334,-15.875004,210.76145)"><flowRegion
         id="flowRegion3105"
         style="font-style:normal;font-variant:normal;font-weight:normal;font-stretch:normal;font-size:112px;font-family:'Passion One';-inkscape-font-specification:'Passion One, Normal';font-variant-ligatures:normal;font-variant-caps:normal;font-variant-numeric:normal;font-feature-settings:normal;text-align:center;writing-mode:lr-tb;text-anchor:middle;fill:#387740"><rect
           id="rect3107"
           width="672"
           height="288"
           x="240"
           y="48"
           style="font-style:normal;font-variant:normal;font-weight:normal;font-stretch:normal;font-size:112px;font-family:'Passion One';-inkscape-font-specification:'Passion One, Normal';font-variant-ligatures:normal;font-variant-caps:normal;font-variant-numeric:normal;font-feature-settings:normal;text-align:center;writing-mode:lr-tb;text-anchor:middle;fill:#387740" /></flowRegion><flowPara
         id="flowPara3109"
         style="font-style:normal;font-variant:normal;font-weight:normal;font-stretch:normal;font-size:112px;line-height:75%;font-family:'Passion One';-inkscape-font-specification:'Passion One, Normal';font-variant-ligatures:normal;font-variant-caps:normal;font-variant-numeric:normal;font-feature-settings:normal;text-align:center;writing-mode:lr-tb;text-anchor:middle;fill:#387740">EARTH STRIKE</flowPara><flowPara
         style="font-style:normal;font-variant:normal;font-weight:normal;font-stretch:normal;font-size:112px;line-height:0%;font-family:'Passion One';-inkscape-font-specification:'Passion One, Normal';font-variant-ligatures:normal;font-variant-caps:normal;font-variant-numeric:normal;font-feature-settings:normal;text-align:center;writing-mode:lr-tb;text-anchor:middle;fill:#387740"
         id="flowPara3113"> </flowPara><flowPara
         style="font-style:normal;font-variant:normal;font-weight:normal;font-stretch:normal;font-size:40px;line-height:75%;font-family:'Passion One';-inkscape-font-specification:'Passion One, Normal';font-variant-ligatures:normal;font-variant-caps:normal;font-variant-numeric:normal;font-feature-settings:normal;text-align:center;writing-mode:lr-tb;text-anchor:middle;fill:#387740"
         id="flowPara3111">GENERAL STRIKE TO SAVE THE PLANET</flowPara><flowPara
         style="font-style:normal;font-variant:normal;font-weight:normal;font-stretch:normal;font-size:40px;line-height:75%;font-family:'Passion One';-inkscape-font-specification:'Passion One, Normal';font-variant-ligatures:normal;font-variant-caps:normal;font-variant-numeric:normal;font-feature-settings:normal;text-align:center;writing-mode:lr-tb;text-anchor:middle;fill:#387740"
         id="flowPara3117"> SEPTEMBER 27, 2019</flowPara></flowRoot>    <flowRoot
       xml:space="preserve"
       id="flowRoot3227"
       style="font-style:normal;font-variant:normal;font-weight:normal;font-stretch:normal;font-size:24px;line-height:0%;font-family:'Passion One';-inkscape-font-specification:'Passion One, Normal';font-variant-ligatures:normal;font-variant-caps:normal;font-variant-numeric:normal;text-align:center;letter-spacing:0px;word-spacing:0px;writing-mode:lr-tb;text-anchor:middle;fill:#cccccc;fill-opacity:1;stroke:none"
       transform="matrix(0.26458334,0,0,0.26458334,-8.330791,218.52565)"><flowRegion
         id="flowRegion3229"
         style="fill:#cccccc"><rect
           id="rect3231"
           width="335.91507"
           height="46.557648"
           x="324"
           y="216"
           style="fill:#cccccc" /></flowRegion><flowPara
         id="flowPara3233"
         style="font-size:40px;line-height:100%;fill:#cccccc">earth-strike.com</flowPara></flowRoot>    <g
       id="g3361"
       transform="matrix(0.03207358,0,0,0.03207358,74.612083,275.56835)"
       style="fill:#cccccc">
      <g
         id="g3300"
         style="fill:#cccccc">
	<path
   id="path3288"
   d="m 294.077,251.199 -59.105,-59.107 42.167,-24.356 c 3.295,-1.903 5.212,-5.52 4.938,-9.315 -0.274,-3.796 -2.692,-7.101 -6.226,-8.51 L 87.82,74.905 c -3.686,-1.472 -7.895,-0.605 -10.702,2.201 -2.807,2.808 -3.674,7.016 -2.203,10.702 l 74.994,188.053 c 1.41,3.534 4.715,5.953 8.511,6.227 3.796,0.276 7.414,-1.642 9.316,-4.938 l 24.354,-42.167 59.101,59.107 c 1.862,1.863 4.39,2.91 7.023,2.91 2.635,0 5.161,-1.047 7.023,-2.91 l 28.841,-28.845 c 3.878,-3.879 3.878,-10.167 -10e-4,-14.046 z"
   inkscape:connector-curvature="0"
   style="fill:#cccccc" />

	<path
   id="path3290"
   d="m 43.61,29.552 c -3.879,-3.876 -10.166,-3.877 -14.047,0 -3.878,3.879 -3.878,10.168 0,14.047 l 22.069,22.069 c 1.939,1.939 4.48,2.909 7.023,2.909 2.541,0 5.083,-0.97 7.022,-2.909 3.879,-3.879 3.879,-10.167 0,-14.046 z"
   inkscape:connector-curvature="0"
   style="fill:#cccccc" />

	<path
   id="path3292"
   d="m 51.089,98.215 c 0,-5.484 -4.447,-9.932 -9.933,-9.932 H 9.946 c -5.485,0 -9.933,4.447 -9.933,9.932 0,5.485 4.447,9.933 9.933,9.933 h 31.21 c 5.486,-10e-4 9.933,-4.448 9.933,-9.933 z"
   inkscape:connector-curvature="0"
   style="fill:#cccccc" />

	<path
   id="path3294"
   d="M 47.063,128.869 24.991,150.94 c -3.878,3.879 -3.878,10.168 0,14.046 1.94,1.939 4.482,2.909 7.023,2.909 2.541,0 5.084,-0.97 7.023,-2.909 l 22.071,-22.07 c 3.879,-3.879 3.879,-10.168 0,-14.047 -3.878,-3.876 -10.164,-3.877 -14.045,0 z"
   inkscape:connector-curvature="0"
   style="fill:#cccccc" />

	<path
   id="path3296"
   d="m 98.222,51.078 c 5.485,0 9.933,-4.447 9.933,-9.933 V 9.932 C 108.155,4.447 103.708,0 98.222,0 92.738,0 88.29,4.446 88.29,9.932 v 31.214 c 0,5.485 4.447,9.932 9.932,9.932 z"
   inkscape:connector-curvature="0"
   style="fill:#cccccc" />

	<path
   id="path3298"
   d="m 135.894,64.006 c 2.543,0 5.084,-0.97 7.023,-2.909 l 22.068,-22.069 c 3.879,-3.879 3.879,-10.168 0,-14.047 -3.879,-3.877 -10.168,-3.877 -14.046,0 l -22.068,22.07 c -3.879,3.879 -3.879,10.168 0,14.046 1.94,1.939 4.481,2.909 7.023,2.909 z"
   inkscape:connector-curvature="0"
   style="fill:#cccccc" />

</g>
      <g
         id="g3302"
         style="fill:#cccccc">
</g>
      <g
         id="g3304"
         style="fill:#cccccc">
</g>
      <g
         id="g3306"
         style="fill:#cccccc">
</g>
      <g
         id="g3308"
         style="fill:#cccccc">
</g>
      <g
         id="g3310"
         style="fill:#cccccc">
</g>
      <g
         id="g3312"
         style="fill:#cccccc">
</g>
      <g
         id="g3314"
         style="fill:#cccccc">
</g>
      <g
         id="g3316"
         style="fill:#cccccc">
</g>
      <g
         id="g3318"
         style="fill:#cccccc">
</g>
      <g
         id="g3320"
         style="fill:#cccccc">
</g>
      <g
         id="g3322"
         style="fill:#cccccc">
</g>
      <g
         id="g3324"
         style="fill:#cccccc">
</g>
      <g
         id="g3326"
         style="fill:#cccccc">
</g>
      <g
         id="g3328"
         style="fill:#cccccc">
</g>
      <g
         id="g3330"
         style="fill:#cccccc">
</g>
    </g>
    <path
       id="path2984"
       d="m 166.16428,273.78285 h -2.52544 c -0.28848,0 -0.52322,0.23473 -0.52322,0.52321 v 2.52544 c 0,0.28848 0.23474,0.52321 0.52322,0.52321 h 1.05343 V 276.092 h -0.41859 v -0.62786 h 0.41859 v -0.42556 c 0,-0.34623 0.28164,-0.62787 0.62787,-0.62787 h 0.63484 v 0.62787 h -0.63484 v 0.42556 h 0.63484 l -0.10465,0.62787 h -0.53019 v 1.26271 h 0.84414 c 0.28848,0 0.52322,-0.23474 0.52322,-0.52322 v -2.52544 c 0,-0.28848 -0.23474,-0.52321 -0.52322,-0.52321 z m 0,0"
       inkscape:connector-curvature="0"
       style="fill:#cccccc;stroke-width:0.00697633" />
    <flowRoot
       xml:space="preserve"
       id="flowRoot1450-0-9-1-9"
       style="font-style:normal;font-variant:normal;font-weight:normal;font-stretch:normal;font-size:24px;line-height:100%;font-family:'Passion One';-inkscape-font-specification:'Passion One, Normal';font-variant-ligatures:normal;font-variant-caps:normal;font-variant-numeric:normal;font-feature-settings:normal;text-align:start;letter-spacing:0px;word-spacing:0px;writing-mode:lr-tb;text-anchor:start;fill:#cccccc;fill-opacity:1;stroke:none"
       transform="matrix(0.19843751,0,0,0.19843751,50.590444,201.64485)"><flowRegion
         id="flowRegion1452-5-6-3-4"
         style="font-style:normal;font-variant:normal;font-weight:normal;font-stretch:normal;font-size:24px;font-family:'Passion One';-inkscape-font-specification:'Passion One, Normal';font-variant-ligatures:normal;font-variant-caps:normal;font-variant-numeric:normal;font-feature-settings:normal;text-align:start;writing-mode:lr-tb;text-anchor:start;fill:#cccccc;fill-opacity:1"><rect
           id="rect1454-39-5-7-0"
           width="174"
           height="132.1351"
           x="600"
           y="361.9837"
           style="font-style:normal;font-variant:normal;font-weight:normal;font-stretch:normal;font-size:24px;font-family:'Passion One';-inkscape-font-specification:'Passion One, Normal';font-variant-ligatures:normal;font-variant-caps:normal;font-variant-numeric:normal;font-feature-settings:normal;text-align:start;writing-mode:lr-tb;text-anchor:start;fill:#cccccc;fill-opacity:1" /></flowRegion><flowPara
         style="font-style:normal;font-variant:normal;font-weight:normal;font-stretch:normal;font-size:24px;line-height:100%;font-family:'Passion One';-inkscape-font-specification:'Passion One, Normal';font-variant-ligatures:normal;font-variant-caps:normal;font-variant-numeric:normal;font-feature-settings:normal;text-align:start;writing-mode:lr-tb;text-anchor:start;fill:#cccccc;fill-opacity:1"
         id="flowPara3156-4-1">EarthStrikeInt </flowPara></flowRoot>    <path
       id="path3032"
       d="m 164.44811,281.79284 c -0.15446,0 -0.31345,-0.0125 -0.47339,-0.0376 -0.2817,-0.0442 -0.56686,-0.19155 -0.64756,-0.23567 l -0.21164,-0.11571 0.22914,-0.0754 c 0.25047,-0.0824 0.40283,-0.13344 0.59144,-0.21346 -0.18885,-0.0915 -0.3344,-0.25598 -0.40447,-0.46865 l -0.0532,-0.16182 0.0437,0.007 c -0.0414,-0.0418 -0.0742,-0.0842 -0.0996,-0.12273 -0.0902,-0.13706 -0.138,-0.30452 -0.12784,-0.44802 l 0.01,-0.14125 0.0846,0.0328 c -0.0357,-0.0674 -0.0614,-0.13931 -0.0766,-0.21471 -0.037,-0.1839 -0.006,-0.37927 0.0871,-0.55011 l 0.0736,-0.13522 0.0985,0.11832 c 0.31156,0.37428 0.7062,0.59629 1.17457,0.6613 -0.0191,-0.13188 -0.005,-0.25914 0.0427,-0.37322 0.0553,-0.13282 0.15351,-0.24546 0.2841,-0.32574 0.14503,-0.0891 0.32091,-0.13234 0.49524,-0.12163 0.18497,0.0113 0.35289,0.0807 0.48626,0.20055 0.0651,-0.017 0.11312,-0.035 0.17798,-0.0594 0.0391,-0.0147 0.0833,-0.0313 0.13866,-0.0505 l 0.20406,-0.0703 -0.13307,0.38004 c 0.009,-6.1e-4 0.0178,-0.002 0.0272,-0.002 l 0.21791,-0.01 -0.12879,0.17602 c -0.007,0.01 -0.009,0.013 -0.0119,0.0169 -0.0103,0.0157 -0.0233,0.0351 -0.20008,0.27115 -0.0443,0.0591 -0.0664,0.1361 -0.0623,0.21682 0.0157,0.30675 -0.022,0.58428 -0.11193,0.82486 -0.0851,0.22761 -0.21692,0.42289 -0.39182,0.58044 -0.21644,0.1949 -0.49242,0.32835 -0.82032,0.39659 -0.16083,0.0334 -0.33355,0.0503 -0.51233,0.0503 z m 0,0"
       inkscape:connector-curvature="0"
       style="fill:#cccccc;stroke-width:0.00697646" />
    <flowRoot
       xml:space="preserve"
       id="flowRoot1450-0-9-1-9-9"
       style="font-style:normal;font-variant:normal;font-weight:normal;font-stretch:normal;font-size:24px;line-height:100%;font-family:'Passion One';-inkscape-font-specification:'Passion One, Normal';font-variant-ligatures:normal;font-variant-caps:normal;font-variant-numeric:normal;font-feature-settings:normal;text-align:start;letter-spacing:0px;word-spacing:0px;writing-mode:lr-tb;text-anchor:start;fill:#cccccc;fill-opacity:1;stroke:none"
       transform="matrix(0.19843751,0,0,0.19843751,50.590444,206.40735)"><flowRegion
         id="flowRegion1452-5-6-3-4-9"
         style="font-style:normal;font-variant:normal;font-weight:normal;font-stretch:normal;font-size:24px;font-family:'Passion One';-inkscape-font-specification:'Passion One, Normal';font-variant-ligatures:normal;font-variant-caps:normal;font-variant-numeric:normal;font-feature-settings:normal;text-align:start;writing-mode:lr-tb;text-anchor:start;fill:#cccccc;fill-opacity:1"><rect
           id="rect1454-39-5-7-0-8"
           width="174"
           height="132.1351"
           x="600"
           y="361.9837"
           style="font-style:normal;font-variant:normal;font-weight:normal;font-stretch:normal;font-size:24px;font-family:'Passion One';-inkscape-font-specification:'Passion One, Normal';font-variant-ligatures:normal;font-variant-caps:normal;font-variant-numeric:normal;font-feature-settings:normal;text-align:start;writing-mode:lr-tb;text-anchor:start;fill:#cccccc;fill-opacity:1" /></flowRegion><flowPara
         style="font-style:normal;font-variant:normal;font-weight:normal;font-stretch:normal;font-size:24px;line-height:100%;font-family:'Passion One';-inkscape-font-specification:'Passion One, Normal';font-variant-ligatures:normal;font-variant-caps:normal;font-variant-numeric:normal;font-feature-settings:normal;text-align:start;writing-mode:lr-tb;text-anchor:start;fill:#cccccc;fill-opacity:1"
         id="flowPara3156-4-1-5">EarthStrikeInt </flowPara></flowRoot>    <g
       id="g3143"
       transform="matrix(0.00697632,0,0,0.00697632,163.11562,283.30784)"
       style="fill:#cccccc">
      <path
         id="path3126"
         d="M 437,0 H 75 C 33.648438,0 0,33.648438 0,75 v 362 c 0,41.35156 33.648438,75 75,75 h 362 c 41.35156,0 75,-33.64844 75,-75 V 75 C 512,33.648438 478.35156,0 437,0 Z M 257,390 c -74.44141,0 -135,-60.55859 -135,-135 0,-74.44141 60.55859,-135 135,-135 74.44141,0 135,60.55859 135,135 0,74.44141 -60.55859,135 -135,135 z M 407,150 c -24.8125,0 -45,-20.1875 -45,-45 0,-24.8125 20.1875,-45 45,-45 24.8125,0 45,20.1875 45,45 0,24.8125 -20.1875,45 -45,45 z m 0,0"
         inkscape:connector-curvature="0"
         style="fill:#cccccc" />
      <path
         id="path3128"
         d="m 407,90 c -8.27734,0 -15,6.722656 -15,15 0,8.27734 6.72266,15 15,15 8.27734,0 15,-6.72266 15,-15 0,-8.277344 -6.72266,-15 -15,-15 z m 0,0"
         inkscape:connector-curvature="0"
         style="fill:#cccccc" />
      <path
         id="path3130"
         d="m 257,150 c -57.89063,0 -105,47.10937 -105,105 0,57.89062 47.10937,105 105,105 57.89062,0 105,-47.10938 105,-105 0,-57.89063 -47.10938,-105 -105,-105 z m 0,0"
         inkscape:connector-curvature="0"
         style="fill:#cccccc" />
    </g>
    <flowRoot
       xml:space="preserve"
       id="flowRoot1450-0-9-1-9-9-2-6"
       style="font-style:normal;font-variant:normal;font-weight:normal;font-stretch:normal;font-size:24px;line-height:100%;font-family:'Passion One';-inkscape-font-specification:'Passion One, Normal';font-variant-ligatures:normal;font-variant-caps:normal;font-variant-numeric:normal;font-feature-settings:normal;text-align:start;letter-spacing:0px;word-spacing:0px;writing-mode:lr-tb;text-anchor:start;fill:#cccccc;fill-opacity:1;stroke:none"
       transform="matrix(0.19843751,0,0,0.19843751,50.590444,211.16985)"><flowRegion
         id="flowRegion1452-5-6-3-4-9-0-9"
         style="font-style:normal;font-variant:normal;font-weight:normal;font-stretch:normal;font-size:24px;font-family:'Passion One';-inkscape-font-specification:'Passion One, Normal';font-variant-ligatures:normal;font-variant-caps:normal;font-variant-numeric:normal;font-feature-settings:normal;text-align:start;writing-mode:lr-tb;text-anchor:start;fill:#cccccc;fill-opacity:1"><rect
           id="rect1454-39-5-7-0-8-5-2"
           width="174"
           height="132.1351"
           x="600"
           y="361.9837"
           style="font-style:normal;font-variant:normal;font-weight:normal;font-stretch:normal;font-size:24px;font-family:'Passion One';-inkscape-font-specification:'Passion One, Normal';font-variant-ligatures:normal;font-variant-caps:normal;font-variant-numeric:normal;font-feature-settings:normal;text-align:start;writing-mode:lr-tb;text-anchor:start;fill:#cccccc;fill-opacity:1" /></flowRegion><flowPara
         style="font-style:normal;font-variant:normal;font-weight:normal;font-stretch:normal;font-size:24px;line-height:100%;font-family:'Passion One';-inkscape-font-specification:'Passion One, Normal';font-variant-ligatures:normal;font-variant-caps:normal;font-variant-numeric:normal;font-feature-settings:normal;text-align:start;writing-mode:lr-tb;text-anchor:start;fill:#cccccc;fill-opacity:1"
         id="flowPara3156-4-1-5-2-1">EarthStrike2019 </flowPara></flowRoot>    <rect
       style="opacity:0.6;fill:#000000;fill-opacity:1;stroke:none;stroke-width:1.8404671;stroke-linecap:butt;stroke-linejoin:bevel;stroke-miterlimit:4;stroke-dasharray:none;stroke-opacity:1;paint-order:normal"
       id="rect3235-6"
       width="130.175"
       height="3.1749873"
       x="71.4375"
       y="289.85626" />
  </g>
</svg>
