<?xml version="1.0" encoding="UTF-8" standalone="no"?>
<!-- Created with Inkscape (http://www.inkscape.org/) -->

<svg
   xmlns:dc="http://purl.org/dc/elements/1.1/"
   xmlns:cc="http://creativecommons.org/ns#"
   xmlns:rdf="http://www.w3.org/1999/02/22-rdf-syntax-ns#"
   xmlns:svg="http://www.w3.org/2000/svg"
   xmlns="http://www.w3.org/2000/svg"
   xmlns:sodipodi="http://sodipodi.sourceforge.net/DTD/sodipodi-0.dtd"
   xmlns:inkscape="http://www.inkscape.org/namespaces/inkscape"
   width="1in"
   height="1in"
   viewBox="0 0 25.4 25.400001"
   version="1.1"
   id="svg17593"
   inkscape:version="0.92.3 (2405546, 2018-03-11)"
   sodipodi:docname="clouds.svg">
  <defs
     id="defs17587" />
  <sodipodi:namedview
     id="base"
     pagecolor="#ffffff"
     bordercolor="#666666"
     borderopacity="1.0"
     inkscape:pageopacity="0.0"
     inkscape:pageshadow="2"
     inkscape:zoom="2.8"
     inkscape:cx="50.94331"
     inkscape:cy="77.840471"
     inkscape:document-units="in"
     inkscape:current-layer="layer1"
     showgrid="false"
     units="in"
     inkscape:snap-page="true"
     inkscape:snap-bbox="true"
     inkscape:bbox-nodes="true"
     inkscape:snap-bbox-edge-midpoints="true"
     inkscape:snap-bbox-midpoints="true"
     inkscape:window-width="1366"
     inkscape:window-height="705"
     inkscape:window-x="-8"
     inkscape:window-y="-8"
     inkscape:window-maximized="1" />
  <metadata
     id="metadata17590">
    <rdf:RDF>
      <cc:Work
         rdf:about="">
        <dc:format>image/svg+xml</dc:format>
        <dc:type
           rdf:resource="http://purl.org/dc/dcmitype/StillImage" />
        <dc:title></dc:title>
      </cc:Work>
    </rdf:RDF>
  </metadata>
  <g
     inkscape:label="Layer 1"
     inkscape:groupmode="layer"
     id="layer1"
     transform="translate(0,-271.59999)">
    <g
       id="g11070"
       transform="translate(-97.415241,172.25044)"
       style="fill:#000000">
      <path
         style="fill:#000000;stroke-width:0.02645833"
         d="m 97.415241,99.349554 v 12.699996 12.7 l 0.0044,-7.52078 c 0.0024,-4.13643 0.0084,-7.47315 0.01328,-7.41495 0.141827,1.69829 1.367738,3.06659 3.075159,3.4323 0.23528,0.0504 0.3659,0.0553 1.76677,0.066 1.72571,0.0132 1.54797,0.0406 1.58213,-0.24391 0.0105,-0.0873 0.0581,-0.31353 0.10583,-0.50271 0.57899,-2.29485 2.52131,-4.01806 4.82947,-4.28465 1.16507,-0.13456 2.26734,0.0643 3.30992,0.59702 0.46424,0.23722 0.89496,0.55164 1.31294,0.95829 l 0.24407,0.2374 0.29058,-0.13627 c 0.15982,-0.075 0.4429,-0.18176 0.62906,-0.2373 l 0.33853,-0.10097 0.0836,-0.24981 c 0.13398,-0.40024 0.17735,-0.67473 0.17735,-1.12288 0,-1.16333 -0.50522,-2.21491 -1.41789,-2.95139 -0.98672,-0.79623 -2.33903,-1.0416 -3.55266,-0.64456 -0.11641,0.0381 -0.24385,0.0859 -0.28313,0.10619 -0.0393,0.0203 -0.0771,0.037 -0.084,0.037 -0.007,0 -0.0966,-0.16966 -0.19932,-0.37703 -0.454,-0.91664 -1.15188,-1.6204 -2.02648,-2.0436 -0.93111,-0.45052 -1.94309,-0.57007 -2.92044,-0.34499 -1.21511,0.27984 -2.25304,1.05645 -2.8693,2.147 -0.23391,0.41397 -0.38925,0.84567 -0.51309,1.4256 l -0.0226,0.10583 -0.3178,0.03 c -0.59303,0.056 -1.009284,0.17368 -1.49655,0.42292 -0.888971,0.45472 -1.548332,1.23107 -1.861075,2.19134 -0.08138,0.24987 -0.161038,0.63475 -0.181074,0.87467 -0.0049,0.0582 -0.01084,-2.13552 -0.01328,-4.87495 z m 25.399999,0 -0.004,9.425776 c -0.002,5.18418 -0.008,9.37816 -0.0133,9.31995 -0.0866,-1.03647 -0.6006,-2.00159 -1.41696,-2.66035 -0.60451,-0.48781 -1.32925,-0.76473 -2.18406,-0.83447 -0.12037,-0.01 -0.2241,-0.0263 -0.23052,-0.0367 -0.006,-0.0104 0.002,-0.1564 0.0189,-0.32448 0.0255,-0.25468 0.0236,-0.3625 -0.0113,-0.64704 -0.092,-0.75014 -0.39223,-1.36332 -0.92594,-1.89126 -0.4629,-0.45789 -1.04181,-0.75663 -1.68811,-0.87111 -0.25536,-0.0452 -0.8039,-0.0451 -1.05834,2.2e-4 -0.60952,0.10859 -1.17739,0.39951 -1.64103,0.84072 -0.12718,0.12102 -0.24262,0.22004 -0.25658,0.22004 -0.0139,0 -0.0401,-0.0323 -0.0581,-0.0717 -0.0655,-0.14382 -0.31493,-0.50295 -0.51418,-0.74037 -0.35908,-0.42785 -0.847,-0.81289 -1.36607,-1.07802 -1.22728,-0.62686 -2.65051,-0.64161 -3.91175,-0.0406 -1.08011,0.51472 -1.89538,1.44147 -2.27986,2.59162 -0.19269,0.57643 -0.27058,1.23272 -0.21048,1.77323 0.0496,0.44563 0.0484,0.48632 -0.0146,0.49836 -0.0891,0.0171 -0.59167,0.2619 -0.77727,0.37869 -0.73777,0.46425 -1.34053,1.24474 -1.5908,2.05982 -0.12988,0.42299 -0.16884,0.68567 -0.16867,1.13771 1.5e-4,0.4664 0.045,0.75586 0.18252,1.17894 0.43509,1.33856 1.57382,2.3215 2.97599,2.56884 0.26555,0.0468 0.5739,0.049 6.985,0.049 6.4111,0 6.71945,-0.002 6.985,-0.049 1.40827,-0.24841 2.53801,-1.22355 2.97615,-2.56884 0.0814,-0.24987 0.16104,-0.63475 0.18107,-0.87467 0.005,-0.0582 0.0109,1.27827 0.0133,2.96995 l 0.004,3.07578 v -12.7 z"
         id="path11074"
         inkscape:connector-curvature="0" />
    </g>
  </g>
</svg>
