<?xml version="1.0" encoding="UTF-8" standalone="no"?>
<!-- Created with Inkscape (http://www.inkscape.org/) -->

<svg
   xmlns:dc="http://purl.org/dc/elements/1.1/"
   xmlns:cc="http://creativecommons.org/ns#"
   xmlns:rdf="http://www.w3.org/1999/02/22-rdf-syntax-ns#"
   xmlns:svg="http://www.w3.org/2000/svg"
   xmlns="http://www.w3.org/2000/svg"
   xmlns:sodipodi="http://sodipodi.sourceforge.net/DTD/sodipodi-0.dtd"
   xmlns:inkscape="http://www.inkscape.org/namespaces/inkscape"
   width="1in"
   height="1in"
   viewBox="0 0 25.4 25.400001"
   version="1.1"
   id="svg17593"
   inkscape:version="0.92.3 (2405546, 2018-03-11)"
   sodipodi:docname="earth.svg">
  <defs
     id="defs17587" />
  <sodipodi:namedview
     id="base"
     pagecolor="#ffffff"
     bordercolor="#666666"
     borderopacity="1.0"
     inkscape:pageopacity="0.0"
     inkscape:pageshadow="2"
     inkscape:zoom="2.8"
     inkscape:cx="50.94331"
     inkscape:cy="77.840471"
     inkscape:document-units="in"
     inkscape:current-layer="layer1"
     showgrid="false"
     units="in"
     inkscape:snap-page="true"
     inkscape:snap-bbox="true"
     inkscape:bbox-nodes="true"
     inkscape:snap-bbox-edge-midpoints="true"
     inkscape:snap-bbox-midpoints="true"
     inkscape:window-width="1366"
     inkscape:window-height="705"
     inkscape:window-x="-8"
     inkscape:window-y="-8"
     inkscape:window-maximized="1">
    <inkscape:grid
       type="xygrid"
       id="grid19884" />
  </sodipodi:namedview>
  <metadata
     id="metadata17590">
    <rdf:RDF>
      <cc:Work
         rdf:about="">
        <dc:format>image/svg+xml</dc:format>
        <dc:type
           rdf:resource="http://purl.org/dc/dcmitype/StillImage" />
        <dc:title></dc:title>
      </cc:Work>
    </rdf:RDF>
  </metadata>
  <g
     inkscape:label="Layer 1"
     inkscape:groupmode="layer"
     id="layer1"
     transform="translate(0,-271.59999)">
    <path
       style="fill:#000000;stroke-width:1"
       d="m 11.487589,296.9463 c -3.155468,-0.32857 -5.7989273,-1.61899 -8.0017833,-3.90587 -1.656911,-1.72009 -2.7743037,-3.83828 -3.28743729,-6.23179 -0.24658686,-1.15053 -0.26706883,-3.59732 -0.0401607,-4.80983 0.41441853,-2.21411 1.58618879,-4.67711 2.98747689,-6.27937 1.003737,-1.14776 3.0883196,-2.5483 4.8206525,-3.23878 1.691128,-0.67408 3.3192039,-0.94339 5.2509749,-0.86853 1.982694,0.077 3.615067,0.51276 5.389408,1.43922 1.313136,0.68566 1.7039,0.96577 2.754102,1.97416 1.709964,1.64193 2.754866,3.27508 3.41559,5.3385 1.031167,3.22037 0.778877,6.56326 -0.722652,9.5752 -1.154742,2.31642 -3.043902,4.27553 -5.332059,5.52968 -2.072495,1.13592 -4.923304,1.71816 -7.234152,1.47741 z m 2.145386,-0.81228 c 2.183017,-0.20661 3.918482,-0.81473 5.705554,-1.99904 0.73221,-0.48527 2.202615,-1.83402 2.202615,-2.02037 0,-0.22186 -0.432009,-0.96437 -0.794098,-1.36512 -0.932492,-1.03221 -0.932492,-2.07161 8e-5,-2.67379 0.422331,-0.2728 0.574781,-0.54044 0.536267,-0.9419 -0.02008,-0.20862 -0.08313,-0.30049 -0.269479,-0.39276 -0.316868,-0.15647 -1.368718,-0.15968 -2.446069,-0.008 -0.655423,0.0927 -0.889922,0.0967 -1.146709,0.0201 -0.986428,-0.29527 -1.334622,-1.61586 -0.869239,-3.29659 0.268675,-0.96967 0.262249,-1.18314 -0.04498,-1.53265 -0.306828,-0.34903 -0.30482,-0.72218 0.004,-0.94845 0.326105,-0.2379 1.169561,-0.40877 2.058398,-0.41659 0.990564,-0.008 1.56936,0.11955 1.968598,0.43661 0.463495,0.36789 0.631247,0.37712 1.19671,0.0666 0.271888,-0.14964 0.708595,-0.33058 0.970283,-0.40207 l 0.47572,-0.13039 -0.561729,-0.339 c -0.630402,-0.38032 -0.723575,-0.40283 -0.791246,-0.18976 -0.230523,0.72607 -1.377553,0.68475 -2.177033,-0.0786 l -0.256225,-0.24473 -1.236388,0.0281 -1.236429,0.0281 -0.211245,-0.21062 c -0.455623,-0.4537 -0.281527,-1.32428 0.419599,-2.09969 0.458716,-0.50722 0.856428,-0.72519 1.539682,-0.84386 0.332129,-0.0578 0.630001,-0.13199 0.662251,-0.16489 0.03213,-0.0321 -0.0241,-0.12035 -0.12972,-0.19377 -0.908395,-0.64455 -1.016146,-0.93505 -0.778274,-2.09756 l 0.05382,-0.26238 -0.698716,-0.32095 c -1.598799,-0.73437 -2.965508,-1.05488 -4.755552,-1.11522 -1.416469,-0.0477 -2.622255,0.10872 -3.8932611,0.50474 -0.7290778,0.22707 -2.4332581,0.9947 -2.4332581,1.09576 0,0.0321 0.5565875,0.075 1.2369102,0.0935 1.330565,0.0361 1.7486783,0.13841 1.9267108,0.47051 0.1261045,0.2351 0.042169,0.53093 -0.2128518,0.75123 -0.2831331,0.24432 -0.4559046,0.59805 -0.3915671,0.80113 0.048193,0.15205 0.095583,0.16248 0.5111256,0.11554 0.5561455,-0.063 1.1939785,0.0489 1.7630955,0.30931 0.472853,0.21624 0.708998,0.50574 0.708998,0.86909 0,0.44006 -0.291969,0.61927 -1.649642,1.01204 -1.4499227,0.41956 -2.3430169,0.77465 -2.5784793,1.02527 -0.099599,0.10591 -0.2722897,0.55945 -0.4208442,1.10619 -0.4299607,1.58011 -0.7559855,2.02567 -1.3162277,1.7984 -0.5541778,-0.22467 -0.6219691,-0.21584 -0.7535357,0.0987 -0.1767071,0.42249 -0.1514059,0.73389 0.08233,1.01135 l 0.2040165,0.24192 0.2361451,-0.2359 c 0.2253017,-0.22507 0.2726913,-0.2367 1.0330543,-0.25475 2.0019319,-0.0473 1.9932974,-0.0505 4.037237,1.38349 1.186829,0.83254 1.511208,1.30249 1.515505,2.19549 0.0032,0.67785 -0.110442,1.01051 -0.83225,2.43653 -0.479118,0.9464 -0.666708,1.40788 -0.71711,1.76394 -0.08755,0.61766 -0.217671,0.85894 -0.725503,1.34229 -0.451849,0.43015 -0.484339,0.54124 -0.264258,0.90363 0.246587,0.4064 0.339358,0.75636 0.257832,0.97143 -0.152611,0.40135 -0.9596008,0.58357 -1.4537383,0.32817 -0.3658642,-0.18896 -0.9573916,-0.90624 -1.1322514,-1.37318 -0.088755,-0.2367 -0.20241,-0.73124 -0.2530126,-1.09905 -0.068273,-0.49691 -0.2060245,-0.93188 -0.5374308,-1.69277 -0.2449804,-0.56318 -0.5044589,-1.16191 -0.5762261,-1.33061 -0.1469882,-0.34582 -0.5604028,-0.74665 -1.182653,-1.14736 -0.7084754,-0.45622 -0.8922911,-0.70203 -0.9316887,-1.24632 -0.036145,-0.50883 0.1232934,-0.94199 0.5261456,-1.42329 0.1080324,-0.12878 0.1666671,-0.26358 0.130924,-0.29889 -0.036145,-0.0361 -0.3702819,-0.19457 -0.7431742,-0.35344 C 3.8217959,284.44 3.4145662,284.237 3.2897466,284.14826 c -0.3008038,-0.21384 -0.342571,-0.20742 -0.7653831,0.11474 -0.581206,0.44319 -1.0698404,0.54136 -1.61843585,0.32496 -0.14698826,-0.0578 -0.15140594,-0.0281 -0.0959841,0.66151 0.17550237,2.17311 0.98425785,4.34738 2.26165005,6.08043 0.2257033,0.3061 0.7961462,0.94126 1.2676331,1.41125 1.9678756,1.96168 4.5174391,3.14823 7.2959593,3.39544 1.030524,0.0919 1.030082,0.0919 1.996711,2e-4 z"
       id="path1022"
       inkscape:connector-curvature="0" />
  </g>
</svg>
