<?xml version="1.0" encoding="UTF-8" standalone="no"?>
<!-- Created with Inkscape (http://www.inkscape.org/) -->

<svg
   xmlns:dc="http://purl.org/dc/elements/1.1/"
   xmlns:cc="http://creativecommons.org/ns#"
   xmlns:rdf="http://www.w3.org/1999/02/22-rdf-syntax-ns#"
   xmlns:svg="http://www.w3.org/2000/svg"
   xmlns="http://www.w3.org/2000/svg"
   xmlns:sodipodi="http://sodipodi.sourceforge.net/DTD/sodipodi-0.dtd"
   xmlns:inkscape="http://www.inkscape.org/namespaces/inkscape"
   width="1in"
   height="1in"
   viewBox="0 0 25.4 25.400001"
   version="1.1"
   id="svg17593"
   inkscape:version="0.92.3 (2405546, 2018-03-11)"
   sodipodi:docname="mouse-click.svg">
  <defs
     id="defs17587" />
  <sodipodi:namedview
     id="base"
     pagecolor="#ffffff"
     bordercolor="#666666"
     borderopacity="1.0"
     inkscape:pageopacity="0.0"
     inkscape:pageshadow="2"
     inkscape:zoom="2.8"
     inkscape:cx="-9.9495471"
     inkscape:cy="77.840471"
     inkscape:document-units="in"
     inkscape:current-layer="layer1"
     showgrid="false"
     units="in"
     inkscape:snap-page="true"
     inkscape:snap-bbox="true"
     inkscape:bbox-nodes="true"
     inkscape:snap-bbox-edge-midpoints="true"
     inkscape:snap-bbox-midpoints="true"
     inkscape:window-width="1366"
     inkscape:window-height="705"
     inkscape:window-x="-8"
     inkscape:window-y="-8"
     inkscape:window-maximized="1">
    <inkscape:grid
       type="xygrid"
       id="grid19884" />
  </sodipodi:namedview>
  <metadata
     id="metadata17590">
    <rdf:RDF>
      <cc:Work
         rdf:about="">
        <dc:format>image/svg+xml</dc:format>
        <dc:type
           rdf:resource="http://purl.org/dc/dcmitype/StillImage" />
        <dc:title></dc:title>
      </cc:Work>
    </rdf:RDF>
  </metadata>
  <g
     inkscape:label="Layer 1"
     inkscape:groupmode="layer"
     id="layer1"
     transform="translate(0,-271.59999)">
    <g
       id="g3361"
       transform="matrix(0.08552189,0,0,0.08552189,-0.00111178,271.59999)"
       style="fill:#000000;stroke-width:0.37503359">
      <g
         id="g3300"
         style="fill:#000000;stroke-width:0.37503359">
        <path
           id="path3288"
           d="m 294.077,251.199 -59.105,-59.107 42.167,-24.356 c 3.295,-1.903 5.212,-5.52 4.938,-9.315 -0.274,-3.796 -2.692,-7.101 -6.226,-8.51 L 87.82,74.905 c -3.686,-1.472 -7.895,-0.605 -10.702,2.201 -2.807,2.808 -3.674,7.016 -2.203,10.702 l 74.994,188.053 c 1.41,3.534 4.715,5.953 8.511,6.227 3.796,0.276 7.414,-1.642 9.316,-4.938 l 24.354,-42.167 59.101,59.107 c 1.862,1.863 4.39,2.91 7.023,2.91 2.635,0 5.161,-1.047 7.023,-2.91 l 28.841,-28.845 c 3.878,-3.879 3.878,-10.167 -10e-4,-14.046 z"
           inkscape:connector-curvature="0"
           style="fill:#000000;stroke-width:0.37503359" />
        <path
           id="path3290"
           d="m 43.61,29.552 c -3.879,-3.876 -10.166,-3.877 -14.047,0 -3.878,3.879 -3.878,10.168 0,14.047 l 22.069,22.069 c 1.939,1.939 4.48,2.909 7.023,2.909 2.541,0 5.083,-0.97 7.022,-2.909 3.879,-3.879 3.879,-10.167 0,-14.046 z"
           inkscape:connector-curvature="0"
           style="fill:#000000;stroke-width:0.37503359" />
        <path
           id="path3292"
           d="m 51.089,98.215 c 0,-5.484 -4.447,-9.932 -9.933,-9.932 H 9.946 c -5.485,0 -9.933,4.447 -9.933,9.932 0,5.485 4.447,9.933 9.933,9.933 h 31.21 c 5.486,-10e-4 9.933,-4.448 9.933,-9.933 z"
           inkscape:connector-curvature="0"
           style="fill:#000000;stroke-width:0.37503359" />
        <path
           id="path3294"
           d="M 47.063,128.869 24.991,150.94 c -3.878,3.879 -3.878,10.168 0,14.046 1.94,1.939 4.482,2.909 7.023,2.909 2.541,0 5.084,-0.97 7.023,-2.909 l 22.071,-22.07 c 3.879,-3.879 3.879,-10.168 0,-14.047 -3.878,-3.876 -10.164,-3.877 -14.045,0 z"
           inkscape:connector-curvature="0"
           style="fill:#000000;stroke-width:0.37503359" />
        <path
           id="path3296"
           d="m 98.222,51.078 c 5.485,0 9.933,-4.447 9.933,-9.933 V 9.932 C 108.155,4.447 103.708,0 98.222,0 92.738,0 88.29,4.446 88.29,9.932 v 31.214 c 0,5.485 4.447,9.932 9.932,9.932 z"
           inkscape:connector-curvature="0"
           style="fill:#000000;stroke-width:0.37503359" />
        <path
           id="path3298"
           d="m 135.894,64.006 c 2.543,0 5.084,-0.97 7.023,-2.909 l 22.068,-22.069 c 3.879,-3.879 3.879,-10.168 0,-14.047 -3.879,-3.877 -10.168,-3.877 -14.046,0 l -22.068,22.07 c -3.879,3.879 -3.879,10.168 0,14.046 1.94,1.939 4.481,2.909 7.023,2.909 z"
           inkscape:connector-curvature="0"
           style="fill:#000000;stroke-width:0.37503359" />
      </g>
      <g
         id="g3302"
         style="fill:#000000;stroke-width:0.37503359" />
      <g
         id="g3304"
         style="fill:#000000;stroke-width:0.37503359" />
      <g
         id="g3306"
         style="fill:#000000;stroke-width:0.37503359" />
      <g
         id="g3308"
         style="fill:#000000;stroke-width:0.37503359" />
      <g
         id="g3310"
         style="fill:#000000;stroke-width:0.37503359" />
      <g
         id="g3312"
         style="fill:#000000;stroke-width:0.37503359" />
      <g
         id="g3314"
         style="fill:#000000;stroke-width:0.37503359" />
      <g
         id="g3316"
         style="fill:#000000;stroke-width:0.37503359" />
      <g
         id="g3318"
         style="fill:#000000;stroke-width:0.37503359" />
      <g
         id="g3320"
         style="fill:#000000;stroke-width:0.37503359" />
      <g
         id="g3322"
         style="fill:#000000;stroke-width:0.37503359" />
      <g
         id="g3324"
         style="fill:#000000;stroke-width:0.37503359" />
      <g
         id="g3326"
         style="fill:#000000;stroke-width:0.37503359" />
      <g
         id="g3328"
         style="fill:#000000;stroke-width:0.37503359" />
      <g
         id="g3330"
         style="fill:#000000;stroke-width:0.37503359" />
    </g>
  </g>
</svg>
