<?xml version="1.0" encoding="UTF-8" standalone="no"?>
<!-- Created with Inkscape (http://www.inkscape.org/) -->

<svg
   xmlns:dc="http://purl.org/dc/elements/1.1/"
   xmlns:cc="http://creativecommons.org/ns#"
   xmlns:rdf="http://www.w3.org/1999/02/22-rdf-syntax-ns#"
   xmlns:svg="http://www.w3.org/2000/svg"
   xmlns="http://www.w3.org/2000/svg"
   xmlns:sodipodi="http://sodipodi.sourceforge.net/DTD/sodipodi-0.dtd"
   xmlns:inkscape="http://www.inkscape.org/namespaces/inkscape"
   width="1in"
   height="1in"
   viewBox="0 0 25.4 25.400001"
   version="1.1"
   id="svg17593"
   inkscape:version="0.92.3 (2405546, 2018-03-11)"
   sodipodi:docname="plant.svg">
  <defs
     id="defs17587" />
  <sodipodi:namedview
     id="base"
     pagecolor="#ffffff"
     bordercolor="#666666"
     borderopacity="1.0"
     inkscape:pageopacity="0.0"
     inkscape:pageshadow="2"
     inkscape:zoom="2.8"
     inkscape:cx="50.94331"
     inkscape:cy="77.840471"
     inkscape:document-units="in"
     inkscape:current-layer="layer1"
     showgrid="false"
     units="in"
     inkscape:snap-page="true"
     inkscape:snap-bbox="true"
     inkscape:bbox-nodes="true"
     inkscape:snap-bbox-edge-midpoints="true"
     inkscape:snap-bbox-midpoints="true"
     inkscape:window-width="1366"
     inkscape:window-height="705"
     inkscape:window-x="-8"
     inkscape:window-y="-8"
     inkscape:window-maximized="1" />
  <metadata
     id="metadata17590">
    <rdf:RDF>
      <cc:Work
         rdf:about="">
        <dc:format>image/svg+xml</dc:format>
        <dc:type
           rdf:resource="http://purl.org/dc/dcmitype/StillImage" />
        <dc:title></dc:title>
      </cc:Work>
    </rdf:RDF>
  </metadata>
  <g
     inkscape:label="Layer 1"
     inkscape:groupmode="layer"
     id="layer1"
     transform="translate(0,-271.59999)">
    <path
       style="fill:#000000;stroke-width:0.99999988"
       d="m 4.1532009,296.86855 c -0.1712895,-0.1892 -0.1491838,-0.3724 0.090622,-0.75085 0.3349041,-0.5284 0.9670406,-0.90105 1.6792694,-0.98985 0.373759,-0.0464 0.3757977,-0.048 0.5184578,-0.42436 0.4408158,-1.16206 1.9331777,-2.00331 3.3280424,-1.87599 0.4505375,0.0412 1.2152445,0.26801 1.4036505,0.41621 0.04949,0.04 0.205748,-0.004 0.405667,-0.1188 0.40655,-0.22721 1.035305,-0.44621 1.469173,-0.51133 0.203229,-0.032 0.318794,-0.0816 0.298407,-0.1316 -0.09358,-0.23001 -0.627047,-1.86083 -0.693972,-2.12163 -0.0608,-0.2368 -0.204948,-0.42176 -0.677943,-0.86941 -0.330387,-0.3128 -0.848157,-0.73949 -1.150582,-0.94841 l -0.549866,-0.38001 -0.4957202,0.49405 c -0.7818519,0.77925 -1.5736055,1.07837 -2.6649499,1.00681 -0.9285054,-0.0608 -1.307689,-0.2656 -3.5869276,-1.93802 -1.2589323,-0.92373 -2.2562702,-1.59494 -3.06548442,-2.06315 -0.19267578,-0.1116 -0.38587123,-0.2808 -0.4293472,-0.3764 -0.12911676,-0.2836 0.1088898,-0.43581 1.22329532,-0.78237 2.0405613,-0.63457 4.0683899,-0.91913 5.4666045,-0.76717 1.603918,0.1744 2.3922857,0.45937 3.0267407,1.09421 0.5938928,0.59429 0.9292608,1.50134 0.8305168,2.24619 l -0.04469,0.33721 0.323352,0.1896 c 0.177845,0.1044 0.593433,0.39 0.923533,0.63493 0.35641,0.2644 0.577543,0.3908 0.544461,0.3108 -0.03078,-0.074 -0.07239,-0.89241 -0.09282,-1.8189 -0.02878,-1.3065 -0.058,-1.6845 -0.130355,-1.6845 -0.05129,0 -0.363526,-0.13881 -0.693885,-0.30801 -1.075875,-0.55156 -1.9173639,-1.55914 -2.1959443,-2.62939 -0.2752626,-1.05749 -0.087544,-2.09915 0.6345589,-3.52124 1.2891604,-2.53883 3.0343314,-4.43914 5.8352224,-6.35396 0.969027,-0.66245 1.142163,-0.73089 1.368905,-0.54125 0.141469,0.1184 0.164334,0.2416 0.23265,1.25426 0.10913,1.61842 0.258793,2.77467 0.614224,4.74562 0.172449,0.95637 0.352933,2.0553 0.401018,2.44211 0.120962,0.97309 0.06348,2.01178 -0.14051,2.53847 -0.439197,1.13385 -1.613576,2.10374 -3.011119,2.48679 -0.238926,0.0652 -0.792829,0.1316 -1.230878,0.1472 l -0.796455,0.028 -0.02318,0.85165 c -0.03438,1.27214 0.142668,2.96796 0.41604,3.98385 l 0.07755,0.2884 0.887252,-0.87705 0.887256,-0.87701 -0.09782,-0.29 c -0.06292,-0.1864 -0.08722,-0.49961 -0.06808,-0.87729 0.06927,-1.3681 0.978681,-2.31375 2.672181,-2.77864 1.898197,-0.52112 3.807969,-0.56348 6.326562,-0.1404 1.485842,0.2496 1.543608,0.41629 0.452524,1.30554 -0.408181,0.3328 -1.491531,1.34229 -2.407448,2.24354 -0.915918,0.90126 -1.839566,1.75723 -2.052549,1.90219 -1.187067,0.80793 -2.956018,0.66769 -4.025956,-0.31921 -0.170131,-0.1572 -0.333545,-0.2852 -0.363206,-0.2852 -0.02958,0 -0.297688,0.2364 -0.59558,0.52529 -0.579367,0.56184 -1.25302,1.41693 -1.25302,1.59054 0,0.058 0.07687,0.2948 0.170849,0.52576 l 0.17085,0.42013 0.673782,0.1704 c 0.38823,0.098 0.85014,0.2756 1.089937,0.41853 0.355051,0.2116 0.435687,0.2348 0.549182,0.1568 0.268107,-0.184 0.981979,-0.40265 1.456225,-0.44593 1.04378,-0.0952 2.111095,0.31121 2.790713,1.06261 0.225615,0.24961 0.454707,0.59541 0.535855,0.80909 0.13911,0.36641 0.149344,0.37521 0.550937,0.46629 0.540139,0.1228 0.895958,0.3132 1.217219,0.65209 0.257314,0.2712 0.496712,0.66533 0.496712,0.81761 0,0.042 -0.06516,0.1412 -0.144827,0.2208 -0.143348,0.1436 -0.241364,0.1452 -9.690984,0.1452 -9.1562212,0 -9.5510627,-0.008 -9.6660006,-0.1328 z"
       id="path15786"
       inkscape:connector-curvature="0" />
  </g>
</svg>
