<?xml version="1.0" encoding="UTF-8" standalone="no"?>
<!-- Created with Inkscape (http://www.inkscape.org/) -->

<svg
   xmlns:dc="http://purl.org/dc/elements/1.1/"
   xmlns:cc="http://creativecommons.org/ns#"
   xmlns:rdf="http://www.w3.org/1999/02/22-rdf-syntax-ns#"
   xmlns:svg="http://www.w3.org/2000/svg"
   xmlns="http://www.w3.org/2000/svg"
   xmlns:sodipodi="http://sodipodi.sourceforge.net/DTD/sodipodi-0.dtd"
   xmlns:inkscape="http://www.inkscape.org/namespaces/inkscape"
   width="1in"
   height="1in"
   viewBox="0 0 25.4 25.400001"
   version="1.1"
   id="svg17593"
   inkscape:version="0.92.3 (2405546, 2018-03-11)"
   sodipodi:docname="speaking.svg">
  <defs
     id="defs17587" />
  <sodipodi:namedview
     id="base"
     pagecolor="#ffffff"
     bordercolor="#666666"
     borderopacity="1.0"
     inkscape:pageopacity="0.0"
     inkscape:pageshadow="2"
     inkscape:zoom="2.8"
     inkscape:cx="50.94331"
     inkscape:cy="77.840471"
     inkscape:document-units="in"
     inkscape:current-layer="layer1"
     showgrid="false"
     units="in"
     inkscape:snap-page="true"
     inkscape:snap-bbox="true"
     inkscape:bbox-nodes="true"
     inkscape:snap-bbox-edge-midpoints="true"
     inkscape:snap-bbox-midpoints="true"
     inkscape:window-width="1366"
     inkscape:window-height="705"
     inkscape:window-x="-8"
     inkscape:window-y="-8"
     inkscape:window-maximized="1">
    <inkscape:grid
       type="xygrid"
       id="grid19884" />
  </sodipodi:namedview>
  <metadata
     id="metadata17590">
    <rdf:RDF>
      <cc:Work
         rdf:about="">
        <dc:format>image/svg+xml</dc:format>
        <dc:type
           rdf:resource="http://purl.org/dc/dcmitype/StillImage" />
        <dc:title></dc:title>
      </cc:Work>
    </rdf:RDF>
  </metadata>
  <g
     inkscape:label="Layer 1"
     inkscape:groupmode="layer"
     id="layer1"
     transform="translate(0,-271.59999)">
    <path
       style="fill:#000000;stroke-width:1"
       d="m 0.02816828,294.78323 c -0.13792074,-0.25779 0.25940325,-2.26879 0.56747969,-2.87268 0.31593469,-0.61964 1.00497673,-1.08352 3.10321623,-2.08974 0.7052401,-0.33838 1.4404298,-0.71638 1.6337995,-0.84039 l 0.3516177,-0.22532 -0.045305,-0.32917 c -0.024056,-0.18082 -0.1150676,-0.58821 -0.2004662,-0.90502 -0.1379207,-0.51167 -0.1948531,-0.61235 -0.507861,-0.9007 -0.4051422,-0.37327 -0.8304513,-1.16783 -0.8982088,-1.67826 -0.050117,-0.37608 0.097427,-0.75063 0.3231515,-0.82231 0.1214825,-0.0401 0.1395244,-0.14875 0.1740046,-1.07174 0.059739,-1.58384 0.355627,-2.30885 1.165751,-2.85395 0.4910219,-0.33037 0.9723412,-0.45883 1.8886321,-0.50394 0.9302032,-0.0457 1.4363001,0.0401 2.0512903,0.34721 1.0457121,0.52258 1.5896171,1.61007 1.6359241,3.27097 0.02005,0.7062 0.04009,0.8005 0.192047,0.96412 0.139925,0.14875 0.168792,0.25459 0.163179,0.59118 -0.01203,0.5961 -0.257398,1.16731 -0.723723,1.67088 -0.387701,0.41886 -0.680141,0.9612 -0.9294813,1.72449 -0.06856,0.21009 -0.108653,0.42471 -0.08861,0.47651 0.02005,0.0517 0.6493103,0.36445 1.3986923,0.69502 2.312137,1.01949 2.554782,1.14827 2.991638,1.58753 0.683549,0.68724 1.185998,1.90912 1.329251,3.23232 0.08099,0.74813 0.907991,0.67673 -7.841997,0.67673 -7.56824059,0 -7.65833009,-0.002 -7.73434687,-0.14394 z M 12.579076,288.52215 c -0.06255,-0.0625 -0.114266,-0.15195 -0.115068,-0.19886 -8.42e-4,-0.0469 0.280653,-0.67685 0.624813,-1.39993 l 0.626176,-1.31474 -0.360438,-0.45694 c -1.043226,-1.32216 -1.539981,-2.74723 -1.539981,-4.41776 0,-0.87523 0.07297,-1.411 0.28827,-2.12017 0.730539,-2.40447 2.774212,-4.27963 5.197247,-4.76861 0.824076,-0.16638 2.27064,-0.11587 3.08349,0.10745 0.618839,0.17 1.473948,0.568 2.038982,0.94901 0.191245,0.1287 0.640169,0.532 0.998121,0.896 1.017567,1.03465 1.611628,2.17835 1.884426,3.62772 0.161977,0.86124 0.111059,2.28363 -0.110657,3.10021 -0.723643,2.66075 -2.82112,4.59938 -5.477382,5.06261 -1.148507,0.20007 -2.112629,0.11587 -3.330625,-0.29188 l -0.751508,-0.25138 -1.355111,0.79549 c -0.745333,0.4375 -1.407313,0.79549 -1.471097,0.79549 -0.06375,0 -0.167189,-0.0513 -0.229734,-0.11387 z m 10.007352,-5.83585 c 0.09181,-0.16518 0.09422,-0.21129 0.01604,-0.261 -0.05292,-0.0321 -0.101836,-0.0894 -0.108652,-0.12469 -0.008,-0.0361 -0.03608,-0.0561 -0.06615,-0.0461 -0.02807,0.008 -0.05413,-0.016 -0.05413,-0.0541 0,-0.10063 -7.205958,-0.0994 -7.268142,0.001 -0.02406,0.0405 -0.08059,0.0517 -0.123888,0.0241 -0.04691,-0.0281 -0.05773,-0.016 -0.02807,0.0361 0.02807,0.0457 0.02005,0.0834 -0.01604,0.0834 -0.114266,0 -0.168392,0.23735 -0.06856,0.3003 0.05092,0.0321 0.06455,0.0593 0.02806,0.0601 -0.03608,6e-4 -0.02005,0.0505 0.02807,0.11146 0.08019,0.0966 0.551443,0.10785 3.820565,0.0902 l 3.729112,-0.02 0.111058,-0.20047 z m -0.06656,-1.87708 c 0.170798,-0.20488 0.170798,-0.21651 0.008,-0.40458 -0.13351,-0.15396 -0.145538,-0.15436 -3.814471,-0.15196 -2.987347,0.002 -3.696837,0.02 -3.766679,0.0994 -0.04731,0.0533 -0.06615,0.11708 -0.0421,0.14113 0.02406,0.0241 0.004,0.0437 -0.04049,0.0437 -0.118676,0 -0.105045,0.0898 0.0421,0.27184 l 0.126694,0.15676 3.675347,0.004 3.675348,0.004 0.136717,-0.16398 z m -0.147543,-1.79097 c 0,-0.0401 0.04049,-0.0641 0.09021,-0.0541 0.04972,0.008 0.08219,-0.0241 0.07217,-0.0722 -0.008,-0.0497 0.01604,-0.0902 0.05413,-0.0902 0.04009,0 0.07217,-0.0489 0.07217,-0.10865 0,-0.0597 -0.03608,-0.10866 -0.07658,-0.10866 -0.0421,0 -0.05773,-0.0321 -0.03608,-0.0673 0.02406,-0.0361 0.008,-0.087 -0.02807,-0.11106 -0.126694,-0.0782 -7.545707,-0.0461 -7.624892,0.0321 -0.0433,0.0433 -0.0449,0.0734 -0.004,0.0742 0.03608,6.4e-4 0.02406,0.0281 -0.03207,0.0641 -0.06335,0.0401 -0.07698,0.099 -0.03608,0.16157 0.03608,0.0541 0.06415,0.13111 0.06695,0.1708 0.0024,0.0401 0.0437,0.0641 0.09141,0.0541 0.04771,-0.008 0.087,0.016 0.087,0.0541 0,0.0473 1.265503,0.0722 3.651813,0.0722 2.386309,0 3.651776,-0.0241 3.651776,-0.0722 z"
       id="path977"
       inkscape:connector-curvature="0" />
  </g>
</svg>
