<?xml version="1.0" encoding="UTF-8" standalone="no"?>
<!-- Created with Inkscape (http://www.inkscape.org/) -->

<svg
   xmlns:dc="http://purl.org/dc/elements/1.1/"
   xmlns:cc="http://creativecommons.org/ns#"
   xmlns:rdf="http://www.w3.org/1999/02/22-rdf-syntax-ns#"
   xmlns:svg="http://www.w3.org/2000/svg"
   xmlns="http://www.w3.org/2000/svg"
   xmlns:sodipodi="http://sodipodi.sourceforge.net/DTD/sodipodi-0.dtd"
   xmlns:inkscape="http://www.inkscape.org/namespaces/inkscape"
   width="1in"
   height="1in"
   viewBox="0 0 25.4 25.400001"
   version="1.1"
   id="svg17593"
   inkscape:version="0.92.3 (2405546, 2018-03-11)"
   sodipodi:docname="sun.svg">
  <defs
     id="defs17587" />
  <sodipodi:namedview
     id="base"
     pagecolor="#ffffff"
     bordercolor="#666666"
     borderopacity="1.0"
     inkscape:pageopacity="0.0"
     inkscape:pageshadow="2"
     inkscape:zoom="2.8"
     inkscape:cx="50.94331"
     inkscape:cy="77.840471"
     inkscape:document-units="in"
     inkscape:current-layer="layer1"
     showgrid="false"
     units="in"
     inkscape:snap-page="true"
     inkscape:snap-bbox="true"
     inkscape:bbox-nodes="true"
     inkscape:snap-bbox-edge-midpoints="true"
     inkscape:snap-bbox-midpoints="true"
     inkscape:window-width="1366"
     inkscape:window-height="705"
     inkscape:window-x="-8"
     inkscape:window-y="-8"
     inkscape:window-maximized="1" />
  <metadata
     id="metadata17590">
    <rdf:RDF>
      <cc:Work
         rdf:about="">
        <dc:format>image/svg+xml</dc:format>
        <dc:type
           rdf:resource="http://purl.org/dc/dcmitype/StillImage" />
        <dc:title></dc:title>
      </cc:Work>
    </rdf:RDF>
  </metadata>
  <g
     inkscape:label="Layer 1"
     inkscape:groupmode="layer"
     id="layer1"
     transform="translate(0,-271.59999)">
    <g
       id="g11052"
       transform="translate(-51.444964,165.83615)"
       style="fill:#000000">
      <path
         style="fill:#000000;stroke-width:0.03307291"
         d="m 51.444926,105.76413 6.308659,0.002 c 5.136598,0.002 6.279898,0.01 6.153887,0.0439 -0.177477,0.0478 -0.37154,0.18437 -0.451652,0.31788 -0.03028,0.0505 -0.583404,1.15009 -1.229123,2.44358 -0.77676,1.55599 -1.190873,2.3518 -1.223892,2.3518 -0.02745,0 -1.188343,-0.38045 -2.579752,-0.84543 -2.351608,-0.78585 -2.542864,-0.84438 -2.714175,-0.8305 -0.101363,0.008 -0.242749,0.045 -0.314193,0.0818 -0.272402,0.14033 -0.475019,0.4527 -0.476392,0.73438 -5.26e-4,0.10803 0.23149,0.84559 0.842649,2.67872 0.463847,1.39127 0.843359,2.54809 0.843359,2.57071 0,0.0226 -1.085068,0.58421 -2.411222,1.24805 -2.637711,1.32037 -2.590962,1.29202 -2.69738,1.63723 -0.03992,0.1295 -0.04652,-0.70433 -0.04851,-6.14226 z m 0,0 v 12.7 12.7 l 0.0023,-6.29212 c 0.002,-5.43792 0.0086,-6.27183 0.04851,-6.14233 0.106418,0.34522 0.05967,0.31687 2.69738,1.63724 1.326154,0.66384 2.411222,1.22507 2.411222,1.24721 0,0.0221 -0.381399,1.18515 -0.847493,2.58447 -0.783731,2.35293 -0.846059,2.55723 -0.829601,2.71669 0.04229,0.40972 0.356621,0.72424 0.766039,0.76649 0.160122,0.0165 0.36135,-0.0449 2.717147,-0.8296 1.399315,-0.46609 2.56248,-0.84742 2.584854,-0.84742 0.02238,0 0.570852,1.0604 1.218789,2.35644 0.647937,1.29605 1.207075,2.3974 1.24256,2.44746 0.0986,0.13911 0.279436,0.26312 0.450877,0.30928 0.12601,0.0339 -1.01729,0.0421 -6.153888,0.0439 l -6.308658,0.002 h 12.699999 12.699999 l -6.308658,-0.001 c -6.098888,-10e-4 -6.303026,-0.003 -6.137803,-0.0601 v 7e-5 c 0.363735,-0.1257 0.29584,-0.0141 1.623996,-2.66948 0.788237,-1.57592 1.231953,-2.42864 1.263747,-2.42866 0.02695,-2e-5 1.188408,0.37951 2.580979,0.84336 1.39257,0.46384 2.577014,0.84336 2.632139,0.84336 0.309,0 0.642677,-0.20889 0.77702,-0.48641 0.151764,-0.3135 0.155718,-0.29763 -0.760677,-3.0356 -0.45657,-1.36412 -0.830117,-2.5109 -0.830117,-2.54836 0,-0.0572 0.363825,-0.2479 2.272148,-1.19088 1.249686,-0.61753 2.357093,-1.1774 2.46096,-1.24418 0.195579,-0.12574 0.345514,-0.32886 0.394485,-0.53446 0.01373,-0.0576 0.02649,2.73412 0.02836,6.20388 l 0.0034,6.30866 v -12.7 -6.41614 c 0,3.45612 -0.0044,6.28385 -0.0097,6.28385 -0.0053,0 -0.02666,-0.0632 -0.04741,-0.14056 -0.02075,-0.0773 -0.09224,-0.2041 -0.158841,-0.28176 -0.108141,-0.12611 -0.378945,-0.27034 -2.532274,-1.34824 -1.326153,-0.66384 -2.411157,-1.22576 -2.411157,-1.2487 0,-0.0229 0.372594,-1.1575 0.827985,-2.52129 0.455392,-1.3638 0.836556,-2.54067 0.847106,-2.61522 0.0116,-0.082 -0.0015,-0.20611 -0.03307,-0.31419 -0.108381,-0.37037 -0.427236,-0.60568 -0.815195,-0.60158 -0.189912,0.002 -0.504186,0.0991 -2.695249,0.83277 -1.364122,0.45674 -2.498897,0.83044 -2.521746,0.83044 -0.02285,0 -0.563288,-1.04342 -1.20096,-2.31866 -0.637673,-1.27524 -1.195213,-2.37537 -1.239008,-2.44475 -0.105675,-0.1674 -0.283326,-0.29875 -0.473098,-0.34985 -0.12601,-0.0339 1.017354,-0.0421 6.153953,-0.0439 l 6.308658,-0.002 H 64.144926 Z m 12.733202,6.35672 c 0.430957,5.9e-4 0.855633,0.0375 1.216592,0.11207 0.646506,0.13351 1.215365,0.33989 1.776377,0.64454 2.129161,1.1562 3.423623,3.44306 3.312136,5.85125 -0.07595,1.64065 -0.706407,3.06813 -1.870815,4.23586 -0.943519,0.9462 -2.102473,1.54283 -3.442232,1.77205 -0.342405,0.0586 -1.412359,0.0849 -1.752864,0.0431 -1.867369,-0.22904 -3.537128,-1.25449 -4.581051,-2.8134 -0.23813,-0.3556 -0.577491,-1.0487 -0.710745,-1.45172 -0.652997,-1.97496 -0.330255,-4.10889 0.874494,-5.78214 0.237689,-0.33012 0.808406,-0.9363 1.125255,-1.19521 0.702752,-0.57424 1.563808,-1.00492 2.48176,-1.24133 0.452602,-0.11657 1.017006,-0.17588 1.571093,-0.17512 z m -0.0332,1.60003 c -0.303842,0 -0.607684,0.0195 -0.810287,0.0585 -1.15698,0.22259 -2.184336,0.8254 -2.875987,1.68756 -0.215367,0.26846 -0.613205,0.88243 -0.613205,0.94632 0,0.0134 -0.04304,0.11938 -0.0956,0.23558 -0.110699,0.24474 -0.205523,0.55758 -0.289582,0.95544 -0.08072,0.38206 -0.08079,1.25153 -1.99e-4,1.67018 0.193329,1.00396 0.700392,1.96421 1.382603,2.61825 0.428315,0.41063 1.167762,0.85925 1.755642,1.06518 0.267411,0.0937 0.820164,0.2147 1.133135,0.24811 0.241767,0.0258 0.921937,-0.009 1.223569,-0.0634 0.715564,-0.12811 1.199323,-0.32357 1.819204,-0.73504 1.435359,-0.95276 2.266823,-2.65492 2.102003,-4.30316 -0.06832,-0.68322 -0.198373,-1.16126 -0.464377,-1.70726 -0.673117,-1.38164 -1.913219,-2.32079 -3.456637,-2.61773 -0.202602,-0.039 -0.506444,-0.0585 -0.810286,-0.0585 z"
         id="path11056"
         inkscape:connector-curvature="0" />
    </g>
  </g>
</svg>
