<?xml version="1.0" encoding="UTF-8" standalone="no"?>
<!-- Created with Inkscape (http://www.inkscape.org/) -->

<svg
   xmlns:dc="http://purl.org/dc/elements/1.1/"
   xmlns:cc="http://creativecommons.org/ns#"
   xmlns:rdf="http://www.w3.org/1999/02/22-rdf-syntax-ns#"
   xmlns:svg="http://www.w3.org/2000/svg"
   xmlns="http://www.w3.org/2000/svg"
   xmlns:sodipodi="http://sodipodi.sourceforge.net/DTD/sodipodi-0.dtd"
   xmlns:inkscape="http://www.inkscape.org/namespaces/inkscape"
   width="1in"
   height="1in"
   viewBox="0 0 25.4 25.400001"
   version="1.1"
   id="svg17593"
   inkscape:version="0.92.3 (2405546, 2018-03-11)"
   sodipodi:docname="tornado.svg">
  <defs
     id="defs17587" />
  <sodipodi:namedview
     id="base"
     pagecolor="#ffffff"
     bordercolor="#666666"
     borderopacity="1.0"
     inkscape:pageopacity="0.0"
     inkscape:pageshadow="2"
     inkscape:zoom="5.12"
     inkscape:cx="45.722406"
     inkscape:cy="42.868621"
     inkscape:document-units="in"
     inkscape:current-layer="layer1"
     showgrid="false"
     units="in"
     inkscape:snap-page="true"
     inkscape:snap-bbox="true"
     inkscape:bbox-nodes="true"
     inkscape:snap-bbox-edge-midpoints="true"
     inkscape:snap-bbox-midpoints="true"
     inkscape:window-width="1366"
     inkscape:window-height="705"
     inkscape:window-x="-8"
     inkscape:window-y="-8"
     inkscape:window-maximized="1">
    <inkscape:grid
       type="xygrid"
       id="grid19884" />
  </sodipodi:namedview>
  <metadata
     id="metadata17590">
    <rdf:RDF>
      <cc:Work
         rdf:about="">
        <dc:format>image/svg+xml</dc:format>
        <dc:type
           rdf:resource="http://purl.org/dc/dcmitype/StillImage" />
        <dc:title></dc:title>
      </cc:Work>
    </rdf:RDF>
  </metadata>
  <g
     inkscape:label="Layer 1"
     inkscape:groupmode="layer"
     id="layer1"
     transform="translate(0,-271.59999)">
    <g
       id="g9451"
       transform="matrix(0.125,0,0,0.125,-1.5867249,264.64466)"
       style="fill:#000000;stroke-width:0.25">
      <path
         style="fill:#000000;stroke-width:0.06614583"
         d="m 12.693799,55.642639 2.976563,0.01809 c 2.848385,0.01709 2.924767,0.03171 1.769917,0.343131 -2.096762,0.565416 -3.629496,2.001997 -4.381643,4.106726 -0.320188,0.895979 -0.342588,0.78455 -0.353468,-1.755965 z m 0,0 V 157.24264 258.84263 l 0.04599,-97.69739 c 0.02543,-53.73357 0.08264,-97.161611 0.127124,-96.506768 0.417148,6.140918 1.529247,15.083154 1.982306,15.941144 0.232026,0.439402 4.292023,0.463021 79.587907,0.463021 h 79.343994 l 1.6552,-3.108854 c 1.91963,-3.605165 3.63177,-6.459451 6.27817,-10.467577 1.03887,-1.573436 2.02275,-3.357779 2.18643,-3.965649 0.86016,-3.194386 -1.15421,-6.587147 -4.51807,-7.610388 -0.36475,-0.11095 7.70113,-0.212285 17.92397,-0.224793 l 18.58698,-0.02274 h -101.6 z m 0,203.199991 h 101.600001 101.6 l -27.05365,-0.031 c -14.8795,-0.0171 -26.51786,-0.12397 -25.86302,-0.23771 3.07661,-0.53436 4.87204,-1.55615 8.51163,-4.8426 8.21786,-7.42053 20.29627,-19.63204 19.8546,-20.07371 -0.11984,-0.11984 -9.30883,-0.18767 -20.41995,-0.15038 l -20.20186,0.0677 -1.63556,4.7625 c -0.89959,2.61937 -2.42836,6.56628 -3.39721,8.77052 -1.46093,3.32377 -1.76165,4.25157 -1.76165,5.43791 0,2.64496 1.62765,4.96584 4.12481,5.88078 0.90254,0.33068 -7.65494,0.38112 -67.161787,0.39739 z m 203.200001,0 v -71.96666 h -41.82639 c -25.23496,0 -41.79123,0.0966 -41.73802,0.24288 0.0485,0.13338 1.27899,1.10306 2.7342,2.15491 5.68166,4.1068 9.2361,7.62383 12.21889,12.09073 2.97817,4.45997 4.58612,9.32964 5.17591,15.67398 l 0.33228,3.57187 24.77162,0.0677 24.77161,0.0677 2.64842,-4.03645 c 3.25908,-4.96653 5.06991,-8.17708 6.73189,-11.93674 2.06762,-4.67729 3.62577,-10.26489 3.99458,-14.32471 0.0529,-0.58207 0.1161,14.56862 0.14056,33.66823 z M 63.5,93.799999 c -27.244063,0.01019 -45.487883,0.07464 -45.587398,0.174148 -0.522128,0.522132 3.496683,11.300033 6.572726,17.627863 2.427849,4.99442 7.378888,12.87778 9.596314,15.27969 l 0.671792,0.7276 h 68.962196 c 37.92946,0 69.0271,-0.0644 69.10586,-0.14314 0.0788,-0.0788 -0.53227,-1.47775 -1.35806,-3.10885 -1.64533,-3.24991 -2.89474,-6.76639 -3.63905,-10.24176 -0.38425,-1.79417 -0.47892,-3.3993 -0.4687,-7.9375 0.0112,-4.9621 0.0918,-6.04331 0.63096,-8.466663 0.33997,-1.527969 0.63175,-3.016247 0.64854,-3.307292 0.0305,-0.527849 -0.15689,-0.52887 -75.230029,-0.595312 C 82.662302,93.799284 72.581354,93.796612 63.5,93.799999 Z m 51.65369,46.511371 c -40.777415,-0.002 -68.064058,0.0943 -68.064058,0.23875 0,0.63278 7.575645,6.56424 13.229167,10.35802 8.670264,5.81816 20.673002,12.11113 36.777083,19.28203 l 8.863538,3.94704 53.2474,0.0191 c 49.34506,0.018 53.24432,-0.0123 53.24739,-0.41754 -7.9e-4,-0.54753 -1.53097,-3.32039 -3.23132,-5.85391 -2.95106,-4.39708 -5.90581,-7.66244 -15.79025,-17.45269 l -10.21488,-10.11773 z"
         id="path9455"
         inkscape:connector-curvature="0" />
    </g>
  </g>
</svg>
