<?xml version="1.0" encoding="UTF-8" standalone="no"?>
<!-- Created with Inkscape (http://www.inkscape.org/) -->

<svg
   xmlns:dc="http://purl.org/dc/elements/1.1/"
   xmlns:cc="http://creativecommons.org/ns#"
   xmlns:rdf="http://www.w3.org/1999/02/22-rdf-syntax-ns#"
   xmlns:svg="http://www.w3.org/2000/svg"
   xmlns="http://www.w3.org/2000/svg"
   xmlns:sodipodi="http://sodipodi.sourceforge.net/DTD/sodipodi-0.dtd"
   xmlns:inkscape="http://www.inkscape.org/namespaces/inkscape"
   width="1in"
   height="1in"
   viewBox="0 0 25.4 25.400001"
   version="1.1"
   id="svg17593"
   inkscape:version="0.92.3 (2405546, 2018-03-11)"
   sodipodi:docname="wheat.svg">
  <defs
     id="defs17587" />
  <sodipodi:namedview
     id="base"
     pagecolor="#ffffff"
     bordercolor="#666666"
     borderopacity="1.0"
     inkscape:pageopacity="0.0"
     inkscape:pageshadow="2"
     inkscape:zoom="5.12"
     inkscape:cx="45.722406"
     inkscape:cy="42.868621"
     inkscape:document-units="in"
     inkscape:current-layer="layer1"
     showgrid="false"
     units="in"
     inkscape:snap-page="true"
     inkscape:snap-bbox="true"
     inkscape:bbox-nodes="true"
     inkscape:snap-bbox-edge-midpoints="true"
     inkscape:snap-bbox-midpoints="true"
     inkscape:window-width="1366"
     inkscape:window-height="705"
     inkscape:window-x="-8"
     inkscape:window-y="-8"
     inkscape:window-maximized="1">
    <inkscape:grid
       type="xygrid"
       id="grid19884" />
  </sodipodi:namedview>
  <metadata
     id="metadata17590">
    <rdf:RDF>
      <cc:Work
         rdf:about="">
        <dc:format>image/svg+xml</dc:format>
        <dc:type
           rdf:resource="http://purl.org/dc/dcmitype/StillImage" />
        <dc:title></dc:title>
      </cc:Work>
    </rdf:RDF>
  </metadata>
  <g
     inkscape:label="Layer 1"
     inkscape:groupmode="layer"
     id="layer1"
     transform="translate(0,-271.59999)">
    <g
       id="g9470"
       transform="matrix(0.125,0,0,0.125,8.7784691,261.72707)"
       style="fill:#000000;stroke-width:0.24999999">
      <path
         style="fill:#000000;stroke-width:0.24999997"
         d="m -265.42773,232 365.75,0.14648 c 201.1625,0.0809 360.65678,0.48861 354.43164,0.90625 -53.21337,3.5701 -96.25465,19.92068 -122.83985,46.66211 -25.35477,25.50378 -40.33534,64.56651 -44.40039,115.78516 -1.30282,16.41528 -0.59264,48.01045 1.125,50.08008 2.56903,3.09547 45.78696,2.44569 68.97461,-1.03711 47.39293,-7.11848 85.90347,-25.27517 104.97852,-49.49219 22.47537,-28.534 35.33765,-66.97226 38.87695,-116.1875 0.4495,-6.25014 0.88045,153.44924 0.95898,354.88672 L 502.57227,1000 V 616 239 c 0,3.85 -0.22485,7 -0.5,7 -0.27515,0 -0.5,-2.90613 -0.5,-6.45703 v -6.45508 l -7.25,-0.3457 -7.25,-0.34571 7.75,-0.19726 7.75,-0.19922 h -384 z m 0,0 v 384 384 l 0.13476,-21.75 c 0.0749,-11.96251 0.32453,-20.62499 0.55469,-19.25 3.44738,20.59415 18.94368,36.34716 39.31055,39.96484 2.94219,0.52264 -3.2025,0.84106 -17.75,0.91797 l -22.25,0.11719 h 384 384 l -358.25,-0.11719 c -197.037506,-0.0646 -356.22501,-0.47833 -353.75,-0.91797 6.44741,-1.14523 12.72904,-3.57906 17.95703,-6.95898 2.49848,-1.6153 29.51592,-27.92683 60.03906,-58.4707 C -100.9085,902.99128 -75.465465,878 -74.890625,878 c 0.574847,0 3.051896,2.07485 5.503906,4.61133 6.868282,7.10479 25.409313,22.04081 35.958985,28.96679 27.6695399,18.1654 60.324661,28.91688 81.96289,26.98633 38.172673,-3.40577 76.625804,-24.37355 115.787114,-63.14062 8.67273,-8.58543 12.25,-12.80613 12.25,-14.45117 0,-2.80506 -22.92265,-25.96514 -36,-36.37305 -34.05994,-27.10741 -67.515144,-41.04949 -98.000004,-40.83984 -6.325002,0.0435 -14.425,0.74105 -18,1.55078 -3.575001,0.80972 -6.889925,1.23788 -7.365235,0.95117 C 16.074701,785.57868 75.636005,726 77.451172,726 c 0.765392,0 5.042808,3.28396 9.505859,7.29688 20.518509,18.44908 34.024819,27.85884 54.115239,37.70507 15.63863,7.66443 25.50903,11.01712 39.42578,13.39063 11.81585,2.01517 20.13297,2.02786 31.44726,0.0488 22.38727,-3.91593 45.706,-14.2685 68.62696,-30.4668 18.29865,-12.93173 49,-41.71994 49,-45.94727 0,-2.37437 -23.34282,-25.71657 -35.60352,-35.60351 -26.45337,-21.33177 -54.85907,-35.52862 -79.7832,-39.875 -11.18799,-1.95103 -25.18384,-1.98082 -35.15821,-0.0723 -4.24623,0.81245 -8.16316,1.20479 -8.70312,0.8711 -1.2673,-0.78318 58.23351,-60.3476 60.2832,-60.3476 0.85142,0 3.55385,2.07094 6.00586,4.60156 2.45202,2.53062 9.01715,8.37253 14.58984,12.98242 27.52457,22.7692 57.48016,37.45492 84.51954,41.43555 32.99743,4.85771 71.56567,-9.14766 109.84961,-39.88867 13.06586,-10.49155 36.99597,-34.19306 37.01562,-36.66211 0.0227,-2.67666 -28.91718,-30.94233 -41.12891,-40.17383 -12.69543,-9.59713 -25.15156,-17.3659 -37.75976,-23.54883 -10.31993,-5.06082 -10.39991,-5.08089 -16,-4.03906 -36.16544,6.72809 -50.22257,8.2918 -74.56445,8.29297 -18.16032,9.1e-4 -65.64917,-2.72765 -66.69727,-3.83203 -0.6817,-0.7183 -5.38599,-31.90143 -7.04102,-46.66797 -0.56998,-5.08566 -0.78749,-20.30811 -0.5,-35 0.52596,-26.87815 2.33853,-43.70808 6.7129,-62.3125 l 1.95507,-8.3125 -5.60156,-11.1875 c -7.26074,-14.50201 -14.40073,-25.43965 -26,-39.83008 C 204.95608,275.20202 182.3117,253 179.39062,253 c -2.7006,0 -23.79313,20.71482 -35.1289,34.5 -26.82903,32.62616 -42.68945,68.85239 -42.68945,97.5 0,32.62953 21.24759,76.66547 53.48046,110.83398 3.58498,3.80028 6.51954,7.53335 6.51954,8.29493 0,1.85147 -59.58732,61.35001 -60.29493,60.20507 -0.30436,-0.49243 0.16497,-4.03234 1.04297,-7.86523 2.11507,-9.23339 2.01211,-28.41072 -0.20898,-38.96875 C 94.686669,482.20662 70.837713,444.02064 37.707031,414.37891 32.438461,409.66516 27.448018,406 26.298828,406 c -2.70571,0 -23.3509931,20.32318 -34.783203,34.24023 -27.69024,33.7087 -42.25,67.39576 -42.25,97.75977 0,33.90251 17.839114,71.33026 52.4902344,110.13281 3.7487401,4.19785 6.8164062,8.25022 6.8164062,9.00586 0,1.74323 -58.6990936,60.49622 -59.5703126,59.625 -0.355502,-0.35527 0.07662,-4.89015 0.960938,-10.07812 1.87045,-10.97322 1.997439,-17.12978 0.585937,-28.38672 -4.086837,-32.59321 -22.598351,-66.99362 -53.212888,-98.88281 C -113.98863,567.61996 -124.6975,558 -126.50391,558 c -1.72545,0 -25.77542,24.08043 -34.22461,34.26758 -27.0684,32.63629 -42.75088,68.36613 -42.89648,97.73242 -0.17114,34.51521 19.93471,75.98999 54.86523,113.17578 2.93234,3.1217 5.33204,6.04863 5.33204,6.50391 0,0.4552 -24.34879,25.12612 -54.10743,54.82422 -29.75863,29.69809 -56.04669,56.58237 -58.41796,59.74414 -3.89535,5.19386 -7.67766,14.12844 -8.78516,20.75195 -0.22991,1.37503 -0.47979,-158.48749 -0.55469,-355.25 z"
         transform="matrix(0.26458333,0,0,0.26458333,0,17.6)"
         id="path9474"
         inkscape:connector-curvature="0" />
    </g>
  </g>
</svg>
