<?xml version="1.0" encoding="UTF-8" standalone="no"?>
<!-- Created with Inkscape (http://www.inkscape.org/) -->

<svg
   xmlns:dc="http://purl.org/dc/elements/1.1/"
   xmlns:cc="http://creativecommons.org/ns#"
   xmlns:rdf="http://www.w3.org/1999/02/22-rdf-syntax-ns#"
   xmlns:svg="http://www.w3.org/2000/svg"
   xmlns="http://www.w3.org/2000/svg"
   xmlns:sodipodi="http://sodipodi.sourceforge.net/DTD/sodipodi-0.dtd"
   xmlns:inkscape="http://www.inkscape.org/namespaces/inkscape"
   width="1in"
   height="1in"
   viewBox="0 0 25.4 25.400001"
   version="1.1"
   id="svg17593"
   inkscape:version="0.92.3 (2405546, 2018-03-11)"
   sodipodi:docname="arrow-fwd.svg">
  <defs
     id="defs17587" />
  <sodipodi:namedview
     id="base"
     pagecolor="#ffffff"
     bordercolor="#666666"
     borderopacity="1.0"
     inkscape:pageopacity="0.0"
     inkscape:pageshadow="2"
     inkscape:zoom="3.6203867"
     inkscape:cx="3.5832135"
     inkscape:cy="60.583733"
     inkscape:document-units="in"
     inkscape:current-layer="layer1"
     showgrid="true"
     units="in"
     inkscape:snap-page="true"
     inkscape:snap-bbox="true"
     inkscape:bbox-nodes="true"
     inkscape:snap-bbox-edge-midpoints="true"
     inkscape:snap-bbox-midpoints="true"
     inkscape:window-width="1366"
     inkscape:window-height="705"
     inkscape:window-x="-8"
     inkscape:window-y="-8"
     inkscape:window-maximized="1">
    <inkscape:grid
       type="xygrid"
       id="grid19884"
       units="in"
       spacingx="12.7"
       spacingy="12.7" />
  </sodipodi:namedview>
  <metadata
     id="metadata17590">
    <rdf:RDF>
      <cc:Work
         rdf:about="">
        <dc:format>image/svg+xml</dc:format>
        <dc:type
           rdf:resource="http://purl.org/dc/dcmitype/StillImage" />
        <dc:title></dc:title>
      </cc:Work>
    </rdf:RDF>
  </metadata>
  <g
     inkscape:label="Layer 1"
     inkscape:groupmode="layer"
     id="layer1"
     transform="translate(0,-271.59999)">
    <g
       id="g38839"
       transform="matrix(0.06130261,0,0,0.06130261,-1.5144519e-5,271.59996)"
       style="fill:#000000;stroke-width:4.31602001">
      <g
         id="g38783"
         style="fill:#000000;stroke-width:4.31602001">
        <path
           id="path38781"
           d="M 408.265,162.615 230.506,58.601 c -3.795,-2.222 -8.485,-2.241 -12.304,-0.057 -3.815,2.187 -6.17,6.246 -6.174,10.644 l -0.036,46.966 c -0.213,0.052 -0.38,0.094 -0.495,0.126 -4.442,1.239 -9.163,2.603 -14.854,4.294 -18.457,5.483 -37.417,12.593 -59.668,22.374 -19.309,8.487 -38.201,19.442 -56.15,32.559 -12.826,9.373 -24.894,20.182 -35.867,32.126 -29.858,32.496 -46.217,75.647 -44.882,118.39 0.234,7.488 1.076,14.674 1.869,20.716 0.788,6.007 5.84,10.541 11.898,10.677 0.093,0.002 0.186,0.003 0.277,0.003 5.94,0 11.048,-4.263 12.086,-10.139 3.304,-18.678 8.574,-34.022 16.111,-46.91 9.42,-16.104 22.223,-29.625 37.021,-39.102 12.718,-8.146 26.153,-14.396 41.075,-19.113 17.405,-5.503 36.597,-8.952 58.671,-10.545 8.907,-0.644 18.502,-0.967 30.2,-1.021 0.354,0 1.112,0.007 2.098,0.02 l 0.032,44.29 c 0.003,4.372 2.332,8.413 6.113,10.607 3.782,2.196 8.446,2.214 12.245,0.049 l 178.37,-101.678 c 3.811,-2.172 6.172,-6.21 6.196,-10.597 0.028,-4.384 -2.288,-8.449 -6.073,-10.665 z"
           inkscape:connector-curvature="0"
           style="fill:#000000;stroke-width:4.31602001" />
      </g>
      <g
         id="g38785"
         style="fill:#000000;stroke-width:4.31602001" />
      <g
         id="g38787"
         style="fill:#000000;stroke-width:4.31602001" />
      <g
         id="g38789"
         style="fill:#000000;stroke-width:4.31602001" />
      <g
         id="g38791"
         style="fill:#000000;stroke-width:4.31602001" />
      <g
         id="g38793"
         style="fill:#000000;stroke-width:4.31602001" />
      <g
         id="g38795"
         style="fill:#000000;stroke-width:4.31602001" />
      <g
         id="g38797"
         style="fill:#000000;stroke-width:4.31602001" />
      <g
         id="g38799"
         style="fill:#000000;stroke-width:4.31602001" />
      <g
         id="g38801"
         style="fill:#000000;stroke-width:4.31602001" />
      <g
         id="g38803"
         style="fill:#000000;stroke-width:4.31602001" />
      <g
         id="g38805"
         style="fill:#000000;stroke-width:4.31602001" />
      <g
         id="g38807"
         style="fill:#000000;stroke-width:4.31602001" />
      <g
         id="g38809"
         style="fill:#000000;stroke-width:4.31602001" />
      <g
         id="g38811"
         style="fill:#000000;stroke-width:4.31602001" />
      <g
         id="g38813"
         style="fill:#000000;stroke-width:4.31602001" />
    </g>
  </g>
</svg>
