<?xml version="1.0" encoding="UTF-8" standalone="no"?>
<!-- Created with Inkscape (http://www.inkscape.org/) -->

<svg
   xmlns:dc="http://purl.org/dc/elements/1.1/"
   xmlns:cc="http://creativecommons.org/ns#"
   xmlns:rdf="http://www.w3.org/1999/02/22-rdf-syntax-ns#"
   xmlns:svg="http://www.w3.org/2000/svg"
   xmlns="http://www.w3.org/2000/svg"
   xmlns:sodipodi="http://sodipodi.sourceforge.net/DTD/sodipodi-0.dtd"
   xmlns:inkscape="http://www.inkscape.org/namespaces/inkscape"
   width="1in"
   height="1in"
   viewBox="0 0 25.4 25.400001"
   version="1.1"
   id="svg17593"
   inkscape:version="0.92.3 (2405546, 2018-03-11)"
   sodipodi:docname="fire.svg">
  <defs
     id="defs17587" />
  <sodipodi:namedview
     id="base"
     pagecolor="#ffffff"
     bordercolor="#666666"
     borderopacity="1.0"
     inkscape:pageopacity="0.0"
     inkscape:pageshadow="2"
     inkscape:zoom="3.6203867"
     inkscape:cx="28.263843"
     inkscape:cy="48.083529"
     inkscape:document-units="in"
     inkscape:current-layer="layer1"
     showgrid="false"
     units="in"
     inkscape:snap-page="true"
     inkscape:snap-bbox="true"
     inkscape:bbox-nodes="true"
     inkscape:snap-bbox-edge-midpoints="true"
     inkscape:snap-bbox-midpoints="true"
     inkscape:window-width="1366"
     inkscape:window-height="705"
     inkscape:window-x="-8"
     inkscape:window-y="-8"
     inkscape:window-maximized="1">
    <inkscape:grid
       type="xygrid"
       id="grid19884" />
  </sodipodi:namedview>
  <metadata
     id="metadata17590">
    <rdf:RDF>
      <cc:Work
         rdf:about="">
        <dc:format>image/svg+xml</dc:format>
        <dc:type
           rdf:resource="http://purl.org/dc/dcmitype/StillImage" />
        <dc:title></dc:title>
      </cc:Work>
    </rdf:RDF>
  </metadata>
  <g
     inkscape:label="Layer 1"
     inkscape:groupmode="layer"
     id="layer1"
     transform="translate(0,-271.59999)">
    <g
       id="g10308"
       transform="matrix(3.9999787,0,0,3.9999787,-112.18267,-249.64823)"
       style="fill:#000000;stroke-width:0.25000134">
      <path
         style="fill:#000000;stroke-width:0.00206707"
         d="m 28.045851,130.31282 1.568896,8.4e-4 c 0.932747,4.9e-4 1.556272,0.004 1.537762,0.008 -0.09082,0.0214 -0.144955,0.0703 -0.241927,0.21838 -0.537546,0.82103 -0.624904,1.42737 -0.279537,1.94025 0.08247,0.12248 0.177325,0.2291 0.404497,0.45471 0.316489,0.31431 0.407857,0.42414 0.490716,0.58987 0.0516,0.10321 0.07265,0.1792 0.0847,0.30592 0.01123,0.11805 -0.0012,0.21306 -0.04291,0.32836 -0.08642,0.23882 -0.303153,0.43366 -0.552179,0.49641 -0.100086,0.0252 -0.289679,0.025 -0.383908,-5.4e-4 -0.284932,-0.0771 -0.499076,-0.2922 -0.577742,-0.58031 -0.01908,-0.0699 -0.01921,-0.0739 -0.02366,-0.69867 l -0.0045,-0.62839 -0.01888,-0.0467 c -0.06256,-0.15471 -0.253501,-0.22755 -0.405595,-0.15472 -0.114613,0.0549 -0.351482,0.36709 -0.497822,0.65616 -0.127253,0.25137 -0.198625,0.47646 -0.24514,0.77308 -0.02044,0.13035 -0.02019,0.45563 4.69e-4,0.60266 0.06119,0.43551 0.20889,0.79672 0.466896,1.14194 0.09489,0.12696 0.330938,0.36302 0.457224,0.45724 0.127999,0.0955 0.262449,0.17863 0.383406,0.23708 0.310322,0.14995 0.59063,0.22281 0.93431,0.24286 0.02274,0.001 -0.65536,0.003 -1.506884,0.004 l -1.548226,0.001 h 3.175 3.174999 l -1.548225,-0.001 c -0.851525,-8.4e-4 -1.527762,-0.003 -1.502751,-0.004 0.854352,-0.0458 1.619187,-0.54781 2.004012,-1.31532 0.117058,-0.23347 0.195968,-0.491 0.233723,-0.76278 0.01882,-0.13545 0.01867,-0.41854 -2.9e-4,-0.59389 -0.03472,-0.32113 -0.114752,-0.60147 -0.248241,-0.86959 -0.186067,-0.37371 -0.425625,-0.65866 -1.009419,-1.2007 -0.414232,-0.3846 -0.586548,-0.58937 -0.700457,-0.83231 -0.06651,-0.14184 -0.09215,-0.24634 -0.104903,-0.42754 -0.0042,-0.0595 -0.01203,-0.123 -0.01743,-0.14102 -0.0258,-0.0861 -0.114423,-0.16661 -0.208547,-0.18941 -0.03579,-0.009 0.236192,-0.0107 1.529493,-0.0112 l 1.57307,-7.4e-4 h -3.175 z"
         id="path10312"
         inkscape:connector-curvature="0" />
    </g>
  </g>
</svg>
