<?xml version="1.0" encoding="UTF-8" standalone="no"?>
<!-- Created with Inkscape (http://www.inkscape.org/) -->

<svg
   xmlns:dc="http://purl.org/dc/elements/1.1/"
   xmlns:cc="http://creativecommons.org/ns#"
   xmlns:rdf="http://www.w3.org/1999/02/22-rdf-syntax-ns#"
   xmlns:svg="http://www.w3.org/2000/svg"
   xmlns="http://www.w3.org/2000/svg"
   xmlns:sodipodi="http://sodipodi.sourceforge.net/DTD/sodipodi-0.dtd"
   xmlns:inkscape="http://www.inkscape.org/namespaces/inkscape"
   width="1in"
   height="1in"
   viewBox="0 0 25.4 25.400001"
   version="1.1"
   id="svg17593"
   inkscape:version="0.92.3 (2405546, 2018-03-11)"
   sodipodi:docname="fist.svg">
  <defs
     id="defs17587" />
  <sodipodi:namedview
     id="base"
     pagecolor="#ffffff"
     bordercolor="#666666"
     borderopacity="1.0"
     inkscape:pageopacity="0.0"
     inkscape:pageshadow="2"
     inkscape:zoom="5.12"
     inkscape:cx="45.722406"
     inkscape:cy="42.868621"
     inkscape:document-units="in"
     inkscape:current-layer="layer1"
     showgrid="false"
     units="in"
     inkscape:snap-page="true"
     inkscape:snap-bbox="true"
     inkscape:bbox-nodes="true"
     inkscape:snap-bbox-edge-midpoints="true"
     inkscape:snap-bbox-midpoints="true"
     inkscape:window-width="1366"
     inkscape:window-height="705"
     inkscape:window-x="-8"
     inkscape:window-y="-8"
     inkscape:window-maximized="1">
    <inkscape:grid
       type="xygrid"
       id="grid19884" />
  </sodipodi:namedview>
  <metadata
     id="metadata17590">
    <rdf:RDF>
      <cc:Work
         rdf:about="">
        <dc:format>image/svg+xml</dc:format>
        <dc:type
           rdf:resource="http://purl.org/dc/dcmitype/StillImage" />
        <dc:title></dc:title>
      </cc:Work>
    </rdf:RDF>
  </metadata>
  <g
     inkscape:label="Layer 1"
     inkscape:groupmode="layer"
     id="layer1"
     transform="translate(0,-271.59999)">
    <g
       id="g38647"
       transform="matrix(1.711819,0,0,1.6743449,-0.28413238,271.60018)"
       style="fill:#000000;stroke-width:0.15628277">
      <g
         id="g38586"
         style="fill:#000000;stroke-width:0.15628277">
        <g
           id="g38584"
           style="fill:#000000;stroke-width:0.15628277">
          <path
             id="path38574"
             d="M 5.933,4.472 V 0.804 C 5.933,0.552 5.898,0.275 5.795,0.126 3.301,-0.572 3.014,1.855 3.014,1.855 2.934,2.16 2.894,2.727 2.874,3.312 3.004,3.281 3.133,3.262 3.257,3.262 v 0 c 0.362,0 0.68,0.143 0.896,0.403 0.271,0.327 0.364,0.796 0.289,1.457 H 5.09 c 0.404,0 0.744,-0.277 0.843,-0.65 z"
             style="fill:#000000;stroke-width:0.15628277"
             inkscape:connector-curvature="0" />
          <path
             id="path38576"
             d="m 13.577,9.726 h -0.408 c -0.814,0 -1.478,-0.532 -1.478,-1.187 V 7.889 C 11.428,8.081 11.081,8.2 10.698,8.2 H 10.29 C 9.475,8.2 8.811,7.669 8.811,7.014 V 6.742 C 8.548,6.934 8.201,7.052 7.818,7.052 H 7.41 C 6.606,7.052 5.951,6.533 5.934,5.89 5.706,6.083 5.412,6.201 5.091,6.201 H 4.375 C 4.28,6.618 4.384,7.744 3.864,8.166 3.569,8.44 3.188,7.96 3.188,7.96 4.02,7.053 3.966,5.602 3.966,5.602 4.175,4.477 3.43,3.869 3.002,3.869 c -0.122,0 -0.257,0.03 -0.396,0.078 0,0 -0.822,0.424 -1.15,0.72 C 1.148,4.88 0.559,5.581 0.498,5.653 L 0.483,5.632 c -0.811,1.32 0.19,2.678 0.19,2.678 1.292,2.26 3.718,5.246 3.718,5.246 1.13,0.969 0.484,1.533 0.484,1.533 l 8.471,0.081 0.43,-1.452 c 0.797,-1.522 1.116,-3.336 1.228,-4.873 -0.169,0.507 -0.743,0.881 -1.427,0.881 z"
             style="fill:#000000;stroke-width:0.15628277"
             inkscape:connector-curvature="0" />
          <path
             id="path38578"
             d="m 13.169,8.599 h 0.408 c 0.538,0 0.994,-0.321 0.994,-0.702 V 3.478 c 0,-0.38 -0.456,-0.702 -0.994,-0.702 h -0.408 c -0.538,0 -0.993,0.321 -0.993,0.702 v 2.893 1.526 c 0,0.38 0.455,0.702 0.993,0.702 z"
             style="fill:#000000;stroke-width:0.15628277"
             inkscape:connector-curvature="0" />
          <path
             id="path38580"
             d="m 7.41,5.924 h 0.408 c 0.539,0 0.993,-0.321 0.993,-0.702 V 1.952 0.804 C 8.811,0.424 8.357,0.102 7.818,0.102 H 7.41 c -0.538,0 -0.994,0.322 -0.994,0.702 v 4.419 c 10e-4,0.38 0.456,0.701 0.994,0.701 z"
             style="fill:#000000;stroke-width:0.15628277"
             inkscape:connector-curvature="0" />
          <path
             id="path38582"
             d="m 10.29,7.072 h 0.408 c 0.538,0 0.993,-0.321 0.993,-0.702 V 3.478 1.952 c 0,-0.38 -0.455,-0.702 -0.993,-0.702 H 10.29 c -0.539,0 -0.994,0.321 -0.994,0.702 v 3.271 1.148 c 0,0.38 0.455,0.701 0.994,0.701 z"
             style="fill:#000000;stroke-width:0.15628277"
             inkscape:connector-curvature="0" />
        </g>
      </g>
      <g
         id="g38588"
         style="fill:#000000;stroke-width:0.15628277" />
      <g
         id="g38590"
         style="fill:#000000;stroke-width:0.15628277" />
      <g
         id="g38592"
         style="fill:#000000;stroke-width:0.15628277" />
      <g
         id="g38594"
         style="fill:#000000;stroke-width:0.15628277" />
      <g
         id="g38596"
         style="fill:#000000;stroke-width:0.15628277" />
      <g
         id="g38598"
         style="fill:#000000;stroke-width:0.15628277" />
      <g
         id="g38600"
         style="fill:#000000;stroke-width:0.15628277" />
      <g
         id="g38602"
         style="fill:#000000;stroke-width:0.15628277" />
      <g
         id="g38604"
         style="fill:#000000;stroke-width:0.15628277" />
      <g
         id="g38606"
         style="fill:#000000;stroke-width:0.15628277" />
      <g
         id="g38608"
         style="fill:#000000;stroke-width:0.15628277" />
      <g
         id="g38610"
         style="fill:#000000;stroke-width:0.15628277" />
      <g
         id="g38612"
         style="fill:#000000;stroke-width:0.15628277" />
      <g
         id="g38614"
         style="fill:#000000;stroke-width:0.15628277" />
      <g
         id="g38616"
         style="fill:#000000;stroke-width:0.15628277" />
    </g>
  </g>
</svg>
