<?xml version="1.0" encoding="UTF-8" standalone="no"?>
<!-- Created with Inkscape (http://www.inkscape.org/) -->

<svg
   xmlns:dc="http://purl.org/dc/elements/1.1/"
   xmlns:cc="http://creativecommons.org/ns#"
   xmlns:rdf="http://www.w3.org/1999/02/22-rdf-syntax-ns#"
   xmlns:svg="http://www.w3.org/2000/svg"
   xmlns="http://www.w3.org/2000/svg"
   xmlns:sodipodi="http://sodipodi.sourceforge.net/DTD/sodipodi-0.dtd"
   xmlns:inkscape="http://www.inkscape.org/namespaces/inkscape"
   width="1in"
   height="1in"
   viewBox="0 0 25.4 25.400001"
   version="1.1"
   id="svg17593"
   inkscape:version="0.92.3 (2405546, 2018-03-11)"
   sodipodi:docname="gas.svg">
  <defs
     id="defs17587" />
  <sodipodi:namedview
     id="base"
     pagecolor="#ffffff"
     bordercolor="#666666"
     borderopacity="1.0"
     inkscape:pageopacity="0.0"
     inkscape:pageshadow="2"
     inkscape:zoom="2.8"
     inkscape:cx="50.94331"
     inkscape:cy="77.840471"
     inkscape:document-units="in"
     inkscape:current-layer="layer1"
     showgrid="false"
     units="in"
     inkscape:snap-page="true"
     inkscape:snap-bbox="true"
     inkscape:bbox-nodes="true"
     inkscape:snap-bbox-edge-midpoints="true"
     inkscape:snap-bbox-midpoints="true"
     inkscape:window-width="1366"
     inkscape:window-height="705"
     inkscape:window-x="-8"
     inkscape:window-y="-8"
     inkscape:window-maximized="1" />
  <metadata
     id="metadata17590">
    <rdf:RDF>
      <cc:Work
         rdf:about="">
        <dc:format>image/svg+xml</dc:format>
        <dc:type
           rdf:resource="http://purl.org/dc/dcmitype/StillImage" />
        <dc:title></dc:title>
      </cc:Work>
    </rdf:RDF>
  </metadata>
  <g
     inkscape:label="Layer 1"
     inkscape:groupmode="layer"
     id="layer1"
     transform="translate(0,-271.59999)">
    <g
       id="g11097"
       transform="matrix(0.12499999,0,0,0.12499999,-8.6147188,269.29154)"
       style="fill:#000000">
      <path
         style="fill:#000000;stroke-width:0.99999994"
         d="m 260.47656,3.2792969 70.25,0.1738281 c 38.6375,0.096076 68.22503,0.3155124 65.75,0.4863281 -10.53581,0.7271282 -24.49009,4.6172656 -34.5,9.6171879 -24.90531,12.440137 -42.62119,34.116496 -50.28906,61.53125 l -2.71094,9.691406 v 271.000003 271 h 215.5 215.5 l 0.5,-83.5 0.5,-83.5 9.1875,-0.28711 c 19.31649,-0.60284 36.79097,7.15817 48.6543,21.60742 4.73707,5.76967 11.07214,18.8803 12.55273,25.97851 0.64286,3.08195 1.10547,16.17368 1.10547,31.28907 0,42.65129 2.33383,55.2419 14.66016,79.11328 10.38981,20.12099 28.04086,37.43374 48.38281,47.45508 22.40757,11.03898 49.17955,13.14793 74.31836,5.85351 41.49781,-12.04127 72.03941,-47.55255 77.50001,-90.10742 0.5603,-4.36687 0.9336,29.37864 1.0137,91.84766 l 0.125,98.75 v -384 V 3.2792969 l -0.125,111.7500031 c -0.075,66.10037 -0.4739,109.07635 -0.9746,105.20508 -1.8827,-14.55687 -7.6175,-29.61542 -16.17,-42.45508 -2.4385,-3.66096 -29.38187,-31.4791 -69.11325,-71.35742 -69.69729,-69.955035 -69.88313,-70.117887 -79.61719,-70.126958 -9.44844,-0.0087 -11.5918,1.27642 -25.57031,15.335937 -13.79807,13.877998 -15.43634,16.559753 -15.42383,25.263672 0.0151,9.66305 0.19456,9.899874 32.53711,42.384769 l 30.36719,30.5 0.33789,53 c 0.32542,51.10032 0.41656,53.28487 2.55078,60.93359 1.21746,4.36318 3.67275,11.10658 5.45703,14.98633 4.0419,8.78886 14.32004,22.72056 19.85742,26.91601 2.29694,1.7403 5.57332,4.20798 7.28125,5.48438 5.81825,4.34821 18.70731,10.25841 27.41602,12.57031 l 8.68945,2.30664 V 451.37695 576.7793 l -2.81836,5.73828 c -3.55245,7.23435 -10.11853,13.84998 -17.17578,17.30273 -6.71558,3.28566 -19.4646,4.28867 -26.25195,2.06446 v -0.002 c -6.94262,-2.27516 -14.06624,-7.49635 -18.30664,-13.41797 -6.48439,-9.05537 -6.94727,-11.89886 -6.94727,-42.69336 0,-31.82551 -1.09891,-44.78012 -5.13476,-60.49218 -4.51839,-17.59053 -14.66219,-37.07522 -27.22852,-52.30078 -13.16307,-15.9487 -35.91778,-31.17277 -57.63672,-38.5625 -12.0068,-4.08526 -23.33352,-6.06598 -39.5,-6.90821 l -14,-0.72851 -0.5,-150 -0.5,-150.000003 -2.375,-9.5 c -1.30688,-5.225 -3.2194,-11.170348 -4.25,-13.210938 -1.0306,-2.040589 -1.875,-4.34303 -1.875,-5.117187 0,-1.843695 -9.85315,-16.613098 -15.46484,-23.181641 C 701.04449,18.250189 675.80135,5.6076187 652.47656,3.9492188 650.00154,3.7732439 733.58906,3.5492119 838.22656,3.453125 L 1028.4766,3.2792969 H 644.47656 Z m 0,0 V 387.2793 v 384 l 0.0859,-10.25 c 0.0533,-6.35554 0.37687,-9.29829 0.84961,-7.74414 2.72711,8.96526 9.48322,15.34858 18.06445,17.06445 2.25184,0.45029 -0.51195,0.74045 -7.75,0.81445 l -11.25,0.11524 h 384 384.00008 l -131.25008,-0.11524 c -72.1875,-0.0631 -129.67502,-0.42951 -127.75,-0.81445 7.81565,-1.5628 14.09405,-7.02936 17.00391,-14.80664 1.81066,-4.83942 1.99609,-7.79727 1.99609,-31.61914 0,-29.352 -0.71041,-33.96957 -6.19726,-40.21875 -1.71183,-1.94967 -4.95497,-4.52927 -7.20703,-5.73438 l -4.09571,-2.1914 h -246.5 c -238.59429,0 -246.61225,0.0589 -250,1.86328 -6.57443,3.50165 -10.97823,8.77249 -13.06445,15.63086 -0.41934,1.37858 -0.80234,-153.30664 -0.84961,-343.74414 z m 144.5,96.5000001 h 119.5 119.5 v 95.500003 95.5 l -119.27929,0.2539 c -94.89653,0.20213 -119.37748,-0.002 -119.75782,-1 -0.26305,-0.68974 -0.36243,-43.77891 -0.2207,-95.7539 z"
         transform="matrix(0.26458333,0,0,0.26458333,0,17.6)"
         id="path11101"
         inkscape:connector-curvature="0" />
    </g>
  </g>
</svg>
