<?xml version="1.0" encoding="UTF-8" standalone="no"?>
<!-- Created with Inkscape (http://www.inkscape.org/) -->

<svg
   xmlns:dc="http://purl.org/dc/elements/1.1/"
   xmlns:cc="http://creativecommons.org/ns#"
   xmlns:rdf="http://www.w3.org/1999/02/22-rdf-syntax-ns#"
   xmlns:svg="http://www.w3.org/2000/svg"
   xmlns="http://www.w3.org/2000/svg"
   xmlns:sodipodi="http://sodipodi.sourceforge.net/DTD/sodipodi-0.dtd"
   xmlns:inkscape="http://www.inkscape.org/namespaces/inkscape"
   width="1in"
   height="1in"
   viewBox="0 0 25.4 25.400001"
   version="1.1"
   id="svg17593"
   inkscape:version="0.92.3 (2405546, 2018-03-11)"
   sodipodi:docname="handshake.svg">
  <defs
     id="defs17587" />
  <sodipodi:namedview
     id="base"
     pagecolor="#ffffff"
     bordercolor="#666666"
     borderopacity="1.0"
     inkscape:pageopacity="0.0"
     inkscape:pageshadow="2"
     inkscape:zoom="3.6203867"
     inkscape:cx="3.5832135"
     inkscape:cy="60.583733"
     inkscape:document-units="in"
     inkscape:current-layer="layer1"
     showgrid="true"
     units="in"
     inkscape:snap-page="true"
     inkscape:snap-bbox="true"
     inkscape:bbox-nodes="true"
     inkscape:snap-bbox-edge-midpoints="true"
     inkscape:snap-bbox-midpoints="true"
     inkscape:window-width="1366"
     inkscape:window-height="705"
     inkscape:window-x="-8"
     inkscape:window-y="-8"
     inkscape:window-maximized="1"
     inkscape:snap-nodes="false">
    <inkscape:grid
       type="xygrid"
       id="grid19884"
       units="in"
       spacingx="12.7"
       spacingy="12.7" />
  </sodipodi:namedview>
  <metadata
     id="metadata17590">
    <rdf:RDF>
      <cc:Work
         rdf:about="">
        <dc:format>image/svg+xml</dc:format>
        <dc:type
           rdf:resource="http://purl.org/dc/dcmitype/StillImage" />
        <dc:title></dc:title>
      </cc:Work>
    </rdf:RDF>
  </metadata>
  <g
     inkscape:label="Layer 1"
     inkscape:groupmode="layer"
     id="layer1"
     transform="translate(0,-271.59999)">
    <g
       transform="translate(-2.0715089e-6,-0.51025432)"
       id="layer1-60"
       inkscape:label="Layer 1"
       style="fill:#000000;stroke-width:0.99999994">
      <path
         style="fill:#000000;stroke-width:1.00000036"
         d="m 13.666412,276.51181 -0.740064,0.53876 c -1.73907,1.26588 -1.970112,1.45821 -2.133898,1.77595 -0.05812,0.11263 -0.208034,0.70439 -0.333095,1.31542 -0.19601,0.95512 -0.228477,1.21217 -0.232486,1.83295 -0.004,0.83783 0.03608,0.93271 0.490869,1.16756 0.228477,0.11744 0.333496,0.13548 0.76171,0.13067 0.584456,-0.008 0.762307,-0.0653 0.878549,-0.29021 0.09259,-0.17877 0.382399,-1.3127 0.580095,-2.26789 l 0.122656,-0.59276 0.581334,-0.40552 c 0.319867,-0.22287 0.633321,-0.40637 0.696974,-0.40745 0.132677,-0.002 0.327083,0.10261 2.350747,1.26796 2.434601,1.40213 4.69051,2.72565 5.011861,2.94046 0.186389,0.12466 0.365162,0.30504 0.467696,0.47155 0.142698,0.23248 0.165545,0.32107 0.162739,0.63921 -0.0025,0.31225 -0.03607,0.43326 -0.20643,0.78139 -0.224068,0.45359 -0.607067,0.88817 -0.860276,0.97644 -0.159934,0.0557 -0.16314,0.0649 -0.16314,0.43523 0,0.31064 0.01603,0.37839 0.08778,0.37839 0.0485,0 0.825403,-0.19722 1.726924,-0.43832 0.901482,-0.2409 1.805128,-0.49383 2.007991,-0.56177 0.366766,-0.12266 0.369171,-0.12506 0.418273,-0.37037 0.02806,-0.13549 0.05211,-1.08515 0.05532,-2.11009 0.008,-2.07838 -0.0031,-2.15987 -0.403362,-3.34213 -0.374782,-1.10703 -0.951707,-2.33067 -1.098894,-2.33067 -0.08618,0 -2.223801,0.53299 -3.859816,0.96241 -0.617489,0.16194 -0.727438,0.17717 -0.849533,0.11544 -0.07696,-0.0401 -1.030912,-0.60314 -2.119424,-1.25402 -1.088516,-0.65083 -2.055294,-1.22283 -2.148488,-1.27101 -0.121855,-0.0629 -0.321872,-0.0878 -0.711124,-0.0878 z m -2.659996,0.34592 c -0.05892,5.2e-4 -0.10582,0.02 -0.174364,0.0509 -0.0942,0.0449 -0.763032,0.46268 -1.4865025,0.92837 -1.606874,1.03424 -1.885816,1.20287 -2.345616,1.41804 l -0.360352,0.16876 -1.058529,-0.27578 c -0.582176,-0.15152 -1.7122142,-0.46445 -2.5110415,-0.69497 -1.7629597,-0.5087 -1.6650353,-0.48638 -1.7381479,-0.39723 -0.1258627,0.15312 -0.51451388,1.17742 -0.72338988,1.90546 -0.2777798,0.96794 -0.4764344,1.99011 -0.5493466,2.8263 -0.084176,0.96345 -0.076961,3.12263 0.012025,3.19511 0.1242594,0.10301 4.39990388,1.32668 4.63575588,1.32668 0.05411,0 0.183182,-0.11343 0.286999,-0.25212 0.103416,-0.13869 0.294615,-0.31466 0.424646,-0.39082 0.198815,-0.11664 0.280185,-0.13388 0.511267,-0.10622 0.332294,0.0401 0.743953,0.22166 1.199584,0.53099 l 0.339509,0.23048 0.309045,-0.29702 c 0.408452,-0.39242 0.463527,-0.43074 0.693527,-0.48261 0.230081,-0.0521 0.78075,0.0501 1.14956,0.21325 0.184385,0.0814 0.293011,0.18158 0.4205585,0.38681 0.0946,0.15231 0.202823,0.27697 0.240101,0.27697 0.03608,0 0.232886,-0.0774 0.434587,-0.17155 0.32588,-0.15232 0.406007,-0.16836 0.718981,-0.1435 0.662582,0.0533 1.240429,0.45414 1.556208,1.07969 0.127867,0.25373 0.200819,0.3371 0.316661,0.36276 0.716816,0.15793 1.155291,0.41182 1.500572,0.86861 0.363959,0.48157 0.401077,0.91006 0.120651,1.39275 -0.17757,0.30584 -0.141896,0.4618 0.131876,0.57816 0.236493,0.10061 0.474911,0.0766 0.671842,-0.0673 0.36877,-0.26976 0.762511,-1.00758 0.690481,-1.29462 -0.05211,-0.20803 -0.288201,-0.44914 -0.624784,-0.63805 -0.377588,-0.21204 -0.504128,-0.31586 -0.504128,-0.41338 0,-0.10502 0.25894,-0.0906 0.521284,0.0281 0.121053,0.0549 0.544577,0.287 0.941405,0.516 0.396828,0.22888 0.819911,0.44569 0.940242,0.48173 0.196009,0.0585 0.2393,0.0529 0.412822,-0.0545 0.350331,-0.21645 0.813057,-1.13436 0.719943,-1.42774 -0.03608,-0.11824 -0.561292,-0.47579 -1.595567,-1.08903 -0.364761,-0.21645 -0.705075,-0.43944 -0.756222,-0.49591 -0.08738,-0.0966 -0.08738,-0.10823 0.0015,-0.19722 0.159533,-0.15953 0.387208,-0.0701 1.477524,0.57961 0.962048,0.57316 1.540054,0.86753 1.709408,0.8707 0.129871,0.002 0.544296,-0.43539 0.714972,-0.75558 0.46012,-0.86336 0.327043,-1.0443 -1.497245,-2.03673 -0.512474,-0.27858 -0.989229,-0.56217 -1.059411,-0.62975 -0.121855,-0.11745 -0.123057,-0.12747 -0.03207,-0.21926 0.203224,-0.20322 0.723189,-0.012 1.718306,0.62635 0.681022,0.43787 1.117894,0.65809 1.307169,0.65889 0.303433,0.001 0.641298,-0.30784 0.868492,-0.79417 0.192803,-0.41279 0.173162,-0.63681 -0.07656,-0.8798 -0.113036,-0.10983 -0.278181,-0.2377 -0.367167,-0.28379 -0.08899,-0.0461 -1.038527,-0.59504 -2.110208,-1.21979 -2.594856,-1.51284 -3.53085,-2.04166 -4.238202,-2.39484 l -0.590597,-0.29501 -0.24932,0.17155 c -0.33029,0.22728 -0.433064,0.41122 -0.512265,0.91712 -0.115441,0.7377 -0.39282,1.94726 -0.508546,2.21811 -0.211642,0.49531 -0.595242,0.6805 -1.271249,0.61364 -1.147439,-0.11344 -2.1092075,-0.58005 -2.2832905,-1.10759 -0.15352,-0.46477 0.0473,-1.73955 0.5584065,-3.54316 0.253729,-0.89563 0.259742,-0.90453 0.976438,-1.41291 0.837708,-0.59436 0.83863,-0.59524 0.767161,-0.68138 -0.03207,-0.0401 -0.22046,-0.12466 -0.417908,-0.1904 -0.185187,-0.0617 -0.280185,-0.0894 -0.355943,-0.089 z m -2.4890755,10.32876 -0.659977,1.0069 c -0.363158,0.5538 -0.702426,1.08887 -0.754215,1.18904 -0.227274,0.4398 0.175968,0.91635 0.955595,1.12876 0.384402,0.10462 0.534836,0.0729 0.740826,-0.15713 0.328285,-0.36677 1.2284445,-2.08171 1.2302885,-2.34381 0.0011,-0.14992 -0.3218725,-0.4764 -0.6213375,-0.62819 -0.153119,-0.0778 -0.41226,-0.15192 -0.583377,-0.16755 z m -2.452879,0.02 c -0.167149,-0.002 -0.325079,0.0281 -0.436912,0.0986 -0.224068,0.13869 -0.678136,0.77974 -0.726356,1.02586 -0.06333,0.32347 0.233286,0.68194 0.771971,0.93359 0.377588,0.17636 0.583297,0.16714 0.815382,-0.0361 0.289003,-0.25373 0.710162,-0.90112 0.710162,-1.0916 0,-0.20723 -0.258139,-0.58181 -0.520687,-0.75566 -0.16795,-0.11103 -0.398431,-0.17115 -0.61356,-0.17396 z m 5.0925135,0.49319 c -0.317864,-8e-4 -0.432343,0.18118 -0.892026,1.02293 -0.6743285,1.2347 -1.1114005,2.13887 -1.1114005,2.29912 0,0.079 0.07135,0.19721 0.176769,0.29342 0.196009,0.17877 0.9531495,0.5954 1.0874305,0.59804 0.0473,9.7e-4 0.149512,-0.0661 0.227274,-0.14911 0.27297,-0.2902 1.566674,-2.32401 1.826733,-2.87171 0.117445,-0.24732 0.08458,-0.39202 -0.162339,-0.71521 -0.209237,-0.27378 -0.442604,-0.39242 -0.89306,-0.45363 -0.101812,-0.012 -0.185988,-0.0241 -0.259341,-0.0241 z m 2.218546,1.53356 c -0.130673,-0.003 -0.24451,0.0281 -0.321872,0.0918 -0.122656,0.10422 -1.078451,1.67542 -1.466977,2.41216 -0.132277,0.25092 -0.240502,0.52597 -0.240502,0.61107 0,0.22407 0.175165,0.4131 0.505491,0.54546 0.51075,0.20483 0.872946,0.26295 1.10026,0.17637 0.161938,-0.0617 0.478435,-0.553 0.916393,-1.42229 0.363959,-0.72231 0.602177,-1.31691 0.601736,-1.50181 -4.01e-4,-0.15874 -0.206431,-0.49367 -0.394023,-0.64002 -0.218856,-0.17116 -0.482888,-0.26736 -0.700466,-0.27257 z"
         id="path1175"
         inkscape:connector-curvature="0" />
    </g>
  </g>
</svg>
