<?xml version="1.0" encoding="UTF-8" standalone="no"?>
<!-- Created with Inkscape (http://www.inkscape.org/) -->

<svg
   xmlns:dc="http://purl.org/dc/elements/1.1/"
   xmlns:cc="http://creativecommons.org/ns#"
   xmlns:rdf="http://www.w3.org/1999/02/22-rdf-syntax-ns#"
   xmlns:svg="http://www.w3.org/2000/svg"
   xmlns="http://www.w3.org/2000/svg"
   xmlns:sodipodi="http://sodipodi.sourceforge.net/DTD/sodipodi-0.dtd"
   xmlns:inkscape="http://www.inkscape.org/namespaces/inkscape"
   width="1in"
   height="1in"
   viewBox="0 0 25.4 25.400001"
   version="1.1"
   id="svg17593"
   inkscape:version="0.92.3 (2405546, 2018-03-11)"
   sodipodi:docname="megaphone.svg">
  <defs
     id="defs17587" />
  <sodipodi:namedview
     id="base"
     pagecolor="#ffffff"
     bordercolor="#666666"
     borderopacity="1.0"
     inkscape:pageopacity="0.0"
     inkscape:pageshadow="2"
     inkscape:zoom="2.8"
     inkscape:cx="50.94331"
     inkscape:cy="77.840471"
     inkscape:document-units="in"
     inkscape:current-layer="layer1"
     showgrid="false"
     units="in"
     inkscape:snap-page="true"
     inkscape:snap-bbox="true"
     inkscape:bbox-nodes="true"
     inkscape:snap-bbox-edge-midpoints="true"
     inkscape:snap-bbox-midpoints="true"
     inkscape:window-width="1366"
     inkscape:window-height="705"
     inkscape:window-x="-8"
     inkscape:window-y="-8"
     inkscape:window-maximized="1">
    <inkscape:grid
       type="xygrid"
       id="grid19884" />
  </sodipodi:namedview>
  <metadata
     id="metadata17590">
    <rdf:RDF>
      <cc:Work
         rdf:about="">
        <dc:format>image/svg+xml</dc:format>
        <dc:type
           rdf:resource="http://purl.org/dc/dcmitype/StillImage" />
        <dc:title></dc:title>
      </cc:Work>
    </rdf:RDF>
  </metadata>
  <g
     inkscape:label="Layer 1"
     inkscape:groupmode="layer"
     id="layer1"
     transform="translate(0,-271.59999)">
    <path
       style="fill:#000000;stroke-width:1"
       d="M 5.975019,294.33802 C 5.5805409,294.14643 5.3580637,293.71918 4.6456482,291.78395 4.0986557,290.29812 3.9867705,290.09308 3.7558713,290.15347 3.329633,290.26483 2.297915,289.90959 1.9086618,289.51743 1.4560717,289.06136 -0.00379648,285.1155 7.4198244e-6,284.35856 0.00214742,283.93798 0.09983442,283.74132 0.51128422,283.32992 c 0.44606,-0.44609 0.79770548,-0.60184 2.85711008,-1.26546 l 2.3484477,-0.75675 3.6257261,-2.52441 c 3.4860469,-2.42714 3.6299439,-2.54473 3.7353309,-3.05197 0.208874,-1.00525 1.187454,-1.71354 2.38673,-1.72751 0.837221,-0.008 1.452851,0.281 1.784563,0.84268 0.363066,0.61485 4.669143,12.29304 4.669143,12.66286 0,0.92694 -1.195101,1.86741 -2.377773,1.87116 -0.802224,0.003 -1.198055,-0.12533 -1.616558,-0.52268 -0.283275,-0.26903 -0.4345,-0.2818 -3.294081,-0.281 -1.64845,4.8e-4 -3.390456,0.0399 -3.871122,0.0834 l -0.8739389,0.0826 0.04522,0.56464 c 0.04027,0.50288 -0.0052,0.60766 -0.41622,0.95847 -0.253778,0.21674 -0.564148,0.45439 -0.689668,0.52835 -0.2128658,0.12534 -0.2097524,0.188 0.04646,0.92858 0.151077,0.43679 0.274693,0.93896 0.274693,1.1159 0,0.94115 -0.9524867,1.65954 -2.1794959,1.64385 -0.3911651,-0.004 -0.8370654,-0.0702 -0.9908612,-0.14489 z m 17.059155,-10.38004 c -1.622813,-0.31174 -1.979815,-0.49152 -1.644199,-0.82712 0.176503,-0.17642 0.417034,-0.15686 2.078244,0.16884 1.714621,0.33648 1.882403,0.39516 1.921615,0.67113 0.03752,0.26383 -0.01437,0.30096 -0.403355,0.28938 -0.245476,-0.008 -1.124017,-0.14329 -1.952305,-0.30255 z m -2.465957,-3.11971 c -0.141778,-0.17083 -0.138664,-0.24148 0.01716,-0.39236 0.24352,-0.2355 3.494406,-1.26242 3.72661,-1.17725 0.09635,0.0359 0.156866,0.1872 0.134433,0.33768 -0.03353,0.22432 -0.368014,0.378 -1.855827,0.85382 -0.998309,0.31932 -1.822821,0.58168 -1.832257,0.58332 -0.0096,0.002 -0.095,-0.091 -0.190114,-0.20557 z m -1.155809,-2.41329 c -0.07081,-0.1844 1.182683,-1.70476 2.144147,-2.60049 0.342789,-0.31931 0.767199,-0.35204 0.862324,-0.0662 0.07584,0.22791 -2.397196,2.86823 -2.686319,2.86823 -0.133555,0 -0.277607,-0.0906 -0.320156,-0.20157 z"
       id="path934"
       inkscape:connector-curvature="0" />
  </g>
</svg>
