<?xml version="1.0" encoding="UTF-8" standalone="no"?>
<!-- Created with Inkscape (http://www.inkscape.org/) -->

<svg
   xmlns:dc="http://purl.org/dc/elements/1.1/"
   xmlns:cc="http://creativecommons.org/ns#"
   xmlns:rdf="http://www.w3.org/1999/02/22-rdf-syntax-ns#"
   xmlns:svg="http://www.w3.org/2000/svg"
   xmlns="http://www.w3.org/2000/svg"
   xmlns:sodipodi="http://sodipodi.sourceforge.net/DTD/sodipodi-0.dtd"
   xmlns:inkscape="http://www.inkscape.org/namespaces/inkscape"
   width="1in"
   height="1in"
   viewBox="0 0 25.4 25.400001"
   version="1.1"
   id="svg17593"
   inkscape:version="0.92.3 (2405546, 2018-03-11)"
   sodipodi:docname="people.svg">
  <defs
     id="defs17587" />
  <sodipodi:namedview
     id="base"
     pagecolor="#ffffff"
     bordercolor="#666666"
     borderopacity="1.0"
     inkscape:pageopacity="0.0"
     inkscape:pageshadow="2"
     inkscape:zoom="3.6203867"
     inkscape:cx="3.5832135"
     inkscape:cy="60.583733"
     inkscape:document-units="in"
     inkscape:current-layer="layer1"
     showgrid="true"
     units="in"
     inkscape:snap-page="true"
     inkscape:snap-bbox="true"
     inkscape:bbox-nodes="true"
     inkscape:snap-bbox-edge-midpoints="true"
     inkscape:snap-bbox-midpoints="true"
     inkscape:window-width="1366"
     inkscape:window-height="705"
     inkscape:window-x="-8"
     inkscape:window-y="-8"
     inkscape:window-maximized="1">
    <inkscape:grid
       type="xygrid"
       id="grid19884"
       units="in"
       spacingx="12.7"
       spacingy="12.7" />
  </sodipodi:namedview>
  <metadata
     id="metadata17590">
    <rdf:RDF>
      <cc:Work
         rdf:about="">
        <dc:format>image/svg+xml</dc:format>
        <dc:type
           rdf:resource="http://purl.org/dc/dcmitype/StillImage" />
        <dc:title></dc:title>
      </cc:Work>
    </rdf:RDF>
  </metadata>
  <g
     inkscape:label="Layer 1"
     inkscape:groupmode="layer"
     id="layer1"
     transform="translate(0,-271.59999)">
    <g
       id="g38744"
       transform="matrix(0.04738178,0,0,0.04738178,8.8922454e-7,271.60004)"
       style="fill:#000000;stroke-width:5.58407211">
      <g
         id="g38688"
         style="fill:#000000;stroke-width:5.58407211">
        <path
           id="path38686"
           d="m 147.128,91.076 c 0,-37.95 30.766,-68.716 68.721,-68.716 37.95,0 68.719,30.766 68.719,68.716 0,37.95 -30.769,68.715 -68.719,68.715 -37.955,0.001 -68.721,-30.765 -68.721,-68.715 z m 101.745,115.531 c 0.689,-14.963 5.84,-28.812 14.127,-40.261 -5.816,-1.218 -11.827,-1.865 -17.995,-1.865 h -58.304 c -6.15,0 -12.153,0.642 -17.939,1.845 8.819,12.232 14.094,27.171 14.18,43.343 10.72,-5.896 23.02,-9.253 36.085,-9.253 10.598,0 20.687,2.208 29.846,6.191 z m 11.632,6.168 c 19.96,12.517 33.957,33.688 36.517,58.274 8.133,3.801 17.171,5.994 26.746,5.994 34.968,0 63.311,-28.346 63.311,-63.313 0,-34.971 -28.343,-63.311 -63.311,-63.311 -34.648,10e-4 -62.737,27.838 -63.263,62.356 z m -41.479,129.636 c 34.962,0 63.307,-28.354 63.307,-63.311 0,-34.962 -28.345,-63.311 -63.307,-63.311 -34.965,0 -63.322,28.348 -63.322,63.311 0.001,34.957 28.357,63.311 63.322,63.311 z m 26.856,4.309 h -53.717 c -44.697,0 -81.069,36.369 -81.069,81.072 v 65.703 l 0.171,1.029 4.522,1.406 c 42.658,13.323 79.718,17.779 110.224,17.779 59.571,0 94.114,-16.987 96.242,-18.074 l 4.231,-2.141 h 0.449 v -65.703 c 10e-4,-44.702 -36.35,-81.071 -81.053,-81.071 z m 104.756,-65.356 h -53.314 c -0.579,21.332 -9.683,40.542 -24.081,54.35 39.732,11.815 68.802,48.657 68.802,92.178 v 20.245 c 52.629,-1.938 82.963,-16.846 84.961,-17.851 l 4.232,-2.152 h 0.449 v -65.715 c 0.006,-44.691 -36.363,-81.055 -81.049,-81.055 z m 14.251,-132.295 c 19.961,12.519 33.957,33.691 36.511,58.277 8.134,3.801 17.171,5.99 26.746,5.99 34.975,0 63.316,-28.342 63.316,-63.304 0,-34.972 -28.342,-63.311 -63.316,-63.311 -34.643,-0.004 -62.73,27.839 -63.257,62.348 z m 90.121,68.589 h -53.303 c -0.579,21.332 -9.682,40.542 -24.08,54.349 39.731,11.811 68.801,48.658 68.801,92.179 v 20.245 c 52.624,-1.934 82.964,-16.84 84.962,-17.852 l 4.226,-2.145 h 0.455 v -65.723 c 0.006,-44.687 -36.363,-81.053 -81.061,-81.053 z m -347.073,59.386 c 12.386,0 23.903,-3.618 33.67,-9.777 3.106,-20.241 13.958,-37.932 29.454,-49.975 0.065,-1.188 0.174,-2.361 0.174,-3.561 0,-34.971 -28.351,-63.311 -63.298,-63.311 -34.977,0 -63.316,28.339 -63.316,63.311 0,34.973 28.338,63.313 63.316,63.313 z m 56.858,58.67 c -14.331,-13.742 -23.404,-32.847 -24.072,-54.055 -1.971,-0.147 -3.928,-0.295 -5.943,-0.295 H 81.069 C 36.366,281.364 0,317.728 0,362.425 v 65.709 l 0.166,1.023 4.528,1.412 c 34.214,10.699 64.761,15.616 91.292,17.153 v -19.837 c 0.005,-43.514 29.068,-80.362 68.809,-92.171 z"
           inkscape:connector-curvature="0"
           style="fill:#000000;stroke-width:5.58407211" />
      </g>
      <g
         id="g38690"
         style="fill:#000000;stroke-width:5.58407211" />
      <g
         id="g38692"
         style="fill:#000000;stroke-width:5.58407211" />
      <g
         id="g38694"
         style="fill:#000000;stroke-width:5.58407211" />
      <g
         id="g38696"
         style="fill:#000000;stroke-width:5.58407211" />
      <g
         id="g38698"
         style="fill:#000000;stroke-width:5.58407211" />
      <g
         id="g38700"
         style="fill:#000000;stroke-width:5.58407211" />
      <g
         id="g38702"
         style="fill:#000000;stroke-width:5.58407211" />
      <g
         id="g38704"
         style="fill:#000000;stroke-width:5.58407211" />
      <g
         id="g38706"
         style="fill:#000000;stroke-width:5.58407211" />
      <g
         id="g38708"
         style="fill:#000000;stroke-width:5.58407211" />
      <g
         id="g38710"
         style="fill:#000000;stroke-width:5.58407211" />
      <g
         id="g38712"
         style="fill:#000000;stroke-width:5.58407211" />
      <g
         id="g38714"
         style="fill:#000000;stroke-width:5.58407211" />
      <g
         id="g38716"
         style="fill:#000000;stroke-width:5.58407211" />
      <g
         id="g38718"
         style="fill:#000000;stroke-width:5.58407211" />
    </g>
  </g>
</svg>
