<?xml version="1.0" encoding="UTF-8" standalone="no"?>
<!-- Created with Inkscape (http://www.inkscape.org/) -->

<svg
   xmlns:dc="http://purl.org/dc/elements/1.1/"
   xmlns:cc="http://creativecommons.org/ns#"
   xmlns:rdf="http://www.w3.org/1999/02/22-rdf-syntax-ns#"
   xmlns:svg="http://www.w3.org/2000/svg"
   xmlns="http://www.w3.org/2000/svg"
   xmlns:sodipodi="http://sodipodi.sourceforge.net/DTD/sodipodi-0.dtd"
   xmlns:inkscape="http://www.inkscape.org/namespaces/inkscape"
   width="1in"
   height="1in"
   viewBox="0 0 25.4 25.400001"
   version="1.1"
   id="svg17593"
   inkscape:version="0.92.3 (2405546, 2018-03-11)"
   sodipodi:docname="smokestacks.svg">
  <defs
     id="defs17587" />
  <sodipodi:namedview
     id="base"
     pagecolor="#ffffff"
     bordercolor="#666666"
     borderopacity="1.0"
     inkscape:pageopacity="0.0"
     inkscape:pageshadow="2"
     inkscape:zoom="2.8"
     inkscape:cx="50.94331"
     inkscape:cy="77.840471"
     inkscape:document-units="in"
     inkscape:current-layer="layer1"
     showgrid="false"
     units="in"
     inkscape:snap-page="true"
     inkscape:snap-bbox="true"
     inkscape:bbox-nodes="true"
     inkscape:snap-bbox-edge-midpoints="true"
     inkscape:snap-bbox-midpoints="true"
     inkscape:window-width="1366"
     inkscape:window-height="705"
     inkscape:window-x="-8"
     inkscape:window-y="-8"
     inkscape:window-maximized="1">
    <inkscape:grid
       type="xygrid"
       id="grid19884" />
  </sodipodi:namedview>
  <metadata
     id="metadata17590">
    <rdf:RDF>
      <cc:Work
         rdf:about="">
        <dc:format>image/svg+xml</dc:format>
        <dc:type
           rdf:resource="http://purl.org/dc/dcmitype/StillImage" />
        <dc:title></dc:title>
      </cc:Work>
    </rdf:RDF>
  </metadata>
  <g
     inkscape:label="Layer 1"
     inkscape:groupmode="layer"
     id="layer1"
     transform="translate(0,-271.59999)">
    <path
       style="fill:#000000;stroke-width:1.00000012"
       d="m 2.661481,296.91137 c -0.093469,-0.0464 -0.2260542,-0.19878 -0.2944464,-0.33876 l -0.1244258,-0.25397 1.251729,-7.55638 1.251697,-7.55629 -0.1755399,-0.31157 c -0.1530625,-0.27117 -0.17554,-0.39035 -0.17554,-0.92313 2.6e-4,-0.65941 0.083071,-0.90406 0.4322986,-1.28046 0.3659182,-0.39435 0.2752086,-0.38475 3.7129119,-0.38475 2.9732766,0 3.1820806,0.008 3.4188656,0.12878 0.324723,0.16558 0.450377,0.30877 0.635572,0.72344 0.194777,0.43591 0.207456,1.08764 0.0292,1.56838 l -0.127985,0.34756 0.434814,2.86079 c 0.239053,1.57346 0.453564,2.8394 0.476526,2.8132 0.0228,-0.028 0.144623,-0.68992 0.270649,-1.47495 0.125705,-0.78503 0.248851,-1.43639 0.273569,-1.44747 0.026,-0.008 -0.0164,-0.14719 -0.09183,-0.30237 -0.107788,-0.22357 -0.129305,-0.37156 -0.102268,-0.70748 0.03759,-0.46966 0.188578,-0.78443 0.479949,-1.00184 0.184659,-0.13759 0.275888,-0.14359 2.48408,-0.16239 l 2.292302,-0.02 0.233534,0.15718 c 0.530499,0.35756 0.704387,1.17718 0.399874,1.88506 l -0.141664,0.32957 0.753438,4.96315 c 0.414421,2.72973 0.753474,5.04322 0.753474,5.14109 0,0.25997 -0.185019,0.57518 -0.381517,0.64989 -0.09935,0.036 -1.39888,0.0652 -3.098214,0.0652 h -2.927097 l 0.04236,0.32276 c 0.117267,0.8953 0.127665,1.2407 0.04331,1.44436 -0.17622,0.42535 0.08795,0.40791 -6.164872,0.40683 -4.4018292,-8e-4 -5.7344289,-0.02 -5.8657499,-0.0856 z m 10.670697,-6.0817 c -1.96e-4,-0.0656 -0.09219,-0.59042 -0.203896,-1.16667 -0.111708,-0.57629 -0.203257,-1.05804 -0.203257,-1.07056 0,-0.012 -1.967,-0.024 -4.3710852,-0.024 H 4.1828592 l -0.1892184,1.03653 c -0.1039082,0.57009 -0.2048566,1.10535 -0.2240944,1.18946 l -0.035196,0.15318 h 4.7992477 c 4.5255629,0 4.7991799,-0.008 4.7986919,-0.11878 z m 2.75021,-9.37561 c -0.34552,-0.34556 0.358839,-2.00721 1.073701,-2.53291 0.155343,-0.11399 0.451969,-0.27197 0.659345,-0.35036 0.393755,-0.14919 0.671067,-0.15119 2.426623,-0.02 0.621533,0.0472 1.148709,-0.0476 1.410831,-0.25357 0.09771,-0.0768 0.225694,-0.31117 0.312684,-0.57218 0.08079,-0.24317 0.192498,-0.48746 0.248172,-0.54297 0.40345,-0.40344 0.795853,0.46622 0.646714,1.43323 -0.142024,0.92082 -0.573979,1.56626 -1.253749,1.87359 -0.509554,0.23037 -1.628498,0.22917 -2.349892,-0.002 -0.394155,-0.12639 -0.580201,-0.15118 -0.883623,-0.11679 -0.511213,0.058 -1.123371,0.36596 -1.635825,0.82335 -0.230253,0.20557 -0.446141,0.37395 -0.479429,0.37395 -0.0332,0 -0.112027,-0.052 -0.17522,-0.11478 z m -8.2401029,-3.79737 c -0.1804594,-0.12638 -0.1856588,-0.23397 -0.040075,-0.83182 0.1469032,-0.60457 0.5525489,-1.47144 0.9095161,-1.94426 0.3530397,-0.46763 0.9561545,-0.9313 1.4779908,-1.13631 0.331282,-0.13039 0.524116,-0.15398 1.273975,-0.15758 0.485976,-0.002 1.235347,0.036 1.665237,0.0888 0.829558,0.0984 1.77493,0.0692 2.176616,-0.0676 0.600263,-0.20437 0.969153,-0.6598 1.157568,-1.43007 0.04267,-0.17478 0.148503,-0.38396 0.235173,-0.46523 0.225054,-0.21158 0.421648,-0.12559 0.599415,0.26237 0.212336,0.46331 0.203257,1.7554 -0.0164,2.38921 -0.550365,1.58514 -1.779945,2.29078 -3.657114,2.09868 -0.359879,-0.036 -0.870785,-0.14319 -1.13535,-0.23678 -1.37312,-0.4851 -2.6173573,-0.13318 -4.0184812,1.13655 -0.2429723,0.21998 -0.4494007,0.40012 -0.4590076,0.40012 -0.0096,0 -0.08567,-0.0476 -0.1687007,-0.10599 z"
       id="path1158"
       inkscape:connector-curvature="0" />
  </g>
</svg>
