<?xml version="1.0" encoding="UTF-8" standalone="no"?>
<!-- Created with Inkscape (http://www.inkscape.org/) -->

<svg
   xmlns:dc="http://purl.org/dc/elements/1.1/"
   xmlns:cc="http://creativecommons.org/ns#"
   xmlns:rdf="http://www.w3.org/1999/02/22-rdf-syntax-ns#"
   xmlns:svg="http://www.w3.org/2000/svg"
   xmlns="http://www.w3.org/2000/svg"
   xmlns:sodipodi="http://sodipodi.sourceforge.net/DTD/sodipodi-0.dtd"
   xmlns:inkscape="http://www.inkscape.org/namespaces/inkscape"
   width="1in"
   height="1in"
   viewBox="0 0 25.4 25.400001"
   version="1.1"
   id="svg17593"
   inkscape:version="0.92.3 (2405546, 2018-03-11)"
   sodipodi:docname="thermometer.svg">
  <defs
     id="defs17587" />
  <sodipodi:namedview
     id="base"
     pagecolor="#ffffff"
     bordercolor="#666666"
     borderopacity="1.0"
     inkscape:pageopacity="0.0"
     inkscape:pageshadow="2"
     inkscape:zoom="3.6203867"
     inkscape:cx="28.263843"
     inkscape:cy="48.083529"
     inkscape:document-units="in"
     inkscape:current-layer="layer1"
     showgrid="false"
     units="in"
     inkscape:snap-page="true"
     inkscape:snap-bbox="true"
     inkscape:bbox-nodes="true"
     inkscape:snap-bbox-edge-midpoints="true"
     inkscape:snap-bbox-midpoints="true"
     inkscape:window-width="1366"
     inkscape:window-height="705"
     inkscape:window-x="-8"
     inkscape:window-y="-8"
     inkscape:window-maximized="1">
    <inkscape:grid
       type="xygrid"
       id="grid19884" />
  </sodipodi:namedview>
  <metadata
     id="metadata17590">
    <rdf:RDF>
      <cc:Work
         rdf:about="">
        <dc:format>image/svg+xml</dc:format>
        <dc:type
           rdf:resource="http://purl.org/dc/dcmitype/StillImage" />
        <dc:title></dc:title>
      </cc:Work>
    </rdf:RDF>
  </metadata>
  <g
     inkscape:label="Layer 1"
     inkscape:groupmode="layer"
     id="layer1"
     transform="translate(0,-271.59999)">
    <g
       id="g10290"
       transform="matrix(0.125,0,0,0.125,8.8245906,273.50103)"
       style="fill:#000000;stroke-width:0.24999999">
      <path
         style="fill:#000000;stroke-width:0.24999997"
         d="m -266.82227,-124 187.750004,0.12891 c 108.58198,0.075 184.587496,0.48663 180.249996,0.97656 -32.823295,3.70746 -62.075639,17.85328 -85.513668,41.351561 C -4.7005675,-61.126 -16.263342,-40.373495 -23.638672,-11 l -2.634766,10.5 -0.294921,162.85352 -0.294922,162.85351 -5.839844,7.14649 c -30.723679,37.60119 -46.32802,90.21939 -41.056641,138.43554 6.607563,60.4379 39.542592,112.90668 90.951172,144.89063 22.852069,14.21748 50.394229,23.5293 80.486328,27.21093 4.090006,0.50041 -70.21895,0.9085 -178.75,0.98243 L -266.82227,644 h 384 384 l -186.75,-0.13281 c -112.76918,-0.0801 -183.38272,-0.47787 -178.25,-1.00391 C 221.99001,634.06843 291.66499,568.99337 306.27148,484 315.46022,430.53197 300.49589,373.373 266.28711,331.27734 l -5.05664,-6.22265 -0.33594,-160.77735 C 260.59309,19.559022 260.39635,2.7009222 258.91016,-4.5 c -6.81764,-33.032919 -22.32778,-61.429719 -44.47852,-81.433594 -23.07232,-20.836146 -50.89277,-33.402646 -81.92969,-37.009766 -3.75376,-0.43626 77.66329,-0.8535 180.92578,-0.92578 L 501.17773,-124 h -384 z m 382.25391,72.162109 c 1.54236,-0.01162 3.11546,0.02418 4.73047,0.105469 19.21021,0.966936 33.99229,7.533313 47.60351,21.144531 8.9519,8.951889 14.17357,17.349607 18.29493,29.4218754 L 188.67773,6.5 l 0.5,173.00977 0.5,173.01171 9.5,10.81446 c 12.93337,14.72258 20.36045,25.29536 26.10743,37.16406 19.3246,39.90943 14.8661,86.70986 -11.66993,122.47852 -27.46663,37.02304 -73.20969,55.30924 -117.636714,47.02539 -12.349663,-2.30272 -17.91708,-4.13899 -30.300782,-9.99219 C 30.175626,543.23164 5.0647549,509.70191 -1.390625,470.45703 -3.525915,457.47579 -2.8239806,436.14791 0.13085938,424.17188 5.4485495,402.61912 15.532968,385.35295 36.542969,361.83594 l 8.634765,-9.66406 0.01758,-170.33594 C 45.214966,-9.2349828 44.67353,4.5132019 52.820312,-12 c 3.938,-7.982158 6.137845,-10.950819 13.771485,-18.582031 7.352961,-7.350625 10.706596,-9.878528 17.585937,-13.259766 11.193367,-5.501608 20.457416,-7.914742 31.253906,-7.996094 z m 1.58398,119.988282 c -3.80014,-0.0093 -7.58767,0.552687 -11.91992,1.683593 -16.641994,4.344303 -30.00118,17.872187 -34.425778,34.859376 -1.284941,4.93321 -1.492188,23.61403 -1.492188,134.80078 v 129.07617 l -7.644531,5.46485 c -14.676892,10.49287 -27.195142,26.56278 -33.857422,43.46093 -9.49148,24.07416 -8.254669,51.76145 3.394531,76.00391 13.974252,29.08101 39.804842,48.13609 72.607418,53.56055 8.03025,1.32793 27.06202,0.26384 36.39258,-2.03321 51.06629,-12.57222 82.71693,-65.08187 69.99414,-116.125 -5.44399,-21.84098 -19.04193,-41.84801 -37.32812,-54.92578 l -7.5586,-5.40625 V 239.99414 c 0,-112.16294 -0.19616,-129.33583 -1.53125,-134.53516 -4.65834,-18.141195 -17.15974,-30.981978 -34.6289,-35.568355 -4.38851,-1.152166 -8.20181,-1.73097 -12.00196,-1.740234 z"
         transform="matrix(0.26458333,0,0,0.26458333,0,17.6)"
         id="path10294"
         inkscape:connector-curvature="0" />
    </g>
  </g>
</svg>
