<?xml version="1.0" encoding="UTF-8" standalone="no"?>
<!-- Created with Inkscape (http://www.inkscape.org/) -->

<svg
   xmlns:dc="http://purl.org/dc/elements/1.1/"
   xmlns:cc="http://creativecommons.org/ns#"
   xmlns:rdf="http://www.w3.org/1999/02/22-rdf-syntax-ns#"
   xmlns:svg="http://www.w3.org/2000/svg"
   xmlns="http://www.w3.org/2000/svg"
   xmlns:sodipodi="http://sodipodi.sourceforge.net/DTD/sodipodi-0.dtd"
   xmlns:inkscape="http://www.inkscape.org/namespaces/inkscape"
   width="1in"
   height="1in"
   viewBox="0 0 25.4 25.400001"
   version="1.1"
   id="svg17593"
   inkscape:version="0.92.3 (2405546, 2018-03-11)"
   sodipodi:docname="volume.svg">
  <defs
     id="defs17587" />
  <sodipodi:namedview
     id="base"
     pagecolor="#ffffff"
     bordercolor="#666666"
     borderopacity="1.0"
     inkscape:pageopacity="0.0"
     inkscape:pageshadow="2"
     inkscape:zoom="3.6203867"
     inkscape:cx="3.5832135"
     inkscape:cy="60.583733"
     inkscape:document-units="in"
     inkscape:current-layer="layer1"
     showgrid="true"
     units="in"
     inkscape:snap-page="true"
     inkscape:snap-bbox="true"
     inkscape:bbox-nodes="true"
     inkscape:snap-bbox-edge-midpoints="true"
     inkscape:snap-bbox-midpoints="true"
     inkscape:window-width="1366"
     inkscape:window-height="705"
     inkscape:window-x="-8"
     inkscape:window-y="-8"
     inkscape:window-maximized="1">
    <inkscape:grid
       type="xygrid"
       id="grid19884"
       units="in"
       spacingx="12.7"
       spacingy="12.7" />
  </sodipodi:namedview>
  <metadata
     id="metadata17590">
    <rdf:RDF>
      <cc:Work
         rdf:about="">
        <dc:format>image/svg+xml</dc:format>
        <dc:type
           rdf:resource="http://purl.org/dc/dcmitype/StillImage" />
        <dc:title></dc:title>
      </cc:Work>
    </rdf:RDF>
  </metadata>
  <g
     inkscape:label="Layer 1"
     inkscape:groupmode="layer"
     id="layer1"
     transform="translate(0,-271.59999)">
    <g
       id="g38911"
       transform="matrix(0.2202968,0,0,0.2202968,-3.716001e-7,271.59995)"
       style="fill:#000000;stroke-width:1.20103121">
      <g
         id="g38853"
         style="fill:#000000;stroke-width:1.20103121">
        <path
           id="path38847"
           d="M 47.9,14.306 26,30.706 H 6 c -3.3,0 -6,2.7 -6,6 v 41.8 c 0,3.301 2.7,6 6,6 h 20 l 21.9,16.4 c 4,3 9.6,0.2 9.6,-4.8 v -77 c 0,-5 -5.7,-7.8 -9.6,-4.8 z"
           inkscape:connector-curvature="0"
           style="fill:#000000;stroke-width:1.20103121" />
        <path
           id="path38849"
           d="m 77.3,24.106 c -2.7,-2.7 -7.2,-2.7 -9.899,0 -2.7,2.7 -2.7,7.2 0,9.9 13,13 13,34.101 0,47.101 -2.7,2.7 -2.7,7.2 0,9.899 1.399,1.4 3.199,2 4.899,2 1.7,0 3.601,-0.699 4.9,-2.1 18.6,-18.3 18.6,-48.3 0.1,-66.8 z"
           inkscape:connector-curvature="0"
           style="fill:#000000;stroke-width:1.20103121" />
        <path
           id="path38851"
           d="m 85.1,8.406 c -2.699,2.7 -2.699,7.2 0,9.9 10.5,10.5 16.301,24.4 16.301,39.3 0,14.9 -5.801,28.8 -16.301,39.3 -2.699,2.7 -2.699,7.2 0,9.9 1.4,1.399 3.2,2.1 4.9,2.1 1.8,0 3.6,-0.7 4.9,-2 13.1,-13.1 20.399,-30.6 20.399,-49.2 0,-18.6 -7.2,-36 -20.399,-49.2 -2.6,-2.8 -7,-2.8 -9.8,-0.1 z"
           inkscape:connector-curvature="0"
           style="fill:#000000;stroke-width:1.20103121" />
      </g>
      <g
         id="g38855"
         style="fill:#000000;stroke-width:1.20103121" />
      <g
         id="g38857"
         style="fill:#000000;stroke-width:1.20103121" />
      <g
         id="g38859"
         style="fill:#000000;stroke-width:1.20103121" />
      <g
         id="g38861"
         style="fill:#000000;stroke-width:1.20103121" />
      <g
         id="g38863"
         style="fill:#000000;stroke-width:1.20103121" />
      <g
         id="g38865"
         style="fill:#000000;stroke-width:1.20103121" />
      <g
         id="g38867"
         style="fill:#000000;stroke-width:1.20103121" />
      <g
         id="g38869"
         style="fill:#000000;stroke-width:1.20103121" />
      <g
         id="g38871"
         style="fill:#000000;stroke-width:1.20103121" />
      <g
         id="g38873"
         style="fill:#000000;stroke-width:1.20103121" />
      <g
         id="g38875"
         style="fill:#000000;stroke-width:1.20103121" />
      <g
         id="g38877"
         style="fill:#000000;stroke-width:1.20103121" />
      <g
         id="g38879"
         style="fill:#000000;stroke-width:1.20103121" />
      <g
         id="g38881"
         style="fill:#000000;stroke-width:1.20103121" />
      <g
         id="g38883"
         style="fill:#000000;stroke-width:1.20103121" />
    </g>
  </g>
</svg>
