<?xml version="1.0" encoding="UTF-8" standalone="no"?>
<!-- Created with Inkscape (http://www.inkscape.org/) -->

<svg
   xmlns:dc="http://purl.org/dc/elements/1.1/"
   xmlns:cc="http://creativecommons.org/ns#"
   xmlns:rdf="http://www.w3.org/1999/02/22-rdf-syntax-ns#"
   xmlns:svg="http://www.w3.org/2000/svg"
   xmlns="http://www.w3.org/2000/svg"
   xmlns:sodipodi="http://sodipodi.sourceforge.net/DTD/sodipodi-0.dtd"
   xmlns:inkscape="http://www.inkscape.org/namespaces/inkscape"
   width="4in"
   height="4in"
   viewBox="0 0 101.6 101.6"
   version="1.1"
   id="svg8"
   inkscape:version="0.92.3 (2405546, 2018-03-11)"
   sodipodi:docname="logo canada.svg"
   inkscape:export-filename="C:\Users\Owen\Google Drive\Earth Strike\Logo\logo canada.png"
   inkscape:export-xdpi="300"
   inkscape:export-ydpi="300">
  <defs
     id="defs2">
    <circle
       style="opacity:1;fill:none;fill-opacity:1;stroke:none;stroke-width:19.84375;stroke-linecap:round;stroke-linejoin:miter;stroke-miterlimit:4;stroke-dasharray:none;stroke-opacity:1;paint-order:normal"
       id="path1431-3"
       cx="50.799999"
       cy="246.2"
       r="39.6875" />
  </defs>
  <sodipodi:namedview
     id="base"
     pagecolor="#ffffff"
     bordercolor="#666666"
     borderopacity="1.0"
     inkscape:pageopacity="0.0"
     inkscape:pageshadow="2"
     inkscape:zoom="1.4142136"
     inkscape:cx="39.752477"
     inkscape:cy="200.92994"
     inkscape:document-units="in"
     inkscape:current-layer="layer1"
     showgrid="true"
     units="in"
     inkscape:window-width="1366"
     inkscape:window-height="705"
     inkscape:window-x="-8"
     inkscape:window-y="-8"
     inkscape:window-maximized="1"
     inkscape:object-paths="false"
     inkscape:snap-nodes="true"
     inkscape:snap-smooth-nodes="true"
     inkscape:snap-bbox="true"
     inkscape:bbox-nodes="true"
     inkscape:snap-bbox-midpoints="false"
     inkscape:pagecheckerboard="true">
    <inkscape:grid
       type="xygrid"
       id="grid815"
       spacingx="1.5875"
       spacingy="1.5875"
       empspacing="2" />
  </sodipodi:namedview>
  <metadata
     id="metadata5">
    <rdf:RDF>
      <cc:Work
         rdf:about="">
        <dc:format>image/svg+xml</dc:format>
        <dc:type
           rdf:resource="http://purl.org/dc/dcmitype/StillImage" />
        <dc:title />
      </cc:Work>
    </rdf:RDF>
  </metadata>
  <g
     inkscape:label="Layer 1"
     inkscape:groupmode="layer"
     id="layer1"
     transform="translate(0,-195.4)">
    <circle
       style="opacity:1;fill:#ffffff;fill-opacity:1;stroke:none;stroke-width:18.98240471;stroke-linecap:round;stroke-linejoin:miter;stroke-miterlimit:4;stroke-dasharray:none;stroke-opacity:1;paint-order:normal"
       id="path2353"
       cx="50.799999"
       cy="246.2"
       r="50.799999" />
    <path
       style="display:inline;opacity:1;fill:#ff0000;fill-opacity:1;stroke:none;stroke-width:72;stroke-linecap:round;stroke-linejoin:miter;stroke-miterlimit:4;stroke-dasharray:none;stroke-opacity:1;paint-order:normal"
       d="M 192,-0.05078125 A 192,192 0 0 0 0,191.94922 a 192,192 0 0 0 192,192 192,192 0 0 0 192,-192 A 192,192 0 0 0 192,-0.05078125 Z M 202.39453,17.09375 c 0.28503,-0.0041 0.57562,0.0041 0.875,0.02344 2.42163,0.156219 4.88177,0.554897 7.37891,1.197265 l -1.21094,6.335938 c -2.59499,-0.782186 -4.38452,-1.20596 -5.36914,-1.269532 -1.25073,-0.08063 -1.90932,0.385386 -1.97461,1.396485 -0.0258,0.399168 0.24329,0.804488 0.80469,1.214844 0.588,0.412093 1.29313,0.857134 2.11718,1.33789 0.82579,0.454148 1.64523,1.00215 2.45899,1.642578 0.81548,0.613821 1.48133,1.471958 1.99805,2.574219 0.54333,1.103975 0.77099,2.348636 0.68164,3.732422 -0.16323,2.528075 -0.96753,4.440177 -2.41407,5.736328 -1.44652,1.296151 -3.42041,1.862684 -5.92187,1.701172 -2.47485,-0.159748 -4.87284,-0.702229 -7.19141,-1.626953 l 0.82422,-5.917969 c 2.79414,1.008781 4.74952,1.548905 5.86719,1.621094 1.11767,0.07206 1.70791,-0.384624 1.77148,-1.369141 0.0327,-0.505625 -0.24355,-0.991746 -0.82812,-1.457031 -0.55796,-0.463597 -1.2482,-0.93526 -2.07227,-1.416016 -0.82406,-0.480756 -1.65791,-1.028972 -2.5,-1.644531 -0.81547,-0.61382 -1.49378,-1.472222 -2.03711,-2.576172 -0.51671,-1.102261 -0.72927,-2.386 -0.63476,-3.849609 0.15292,-2.368403 0.96873,-4.22654 2.44531,-5.574219 1.292,-1.179197 2.93646,-1.783511 4.93164,-1.8125 z m -22.1582,0.210938 2.95312,24.664062 -6.75195,0.808594 -1.11719,-9.333985 L 170.67383,34 l 1.11719,9.333984 -6.83008,0.816407 -2.95313,-24.66211 6.83008,-0.818359 1.16016,9.689453 4.64648,-0.554687 -1.16015,-9.691407 z m 34.6582,1.158203 16.14844,2.871093 -1.45117,5.876954 -4.56836,-0.8125 -3.29102,18.509765 -6.73437,-1.197265 3.29101,-18.509766 -4.8457,-0.861328 z m -57.55469,1.929687 1.08789,5.955078 -4.5,1.132813 4.58985,18.230469 -6.63281,1.671874 -4.58985,-18.232421 -4.77148,1.201171 -1.08594,-5.955078 z m 78.16797,2.033203 8.87305,2.71875 c 2.5497,0.781128 4.22747,1.950143 5.0332,3.507813 0.83123,1.56548 0.84558,3.66287 0.041,6.289062 -0.43743,1.42783 -1.01777,2.546814 -1.74024,3.357422 -0.72246,0.810608 -1.66027,1.457702 -2.8125,1.941406 l 0.082,11.06836 -7.07618,-2.167969 0.25391,-9.292969 -0.88086,-0.269531 -2.62305,8.568359 -6.42578,-1.96875 z m -101.18945,5.171875 c 0.72383,0.03569 1.3841,0.189867 1.98242,0.462891 1.62039,0.718337 2.92565,2.359229 3.91406,4.921875 0.53739,1.39331 0.77103,2.631152 0.70313,3.714844 -0.0679,1.083691 -0.40588,2.171791 -1.01367,3.263672 l 6.89843,8.658203 -6.90429,2.662109 -5.53906,-7.466797 -0.85743,0.330078 3.22461,8.361328 -6.26953,2.417969 -8.93945,-23.175781 8.6582,-3.339844 c 1.55501,-0.599764 2.9362,-0.870035 4.14258,-0.810547 z m 122.74805,2.042969 6.25976,2.652344 -9.69336,22.871093 -6.25976,-2.654296 z m -16.91407,0.568359 -1.64062,5.353516 0.99414,0.304688 c 0.66292,0.203085 1.19416,0.155941 1.5918,-0.140626 0.39763,-0.29654 0.74809,-0.941153 1.05273,-1.935546 0.31245,-1.019868 0.38792,-1.764038 0.22461,-2.232422 -0.15549,-0.493859 -0.55203,-0.837903 -1.18945,-1.033203 z m -108.30859,4.244141 c -0.26231,-0.01317 -0.55033,0.04022 -0.86133,0.160156 l -1.00781,0.388672 2.01562,5.224609 0.97071,-0.373046 c 0.64688,-0.249449 1.03432,-0.614935 1.16406,-1.09375 0.12974,-0.478766 0.009,-1.203499 -0.36523,-2.173828 -0.38385,-0.9952 -0.7855,-1.626891 -1.20313,-1.894532 -0.21361,-0.146267 -0.45058,-0.225116 -0.71289,-0.238281 z m 137.37109,0.443359 5.81836,3.199219 -5.01172,9.113281 0.34961,0.19336 8.16797,-7.378906 6.44727,3.548828 -10.42774,8.917968 -1.89257,12.652344 -6.625,-3.642578 1.88281,-9.646484 -0.35156,-0.19336 -4.50977,8.201172 -5.81836,-3.199219 z m -156.64257,1.226563 15.93164,19.597656 -5.85938,3.208985 -2.54883,-3.074219 -4.14062,2.267578 1.2168,3.802734 -5.57813,3.054688 -7.93164,-23.976563 z M 111.6875,45 l -0.24609,0.134766 3.03906,8.460937 2.70117,-1.478515 z m -15.255859,0.378906 3.236328,5.208985 -5.367188,3.841797 2.166016,3.023437 4.650393,-3.328125 3.07422,4.292969 -4.650394,3.330078 2.398434,3.349609 5.69141,-4.074218 2.93359,4.785156 -10.927731,7.824218 -14.458985,-20.199218 z m 192.103519,0.691406 11.2539,8.054688 -3.88867,4.744141 -5.36523,-3.841797 -2.16602,3.02539 4.65039,3.330078 -3.07226,4.292969 -4.65235,-3.330078 -2.39844,3.349609 5.69336,4.074219 -3.58593,4.322266 -10.92774,-7.824219 z M 192.05078,59.949219 A 132.00001,132 0 0 1 324,192 132.00001,132 0 0 1 191.94922,323.94922 132.00001,132 0 0 1 60,191.89844 132.00001,132 0 0 1 192.05078,59.949219 Z M 140.44727,332.09961 c 1.06637,0.0496 2.20443,0.29293 3.41796,0.73047 1.90654,0.68739 3.58194,1.7431 5.02344,3.16992 l -3.11914,5.4668 c -1.72155,-1.35771 -2.97038,-2.17664 -3.74805,-2.45703 -1.10378,-0.39796 -2.04696,-0.18397 -2.82617,0.64062 -0.77015,0.79952 -1.55635,2.31423 -2.36133,4.54688 -0.79592,2.20757 -1.15307,3.86563 -1.07031,4.97265 0.11689,1.09098 0.67624,1.81791 1.67969,2.17969 1.00344,0.3618 2.50664,0.63475 4.50976,0.81836 l -0.93359,5.6582 c -2.24408,0.0126 -4.37007,-0.3432 -6.37695,-1.0664 -3.01032,-1.08536 -4.84847,-2.86842 -5.51367,-5.34766 -0.63108,-2.4953 -0.23642,-5.7119 1.18359,-9.65039 1.42905,-3.96359 3.23541,-6.72833 5.41602,-8.29492 1.36853,-0.99481 2.94145,-1.44991 4.71875,-1.36719 z m 103.125,0.004 12.10937,22.16406 -6.34375,2.0918 -1.94922,-3.48633 -4.48242,1.47851 0.50586,3.96094 -6.04102,1.99219 -3.44726,-25.01953 z m -89.7461,4.22265 9.90625,2.25195 -1.05859,25.23243 -6.51367,-1.48047 0.12695,-3.99024 -4.60156,-1.04687 -1.60938,3.6543 -6.20312,-1.41016 z m 67.66016,2.13672 c 2.371,-0.0466 4.25736,0.58535 5.6582,1.89258 1.88916,1.7119 3.18119,4.45437 3.87891,8.23047 1.56986,8.49617 -1.00181,13.36508 -7.71485,14.60547 l -8.10156,1.49804 -4.51367,-24.42773 8.25976,-1.52539 c 0.89814,-0.16595 1.74287,-0.25791 2.53321,-0.27344 z m -51.60938,1.34766 6.73438,0.58593 3.86914,12.30079 0.32031,0.0273 1.03125,-11.875 6.09766,0.5293 -2.15039,24.74609 -6.53516,-0.56836 -4.14062,-11.96289 -0.31836,-0.0254 -1.00196,11.51562 -6.05664,-0.52539 z m 71.21289,0.86133 -0.26562,0.0879 1.45117,8.87109 2.92578,-0.96289 z m -36.70117,0.0664 5.75195,24.5918 -6.67187,0.32226 -0.94922,-3.8789 -4.71289,0.22851 -0.57031,3.95117 -6.35352,0.30665 3.35742,-25.03125 z m -47.47461,3.83789 -3.33398,8.34961 3.0039,0.68164 0.60352,-8.96875 z m 63.72852,0.084 c -0.30293,-0.007 -0.63037,0.0225 -0.98438,0.0879 l -1.18164,0.21875 2.36914,12.82226 1.29883,-0.24023 c 1.38981,-0.25678 2.19218,-0.9063 2.40625,-1.94922 0.23544,-1.07399 0.13927,-2.76466 -0.28711,-5.07227 -0.43123,-2.33383 -0.95892,-3.94414 -1.58398,-4.83203 -0.44913,-0.66952 -1.12831,-1.01495 -2.03711,-1.03515 z m -20.9336,3.67382 -0.27929,0.0156 -0.97071,8.93555 3.07618,-0.14844 z"
       transform="matrix(0.26458333,0,0,0.26458333,0,195.4)"
       id="path1429"
       inkscape:connector-curvature="0" />
    <path
       style="fill:#ff0000;fill-opacity:1;stroke:none;stroke-width:4.77519989;stroke-linecap:butt;stroke-linejoin:miter;stroke-miterlimit:4;stroke-dasharray:none;stroke-opacity:1;paint-order:markers stroke fill"
       d="m 52.387499,220.79998 c -1.555235,1.9473 -3.521784,6.86037 -3.521784,10.03537 -0.760866,0.44118 -1.721271,0.57406 -3.059328,0.19649 0.590341,3.40629 -0.367499,7.96431 2.6614,11.78017 l -0.551785,0.42383 c -2.056978,0.0735 -4.638826,-0.63636 -6.508715,-1.52047 -0.04394,1.22334 0.301486,2.5971 0.589674,3.2568 -1.477946,1.16373 -4.27831,2.34966 -7.132844,2.81257 2.057863,1.98262 6.555572,4.21985 8.759397,4.19492 -0.370593,0.91302 -0.916332,1.91164 -1.618918,2.58673 7.549773,0.86782 11.136012,2.41751 14.474125,5.75004 0.909243,-0.34255 1.906214,-0.49199 2.960026,-0.44493 0.641215,0.0287 1.303245,0.13123 1.978173,0.30282 0.401688,-1.92208 0.144817,-3.69589 -0.298172,-6.03684 -2.38125,0 -5.055121,0.0668 -7.14375,-1.5875 3.175,0 4.289954,-0.16551 6.255432,-1.14825 -0.785643,-3.59207 -5.336106,-8.59332 -6.255432,-13.933 1.929646,3.85123 3.509086,5.09659 4.7625,6.35 1.5875,-0.79375 3.175,-2.38125 3.96875,-3.96875 0,2.38125 -0.659908,4.66225 -2.247408,6.24975 3.143986,3.82269 4.440169,9.83708 3.354538,14.83328 0.631714,0.2901 1.547863,0.60692 2.085145,0.95343 1.610302,-10.16222 8.81112,-14.70212 10.958085,-19.39959 -0.667863,0.0825 -2.20612,-0.81291 -2.592251,-1.44555 0.750486,-1.05315 1.748558,-4.163 2.164227,-7.12368 -2.097982,0.58521 -5.146887,0.88641 -6.712942,0.65577 -0.341227,-0.82377 -0.989144,-2.00743 -1.945622,-2.7573 -0.802305,1.70028 -2.588753,4.67882 -3.740858,5.81097 l -0.790507,-0.0311 c -1.987778,-2.19799 -3.014827,-5.84733 -3.962592,-11.35869 -1.479283,1.1458 -1.625395,1.76976 -2.745945,2.5076 C 54.775745,225.94488 53.128193,223.02829 52.3875,220.8 Z"
       id="path823"
       inkscape:connector-curvature="0"
       sodipodi:nodetypes="ccccccccccccccccccccccccccccccccc" />
    <path
       style="fill:#ff0000;fill-opacity:1;stroke:none;stroke-width:0.26458335px;stroke-linecap:butt;stroke-linejoin:miter;stroke-opacity:1"
       d="m 26.987498,256.12186 2.38125,-1.5875 32.543751,10.31875 -2.38125,1.5875 c -32.543751,-10.31875 0,0 -32.543751,-10.31875 z"
       id="path1650"
       inkscape:connector-curvature="0"
       sodipodi:nodetypes="ccccc" />
    <path
       style="fill:#cc0000;fill-opacity:1;stroke:none;stroke-width:0.26458335px;stroke-linecap:butt;stroke-linejoin:miter;stroke-opacity:1"
       d="m 26.987498,256.12186 c 32.543751,10.31875 0,0 32.543751,10.31875 v 3.175 L 26.987498,259.29686 Z"
       id="path1650-5"
       inkscape:connector-curvature="0"
       sodipodi:nodetypes="ccccc" />
    <path
       style="opacity:1;fill:#000000;fill-opacity:1;stroke:none;stroke-width:4.74349499;stroke-linecap:round;stroke-linejoin:round;stroke-miterlimit:4;stroke-dasharray:none;stroke-opacity:1;paint-order:markers stroke fill"
       d="m 62.068177,262.82196 c 4.047693,1.26669 5.372422,3.3605 4.747139,6.04598 -0.625284,2.68547 -3.142109,3.38104 -7.279849,2.12331 -4.13774,-1.25773 -5.396765,-3.66404 -4.603015,-6.04529 0.79375,-2.38125 3.088033,-3.39069 7.135725,-2.124 z"
       id="rect1515"
       inkscape:connector-curvature="0"
       sodipodi:nodetypes="zzzzz" />
    <circle
       style="opacity:1;fill:none;fill-opacity:1;stroke:none;stroke-width:19.84375;stroke-linecap:round;stroke-linejoin:miter;stroke-miterlimit:4;stroke-dasharray:none;stroke-opacity:1;paint-order:normal"
       id="path1431"
       cx="50.799999"
       cy="246.2"
       r="39.6875" />
    <path
       style="opacity:1;fill:#ffffff;fill-opacity:0;stroke:none;stroke-width:18.41500092;stroke-linecap:round;stroke-linejoin:miter;stroke-miterlimit:4;stroke-dasharray:none;stroke-opacity:1;paint-order:normal"
       d="m 50.8,200.1625 c -25.425809,0 -46.0375,20.6117 -46.0375,46.0375 0,25.4258 20.611691,46.0375 46.0375,46.0375 25.425809,0 46.0375,-20.6117 46.0375,-46.0375 0,-25.4258 -20.611691,-46.0375 -46.0375,-46.0375 z"
       id="path1451"
       inkscape:connector-curvature="0"
       sodipodi:nodetypes="sssss" />
  </g>
</svg>
